<?xml version="1.0" encoding="UTF-8" standalone="no"?>
<!-- Generator: Adobe Illustrator 9.0, SVG Export Plug-In  -->
<!-- This set of SVG files is a complete cards game with figures, numbers	-->
<!--    and backs of cards completely designed in SVG.				-->
<!--    									-->
<!--    Copyright (C) 2004 David Bellot						-->
<!--										-->
<!--    This library is free software; you can redistribute it and/or		-->
<!--    modify it under the terms of the GNU Lesser General Public		-->
<!--    License as published by the Free Software Foundation; either		-->
<!--    version 2 of the License, or (at your option) any later version		-->
<!--										-->
<!--    This library is distributed in the hope that it will be useful,		-->
<!--    but WITHOUT ANY WARRANTY; without even the implied warranty of		-->
<!--    MERCHANTABILITY or FITNESS FOR A PARTICULAR PURPOSE.  See the GNU	-->
<!--    Lesser General Public License for more details.				-->
<!--										-->
<!--    You should have received a copy of the GNU Lesser General Public	-->
<!--    License along with this library; if not, write to the Free Software	-->
<!--    Foundation, Inc., 59 Temple Place, Suite 330, Boston, MA 02111-1307  USA-->
<!--										-->
<!--    Contact the author David Bellot at bellot@stat.berkeley.edu or 		-->
<!--    david.bellot@free.fr or yimyom@users.sourceforge.net			-->
<svg xmlns:dc="http://purl.org/dc/elements/1.1/" xmlns:cc="http://web.resource.org/cc/" xmlns:rdf="http://www.w3.org/1999/02/22-rdf-syntax-ns#" xmlns:svg="http://www.w3.org/2000/svg" xmlns="http://www.w3.org/2000/svg" xmlns:xlink="http://www.w3.org/1999/xlink" xmlns:sodipodi="http://sodipodi.sourceforge.net/DTD/sodipodi-0.dtd" xmlns:inkscape="http://www.inkscape.org/namespaces/inkscape" width="208" height="303" viewBox="0 0 167.08643 242.66748" xml:space="preserve" id="svg2" sodipodi:version="0.32" inkscape:version="0.45.1" sodipodi:docname="10_of_spades.svg" inkscape:output_extension="org.inkscape.output.svg.inkscape" sodipodi:docbase="C:\Documents and Settings\Flanker\Desktop\Temporanei\SVG\Carte" version="1.0"><metadata id="metadata90"><rdf:RDF><cc:Work rdf:about=""><dc:format>image/svg+xml</dc:format><dc:type rdf:resource="http://purl.org/dc/dcmitype/StillImage"/></cc:Work></rdf:RDF></metadata><defs id="defs88"/><sodipodi:namedview inkscape:window-height="1003" inkscape:window-width="1280" inkscape:pageshadow="2" inkscape:pageopacity="0.0" guidetolerance="10.0" gridtolerance="10.0" objecttolerance="10.0" borderopacity="1.0" bordercolor="#666666" pagecolor="#ffffff" id="base" inkscape:zoom="1.7576595" inkscape:cx="183.45199" inkscape:cy="192.98393" inkscape:window-x="336" inkscape:window-y="25" inkscape:current-layer="svg2" inkscape:showpageshadow="false" width="208px" height="303px"/>
	<path id="path5" d="M 166.83643,235.89281 C 166.83643,239.68452 163.75049,242.78371 159.96632,242.78371 L 7.1113279,242.78371 C 3.3359375,242.78371 0.25,239.68452 0.25,235.89281 L 0.25,6.7746664 C 0.25,2.9883464 3.3359375,-0.11623011 7.1113279,-0.11623011 L 159.96632,-0.11623011 C 163.75049,-0.11623011 166.83643,2.9883464 166.83643,6.7746664 L 166.83643,235.89281 L 166.83643,235.89281 z " style="fill:#ffffff;fill-rule:nonzero;stroke:#000000;stroke-width:0.5;stroke-miterlimit:4"/><g style="fill-rule:nonzero;stroke:none;stroke-miterlimit:4" id="g5885" transform="translate(-2.9317596,-0.1274412)">
			<path d="M 12.743164,25.998535 L 12.743164,24.529785 L 14.243164,24.529785 L 14.243164,9.9316406 L 12.555664,12.155273 L 12.555664,10.354492 L 14.583984,7.6235351 L 16.274414,7.6235351 L 16.274414,24.529785 L 17.805664,24.529785 L 17.805664,25.998535 L 12.743164,25.998535 L 12.743164,25.998535 z " id="path5887"/>
			<path d="M 22.730469,26.342285 C 21.651367,26.342285 20.826172,25.539063 20.253906,23.931641 C 19.681641,22.324707 19.396484,20.010742 19.396484,16.989258 C 19.396484,13.968262 19.681641,11.651856 20.253906,10.040527 C 20.826172,8.4291992 21.651367,7.6235352 22.730469,7.6235352 C 23.801758,7.6235352 24.623047,8.4291993 25.195313,10.040527 C 25.766602,11.651855 26.052735,13.968262 26.052735,16.989258 C 26.052735,20.010742 25.766602,22.324707 25.195313,23.931641 C 24.623047,25.539063 23.801758,26.342285 22.730469,26.342285 z M 22.730469,24.936035 C 23.162109,24.936035 23.458984,24.496582 23.621094,23.617676 C 23.783203,22.73877 23.865234,20.529297 23.865234,16.98877 C 23.865234,13.473145 23.783203,11.268066 23.621094,10.372559 C 23.458984,9.4775391 23.162109,9.0297852 22.730469,9.0297852 C 22.291016,9.0297852 21.990234,9.4692383 21.828125,10.348145 C 21.665039,11.227051 21.583984,13.440918 21.583984,16.98877 C 21.583984,20.529297 21.665039,22.73877 21.828125,23.617676 C 21.990234,24.496582 22.291016,24.936035 22.730469,24.936035 L 22.730469,24.936035 z " id="path5889"/>
		</g><g style="fill-rule:nonzero;stroke:none;stroke-miterlimit:4" id="g5891" transform="translate(3.2594001,0.2172862)">
			<path d="M 154.01611,216.5791 L 154.01611,218.04785 L 152.51611,218.04785 L 152.51611,232.64648 L 154.20361,230.42285 L 154.20361,232.22363 L 152.17432,234.9541 L 150.48486,234.9541 L 150.48486,218.04785 L 148.95361,218.04785 L 148.95361,216.5791 L 154.01611,216.5791 L 154.01611,216.5791 z " id="path5893"/>
			<path d="M 144.02783,216.23535 C 145.10791,216.23535 145.93408,217.03906 146.50439,218.64648 C 147.07666,220.25293 147.36182,222.56738 147.36182,225.58887 C 147.36182,228.61035 147.07666,230.92676 146.50439,232.53809 C 145.93408,234.14941 145.10791,234.9541 144.02783,234.9541 C 142.95752,234.9541 142.13525,234.14941 141.56494,232.53809 C 140.99268,230.92676 140.70557,228.61035 140.70557,225.58887 C 140.70557,222.56738 140.99268,220.25293 141.56494,218.64648 C 142.13525,217.03906 142.95752,216.23535 144.02783,216.23535 z M 144.02783,217.6416 C 143.59814,217.6416 143.30127,218.08105 143.13721,218.95996 C 142.9751,219.83887 142.89307,222.04883 142.89307,225.58887 C 142.89307,229.10449 142.9751,231.30957 143.13721,232.20605 C 143.30127,233.10059 143.59814,233.54785 144.02783,233.54785 C 144.46729,233.54785 144.76807,233.1084 144.93213,232.22949 C 145.09424,231.35059 145.17432,229.1377 145.17432,225.58887 C 145.17432,222.04883 145.09424,219.83887 144.93213,218.95996 C 144.76807,218.08105 144.46729,217.6416 144.02783,217.6416 z " id="path5895"/>
		</g>
<path style="fill-rule:nonzero;stroke:none;stroke-miterlimit:4" d="M 47.737651,12.940642 C 44.553071,18.672092 33.700461,23.922822 33.679891,31.165512 C 33.670181,34.585422 36.825961,37.340882 40.708771,37.340882 C 43.182281,37.340882 45.380211,36.230792 46.633111,34.529332 C 46.109681,39.453702 44.705721,44.957192 39.579131,46.001462 L 47.737651,46.001462 L 55.896161,46.001462 C 50.769581,44.957192 49.365611,39.453702 48.842181,34.529332 C 50.095091,36.230792 52.293011,37.340882 54.766521,37.340882 C 58.649341,37.340882 61.805111,34.585422 61.795401,31.165512 C 61.774831,23.922822 50.922221,18.672092 47.737651,12.940642 z " id="path2254" sodipodi:nodetypes="csscccccssc"/><path id="path2273" d="M 16.37244,29.321959 C 15.4152,31.044753 12.15598,32.623058 12.14687,34.800104 C 12.14687,35.828088 13.09254,36.656335 14.25966,36.656335 C 15.00316,36.656335 15.66383,36.322657 16.04043,35.811222 C 15.8831,37.291419 15.46108,38.945692 13.9201,39.259585 L 16.37244,39.259585 L 18.82478,39.259585 C 17.2838,38.945692 16.86178,37.291419 16.70445,35.811222 C 17.08105,36.322657 17.74172,36.656335 18.48522,36.656335 C 19.65234,36.656335 20.59801,35.828088 20.59801,34.800104 C 20.5889,32.623058 17.32968,31.044753 16.37244,29.321959 z " style="fill-rule:nonzero;stroke:none;stroke-miterlimit:4"/><use x="0" y="0" xlink:href="#path2273" id="use2277" transform="matrix(1,0,0,-1,134.34155,242.36206)" width="167.08643" height="242.66748"/><use x="0" y="0" xlink:href="#path2254" id="use2207" transform="matrix(1,0,0,-1,70.670399,242.64527)" width="167.08643" height="242.66748"/><use x="0" y="0" xlink:href="#path2254" id="use2211" transform="matrix(1,0,0,-1,-9.9996478e-7,242.64527)" width="167.08643" height="242.66748"/><use x="0" y="0" xlink:href="#path2254" id="use2213" transform="matrix(1,0,0,-1,35.805569,212.02807)" width="167.08643" height="242.66748"/><use x="0" y="0" xlink:href="#path2254" id="use2215" transform="matrix(1,0,0,-1,69.468299,181.41088)" width="167.08643" height="242.66748"/><use x="0" y="0" xlink:href="#path2254" id="use2217" transform="matrix(1,0,0,-1,-9.9996478e-7,181.41088)" width="167.08643" height="242.66748"/><use x="0" y="0" xlink:href="#path2254" id="use2219" transform="translate(70.670399,61.234387)" width="167.08643" height="242.66748"/><use x="0" y="0" xlink:href="#path2254" id="use2221" transform="translate(-9.9996478e-7,61.23439)" width="167.08643" height="242.66748"/><use x="0" y="0" xlink:href="#path2254" id="use2223" transform="translate(35.805569,30.617194)" width="167.08643" height="242.66748"/><use x="0" y="0" xlink:href="#path2254" id="use2225" transform="translate(70.670399,-2e-6)" width="167.08643" height="242.66748"/></svg>