<?xml version="1.0" encoding="UTF-8" standalone="no"?>
<!-- Generator: Adobe Illustrator 9.0, SVG Export Plug-In  -->
<!-- This set of SVG files is a complete cards game with figures, numbers	-->
<!--    and backs of cards completely designed in SVG.				-->
<!--    									-->
<!--    Copyright (C) 2004 David Bellot						-->
<!--										-->
<!--    This library is free software; you can redistribute it and/or		-->
<!--    modify it under the terms of the GNU Lesser General Public		-->
<!--    License as published by the Free Software Foundation; either		-->
<!--    version 2 of the License, or (at your option) any later version		-->
<!--										-->
<!--    This library is distributed in the hope that it will be useful,		-->
<!--    but WITHOUT ANY WARRANTY; without even the implied warranty of		-->
<!--    MERCHANTABILITY or FITNESS FOR A PARTICULAR PURPOSE.  See the GNU	-->
<!--    Lesser General Public License for more details.				-->
<!--										-->
<!--    You should have received a copy of the GNU Lesser General Public	-->
<!--    License along with this library; if not, write to the Free Software	-->
<!--    Foundation, Inc., 59 Temple Place, Suite 330, Boston, MA 02111-1307  USA-->
<!--										-->
<!--    Contact the author David Bellot at bellot@stat.berkeley.edu or 		-->
<!--    david.bellot@free.fr or yimyom@users.sourceforge.net			-->
<svg xmlns:dc="http://purl.org/dc/elements/1.1/" xmlns:cc="http://web.resource.org/cc/" xmlns:rdf="http://www.w3.org/1999/02/22-rdf-syntax-ns#" xmlns:svg="http://www.w3.org/2000/svg" xmlns="http://www.w3.org/2000/svg" xmlns:xlink="http://www.w3.org/1999/xlink" xmlns:sodipodi="http://sodipodi.sourceforge.net/DTD/sodipodi-0.dtd" xmlns:inkscape="http://www.inkscape.org/namespaces/inkscape" width="208" height="303" viewBox="0 0 167.08643 242.66748" xml:space="preserve" id="svg2" sodipodi:version="0.32" inkscape:version="0.45.1" sodipodi:docname="10_of_clubs.svg" inkscape:output_extension="org.inkscape.output.svg.inkscape" sodipodi:docbase="C:\Documents and Settings\Flanker\Desktop" version="1.0"><metadata id="metadata90"><rdf:RDF><cc:Work rdf:about=""><dc:format>image/svg+xml</dc:format><dc:type rdf:resource="http://purl.org/dc/dcmitype/StillImage"/></cc:Work></rdf:RDF></metadata><defs id="defs88"/><sodipodi:namedview inkscape:window-height="1003" inkscape:window-width="1280" inkscape:pageshadow="2" inkscape:pageopacity="0.0" guidetolerance="10.0" gridtolerance="10.0" objecttolerance="10.0" borderopacity="1.0" bordercolor="#666666" pagecolor="#ffffff" id="base" inkscape:zoom="1.7576595" inkscape:cx="119.88521" inkscape:cy="123.84242" inkscape:window-x="-4" inkscape:window-y="-4" inkscape:current-layer="svg2" inkscape:showpageshadow="false" width="208px" height="303px"/>
	<path id="path5" d="M 166.83643,235.89281 C 166.83643,239.68452 163.75049,242.78371 159.96632,242.78371 L 7.1113279,242.78371 C 3.3359375,242.78371 0.25,239.68452 0.25,235.89281 L 0.25,6.7746664 C 0.25,2.9883464 3.3359375,-0.11623011 7.1113279,-0.11623011 L 159.96632,-0.11623011 C 163.75049,-0.11623011 166.83643,2.9883464 166.83643,6.7746664 L 166.83643,235.89281 L 166.83643,235.89281 z " style="fill:#ffffff;fill-rule:nonzero;stroke:#000000;stroke-width:0.5;stroke-miterlimit:4"/><g style="fill-rule:nonzero;stroke:none;stroke-miterlimit:4" id="g5885" transform="translate(-2.9317596,-0.1274412)">
			<path d="M 12.743164,25.998535 L 12.743164,24.529785 L 14.243164,24.529785 L 14.243164,9.9316406 L 12.555664,12.155273 L 12.555664,10.354492 L 14.583984,7.6235351 L 16.274414,7.6235351 L 16.274414,24.529785 L 17.805664,24.529785 L 17.805664,25.998535 L 12.743164,25.998535 L 12.743164,25.998535 z " id="path5887"/>
			<path d="M 22.730469,26.342285 C 21.651367,26.342285 20.826172,25.539063 20.253906,23.931641 C 19.681641,22.324707 19.396484,20.010742 19.396484,16.989258 C 19.396484,13.968262 19.681641,11.651856 20.253906,10.040527 C 20.826172,8.4291992 21.651367,7.6235352 22.730469,7.6235352 C 23.801758,7.6235352 24.623047,8.4291993 25.195313,10.040527 C 25.766602,11.651855 26.052735,13.968262 26.052735,16.989258 C 26.052735,20.010742 25.766602,22.324707 25.195313,23.931641 C 24.623047,25.539063 23.801758,26.342285 22.730469,26.342285 z M 22.730469,24.936035 C 23.162109,24.936035 23.458984,24.496582 23.621094,23.617676 C 23.783203,22.73877 23.865234,20.529297 23.865234,16.98877 C 23.865234,13.473145 23.783203,11.268066 23.621094,10.372559 C 23.458984,9.4775391 23.162109,9.0297852 22.730469,9.0297852 C 22.291016,9.0297852 21.990234,9.4692383 21.828125,10.348145 C 21.665039,11.227051 21.583984,13.440918 21.583984,16.98877 C 21.583984,20.529297 21.665039,22.73877 21.828125,23.617676 C 21.990234,24.496582 22.291016,24.936035 22.730469,24.936035 L 22.730469,24.936035 z " id="path5889"/>
		</g><g style="fill-rule:nonzero;stroke:none;stroke-miterlimit:4" id="g5891" transform="translate(3.2594001,0.2172862)">
			<path d="M 154.01611,216.5791 L 154.01611,218.04785 L 152.51611,218.04785 L 152.51611,232.64648 L 154.20361,230.42285 L 154.20361,232.22363 L 152.17432,234.9541 L 150.48486,234.9541 L 150.48486,218.04785 L 148.95361,218.04785 L 148.95361,216.5791 L 154.01611,216.5791 L 154.01611,216.5791 z " id="path5893"/>
			<path d="M 144.02783,216.23535 C 145.10791,216.23535 145.93408,217.03906 146.50439,218.64648 C 147.07666,220.25293 147.36182,222.56738 147.36182,225.58887 C 147.36182,228.61035 147.07666,230.92676 146.50439,232.53809 C 145.93408,234.14941 145.10791,234.9541 144.02783,234.9541 C 142.95752,234.9541 142.13525,234.14941 141.56494,232.53809 C 140.99268,230.92676 140.70557,228.61035 140.70557,225.58887 C 140.70557,222.56738 140.99268,220.25293 141.56494,218.64648 C 142.13525,217.03906 142.95752,216.23535 144.02783,216.23535 z M 144.02783,217.6416 C 143.59814,217.6416 143.30127,218.08105 143.13721,218.95996 C 142.9751,219.83887 142.89307,222.04883 142.89307,225.58887 C 142.89307,229.10449 142.9751,231.30957 143.13721,232.20605 C 143.30127,233.10059 143.59814,233.54785 144.02783,233.54785 C 144.46729,233.54785 144.76807,233.1084 144.93213,232.22949 C 145.09424,231.35059 145.17432,229.1377 145.17432,225.58887 C 145.17432,222.04883 145.09424,219.83887 144.93213,218.95996 C 144.76807,218.08105 144.46729,217.6416 144.02783,217.6416 z " id="path5895"/>
		</g><path style="fill:#000000;fill-opacity:1;stroke:none;stroke-width:1.5;stroke-linecap:round;stroke-linejoin:round;stroke-miterlimit:4;stroke-opacity:1" d="M 150.73654,213.0401 C 151.87847,213.0401 152.80375,212.11482 152.80375,210.97289 C 152.80375,210.3835 152.55321,209.8539 152.15728,209.47699 C 151.85132,209.18573 151.41544,208.52555 151.27026,207.99612 C 151.55345,208.16678 151.80854,208.36129 151.96183,208.52232 C 152.33875,208.91825 152.86835,209.16127 153.45774,209.16127 C 154.59967,209.16127 155.52494,208.23599 155.52494,207.09406 C 155.52494,205.95214 154.59966,205.02686 153.45774,205.02686 C 152.86835,205.02686 152.33875,205.27739 151.96183,205.67333 C 151.8002,205.84312 151.52696,206.05796 151.22515,206.23711 C 151.26749,204.34125 151.91814,203.10248 153.10443,203.10248 C 153.10443,203.10248 148.36113,203.10248 148.36113,203.10248 C 149.55058,203.10248 150.20877,204.34774 150.24793,206.25215 C 149.92976,206.06953 149.634,205.84966 149.46615,205.67333 C 149.08924,205.27739 148.55963,205.02686 147.97024,205.02686 C 146.82833,205.02686 145.90304,205.95214 145.90304,207.09406 C 145.90304,208.23599 146.82833,209.16127 147.97024,209.16127 C 148.55962,209.16127 149.08924,208.91825 149.46615,208.52232 C 149.62576,208.35465 149.90297,208.15581 150.20283,207.98108 C 150.06219,208.51312 149.6173,209.18282 149.30829,209.47699 C 148.91236,209.8539 148.66933,210.38351 148.66933,210.97289 C 148.66933,212.11482 149.59461,213.0401 150.73654,213.0401 z " id="use2374" sodipodi:nodetypes="csscsssssccccssssscssc"/><path style="fill:#000000;fill-opacity:1;stroke:none;stroke-width:1.5;stroke-linecap:round;stroke-linejoin:round;stroke-miterlimit:4;stroke-opacity:1" d="M 16.349889,29.321959 C 15.207961,29.321959 14.282681,30.247238 14.282682,31.389166 C 14.282682,31.978555 14.53322,32.508157 14.929154,32.885071 C 15.235114,33.176333 15.670993,33.836507 15.816173,34.365943 C 15.532982,34.195277 15.277893,34.000774 15.124599,33.839745 C 14.747684,33.44381 14.218081,33.20079 13.628693,33.20079 C 12.486765,33.20079 11.561486,34.126069 11.561486,35.267997 C 11.561486,36.409925 12.486765,37.335203 13.628693,37.335203 C 14.218083,37.335203 14.747685,37.084667 15.124599,36.688732 C 15.286233,36.518938 15.559471,36.304096 15.861276,36.124948 C 15.818942,38.020809 15.168287,39.259585 13.981997,39.259585 C 13.981997,39.259585 18.725297,39.259585 18.725297,39.259585 C 17.535846,39.259585 16.87766,38.014321 16.838501,36.109914 C 17.156674,36.292535 17.452427,36.512404 17.620281,36.688732 C 17.99719,37.084667 18.526804,37.335203 19.116187,37.335203 C 20.258103,37.335203 21.183394,36.409925 21.183394,35.267997 C 21.183394,34.126069 20.258103,33.20079 19.116187,33.20079 C 18.526807,33.20079 17.99719,33.44381 17.620281,33.839745 C 17.46067,34.00741 17.183459,34.206246 16.883604,34.380977 C 17.024245,33.848937 17.469128,33.179243 17.77814,32.885071 C 18.174075,32.508157 18.417095,31.978552 18.417095,31.389166 C 18.417095,30.247238 17.491817,29.321959 16.349889,29.321959 z " id="use2370" sodipodi:nodetypes="csscsssssccccssssscssc"/>
<use x="0" y="0" xlink:href="#path2242" id="use2597" transform="matrix(1,0,0,-1,0,242.64527)" width="167.08643" height="242.66748"/><path style="fill:#000000;fill-opacity:1;stroke:none;stroke-width:1.5;stroke-linecap:round;stroke-linejoin:round;stroke-miterlimit:4;stroke-opacity:1" d="M 47.662646,12.946052 C 43.864886,12.946052 40.787645,16.023292 40.787647,19.821052 C 40.787647,21.781212 41.620871,23.542532 42.937646,24.796052 C 43.95519,25.764712 45.404814,27.960282 45.887646,29.721052 C 44.945822,29.153462 44.097462,28.506592 43.587646,27.971052 C 42.334125,26.654272 40.572798,25.846052 38.612646,25.846052 C 34.814885,25.846052 31.737646,28.923292 31.737646,32.721052 C 31.737646,36.518812 34.814887,39.596052 38.612646,39.596052 C 40.572806,39.596052 42.334126,38.762832 43.587646,37.446052 C 44.125198,36.881362 45.033918,36.166852 46.037646,35.571052 C 45.896854,41.876202 43.732942,45.996052 39.787647,45.996052 C 39.787647,45.996052 55.562646,45.996052 55.562646,45.996052 C 51.606838,45.996052 49.417878,41.854622 49.287646,35.521052 C 50.345806,36.128402 51.329406,36.859632 51.887646,37.446052 C 53.14115,38.762832 54.90251,39.596052 56.862646,39.596052 C 60.660366,39.596052 63.737646,36.518812 63.737646,32.721052 C 63.737646,28.923292 60.660366,25.846052 56.862646,25.846052 C 54.902518,25.846052 53.14115,26.654272 51.887646,27.971052 C 51.356822,28.528662 50.434886,29.189942 49.437646,29.771052 C 49.905382,28.001622 51.38495,25.774392 52.412646,24.796052 C 53.729422,23.542532 54.537646,21.781202 54.537646,19.821052 C 54.537646,16.023292 51.460406,12.946052 47.662646,12.946052 z " id="path2242" sodipodi:nodetypes="csscsssssccccssssscssc"/><use x="0" y="0" xlink:href="#path2242" id="use3293" transform="translate(0,61.23439)" width="167.08643" height="242.66748"/><path sodipodi:nodetypes="csscsssssccccssssscssc" id="path2841" d="M 118.33305,12.946053 C 114.53529,12.946053 111.45805,16.023293 111.45805,19.821053 C 111.45805,21.781213 112.29128,23.542529 113.60805,24.796049 C 114.6256,25.764709 116.07522,27.960279 116.55805,29.721049 C 115.61623,29.153459 114.76787,28.506589 114.25805,27.971049 C 113.00453,26.654269 111.2432,25.846049 109.28305,25.846049 C 105.48529,25.846049 102.40805,28.923289 102.40805,32.721049 C 102.40805,36.518809 105.48529,39.596049 109.28305,39.596049 C 111.24321,39.596049 113.00453,38.762829 114.25805,37.446049 C 114.7956,36.881359 115.70432,36.166849 116.70805,35.571049 C 116.56726,41.876199 114.40335,45.996049 110.45805,45.996049 C 110.45805,45.996049 126.23305,45.996049 126.23305,45.996049 C 122.27724,45.996049 120.08828,41.854619 119.95805,35.521049 C 121.01621,36.128399 121.99981,36.859629 122.55805,37.446049 C 123.81156,38.762829 125.57292,39.596049 127.53305,39.596049 C 131.33077,39.596049 134.40805,36.518809 134.40805,32.721049 C 134.40805,28.923289 131.33077,25.846049 127.53305,25.846049 C 125.57292,25.846049 123.81156,26.654269 122.55805,27.971049 C 122.02723,28.528659 121.10529,29.189939 120.10805,29.771049 C 120.57579,28.001619 122.05536,25.774389 123.08305,24.796049 C 124.39983,23.542529 125.20805,21.781203 125.20805,19.821053 C 125.20805,16.023293 122.13081,12.946053 118.33305,12.946053 z " style="fill:#000000;fill-opacity:1;stroke:none;stroke-width:1.5;stroke-linecap:round;stroke-linejoin:round;stroke-miterlimit:4;stroke-opacity:1"/><use height="242.66748" width="167.08643" transform="translate(70.670404,61.234387)" id="use4073" xlink:href="#path2242" y="0" x="0"/><g id="g6118"><use height="242.66748" width="167.08643" transform="matrix(1,0,0,-1,0,242.64527)" id="use3214" xlink:href="#path2841" y="0" x="0"/><use height="242.66748" width="167.08643" transform="matrix(1,0,0,-1,69.468301,181.41088)" id="use5481" xlink:href="#path2242" y="0" x="0"/></g><use x="0" y="0" xlink:href="#use5481" id="use5483" transform="translate(-69.468301,1.9419742e-6)" width="167.08643" height="242.66748"/><use x="0" y="0" xlink:href="#path2242" id="use5485" transform="translate(35.805569,30.617194)" width="167.08643" height="242.66748"/><use x="0" y="0" xlink:href="#path2242" id="use6114" transform="matrix(1,0,0,-1,35.805569,212.02807)" width="167.08643" height="242.66748"/></svg>