<?xml version="1.0" encoding="UTF-8" standalone="no"?>
<!DOCTYPE svg PUBLIC "-//W3C//DTD SVG 1.1//EN" "http://www.w3.org/Graphics/SVG/1.1/DTD/svg11.dtd">
<svg xmlns="http://www.w3.org/2000/svg" width="167.09" height="242.67" viewBox="0 0 167.09 242.67">
  <path fill="#fff" stroke="#000" stroke-width=".5" d="M166.84 235.55a6.89 6.89 0 0 1-6.87 6.87H7.11a6.89 6.89 0 0 1-6.86-6.87V7.12A6.89 6.89 0 0 1 7.11.25H160a6.89 6.89 0 0 1 6.87 6.87z"/>
  <path fill="#fff" stroke="#000" stroke-linejoin="round" stroke-width="1.5" d="M159.82 237.74H7.35V4.52h152.47z"/>
  <path d="M51.54 177.67l-5.63-3.61 70.36-109.6 5.63 3.61z"/>
  <path fill="#fff" d="M79.09 129.78a2 2 0 1 1-2.85.6 2.07 2.07 0 0 1 2.85-.6z"/>
  <path d="M78.34 131a.64.64 0 0 1 .19.89.64.64 0 1 1-.19-.89z"/>
  <path fill="#fff" d="M81.91 125.22a2 2 0 1 1-2.85.6 2.06 2.06 0 0 1 2.85-.6z"/>
  <path d="M81.17 126.38a.66.66 0 0 1 .18.9.64.64 0 0 1-.89.21.65.65 0 0 1-.19-.9.66.66 0 0 1 .9-.21z"/>
  <path fill="#fff" d="M85 120.15a2 2 0 1 1-2.84.59 2 2 0 0 1 2.84-.59z"/>
  <path d="M84.26 121.31a.66.66 0 0 1-.71 1.11.66.66 0 0 1 .71-1.11z"/>
  <path fill="#fff" d="M88.16 115.14a2 2 0 1 1-2.85.59 2.06 2.06 0 0 1 2.85-.59z"/>
  <path d="M87.42 116.3a.65.65 0 0 1 .18.9.64.64 0 0 1-.89.21.65.65 0 0 1-.19-.9.66.66 0 0 1 .9-.21z"/>
  <path fill="#fff" d="M91.39 110.21a2 2 0 1 1-2.2 3.43 2 2 0 1 1 2.2-3.43z"/>
  <path d="M90.65 111.37a.64.64 0 0 1 .18.9.65.65 0 0 1-.89.21.66.66 0 0 1 .71-1.11z"/>
  <path fill="#fff" d="M94.5 105.14a2 2 0 1 1-2.85.6 2.06 2.06 0 0 1 2.85-.6z"/>
  <path d="M93.75 106.31a.65.65 0 0 1-.71 1.1.65.65 0 0 1 .71-1.1z"/>
  <path fill="#fff" d="M97.83 100.1a2 2 0 1 1-2.85.6 2.07 2.07 0 0 1 2.85-.6z"/>
  <path d="M97.08 101.27a.65.65 0 0 1-.71 1.1.65.65 0 0 1 .71-1.1z"/>
  <path fill="#fff" d="M100.93 95.21a2 2 0 1 1-2.85.59 2 2 0 0 1 2.85-.59z"/>
  <path d="M100.19 96.37a.66.66 0 0 1 .18.9.64.64 0 1 1-.18-.9z"/>
  <path fill="#fff" d="M104.41 89.89a2 2 0 1 1-2.85.6 2.06 2.06 0 0 1 2.85-.6z"/>
  <path d="M103.66 91.06a.65.65 0 0 1-.71 1.1.63.63 0 0 1-.18-.89.64.64 0 0 1 .89-.21z"/>
  <path fill="#fff" d="M107.4 85.28a2 2 0 1 1-2.85.59 2.06 2.06 0 0 1 2.85-.59z"/>
  <path d="M106.65 86.44a.65.65 0 0 1 .19.9.66.66 0 0 1-.9.21.66.66 0 0 1-.18-.9.64.64 0 0 1 .89-.21z"/>
  <path fill="#fff" d="M110.88 79.76a2 2 0 1 1-2.85.59 2.07 2.07 0 0 1 2.85-.59z"/>
  <path d="M110.13 80.92a.65.65 0 0 1 .19.9.66.66 0 0 1-.9.21.65.65 0 0 1-.18-.9.64.64 0 0 1 .89-.21z"/>
  <path fill="#fff" d="M114.09 74.81a2 2 0 1 1-2.2 3.43 2 2 0 1 1 2.2-3.43z"/>
  <path d="M113.35 76a.66.66 0 1 1-.9.21.65.65 0 0 1 .9-.21z"/>
  <path fill="#fff" d="M117.43 70a2 2 0 1 1-2.2 3.43 2 2 0 1 1 2.2-3.43z"/>
  <path d="M116.69 71.15a.65.65 0 0 1-.71 1.1.64.64 0 0 1-.19-.89.65.65 0 0 1 .9-.21z"/>
  <path fill="#fff" d="M53.54 169.71a2 2 0 1 1-2.85.6 2.06 2.06 0 0 1 2.85-.6z"/>
  <path d="M52.8 170.87a.66.66 0 0 1 .18.9.64.64 0 0 1-.89.21.65.65 0 0 1-.19-.9.66.66 0 0 1 .9-.21z"/>
  <path fill="#fff" d="M63.15 155.14a2 2 0 1 1-2.85.6 2.06 2.06 0 0 1 2.85-.6z"/>
  <path d="M62.41 156.3a.65.65 0 0 1 .18.9.64.64 0 0 1-.89.21.65.65 0 0 1-.19-.9.66.66 0 0 1 .9-.21z"/>
  <path fill="#fff" d="M56.57 164.91a2 2 0 1 1-2.2 3.43 2 2 0 1 1 2.2-3.43z"/>
  <path d="M55.82 166.08a.64.64 0 0 1 .18.92.64.64 0 1 1-1.08-.69.65.65 0 0 1 .9-.23z"/>
  <path fill="#fff" d="M59.78 160.13a2 2 0 1 1-2.2 3.43 2 2 0 1 1 2.2-3.43z"/>
  <path d="M59 161.29a.66.66 0 1 1-.9.21.65.65 0 0 1 .9-.21z"/>
  <path fill="#fff" d="M69.35 145.07a2 2 0 1 1-2.85.6 2.06 2.06 0 0 1 2.85-.6z"/>
  <path d="M68.61 146.24a.66.66 0 0 1 .18.9.65.65 0 0 1-.89.2.64.64 0 0 1-.19-.89.65.65 0 0 1 .9-.21z"/>
  <path fill="#fff" d="M66.17 149.85a2 2 0 1 1-2.85.6 2.06 2.06 0 0 1 2.85-.6z"/>
  <path d="M65.43 151a.65.65 0 0 1-.71 1.1.64.64 0 0 1-.19-.89.65.65 0 0 1 .9-.21z"/>
  <path fill="#fff" d="M72.23 139.86a2 2 0 1 1-2.85.6 2.07 2.07 0 0 1 2.85-.6z"/>
  <path d="M71.48 141a.65.65 0 0 1-.71 1.1.65.65 0 0 1 .71-1.1z"/>
  <path fill="#fff" d="M75.66 134.86a2 2 0 1 1-2.84.59 2 2 0 0 1 2.84-.59z"/>
  <path d="M74.92 136a.64.64 0 0 1 .18.9.64.64 0 1 1-1.07-.69.64.64 0 0 1 .89-.21z"/>
  <path fill="#e61408" d="M41.41 165.45l9 1.91-1.22 2-2.19 3.45-.64.47-2.15-2.84-2.18-3.25"/>
  <path fill="#f8c20f" d="M53.18 163.39l-2 3-1.15 1.13-5.68-1.23-8.91-2.69-5.26-2.81-.67-1.36 1.52-1.11 1-2.16 5.14.07 13.48 5.18"/>
  <path fill="#f8c20f" d="M39.21 141.86l-1.85 3-4.82 10.1 2.46 1.46 15.15 5.52 3.58.15.66-.81 5.5-8.7-6.72-3"/>
  <path fill="#f8c20f" d="M59.4 152.59l-19.4.17-.12-13 19.38-.16z"/>
  <path fill="#f8c20f" d="M61.84 149.5l-2 3.08-1.15-.32v-5.66l2 .91"/>
  <path fill="#1c1585" d="M9.32 121H8l-.17-19.37h1.33z"/>
  <path fill="#1c1585" d="M24.94 133.41l-15.8.14L8.82 97l15.8-.13z"/>
  <path fill="#1c1585" d="M42.37 103.78l-21.46.22-.19-22.4 21.46-.19z"/>
  <path fill="#1c1585" d="M13.31 89l6.94-4.23h1.92L22.91 99 8.67 97.94 10 92.6m-1.93 9.74H9.7v-3.1H8zm2.37 27.32H8.12L8 121.29h2.33zm-1.68 3.17l2.64 11.62 1.16 2.08.48-1.24 1.13-7.1 1.23-5.56"/>
  <path fill="#f8c20f" d="M92 101.24l-20.91.19-.26-29 20.92-.18z"/>
  <path fill="#e61408" d="M66.06 47.21l3.37 2.69 4.79 4.42 2.08 2.26 2.14 1 2.47-.33h4.74l.85 4.39-9.69.05-5.5-5.31-4.25-4L62 47.56"/>
  <path fill="#e61408" d="M84.84 57.13l3.27-.05 1.22-1.14 2.17-5 2.4.08 1.37.93-1.55 2.36-2.24 4.13L90 60.93l-3.17.34-2.42-.41"/>
  <path fill="#f8c20f" d="M90.26 74.94l-15.39.13-.12-13.91L90.14 61z"/>
  <path fill="#1c1585" d="M60.4 63.47l14.08 12.38H87.9l-1.67-3.11-2.46-2.44L79 64.77l-5.76-6.26"/>
  <path fill="#f8c20f" d="M93.5 100.14l1.39-2.39-3.23-4.45-1 3.78.66 3.39"/>
  <path fill="#1c1585" d="M87.12 74.33L93.8 84l4.82 8.12-3.19 5L90.28 92 79.11 80.25l-5.34-5.19m21.31-23.6l2.47-.13 8 2 3.14 1.67 2.24 2.35-14 13-5.04 10.52-2.59-3.43-3.3-4.83 2.91-8.7 3.54-7.58M51.7 116.22L44 131.46l.66 1.07 15.6.18 3.65-16.41 1.68-8.88-10 .85"/>
  <path fill="#1c1585" d="M44.13 131.83l-2.76 6.28.9 4.59 3.27 3.74 4.56.91 6.36-1.75 2.71-2.43 1.19-11.5"/>
  <path fill="#e61408" d="M75.89 121.87l.17 5.68-12 18.37-1.84 2.64-1.5-.4-2.23-4.69-.44-4.77 4.2-14.34 3.34-17.08"/>
  <path fill="#e61408" d="M65.4 107l10.23-.45.09 15.9-13.25.16M89.91 5L90 17.17l7.76-.17 2.64-3.6 2.08-3.44-.88-.77L98.74 8 95.6 6.4l-2.74-.85"/>
  <path fill="#e61408" d="M51.8 21l4.2-3.54 4.53-3.94 3.69-3.69 1.52-1.16 1.47-.4 2.91-.15 6.27-1.07 8.24-1.4 5.73-.41v12l-8.28 1.4-5.39 1.09-3.63 1.07-3.5 1.53-4.22 1.87-4.66 3.07-3.2-2.22L54.73 23l-1.57-.95-1.65-.19M21.94 74.57l-1.71 2.85-.8 3.88-.1 3.49 2.31-.39 1.59-.76-.52-8.75"/>
  <path fill="#e61408" d="M30.81 65.5l9.66 3.27-7.06 13.9-3.41-.25-2.7-.12-5.15 1.91-.22-9.46 3.83-4.49"/>
  <path fill="#e61408" d="M41.8 54.26l4.63-.06 2.28 1.9L39.94 69l-9-3.12 2.89-4.35L36 58l2.89-2.48m59.92 36.36L111 72.73l-3.7-6.29-.1-7.3-2.89 1.59-3.54 3.87-4.52 6.66-2.15 4.85-1.5 3-1.15.49m-21.38-5.5l1.78.73.8 5.57 1.48 9 1.41 12.37-4.79.16"/>
  <path fill="#e61408" d="M72 92.43l-29.48.26-.3-35.14 29.48-.26z"/>
  <path fill="#e61408" d="M73.45 96.9l-16.75.15-.07-8 16.75-.15z"/>
  <path fill="#e61408" d="M74.2 102.08l-13.91.13-.07-7.31 13.92-.13z"/>
  <path fill="#f8c20f" d="M48.31 55.46l8.51 5.47-1 2.75-2.77 8.17-3.71 9.23-4.21 8.74-2.61-1.59L40 86.67 32.68 83l1.41-3.52 3.91-7.4 4.81-7.94 4.47-6.5m-32.04 75.08l-.91 4.88-1.7 8.6.26 2.11 3.13 7 2.25 3.37 2.29 2.63 2.08 1.32v-3.58l.11-6.94 2.42-13 1.53-6.33"/>
  <path fill="#f8c20f" d="M21.91 109.42l-3 9-4 15.36 11.48.07 2.08-7.74 2.4-6.84 4.49-9.79"/>
  <path fill="#f8c20f" d="M45 89.67l-3-.12-4.37 1.72-6 3.66-4.2 3.89-2.22 3.31-3.47 7.87 13.55.07"/>
  <path fill="#f8c20f" d="M42.55 108.15l-1.15-2 1.22-1.5 2.26-1.9 1.86-1 2.22.11 1.28-9.75-8.47-.11-7.57 3.75-3.87 4-2.42 3 13 6.25m48.85-2.84L76.1 127.41l-.46-1-.1-19.78M107.21 59v7.17l4 6.29 3-4.7 1.35-2.37.15-1L114 62l-2.93-4"/>
  <path fill="#1c1585" d="M62.14 47.51l8.21 8.1 3.18 3.23-1.47 14-5.37-4-10.83-8.33L46.53 54l3.78-2 4-2.32 3.49.33 1.86-2.74"/>
  <path d="M50.7 21.9a9 9 0 0 1 3 .72 20.05 20.05 0 0 1 2.84 2c.85.73 1.69 1.52 2.49 2.3.24.23 1 .84 1 1.16.08.59.14 1.18.26 1.76a8.19 8.19 0 0 0 1.24 3.2c.54.78 1.53 1.68 1.55 2.66s.14.94-.66 1.29c-.56.24-1-.22-1.34-.65s-.59-.88-1-.93c-.67-.07-1 .69-1.26 1.14a2.58 2.58 0 0 0-.44 1.52c0 .49.15 1.19-.14 1.65s-.93.56-1.29.87A3.55 3.55 0 0 0 55.73 42c-.43 1-.46 2.31-1.75 2.4-1 .06-2.34.49-2.32 1.76a3.35 3.35 0 0 1 2.63.23 5.18 5.18 0 0 0 2.88.72c-.64 1.14-1.52.57-2.55.55a6.87 6.87 0 0 0-1.68.23c-.55.11-.94.71-1.34 1.11a13.15 13.15 0 0 0-.79 1.16c-.36.44-.84.77-1.2 1.21A7.36 7.36 0 0 1 47 53.13c-2 .95-4.22.31-6.31 1.11a13 13 0 0 0-5.43 4 12.73 12.73 0 0 0-1.7 2.76 9.79 9.79 0 0 1-1.65 2.9c-1.64 1.59-3.22 3.16-4.95 4.66-3.26 2.81-6.55 6.44-7.56 10.71a14.37 14.37 0 0 0-.4 3.26 4 4 0 0 1-1.11 2.88 12.78 12.78 0 0 1-2.67 1.71 20.2 20.2 0 0 0-2.62 1.79 10.93 10.93 0 0 0-3.62 5.58 21.37 21.37 0 0 0-.87 3.13c-.17 1-.1 2.08-.25 3.11a40.43 40.43 0 0 0-.13 6l.06 6.83c0 2.8 0 5.61.07 8.41a46.9 46.9 0 0 0 0 5.81c.16 1.08.09 2.3.31 3.35a26.66 26.66 0 0 1 .68 3.14 41.05 41.05 0 0 0 1.15 6.55c.29 1.12.56 2.23.88 3.34a28.44 28.44 0 0 0 1.33 2.78c.38.91.49 1.94.86 2.86.47 1.17 1 2.33 1.48 3.49a26.6 26.6 0 0 0 3.45 5.56c.68.87 1.35 1.73 2.1 2.54a12.23 12.23 0 0 0 2.71 1.9 7.74 7.74 0 0 0 6.29 1.09c1.09-.29 2.06-.82 3.12-1.15s2 .16 3 .51c1.38.45 2.74.94 4.12 1.4s2 1.55 2.71 2.72 1.44 2.25 2.24 3.32c.68.92 1 2.3 1.94 3 .88-1.38 1.74-2.77 2.62-4.15a33.48 33.48 0 0 0 2.55-4.15c-2.08.16-4.36-1.13-6.32-1.67a64.57 64.57 0 0 1-6.21-2.07c-1-.4-2-.86-3.07-1.21a16 16 0 0 1-3.1-1.23c-.85-.52-1.79-1.5-.83-2.49.32-.33.76-1.08 1.28-1a6.5 6.5 0 0 1 1.58.57 12.28 12.28 0 0 1 2.86 1.7c-.85 0-1.64.27-2.5.28.16 1 .89 1.29 1.68 1.79.4.25.51.37 1 .32a12.75 12.75 0 0 1 1.37-.15 3.83 3.83 0 0 0-1.27-2.24 17.29 17.29 0 0 1 3.94 1.34c1.2.45 2.43.83 3.64 1.23 2.55.86 5.3 1.08 7.71 2.3.28-1 1.15-1.77 1.48-2.76a8.2 8.2 0 0 1-3-.63c-1-.26-2.07-.38-3-.72-2.11-.73-4.21-1.46-6.31-2.21a54.39 54.39 0 0 1-6.21-2.73c-.46-.22-.91-.47-1.37-.69a3 3 0 0 0-.58-.26c-.43-.12-.26-.37-.14-.74a4.8 4.8 0 0 1 2-2.47c.88-.54 2.1-1.46 3.15-1.49a2.14 2.14 0 0 1 1.8.63 4.31 4.31 0 0 1 .89 1.17 1.62 1.62 0 0 1-1.35-.25c-.39-.28-1.15-.8-1.66-.59s-.66 1-.84 1.37a6.52 6.52 0 0 0-.66 1.7c-.12.61.89.62 1.23.66a4.53 4.53 0 0 0 .9 0c.24 0 .5.2.73.25 1.51.33 1.5-1.06.91-2.09.9 0 1.31 1 1.55 1.74a7.8 7.8 0 0 0 1.46 2.34 3.42 3.42 0 0 0 2.16.86 5.29 5.29 0 0 0 2.61-1c-.34 1.24 1.29 2.28 2 3.06.41.42 1.29-.73 1.54-1s.6-.48.67-.71-.21-.64-.41-.95a1.13 1.13 0 0 0-.65-.38c-.4-.12-.25-.55.09-.64a1.32 1.32 0 0 1 1.55.77c.58 1.18.93 2.64 2.19 3.27a16.19 16.19 0 0 0 1.11-2.18 1.75 1.75 0 0 1 .55-.81c.21-.17.22.09.38-.22a2.15 2.15 0 0 1 .19-.37 3.91 3.91 0 0 0 .41-1.16c.12-.46-.37-.56-.74-.81s-.52-.44-.86-.08-.27.86-.28 1.22-.08 1-.58.66a6.91 6.91 0 0 1-.42-1.12 3.5 3.5 0 0 0-1.65-1.75 3.74 3.74 0 0 0-2.36-.58 9.78 9.78 0 0 0-2.34.51c.13-.48.24-1.31-.4-1.51A10.22 10.22 0 0 0 47 150c-.76 0-1.26-.22-1.45.66-.13.59-.33 1.18-1 1.3 0-1.56-.89-3.1-1.54-4.48a24.38 24.38 0 0 1 4.31 1.76 41 41 0 0 0 4.2 1.49c1.4.45 2.81.86 4.23 1.27 1.07.3 3 1.16 4.06.58-.32-.37-2.51-.93-2.51-1.06 0-.65.45-.5 1-.54s1.08 0 1.45-.43.67-1.15 1.11-1.16a2.45 2.45 0 0 1 .85.14c.17.06.35-.55.41-.72.22-.6 0-.49-.43-.79a3.69 3.69 0 0 1-1-1A31.9 31.9 0 0 1 59 144.1a6.22 6.22 0 0 0-.32-.56c-.18-.29-.22-.13-.52 0a5 5 0 0 0-1.44.93 13 13 0 0 1-5.89 2.29 8.61 8.61 0 0 1-6.16-1.76 7.6 7.6 0 0 1-2.45-5.82 13 13 0 0 1 0-1.65 5.76 5.76 0 0 1 .56-1.55c.44-1.08.91-2.11 1.42-3.15a56.87 56.87 0 0 0 2.71-6c.57-1.61 1.49-3.08 2.18-4.65s1.5-3.23 2.29-4.83 1.41-3 2.2-4.39c.41-.73.8-1.45 1.18-2.19s.77-1.69 1.72-1.71a11 11 0 0 1-1.27 3c-.48 1-1 1.94-1.43 2.93-1 2.1-1.81 4.27-2.81 6.36s-1.74 4.1-2.68 6.12a35.61 35.61 0 0 0-2.46 6.44c-.52 2.13-1.23 4.26-.66 6.46a5.39 5.39 0 0 0 4.8 4c2.08.33 4.51-1.09 5.94-2.49a8 8 0 0 0 2-2.56c.43-1.08.93-2.13 1.37-3.21.8-2 1.21-4.1 1.82-6.13.67-2.22 1.19-4.51 1.67-6.79.91-4.29 1.82-8.56 2.64-12.87a3.93 3.93 0 0 1 .58-1.53 6 6 0 0 1 1.46-.77c.44 2-.19 4.27-.45 6.31s-.63 4.36-1.11 6.48c-1 4.24-1.5 8.57-2.45 12.81-.24 1.06-.41 2.13-.64 3.19a15.72 15.72 0 0 0-.57 3.31 31.54 31.54 0 0 0 .13 3.37c0 .37.75 2.57 1.25 2.57 1.21 0 .09-2-.12-2.57a8.77 8.77 0 0 1-.27-3.22 30.35 30.35 0 0 1 1.09-6.68c1-4.3 1.7-8.67 2.54-13a55.43 55.43 0 0 0 1.1-6.13c.08-1.07.25-2.14.42-3.2.1-.57.09-2.69.82-2.92a11.69 11.69 0 0 1 3.21-.61c1 0 2.25-.39 2.72.66a8.71 8.71 0 0 1 .11 3v3.33c0 2.42 0 4.84.06 7.25 0 1-.23 2-.22 3.06v3.45a5.19 5.19 0 0 0 1.73-2.52c-.62.32-.75.41-.76-.29s0-1.53 0-2.3a26.86 26.86 0 0 1 .09-3.11 53.26 53.26 0 0 0 .08-6.32v-3.77c0-.57-.21-2.55.73-2.62s.77 2.23.85 2.83a5.52 5.52 0 0 1-.06 1.52 11.56 11.56 0 0 0 .12 1.55v10.5c1.58-.35 1-4 1-5.28l-.06-7.54c0-.95-.29-2.51.12-3.42s2-.77 2.93-1a3.46 3.46 0 0 1 1.46-.07c.84.33.92.39 1.15 1.27a14.13 14.13 0 0 1 .09 3.19v3c1.61-1.31 1-4.26.93-6.06a6.24 6.24 0 0 1 .25-1.66c0-.11.49-.08.53.06.09.31.16.62.23.94a14.33 14.33 0 0 1 .28 3.2c1.25-1 .57-2.4.93-3.66.24-.88 1.21-.68 1.88-.63.28 0 .73-1 .91-1.33.79-1.28 1.62-2.54 2.44-3.8a5 5 0 0 0 .87-1.79c.08-.7 0-1.41.11-2.1a3.33 3.33 0 0 1 .26 1.5c.45-.27 1.86-2 1.3-2.39a11.3 11.3 0 0 1-2.1-2.21c-1.42-1.76-3.07-3.3-4.58-5-3-3.34-6.34-6.39-9.54-9.54s-6.28-6.38-9.58-9.38a116 116 0 0 0-10.11-8.13c-2.11-1.53-4.26-3-6.44-4.39a46.79 46.79 0 0 1-5.59-3.83c1-.16 1.91-1 2.84-1.44a15.24 15.24 0 0 0 2.82-1.43 3.26 3.26 0 0 1 3-.73c1.19.18 2.1.14 2.82-.9a6.75 6.75 0 0 1 1-1.29c.51-.45.86-.34 1.43 0a23.18 23.18 0 0 1 2.58 1.94c1.75 1.45 3.28 3.12 4.93 4.68 3.18 3 5.89 6.37 8.91 9.5a111.28 111.28 0 0 1 8.65 10.14c2.15 2.83 4 5.81 6 8.77 1 1.56 2 3.12 3 4.72.51.83 1 1.67 1.51 2.51a5.37 5.37 0 0 1 1 2.35c1.7-1.47 1.7-3.71 2.05-5.76s.7-4.35 1.17-6.49.79-4.22 1-6.28a27.35 27.35 0 0 0 .28-3.38 11.53 11.53 0 0 0-.14-3.16c-.17-.57-.34-1.15-.5-1.73a2.57 2.57 0 0 1 .09-2 6.7 6.7 0 0 1 1.67 2.53c.16.5.32 1 .43 1.5s.45.36.87.12 2.35-1.63 2.29-.2c0 .9-1.37 1.84-1.79 2.55a27.79 27.79 0 0 0-2.36 6.5 44.87 44.87 0 0 0-1.45 6.35c-.13.9-.31 1.77-.5 2.66a7.54 7.54 0 0 0-.45 2.5A13.6 13.6 0 0 0 102.6 86c.1-.14.38-.38.4-.53s-.23-.47-.25-.59a5.18 5.18 0 0 1 .13-1.66 50.06 50.06 0 0 1 1.5-6.38c.61-2 1-4.2 2.27-6 .72-1 1.57-1.4 2.36-.25s.07 1.87-.44 2.81a19.24 19.24 0 0 0-1.57 2.42 6.68 6.68 0 0 0-.07 2.85c.91-.8.78-2 1.41-3a12.18 12.18 0 0 0 1.53-3.06c.27.26.57.75.88.32.11-.15.65-.78.58-.9-.4-.62-.79-1.24-1.16-1.88a24.94 24.94 0 0 1-2.36-4.52c1 .61 1.45 2.22 2 3.2s1 1.87 1.6 2.77a1.21 1.21 0 0 0 .49-1.51 3.39 3.39 0 0 0 .72-.13c.4-.18.23-.34.15-.75a8.13 8.13 0 0 1-.14-1.78 14.56 14.56 0 0 0 0-2.09c-.14-.93-.41-1.1-1.21-1.46a6.58 6.58 0 0 0-1.8-.49c-.42-.06-.48.09-.51-.38A9.37 9.37 0 0 1 109 62c0-.81-.16-3.18 1-3.34a5.36 5.36 0 0 0-.32 2.52c0 .56-.09 1.16.41 1.52a5.27 5.27 0 0 0 1.51.56c1.17.39 1.42 1.06 1.46 2.22a4.82 4.82 0 0 0 .53 2.9 8.66 8.66 0 0 0 1.8-2.52 4.67 4.67 0 0 0 .54-1.5c0-.53-.55-1.11-.84-1.5-.68-.91-1.39-1.81-2.08-2.72a17.54 17.54 0 0 1-1.49-2.93 9.67 9.67 0 0 0-2.52-2.29 12.53 12.53 0 0 0-2.85-1.67 16.68 16.68 0 0 0-3-.71 18.72 18.72 0 0 1-3.29-1 9.72 9.72 0 0 0-3.32-.75 14.16 14.16 0 0 1-2.9-.21 6.83 6.83 0 0 1-1.55-.49c-.78-.45-.65-.7 0-1.19.28-.21 1.14-.13 1.49-.16.54 0 1.06-.17 1.61-.19.85-.05 2.18-.31 2.52-1.18.17-.43.67-1.2.62-1.67A10.74 10.74 0 0 0 98 44c-.21-.86.94-1.92 1.25-2.71a2.89 2.89 0 0 0 .23-1.56c0-.29-.39-1.24 0-1.39.75-.26 2.54-.39 2.45-1.54a19.25 19.25 0 0 0-.77-3.34c-.56-2.07-1.23-4.18-1.61-6.29-.18-1 .08-2-.07-3s-.51-2.19-.8-3.3A21 21 0 0 1 98 17.8c0-.32.45-1 .63-1.31.29-.46.7-.87 1-1.31.66-.88 1.28-1.81 1.88-2.73.34-.51 1.73-2.14 1.36-2.76s-2-1.15-2.73-1.42a34.67 34.67 0 0 1-3.32-1.44c-1-.46-1.85-1-2.86-1.43a8.69 8.69 0 0 0-3.19-.6c-1.11 0-2.15.23-3.25.31a30.63 30.63 0 0 0-3.18.36c-2.06.37-4.13.71-6.19 1.07s-4.39.74-6.61 1c-1 .09-2 .47-2.95.49a5.36 5.36 0 0 0-3.28.68c-1.83 1.31-3.25 3.22-5 4.7s-3.09 2.7-4.7 4c-.92.76-1.83 1.58-2.8 2.28-.71.51-2.19 1.23-2.19 2.24m1.49-.51a8 8 0 0 1 2.27-2.22c.76-.64 1.57-1.23 2.33-1.87 1.73-1.46 3.44-2.93 5.05-4.52.81-.8 1.6-1.59 2.34-2.46a7.59 7.59 0 0 1 1.24-1.23 3.5 3.5 0 0 1 1.63-.57c1-.21 2.18-.08 3.24-.25a29.47 29.47 0 0 1 3-.29c1.12-.06 2.19-.44 3.3-.52a21.51 21.51 0 0 0 3-.42c2.21-.49 4.48-.75 6.71-1.16a13.47 13.47 0 0 1 1.68 0c.49 0 1-.18 1.47-.18a17.6 17.6 0 0 1 3.32.22c2.23.3 4.31 1.73 6.31 2.58.67.28 2.62.76 2.53 1.6s-.23.76-1.06 1c-.45.15-1.25-.32-1.68-.46a40.72 40.72 0 0 1-6-2.66 7.3 7.3 0 0 0-3.13-.94 16.06 16.06 0 0 0-3.11.58c-2.14.37-4.33 1-6.48 1.22s-4.38.58-6.55.86c-1.08.14-2.17.19-3.24.36a13.31 13.31 0 0 0-3.16.44c-2 .85-3.51 3.3-5 4.91a46.17 46.17 0 0 1-5 4.36 16.17 16.17 0 0 1-2.33 1.49 3.11 3.11 0 0 1-2.68.06M89.34 9.07a6.13 6.13 0 0 1-.49 1.25c-.27-.39.15-1 .49-1.25m-3.75.28c-.2 1.34-1.85 2.61-1.47 4a13 13 0 0 0 2.48-3.27c.65 1-1.4 2.61-1.22 3.76.74-.37 1.27-1.09 2-1.52a3.48 3.48 0 0 0-.24 2c1.45-.88 1.84-2.85 3.22-3.78-.56 1.22-1.81 2.39-2 3.77 1.09 0 1.82-1.43 2.37-2.2s1-1.8 1.84-2.34a10.58 10.58 0 0 1-1.57 2.8c-.15.25-1.51 2.12-.86 2.24.18 0 .92-.67 1-.79a9.06 9.06 0 0 0 1-1.35 6.2 6.2 0 0 1 1.9-2.39 14.17 14.17 0 0 1-1.45 2.49c-.28.49-.57 1-.85 1.48-.07.14-.6 1.32-.1 1a6.87 6.87 0 0 0 2-2.25c.47-.71 1-2 2-2.23-.54 1.66-2.24 3-2.46 4.77a4.15 4.15 0 0 0 1.93-1.93c.41-.62 1-2 1.79-2.1-.24 1.62-2.21 2.79-2 4.52a6.45 6.45 0 0 0 1.7-2.1c.43-.65 1-1.68 1.76-1.93A14.26 14.26 0 0 1 97 14.67a3.46 3.46 0 0 0-.57 1.33c0 .44-.75.42-1.19.47-2.19.25-4.4.15-6.58.5-4.34.7-8.66 1.36-12.92 2.46a41.46 41.46 0 0 0-6.09 2.22 51.31 51.31 0 0 0-6 3 15.89 15.89 0 0 1-2.82 1.63c-1.1.41-1.91-.46-2.66-1.18s-1.74-1.53-2.47-2.4c-.41-.48-.22-.54.22-.81s.89-.62 1.32-.95a43.39 43.39 0 0 0 5-4.2c.8-.83 1.53-1.67 2.29-2.53.34-.38.67-.78 1-1.13s.91-1.08 1.37-1.28c2-.73 4.21-.53 6.33-.86s4.3-.53 6.43-.9a24.48 24.48 0 0 1 4.18-.42c-.22 1.1-1.29 1.86-1.47 3 1.17-.21 2.57-2.1 2.22-3.27h1m-4.73 2.79c.49.06 2.26-1 1.67-1.58s-1.6 1-1.67 1.58m7.25-.81c-.38.76-.76.38 0 0m11.51 1.15c.55 1-1.28 3.19-2.22 3.52a6.3 6.3 0 0 1 2.22-3.52m-2.29 24.77c-.59.11-.75-.35-.65-.87a4 4 0 0 1 .88-1.38c-.6.21-1.44.79-1.48 1.51-.07 1.17 1.2 1.26 2 1.23 0 .85 0 1.55-.76 2.06-.54.35-1.87.87-1.73-.29a3.51 3.51 0 0 0-1 1.76 1.76 1.76 0 0 1 1.42.58 5.07 5.07 0 0 1 .78 1.6c.31.82 1.26 2.06.85 3-1 2.25-4 1.84-6.11 1.86a19.17 19.17 0 0 1-3.19-.39 8.82 8.82 0 0 1-3-.91 16.39 16.39 0 0 1-5.13-4.57c-.62-.85-1-2-1.9-2.52 1 1.79 1.94 3.79 3.51 5.14A13.78 13.78 0 0 0 88 48.37a6.44 6.44 0 0 1 1.56.49c.37.18.37 1.07.39 1.47a14 14 0 0 1 0 3.23 5.76 5.76 0 0 1-1.48 2.9c-.77.58-2.12.39-3 .39-2.32 0-4.58.29-6.88.31a3.93 3.93 0 0 1-2.79-1.65c-.71-.8-1.49-1.54-2.25-2.29a71.04 71.04 0 0 0-5.09-4.56c-.81-.66-1.9-1.28-1.77-2.43 0-.19.39-1 .58-.93.38.23.74.5 1.1.76a4.35 4.35 0 0 0 3.12.77c1 0 1.81-1.09 2.4-1.79a3 3 0 0 0-1.72-4.57c.31-1 1.57-1.56 2.32-2.16a9.38 9.38 0 0 1 1.21-1c.64-.37.91-.07 1.33.5s1.34 1.81 2.16.91 1.39-1.72 2.13-2.54S83 35 83.4 34l.74-1.89a3.37 3.37 0 0 0 0-1.58c-.07-.92-.8-2.11-.44-3a14.51 14.51 0 0 0 1.19-3.22 5 5 0 0 0 0-1.45c0-.55-.37-.84.29-1a6.06 6.06 0 0 0 2.54-1.6 6.58 6.58 0 0 1-1.72.28c-.72.08-.72-1-.78-1.39-.14-.93 1.94-1.07 2.6-1.16a50 50 0 0 1 6.58-.64c.5 0 1 0 1.5.09.76.06.92 0 1.33.67a12.64 12.64 0 0 1 1.09 3.17 11.34 11.34 0 0 1 .68 3 14.51 14.51 0 0 0 0 3.23c.68 2.31 1.22 4.66 1.88 7 .14.51 1 3.1-.29 2.87-1-.17-2.65-1.42-3.26-.11M82.67 19.13c0 .84-.23 1.65-.22 2.5a2.1 2.1 0 0 1 .22-2.5m-3 .52c-.17 1.06-.61 2-.69 3.06a8.3 8.3 0 0 0 .48 3.16c.62 2 2.12 3.6 2.06 5.77-1-.25-1.64-1.83-2.21-2.57a8.07 8.07 0 0 1-1.61-3c-.35-1.68-.67-6.3 2-6.39m-2.49.77c-.89 2.76-1.16 6 .46 8.6.79 1.26 1.95 2.55 2.35 4 .32 1.19.74 3.51-.92 3.89a5.34 5.34 0 0 0-1.27-3 33.6 33.6 0 0 0-2.3-2.47 7.52 7.52 0 0 1-2-3 15.39 15.39 0 0 1-.32-3.71 2.32 2.32 0 0 1 .33 1.08 8.34 8.34 0 0 0 .63 1.66 7.39 7.39 0 0 0 1.87 2.66 16.9 16.9 0 0 1 2.45 2.48 7.77 7.77 0 0 1 1.07 3.06c.72-1.2-.12-3.12-1.07-4a13.63 13.63 0 0 1-3.31-3.55 7.28 7.28 0 0 1-.62-4.71c.16-.91 1.36-3.62 2.62-3m-2.25.27a2.51 2.51 0 0 1-.48 1.29 2 2 0 0 1-.76-.75 6.19 6.19 0 0 1 1.25-.51m5.5 0a23.49 23.49 0 0 0 .21 3.93c.21 1.19.69 2.36.85 3.56-1-.72-1.52-2.67-1.76-3.79s-.36-3 .7-3.7m3.5.71a5.37 5.37 0 0 1 .27 1.25.88.88 0 0 1-.27-1.25M72.2 22a3.29 3.29 0 0 1-.74.75c0-.46.22-.8.74-.75m9.25-.08a21.49 21.49 0 0 1 1.17 1.81 3.61 3.61 0 0 1 .33.82c0 .22-.53.37-.72.43s-.72.32-.8 0a6.09 6.09 0 0 1-.19-1.28c0-.58-.17-1.29.21-1.77m5.3 5.7c.72-.58.76-1.68 1.63-2.21a10.39 10.39 0 0 1 3.19-1.27 16.7 16.7 0 0 1 3.32-.15 17.62 17.62 0 0 1 3.08.47c-.16-1.18-2.06-1.27-3-1.51a7.55 7.55 0 0 0-3.3.25 8.89 8.89 0 0 0-3.18 1.35 5.75 5.75 0 0 0-1.37 1.23 3.79 3.79 0 0 0-.41 1.78m-15.5-4.34c-.16 1-.62 1.95-.84 2.94a5.87 5.87 0 0 0 .1 3c.56 1.78 2.14 4.35 1 6.16a13.51 13.51 0 0 1-2.33 2.45 6.86 6.86 0 0 0-1.87 2.5 16.78 16.78 0 0 0-.67 3c-.17 1.07-.37 2.13-1.39 2.7a8.56 8.56 0 0 1 .24-1 21.11 21.11 0 0 1-4.05.27 3 3 0 0 0-1.84.73 7.45 7.45 0 0 0-.93 1.77c-.26.47-.63 1.25-1.16 1.43s-1.38-.18-2-.23a2.86 2.86 0 0 0-2.14.61 11 11 0 0 1-1.55 1 2.7 2.7 0 0 1 1.56-2.35c1.15-.32 2.1.59 3.17.36s1.58-1.58 1.8-2.53 1.49-1.37 1.81-2.29c.17-.46.79-.18 1.19-.06a1.26 1.26 0 0 1 .62.36c.16.19-.11.4.2.44a2.64 2.64 0 0 0 2.89-1 3.1 3.1 0 0 0 .84-1.36c.07-.57.18-1.13.27-1.69a3.79 3.79 0 0 1 1.18-2.66c1.12-.9 2.52-1.6 3.29-2.88s0-2.92-.46-4.28c-.4-1.15-1-2.85-.79-4.09a8.5 8.5 0 0 1 .59-2.17c.15-.29.3-.58.44-.87.22-.46.41-.34.91-.34m1.25 0c-.06 1.76-.57 3.68.05 5.39.57 1.56 1.79 3.44 1.76 5.14a6.29 6.29 0 0 1-.79 2.88 10.35 10.35 0 0 1-1.5 2A6.43 6.43 0 0 0 70.55 41a3.28 3.28 0 0 0 .59 2.45 2.67 2.67 0 0 1 1-.51c-.16 1.36-2.12 1-2.41-.11a4.73 4.73 0 0 1-.2-2c.07-.62.21-1.22.33-1.83a4.54 4.54 0 0 0-1.21 2.85 6.82 6.82 0 0 0 .18 1.62c0 .31 1 .9 1.22 1.11s.63.67 1.19.59 1-.58 1.42-1c.76-.73.17-1.91-.53-2.42.45-.38.84.12 1.11.45.41.5.19 1.17.16 1.8-.08 1.28-1.19 1.55-2.22 1.74-.57.11-.88.26-1.38 0a4.14 4.14 0 0 1-1.52-1.15 4.29 4.29 0 0 1-.48-3.1 4.49 4.49 0 0 1 1.5-2.77c.86-.7 1.84-1.19 2.68-1.93a4.7 4.7 0 0 0 1.2-2.92 5.72 5.72 0 0 0-1.1-3.1 9.17 9.17 0 0 1-.89-1.7A6.71 6.71 0 0 1 71 27a5.2 5.2 0 0 1 1.47-3.77m-3.75.29c0 1-.21 2-.33 2.94a7.83 7.83 0 0 0 .52 3.06A13.25 13.25 0 0 1 70 32.28c.08.85.3 2.25-.65 2.71 0-2.21-2.19-4.13-2.94-6.16s-.21-5.33 2.34-5.33m-3.48 2c0 1.35-.35 2.68.4 3.95q.65 1.1 1.32 2.16a4.58 4.58 0 0 1 .85 1.62 4.65 4.65 0 0 1-1-.75 12.79 12.79 0 0 0 .27 2c-1.17-.71-2-3-2.22-4.23a17.61 17.61 0 0 1-.09-2.62c0-.62-.11-1.73.48-2.13m23.53 3.79c.85.53.92 1.77 2 2a4.6 4.6 0 0 1-.26-1.5 4.53 4.53 0 0 0 3.75.71v1c1-.17 1.15-2.42 1.36-3.23.14-.58.67-1.16.64-1.78s-.48-1.27-1.13-1.14a8.73 8.73 0 0 0-3.44 1.79c-.86.63-2.74 1-2.95 2.16M83 25.87c.09.17.17.34.26.5-.64.14-.67-.55-.26-.5m-20.49.93c0 .63-.26 1.27-.23 1.89a8 8 0 0 0 .44 2.42A23.44 23.44 0 0 1 64.06 35c-1.44-1-1.9-2.72-2.33-4.3-.22-.79-.61-4.18.76-3.94m1.25 0a11.83 11.83 0 0 0 .68 4.53c.33.78.67 1.56 1 2.34a7.58 7.58 0 0 1 .64 2.61 7 7 0 0 1-.86-2.21c-.29-.81-.72-1.59-1-2.4-.44-1.19-1.54-3.76-.45-4.87m29.74.24a2.47 2.47 0 0 1-1.74 1.27A2 2 0 0 1 93.49 27M92 29.29c.25-.12.68-.41 1-.37.55.07.45.44.52.91 0 .31-.71.27-.87.24-.37-.08-.5-.48-.63-.78m-9.75-.16a11.15 11.15 0 0 1 .53 3.24 3.18 3.18 0 0 1-.42-1.37c-.13-.5-.54-1.41-.12-1.87m-4.7 5.54c.17.26 1.16 2.46.42 2.21a1.33 1.33 0 0 1-.42-2.21m-18.23 2.41c.38.33.66.77 1 1.13a3.39 3.39 0 0 0 1.63.92c1 .35 1.74-1.42 2.61-1.6-.2 1.46-1.56 3.19-3.22 2.94-1.3-.2-3-2.08-2-3.39m5.77 2.7a5.24 5.24 0 0 1-.33 2.49c-.42.92-.64 1.91-1.88 1.78.39-.67 1.1-1.08 1.49-1.76-.53.11-1 .34-1.56.47a6.91 6.91 0 0 1-1.76 0c-1.29 0-2.2.62-3.42.8 0-1.78 2.14-1.86 3.36-2.05a6.76 6.76 0 0 0 2.24-.49c.65-.39 1.21-.89 1.86-1.28m-6.24.8a7.42 7.42 0 0 1-2.48 2 2.35 2.35 0 0 1 2.48-2m39 1.91c-.59-.19-1.73-.71-.79-1.2s1.1.58.79 1.2m-35.72 3.36a2.07 2.07 0 0 1-1.25.26 1.91 1.91 0 0 1 1.25-.26m1 2c2-1 3.94.37 5.44 1.71 1.78 1.61 3.57 3.16 5.26 4.86 1.51 1.51 2.8 3.55 5.14 3.54.47 0 .94-.22 1.41-.23s1.2 0 1.8 0h3.39a6.06 6.06 0 0 0 3.07-.52c.86-.54 1.43-1.91 2-2.74.33-.52.94-2.27 1.6-2.5.47-.17 1-.56 1.48-.25.27.2.07 1.23-.12 1.51-1.22 1.76-1.94 3.85-3 5.71a4.63 4.63 0 0 1-.88 1.28 3.28 3.28 0 0 1-1.65.24c-1.09 0-2.22 0-3.3.06-2.15.21-4.33.4-6.49.44a3.81 3.81 0 0 1-3-.93 23 23 0 0 1-2.33-2.41c-1.48-1.72-3.21-3.25-4.83-4.84-.76-.74-1.51-1.49-2.3-2.2a18.38 18.38 0 0 1-2.28-2.13 4.8 4.8 0 0 1-.36-.52m40.05 5.65a10.24 10.24 0 0 1-2.33 2.41c-.78.69-1.48 1.5-2.19 2.26a25.46 25.46 0 0 0-3.57 5.15c-2.18 3.9-3.22 8.36-4.8 12.51-.13.34-.3.68-.4 1a9.42 9.42 0 0 1-2.23-2.39 3 3 0 0 1-.74-2.95 53.57 53.57 0 0 1 2-6.27c.83-2.13 1.79-4.21 2.68-6.32a28.62 28.62 0 0 1 3-5.67 4.74 4.74 0 0 1 1.57-1.52c.9-.33 1.71.12 2.61.39 1.45.43 2.85.94 4.32 1.31M19.74 84.18a16.2 16.2 0 0 1 .94-6.51 17.86 17.86 0 0 1 3.85-5.42c1.53-1.57 3.22-2.92 4.82-4.41.82-.76 1.48-1.68 2.23-2.52a12.73 12.73 0 0 0 2-2.37 22.75 22.75 0 0 1 1.51-3 13.37 13.37 0 0 1 2.18-2.51 10.87 10.87 0 0 1 5.69-3 8.06 8.06 0 0 1 3.4.45c1.23.32 1.21 1.36.69 2.27a24 24 0 0 1-1.79 2.39c-.72 1-1.39 2-2 3C42.15 64.4 41 66.15 40 68s-2.25 3.9-3.37 5.85a54.87 54.87 0 0 0-2.83 6 12.71 12.71 0 0 1-.65 1.51 1.38 1.38 0 0 1-1.39.82 16.2 16.2 0 0 1-3-.32c-1.78-.25-3.18.4-4.85 1-1.39.5-2.61 1.35-4.11 1.37m90.52-26.79c-2 .66-4 1.25-5.62 2.61a44.56 44.56 0 0 0-4.7 4.8 40.56 40.56 0 0 0-6.77 11.55c-.31.79-.72 2.47-1.65 2.77-.38.12-.36.2-.5-.18-.07-.18-.28-.52-.25-.72a10.6 10.6 0 0 1 .33-1.66 65.37 65.37 0 0 1 2-6.21c.92-2.12 1.7-4.3 2.69-6.39a21.48 21.48 0 0 1 3.79-5.45 30.64 30.64 0 0 1 2.42-2.28A13.25 13.25 0 0 1 105 54c.84-.38 2.21.5 2.89 1s2.19 1.37 2.33 2.43m-61.53-.54c1.41-.21-.3 2.15-.52 2.45-.66.91-1.3 1.83-2 2.73-1.33 1.8-2.44 3.79-3.63 5.69a81.85 81.85 0 0 0-6 11.74 11.27 11.27 0 0 1-1.29 2.94c-.35.39-.64 1-1.24.72s-.39-1-.36-1.52a10.26 10.26 0 0 1 1.28-3.18c.5-1 .93-2 1.49-3 2.08-3.78 4.08-7.59 6.45-11.2.87-1.32 1.83-2.56 2.72-3.87s1.67-2.88 3-3.46m1.53 1.31c.26 1 .44 2 .7 3 .17.68 1 2.58.3 3.18a9 9 0 0 1-3 1.37c-.45.19-.91.41-1.37.58s-.14.88-.07 1.41a24.93 24.93 0 0 1 .51 3.21c0 1.35-.9 1.55-2 2a7.94 7.94 0 0 0-1.39.64c-.71.46-.85.58-1 1.41-.18 1.09.32 2.09.38 3.17a4 4 0 0 1 0 1.19c-.06.29-.86.64-1.1.81-.67.45-1.58.7-2.29 1.13s-.39 1.6-.32 2.24a23.39 23.39 0 0 1 .13 2.5c-1-.33-1.31-1.24-1.53-2.2a10.69 10.69 0 0 1-.53-3.44c.08-.81 2.18-1.25 2.8-1.53 1.21-.55 1-1.66.87-2.72a7 7 0 0 1 .01-3.19c.36-1 1.81-1.19 2.72-1.49a3.9 3.9 0 0 0 1.47-.91c.48-.42.34-1 .27-1.53a14 14 0 0 1-.39-3.33c.07-.71 1.8-1 2.33-1.21.8-.26 1.92-.43 2-1.41.07-1.67-1.17-3.87.68-5m3.52 1.72a2.74 2.74 0 0 1-1 1c.47.34.89.66 1.5.48a9.6 9.6 0 0 1-.73 3c-.38 1.17-.77 2.33-1.21 3.48-.78 2-1.55 4.05-2.39 6.06a82.47 82.47 0 0 1-6.29 11.9 4.91 4.91 0 0 1-1.12 1.36c-.29.23-1.27-.23-1.41-.51a8.78 8.78 0 0 1-.85-3.1 4.09 4.09 0 0 1 .14-1.71c.09-.28 1-.71 1.32-.83.89-.38 2.37-.8 2.31-2s-.27-2.18-.23-3.24c0-.48-.15-1.19.28-1.46a9.53 9.53 0 0 1 1.72-.93c1-.37 2.25-.59 2.35-1.76a20.83 20.83 0 0 0-.39-3.21c-.09-1.23.08-1.79 1.35-2.23.87-.31 2.39-.63 2.93-1.43s0-2.25-.15-3.05c-.23-1.11-.43-2.24-.65-3.36a4.25 4.25 0 0 1 2.51 1.48m57.24-1c.84 1.08 1.72 2.11 2.56 3.18.7.91 1.84 2.09 2 3.28-1.11-.21-2.25-2.11-2.84-3-.42-.61-2-2.68-1.72-3.48m-2.88 5.65c0 .33-.35.15-.35.15l.15-5.41.45-.18m-1.61.83c.39 1.25 0 2.56 0 3.85 0 .42.07 1.58-.27 1.85a4.29 4.29 0 0 1-1 .68c-.47.2-.51.11-.77-.28a18.47 18.47 0 0 1-1-1.63c-.41-.81-.66-1.2-.22-2a5.29 5.29 0 0 1 3.21-2.44m-51 1.69A43.88 43.88 0 0 1 54 68.08c-.68 2.15-1.43 4.3-2.29 6.37-1.74 4.2-3.45 8.33-5.49 12.39-.32.63-1.08 2.23-2 2.12-1.2-.14-.42-2-.12-2.52 1.09-1.94 2.22-3.84 3.27-5.79A81.4 81.4 0 0 0 53 68.36c.42-1.25.89-2.48 1.3-3.74l.6-1.75c.17-.52.21-1.42.88-1.26m33.5-.29a11.73 11.73 0 0 1-1 3.24c-.34 1-.69 1.9-1 2.86s-.69 2.18-1.06 3.25c-.18.53-.2.93-.8.93-.21 0-.87-.9-1-1.06a7.65 7.65 0 0 1-1.79-2.62c-.12-.46.46-.63.47-1.17s-.64-1.06-1.08-.82-.48.61-1 .21a9.11 9.11 0 0 1-1.32-1.24 20.3 20.3 0 0 1-2-2.4 2.31 2.31 0 0 1-.34-.83c.93 0 1.81-.22 2.74-.27s2.11 0 3.16 0h6.09m-3 .6c-.59.3-.46.78-.35 1.31.07.37.92.42 1.26.52.1-.47.19-1 .28-1.42a5.64 5.64 0 0 0-1.19-.41m-29.3.34a15.43 15.43 0 0 1 2.69 1.77 4.83 4.83 0 0 1 1.95 2 41.49 41.49 0 0 1 1.86 6.49c.45 2.11.91 4.23 1.39 6.34s.61 4.23 1 6.34a32.66 32.66 0 0 1 .35 3.27 16.31 16.31 0 0 0 .22 1.71c.1.51 0 1 .1 1.55a38.71 38.71 0 0 1 .56 6.71c0 .66.09 2.65-1.14 2.21-.65-.24-1-.27-1-1s-.09-1.26-.11-1.89c0-.45-.22-.88-.23-1.33a13.28 13.28 0 0 0-.1-1.78c-.18-1.1-.22-2.2-.42-3.3-.37-2-.46-4.11-.81-6.14S62.45 81 62 78.84a63.2 63.2 0 0 0-3.59-12.29c-.35-.82-2.1-3.41-1.37-4.2m26.12 0c-.13.45-.37.85-.18 1.29a1 1 0 0 0 1.21.23c.74-.73-.17-2.26-1-1.52m-3 .28c0 .38-.09.75-.13 1.13l1.16.14c0-.2.22-1 .11-1.16s-.94-.09-1.14-.11m-23.6 1.7A11.34 11.34 0 0 1 57.78 67c.42 1.11.85 2.21 1.19 3.34.59 2 1.18 4 1.61 6s.87 4.15 1.3 6.22.6 4.36 1 6.53c.3 1.72.37 3.44.68 5.15.15.85.05 1.73.2 2.59a13.31 13.31 0 0 1 .13 2.44 10.43 10.43 0 0 0-1.25 0 5.82 5.82 0 0 0-.26-1.49c-.72.36-.77.28-.94-.5-.12-.5-.19-1-.33-1.49a2.67 2.67 0 0 0-.49 1c-.35-.37-.25-1-.3-1.5a11.52 11.52 0 0 1-.23-1.74c-1 .64-.73 2.25-.72 3.25-.51-.55-.26-1.75-.28-2.45 0-1-.26-2-.27-3a2 2 0 0 0-.74.75 2.15 2.15 0 0 1-.3-1.3c0-.55-.26-1.06-.28-1.61s.33-.93.41-1.38.22-1.2.31-1.8c.15-1-.1-2.13.08-3.18a18.77 18.77 0 0 0 .17-3.27 23.56 23.56 0 0 0-.13-3.46c-.1-.57-.07-3-.68-3s-.43 2.41-.37 3 .17 1-.18 1.32a1 1 0 0 1-.56.21c-.2 0-.09.61-.09.79v1a3.78 3.78 0 0 1-1-.49c-.06.42-.17.83-.23 1.25-.26-.17-.49-.35-.76-.5a7.45 7.45 0 0 0-.23 1.76c-.29-.16-.36-.48-.51-.75-.05.05-.58.79-.49.76-.32.1-.57-.31-.76-.5a1.35 1.35 0 0 0 .52 1.69v-1c.44.53.23 1.31.81 1.8.42.35.45.07.46.7s0 1 0 1.49l1-.51v1.75a2 2 0 0 0 .75-.76c1.46 2.2-1 4.12-2.2 5.77-.23-.35-.05-.82 0-1.2a2.51 2.51 0 0 0 0-1.67 5.56 5.56 0 0 0-2.05-2.36c-.39 1.27 1.41 2 .78 3.24a1.91 1.91 0 0 1-.26-1.25 1.22 1.22 0 0 1-.75.26 3.79 3.79 0 0 1 0 1.5c-.5-.6-.27-1.75-.52-2.5a4.22 4.22 0 0 0-.47 2.76c-.39-.45-.2-2-.77-2s-.28.9-.26 1.29 0 1 0 1.46c-.55-.66-.15-1.71-1-2.24a2.84 2.84 0 0 1-.23 1.25 8.9 8.9 0 0 0-.76-.49 1.26 1.26 0 0 0-.24.75 1.92 1.92 0 0 1-1.24-.68c-.38-.36 0-1.12.15-1.52.42-1.09 1-2.14 1.55-3.19 1-2 1.86-4 2.73-6.06a134.32 134.32 0 0 0 4.87-12.69c.14-.48.27-1 .44-1.43s.17-.88.78-.78m52-.45c1.1.55 3 0 3 1.81a27.16 27.16 0 0 0 .29 4.41 7.81 7.81 0 0 1-2-3.48 8.64 8.64 0 0 1 1-.26c-.16-1.3-1.3.07-1.62-.41s-1.09-1.52-.65-2.07m-23.43 2c-.13.09-.61.61-.34.77s.84.65 1.08.54a1.75 1.75 0 0 0 .33-1c-.18-.45-.69-.3-1.07-.29m15.44.11c2 2.63.66 6.23.55 9.19a32.64 32.64 0 0 1-.77 4.47c-.14.79-.24 1.57-.44 2.35-.14.55 0 .75-.61.75a.57.57 0 0 0-.58.51 4 4 0 0 1-.51-1.5c-.11.19-.54.43-.75.26s0-.85 0-1c-.23.12-.74.5-.75.06a5.62 5.62 0 0 1 .08-1c.12-.69.23-1.39.34-2.09.23-1.42.52-2.83.7-4.25s.52-2.9.81-4.36a4.78 4.78 0 0 1 1.91-3.4m-37 1.32A14.92 14.92 0 0 1 66 69.11c.83.7 5.35 6.85 5.57 7.87.46 2.19.88 4.39 1.32 6.59a41.17 41.17 0 0 1 .92 6.14c.09 2.14.74 4.24.81 6.39 0 1.13.27 2.21.3 3.35v.92c0 .43 0 .27-.39.4a5.07 5.07 0 0 1-1.73.2h-3.22c-.28 0-1.24 0-1.4-.19s0-1.59 0-1.94a63.19 63.19 0 0 0-.56-6.31c-.12-1.14-.18-2.28-.31-3.42s-.36-2-.49-3.07q-.39-3.13-.87-6.25c-.33-2.11-.78-4.22-1.29-6.29-.26-1.11-.53-2.21-.79-3.31-.15-.62-.71-2.09-.33-2.69a1.18 1.18 0 0 0 .11-.19m-14.29 1.86c.75 0 1-.19.88-.94-.05-.26-.56-.06-.67.06a1.48 1.48 0 0 0-.21.88m47.77 2.08c-.08 2.23-.71 4.43-1 6.64-.14 1.1-.34 2.21-.52 3.32a11.54 11.54 0 0 1-.61 3.31c-.84-.57-.28-2.21-.28-3a23.8 23.8 0 0 1 .39-3.66c.3-2 0-5.36 2-6.57m-24.7 3.43c1.69 1.37 3.62 2.92 4.1 5.15s.45 4.37.89 6.5a17.61 17.61 0 0 1 .14 3.25c0 .45.21.89.23 1.34a11.75 11.75 0 0 0 .17 1.89c.21 1.09.07 2.18.29 3.26a16.1 16.1 0 0 1 .14 3.18c0 .34-.11 1.3-.45 1.41a1.88 1.88 0 0 1-1.47-.15c-.8-.55-.83-2.12-.86-3 0-1.11-.26-2.17-.28-3.29a18.94 18.94 0 0 0-.37-3c-.42-2.2-.77-4.45-1.11-6.66S73 80.17 72.54 78c-.15-.81-.7-2.53-.13-3.25m-25.95.72c-.18.14-.47.44-.37.71s.64.26 1 .31c0-.43.17-1.45-.59-1m47.48 2.34a15.65 15.65 0 0 1-.15 2.56c-.11.63-.08 1.47-.56 2a2.51 2.51 0 0 1-.48-2.39 4.46 4.46 0 0 1 1.15-2.2M77.7 79.92c.8.75 2.65 2 2.65 3.17s-.53 3.2 1.16 3.55a4.15 4.15 0 0 1 .51-1.3c.35-.67.57-.33 1.1 0 .37.26.61 1.06.83 1.46a6.61 6.61 0 0 1 .16 1.58c.32 2.23.3 4.46.48 6.69.09 1.13.29 2.18.27 3.32a11.14 11.14 0 0 1-.15 1.74c-.11.68-.49.43-1.12.45a10.21 10.21 0 0 1-3.11.14c-.65-.2-1-.2-1.13-.93a9.43 9.43 0 0 1-.24-1.58 35.62 35.62 0 0 0-.32-4.62c-.25-1.61-.11-3.25-.43-4.84a18.72 18.72 0 0 1-.11-2.37C78.18 85.6 78 84.8 78 84c-.06-1.07-1-3.13-.26-4.06M40.52 88c.35-.18.43-.35.68 0a2.58 2.58 0 0 0 .45.35c.33.29.38 0 .38.54s-.1.4-.57.52a19.26 19.26 0 0 0-3.1 1.07 48.06 48.06 0 0 0-5.54 3.25A24 24 0 0 0 27.91 98a22.15 22.15 0 0 0-3.76 5.66c-3.94 7.93-6.1 16.52-8.16 25.09-.66 2.73-1.7 5.51-2 8.31s-1 5.83-1.48 8.72c-.69-.65-.86-2-1.12-2.83s-.44-2-.63-2.92c-.43-2.14-.79-4.25-1.16-6.41-.18-1-.27-2-.37-3.08s-.36-2.26-.43-3.4a29.23 29.23 0 0 1-.19-3.25 14 14 0 0 1 .76-3.1c.49-1.7 1.25-3.3 1.75-5 .35-1.21 1-4.11-.79-4.45-.57-.11-.9 1.68-1 2a10.89 10.89 0 0 0-.09 2.74 10 10 0 0 1 0 2.45 11.16 11.16 0 0 1-.7 2.26c-.59-.7-.33-2.14-.28-3s0-1.9 0-2.84c0-2.41-.2-4.85-.09-7.25v-3.16a9.79 9.79 0 0 1 .17-3.29 14.2 14.2 0 0 0 .92-3.19A22.81 22.81 0 0 1 9.8 95a9.53 9.53 0 0 1 1.13-3 12.75 12.75 0 0 1 2.5-2.53 27.07 27.07 0 0 1 5.47-3.32c2.07-1 4.17-2 6.33-2.77a12.11 12.11 0 0 1 3.43-.65 10.47 10.47 0 0 1 3.19.68 27.54 27.54 0 0 1 4.71 2c.82.39 1.57.79 2.36 1.26.5.3 1.45.65 1.6 1.3M42 84a.92.92 0 0 0 1.24-1c-.64 0-1.25.3-1.24 1m43.28 3.63c1.75 1.09.93 4.79 1.06 6.49.08 1.09.27 2.14.28 3.24 0 .77.32 2.76-.73 3 0-1-.26-1.92-.27-2.9 0-1.14-.27-2.26-.28-3.37a20.45 20.45 0 0 0-.26-3.59c-.13-.71-.27-2.27.2-2.88m-4.49.78c-.24.76-.74 1.38-.61 2.2s.41 1.72 1.3 2c.49.17.72-2.1.75-2.34a2 2 0 0 0-1.44-1.87M44 90.22c-.45.7-2 .91-2.74 1.18a18.34 18.34 0 0 0-3 1.37 38.28 38.28 0 0 0-5.61 3.74 24 24 0 0 0-4.24 4.64A32.27 32.27 0 0 0 25 107a103.93 103.93 0 0 0-4.35 12.74c-.29 1.12-.57 2.24-.89 3.35-.14.45-.12.93-.23 1.38s-.4 1-.54 1.53c-.57 2.17-1.06 4.33-1.56 6.51-.66 2.82-1.17 5.66-1.78 8.5-.29 1.34-.71 2.65-1 4s-.37 2.68-.63 4c-1.78-.33-.64-4.42-.47-5.54.31-2.14.79-4.21 1.19-6.33.85-4.45 2.17-8.75 3.21-13.17a108.63 108.63 0 0 1 3.6-12.53c1.56-4.21 3.13-8.43 5.8-12.08 2-2.69 4.71-4.41 7.53-6.1a34.53 34.53 0 0 1 4.59-2.58c1.18-.49 3.36-1.05 4.54-.43m13-.12v2.75a3 3 0 0 1 0-2.75m30.25-.26a5.43 5.43 0 0 1 2.54 3c.21.5-.3 1.25-.52 1.74a2.59 2.59 0 0 0-.08 2.06c.16.55.44 1.09.57 1.64.23 1 .86-.35 1-.71a5.66 5.66 0 0 0 .51-1.8 9.48 9.48 0 0 1-.22-2 3.68 3.68 0 0 1 1.58 2.1 5.71 5.71 0 0 1 .2 2.66c-.1.38-.14 1.18-.44 1.43a2.06 2.06 0 0 1-1.29.3c-.95 0-1.92.13-2.87.1-.22 0-.88 0-.88-.19v-4.92c0-1.07-.27-2-.28-3 0-.72-.23-1.81.23-2.41m-41 2.61a1.37 1.37 0 0 1-1.31 2c-.81-.12-2.47-.73-3.23-.32-1.05.56-1.1 2-2 2.69s-2.23-.17-3.17.08c-.74.2-1.06.13-1.35.84a6.43 6.43 0 0 0-.35 1.69 3.88 3.88 0 0 1-.32 1.41c-.23.34-1 .53-1.46.61-.88.19-2.48.33-3 1.22s-.1 2.23-.08 3.16c0 .46.17 1-.2 1.39a9.26 9.26 0 0 1-1.34 1.09c-.71.42-2.54 1.28-2.53 2.19a22.1 22.1 0 0 0 .64 3.22c.08.5.21.93-.16 1.32a8.86 8.86 0 0 1-1.35 1.17 6.08 6.08 0 0 0-1.26 1.11 1.9 1.9 0 0 0-.3 1.62c.14 1.09.67 2.11.84 3.22.14.91-1.32 1.89-1.91 2.44a4.45 4.45 0 0 0-.94 1.18 1.73 1.73 0 0 0 .1 1.45c.32.89 1.17 2.32.64 3.22s-1.65 1.43-2.31 2.29a2.7 2.7 0 0 0-.37 2.94c.32.92 1.06 2.31.72 3.28s-1.73 1.66-2.45 2.44.28 2.37.56 3.07c.34.86.93 2 .24 2.85s-2.08 1.32-2.4 2.31.66 2.21 1 3a5.43 5.43 0 0 1 .12 1.71c0 .46-.66.59-1 .67a4.77 4.77 0 0 1 .2-1.33c.05-.44-.35-1-.52-1.42-.22-.55-1.45-2.45-1.12-3a4.28 4.28 0 0 1 .8-1.23 6.29 6.29 0 0 0 1.39-1.23 1.54 1.54 0 0 0 .35-1.6 12.23 12.23 0 0 0-.54-1.65c-.41-1.08-.83-2.11-.11-3.08s1.94-1.4 2.31-2.41c.31-.83-.37-2.26-.6-3.06a4.29 4.29 0 0 1-.25-1.58c0-.63.54-1 .93-1.52s2-1.52 1.92-2.3c-.16-1.09-.68-2.11-.79-3.18-.07-.67-.17-1 .32-1.53s.88-.75 1.31-1.13c.89-.79 1.56-1.54 1.25-2.8-.27-1.08-.69-2.12-.87-3.21s1.21-1.81 2.07-2.4a2.2 2.2 0 0 0 .8-2.66c-.19-.7-.94-2.61-.32-3.24a16.11 16.11 0 0 1 2.77-2.16 2.62 2.62 0 0 0 1.26-2.62c0-.85-.27-2.79.52-3.36s2.18-.46 3.08-.94c1.22-.64 1.34-1.42 1.55-2.71a3.86 3.86 0 0 1 .43-1.43c.29-.29 1.21-.26 1.59-.24.95.06 2.49.37 3.23-.39s1.1-2.26 2-2.67c.67-.3 1.87.3 2.57.39a2.72 2.72 0 0 0 2.42-.81m11.75-.11v2.25a2.21 2.21 0 0 1 0-2.25m-3.49 1a29.92 29.92 0 0 0 1.62 3.77c.71 1.42 1.48 2.71.93 4.34-.94 2.81-2 5.58-2.9 8.4-.84-.17-1.07-1-1.36-1.7s-.72-1.49-1-2.28a13.63 13.63 0 0 0-.93-2.23 3 3 0 0 1-.59-2.17c.18-.81.28-1.62.41-2.44a7 7 0 0 1 1.32-2.19c.76-1.11.64-3.44 2.5-3.5m-6.74.56a4.24 4.24 0 0 1 .51 1.5c-.29-.05-.58-.12-.88-.16s-.62 0-.63-.37a1 1 0 0 1 1-1m33.53 4.21c.65 0 .61.07.9-.41a3.85 3.85 0 0 0 .39-1c.22-.77.29-1.93-.6-2.36-.47-.22-.69-.31-1 .11a1.94 1.94 0 0 0-.4 1.22c.13.89.59 1.62.76 2.45m-36.59-2.72a4.71 4.71 0 0 1-1.25.62c-.61.2-.7.21-.88-.43s-.71-.59-.66.08c0 .45.47.88.07 1.16a22.4 22.4 0 0 0-4.54 4.58 61.35 61.35 0 0 0-6.88 11.84c-3.88 8.18-5.83 16.94-8.2 25.61-.88 3.25-1.39 6.65-2 10a32 32 0 0 0-.7 5.15c0 .8-.21 1.56-.22 2.35a15.15 15.15 0 0 0-.22 2.55c-.52-.07-.67-.62-.81-1.05s-.65-.71-.95-1.16c-.85-1.3.83-1.66.64-2.88-.17-1-1-1.91-1.12-2.93 0-.45-.32-1.18 0-1.55a9.66 9.66 0 0 1 1.49-1.28 4.34 4.34 0 0 0 1-1.28c.26-.4-.1-1.1-.25-1.49a10.35 10.35 0 0 1-1-3.05c0-1.07 1-1.58 1.65-2.32.32-.38.9-.8.87-1.33a6.92 6.92 0 0 0-.25-1.5 14.09 14.09 0 0 1-.56-3.64c0-.52 1.86-1.92 2.22-2.29s.76-.84.71-1.16a12.18 12.18 0 0 0-.41-1.81c-.47-1.26-.62-2 .15-3.09a6.29 6.29 0 0 1 1.05-.94 6.78 6.78 0 0 0 1.25-1.42c.42-.61-.37-2.45-.57-3.12-.35-1.15-.58-2 .53-2.79.48-.35 2.35-1.34 2.34-2a22.4 22.4 0 0 0-.69-3.21c-.21-1.36.27-2 1.43-2.6.86-.48 2.1-1.1 2.49-2a4 4 0 0 0 0-1.3v-1.92c0-1.23 1.33-1.57 2.33-1.79.8-.17 2.29-.45 2.43-1.44a8.33 8.33 0 0 1 .25-1.65c.31-.88.28-1 1.15-1.27 1.11-.38 2.24.33 3.31-.32C40.72 97 41.4 95 42 95c.88-.06 2.13-.26 2.8.49m4 2.21a6.34 6.34 0 0 0-3.31-.24 7.55 7.55 0 0 0-2.89 1.47 25 25 0 0 0-4.6 5.29 41.89 41.89 0 0 0-3.23 5.73c-1 2-2.1 3.86-2.91 5.9a130.24 130.24 0 0 0-4.46 12.42c-1.23 4.27-2.21 8.57-3.17 12.9-.36 1.61-.68 3.28-.93 4.91s-.41 3.53-.73 5.29a58.28 58.28 0 0 0-.46 10.57c-2.09-1.07-2.11-3.68-1.84-5.7.15-1.08 0-2.16.22-3.25s.27-2 .41-3a55.89 55.89 0 0 1 1.17-6.3c.54-2.07.69-4.19 1.28-6.24 1.22-4.24 2.34-8.52 3.67-12.72A80.91 80.91 0 0 1 31.89 112c2-3.86 3.93-7.61 6.86-10.87a29.06 29.06 0 0 1 4.87-4.26 4.49 4.49 0 0 1 2.72-.9c.91.06 2.38.64 2.52 1.67m-1.24 1c-1.62 0-3.42 1.53-4.63 2.47-.67.53-1.3 1.08-1.93 1.66s-1.14 1.29-1.89 1.45a6.2 6.2 0 0 1 1.33-2.52 9.69 9.69 0 0 1 2.22-2.34c.85-.58 4.43-2.55 4.9-.72m-11 1.1a.72.72 0 0 0 1-1c-.47.24-.9.43-1 1m11.76 1.65a4.39 4.39 0 0 0-2.08.22 26 26 0 0 0-2.3 1.58c-1 .86-3.09 2.08-3.32 3.52.43 0 1.32.74 1 1.24s-1.84 0-2.07-.41c-.12-.21-.66-.89-.59-1.11a3.61 3.61 0 0 1 .52-1.26 18.2 18.2 0 0 1 1.7-1.81 20.81 20.81 0 0 1 4-3.16c.57-.34 1.53-.89 2.18-.59s1.44.82 1 1.78m-7.58 23.11c.66.12 1.41 1.09 2.07 1a2.56 2.56 0 0 0 2.3-1.45 14.35 14.35 0 0 0 .8-2.51 6.26 6.26 0 0 0-.63-2.67c-.62-1.8-1.07-3.63-1.68-5.43s-1.3-3.7 0-5.25a3.43 3.43 0 0 1-1.06-.66 3.25 3.25 0 0 1-.57-1.57c.06-.8 1.36-1.85 1.93-2.31a6.29 6.29 0 0 1 2.9-1.65 3.21 3.21 0 0 1 2.93 1.15 9.54 9.54 0 0 1 1.48 3.12c.35 1 .86 1.9 1.14 2.89a5.64 5.64 0 0 1 .42 3.27 21.64 21.64 0 0 1-1.28 3.15c-1.47 3-3 5.93-4.47 8.92a12.8 12.8 0 0 1-1 1.88 3.42 3.42 0 0 1-2.19 1.09 1.61 1.61 0 0 1-2-.79 7.29 7.29 0 0 1-1-2.2m-8.3-20.18c-.42.28.08 1 .51.75s-.15-.94-.51-.75m10.88.9c0 .62.06 1.28.77 1.49 0-.52-.21-1.3-.77-1.49m-4 5.54a12 12 0 0 1 1-.76c.62 1.15.29 3.15.26 4.43 0 .71-.11 1.4-.15 2.11a5.48 5.48 0 0 1-.29 2.21c-.7-.64-.3-2-.29-2.83v-3.42c-.83.53-1 2.11-1 3-.6-.36-.88-1.34-1.08-2-.14-.44-.33-.72.15-.92s.82-.21 1-.55-.4-.86-.7-.8a8.44 8.44 0 0 1-1.32.37.79.79 0 0 1-.81-.53c-.08-.15-.83.14-1 .17-.28-1.14 1.13-2.71 1.93-3.32.5-.37 1.32.66 1.56 1a4.54 4.54 0 0 1 .75 1.84m42.76.87a3.48 3.48 0 0 0 .68-2c-.09-.63-.23-2.08-1.21-2-.71 0-1 1.53-.88 2 .17.83.45 1.85 1.41 2M37.06 109c-.39.32-.39.6-.41 1.08 0 .69.3.69.91.68s.6-2.32-.5-1.76m27.64-.49a39 39 0 0 1-1 6.25q-.63 3.19-1.29 6.39c-.9 4.27-2 8.54-3.26 12.72a22.44 22.44 0 0 1-3 6.13c-1.1 1.62-3.1 3.36-5.17 3.38s-5-1.1-5-3.5a15.67 15.67 0 0 1 .16-3.56c.23-1 .49-2.07.79-3.1a39.49 39.49 0 0 1 2.51-6.22c1.05-2.13 1.94-4.37 2.82-6.58s1.9-4 2.86-6c.47-1 1-2 1.5-2.91s.77-2.09 1.73-2.48a15.7 15.7 0 0 1 3.24-.41 23 23 0 0 1 3.11 0m-36.23 2.31c.37.75.8 1 1.17.11.24-.55-1-.22-1.17-.11m7.77 1.43a2 2 0 0 1-1 1.76v-1c-.79.5-.56 2.2-.72 3 .49.09 1.38-.64 1.39.18a7.4 7.4 0 0 0 .38 1.8 9.46 9.46 0 0 0 .86-1.6c.24-.5.33-.39.89-.35a2.69 2.69 0 0 0 1-.07v4c0 1.28-.23 2.53-.21 3.82v3.78c0 1-.31 2.91.78 3.41 0-1.69.15-3.32.21-5 .74.57.51 1.9.52 2.72s-.18 2.33.77 2.77c0-.8-.27-2.19.48-2.75.55 1-.24 2.9 1 3.49 0-.84-.17-2.09.48-2.76 1 1.85-.35 4.42-1.27 6-1.1 1.88-2 3.87-3 5.78-2.13 3.82-4 7.83-5.89 11.76-.46.94-.9 1.88-1.43 2.79-.21.36-1 .52-1.13.8a10.65 10.65 0 0 0 .26 1.49c-.48-.14-.59-.56-.75-1a10.77 10.77 0 0 0-3 3.78c1.08 0 1 1.26 1 2a3 3 0 0 0 .91-.93c.48-.67.75-.54 1.49-.4a1.33 1.33 0 0 1 1 .9c.11.58-.53.71-1 1-1.4.77-4.91 1.41-6.08-.09a5 5 0 0 1-1.39-3v-3.47a40 40 0 0 1 .58-6.35c.31-2 .48-4.1.93-6.05.07-.3 0-.61.33-.54a1.6 1.6 0 0 1 .68.22c.55.41.89.53.52 1.23s-1.45 1.53-1.61 2.51c.79 0 1-.23 1 .59v2.15a4 4 0 0 0 1.23-2c.17-.39.23-.65.7-.4a3.93 3.93 0 0 0 1.05.35 18.78 18.78 0 0 1-.51-2.22q-.09-.6-.21-1.2c-.08-.4.05-.4.44-.5a2.09 2.09 0 0 0 1-.45c.45-.34-.15-.56-.45-.76s-.77 0-1 0a4 4 0 0 1-1.24-.39 3.32 3.32 0 0 0-1-.16c-.58-.05-.58-.12-.47-.7a8 8 0 0 1 .82-2c.51-1.21-.11-3.17.82-4.14.49.89.27 2.28.28 3.25a4.7 4.7 0 0 0 .72-3.18c0-1 .23-2.06.22-3.11 0-.4-.12-3.28.33-3.2s1.15 0 1.15.53v1.94a5.46 5.46 0 0 0 1.08-1.26c.52-.64.82-.51 1.66-.52-.23-.77-.42-1.53-.59-2.31a5.1 5.1 0 0 1-.19-1.08c0-.24.83-.1 1.06-.19s.67-.25.47-.67-.65-.42-1.14-.48c-.28 0-.16-.83-.17-1.09a4.72 4.72 0 0 0-.26-1.17c-.44.23-.67.44-.88-.08a2.09 2.09 0 0 1 0-1.08 5.64 5.64 0 0 1 .82-2.09c.74.56.52 2.17.52 3 1-.58.73-2.33.72-3.3s-.28-2.7.47-3.47a4.6 4.6 0 0 1 .24 2.21v2.09a12.78 12.78 0 0 0 .36 4.45 2.07 2.07 0 0 1 .67-.48c.19-.07.28.59.3.75a15.1 15.1 0 0 1 0 2v5c.93-1.1.73-2.39.72-3.76a31.42 31.42 0 0 1 .08-4 61.37 61.37 0 0 0 .06-8.25c-1 1.13-.77 2.6-.79 4 0 .72.3 3.59-.64 3.76l-.07-7.73a17.83 17.83 0 0 1 .15-3.27c0-.17.4-1.31.62-1.24a2.84 2.84 0 0 0 1.7.21m-25.75 1a6.19 6.19 0 0 1-.23 2.5 2.17 2.17 0 0 1 .23-2.5M82 117.63c1.11-.54 1.76-4 .08-4.2-.77-.1-1.26 1.39-1.19 2a4.84 4.84 0 0 0 1.11 2.2m-40.28-3.89a4.45 4.45 0 0 1 .27 2v1.43c0 .48.22 1-.24 1s-.26-.35-.26-.72v-1.89c0-.63-.16-1.38.24-1.89m-16 4.64c-.06.44.42.8.76.56a1.55 1.55 0 0 0 .48-1.08 2.49 2.49 0 0 0-1.24.52m11.81-.31v3.35c0 1.12-.22 2.06-.21 3.11v5.38c0 .76-.06.67.7.66-.14 0 .25-5.87.25-6.5V118.55c0-.76 0-.55-.75-.55m-1.25.26a7.23 7.23 0 0 0-.29 3c0 1-.17 1.91-.16 2.89l.06 6.9c1-.25.73-2.27.72-3 0-1.07.23-2.1.22-3.17s0-2.12 0-3.18v-2.57c0-.62.19-.85-.5-.82M41.8 120c.53.34.9.78 1.47 1.08s1.14-.33 1.54-.86c1.3.8 0 2.82-1.31 2.59-.92-.16-2.48-1.83-1.7-2.81m-1.24 1.26c.58.5 1.07 1.1 1.63 1.59.38.32.54.55 1 .59a10.29 10.29 0 0 0 1.36 0c.06 1.46-1.56 1.72-2.52.89-.6-.52-2.26-2.18-1.5-3.1m-17.2 5.4c.26.07.58.23.85.12s.58-.48.39-.77c-.43-.64-1.09.32-1.24.65m6.25.19a2.22 2.22 0 0 1-1.48 2.27c.23-.9.4-2.11 1.48-2.27m3.5 0a34.84 34.84 0 0 0-.19 7c1-.21.73-2.17.73-2.95v-2.94c0-.68.26-1.14-.51-1.11m-4.71 4.54c-.48 2-.21 4.22-.19 6.26.95-.15.88-2.43.91-3.18a4.71 4.71 0 0 0-.72-3.08m3 .48c0 .75-.61 3 .52 3.24-.08-1.06.72-2.58-.52-3.24m4.53 2.16c.76 0 1.72-1.54.86-2-1.06-.58-1 1.51-.86 2m-5.77-1.45c-.73 1-.47 2.59-.46 3.75 1.13-.18 1.29-3.16.46-3.75m-8.73 2.08a1.07 1.07 0 0 0 1.24-1c-.64 0-1.24.3-1.24 1m12.25-.61c-.2 1.07 1.35.79 2 .73 0-1-1.31-1.1-2-.73m3 1.22c.39.12 2.6.19 2-.77-.2-.3-.93-.28-1.21-.25a.93.93 0 0 0-.78 1m-1-.24c-.7 1.54-2 2.76-2.71 4.27a2.48 2.48 0 0 0 1.5 0 9.93 9.93 0 0 0 .27 2.5 4.56 4.56 0 0 0 1.25-2.46c.41.26.83.52 1.26.74.28-.79-.23-1.93-.41-2.69s-.09-2.51-1.14-2.3m5.3 5.2c.17.1.46.75.18.75h-.92a3 3 0 0 1 .74-.76m-14 .63c-.08.5-.21 2.66.86 1.81.86-.68.05-1.86-.86-1.81m-7.48 1.31c.05.33.22 1.54.82.93s-.3-.85-.82-.93m34.55 6.2c-.35 1.91 2.07 1.44 2.28 3A59.27 59.27 0 0 1 44 146.8c-1-.52-2-.89-3-1.4-.47-.25-.94-.52-1.43-.73a5.3 5.3 0 0 1-.65-.28c-.4-.24-.45-.07-.33-.63.06-.3.2-1.06.59-.95a6.24 6.24 0 0 0 1.88.21c1.09 0 1.76 1.4 2.31 2.17 1.05 1.48 3.46 2.24 5.17 2.43a12.19 12.19 0 0 0 2.7 0 3.76 3.76 0 0 1 2.81.75M40.53 146a4.6 4.6 0 0 1-1.75.49c-.51.12-1.68.66-1.48-.2s.48-1.28 1.41-1.15a4.83 4.83 0 0 1 1.82.86m16.25.36c.3.45.8.32 1.26.23-.15 1.07-1.86.51-1.26-.23m-1.49.26a1.51 1.51 0 0 1-.75.51 1.36 1.36 0 0 1 .75-.51m.34 10.25c-.84-.5-.84-1.84-1.49-2.52s-1.7-1.68-2.82-1.28a10.61 10.61 0 0 0-2.84 1.64 3.26 3.26 0 0 1-3.17.81c-.45-.14-.76-.77-1.05-1.13a3 3 0 0 1-.82-1.37 10.57 10.57 0 0 0-1.06-3.29 3.88 3.88 0 0 0-2.64-1.79c-1.15-.2-2 .57-3.06.88a6.5 6.5 0 0 1-.62.22c1-2 3.78-2.3 5.56-1.47a4.1 4.1 0 0 1 1.67 2.43 7 7 0 0 0 1.13 3c.87 1.06 1.34 1.94 2.81 1.44 1-.34 1.66-1.27 2.64-1.63 1.22-.46 2-.77 3.18-.16a3.94 3.94 0 0 1 2 2.27 9.92 9.92 0 0 1 .63 2m4.17-9c-.83.13-.76 1.38-.74 2a1.88 1.88 0 0 1-.57-1.9c.18-.52.11-.9.68-.76a1 1 0 0 1 .63.65m-3.75 0a1.39 1.39 0 0 1-1.24 1.51 1.6 1.6 0 0 1 1.24-1.51m1.5.49c-.06.72 0 1.63-.73 2-.2-.66-.31-2.2.73-2m-39.48 1.84a1.93 1.93 0 0 0 .75.75 2.67 2.67 0 0 0 .24-1 2.58 2.58 0 0 0-1 .25m29.52 2.75c.2 1-1.8 1.23-2 .26.71-.13 1.25-.48 2-.26m-17.72 3.15c.55.1.66-.21.82-.67s0-.72-.34-1.11-.75.39-.8.55a1.38 1.38 0 0 0 .32 1.23m24 5.29c-.51.87-2.22.22-3 .06-1.1-.24-2.19-.43-3.27-.75-2.13-.62-4.23-1.25-6.3-2.06s-4.18-1.68-6.2-2.68c-.41-.2-2.75-1.41-1.7-1.8.79-.29 2.16.66 2.86 1a59.48 59.48 0 0 0 9 3.65c1.46.44 2.94.8 4.37 1.3s3 .56 4.28 1.24m-3.3-5.72a10.36 10.36 0 0 0-1.75-.23c.39-.84 1.77-.85 1.75.23m-23.49 1.21a2 2 0 0 0 1 .35c.52 0 .52-.33.69-.77s-.74-.37-.91-.4c-.33-.08-.71.57-.79.82m28.76.24a1.71 1.71 0 0 1 .5.75c-.3-.09-.9-.4-.5-.75m-5.42 9.55c-.59.47-1.46.2-2.12 0-.88-.21-1.76-.38-2.63-.59-1.7-.41-3.35-1-5-1.44a45.58 45.58 0 0 1-5.38-1.64 18 18 0 0 1-2.53-1.14c-.81-.47-1.8-.82-2.18-1.74.68-.36 1.49.06 2.14.33.93.39 1.85.8 2.78 1.21.74.33 1.59.48 2.35.75s1.75.69 2.64 1c1.62.6 3.33 1 4.95 1.61.82.32 1.63.61 2.46.87a15 15 0 0 1 2.49.79M43.92 162c0 1.51 2.52 2.62 3.68 1.67.63-.52-.8-1.63-1.21-1.78-.76-.27-1.69.14-2.47.11m1 5.24a.66.66 0 0 1-.75.26c.39 1.94 2.82 3.14 2.79 5.22-1.16-.05-2-1.9-2.59-2.72a14.84 14.84 0 0 1-2.21-3.48c.8 0 2.22 0 2.76.72m4.51 1.21a2 2 0 0 1-.75.76v-1c0-.36.67.06.76.2"/>
  <path fill="#e61408" d="M126.09 76.88l-9-1.9 1.22-2 2.19-3.47.65-.47 2.15 2.85 2.18 3.25"/>
  <path fill="#f8c20f" d="M114.33 78.94l2-3 1.15-1.13 5.68 1.23 8.84 2.72 5.26 2.81.67 1.36-1.5 1.07-1 2.16-5.14-.07L116.78 81"/>
  <path fill="#f8c20f" d="M128.3 100.48l1.85-3L135 87.39l-2.41-1.48-15.18-5.51-3.59-.15-.65.8-5.5 8.7 6.72 3"/>
  <path fill="#f8c20f" d="M108.1 89.74l19.38-.17.12 13.05-19.38.17z"/>
  <path fill="#f8c20f" d="M105.67 92.83l2-3.08 1.15.32v5.66l-2-.91"/>
  <path fill="#1c1585" d="M158.19 121.29h1.33l.16 19.38h-1.32z"/>
  <path fill="#1c1585" d="M142.57 108.92l15.8-.14.32 36.56-15.81.14z"/>
  <path fill="#1c1585" d="M125.13 138.55l21.47-.18.19 22.4-21.46.19z"/>
  <path fill="#1c1585" d="M154.2 153.37l-6.94 4.23h-1.92l-.74-14.22 14.24 1.06-1.28 5.35m1.88-9.79h-1.64v3.11h1.64zm-2.37-27.33h2.32l.08 8.39h-2.33zm1.68-3.17l-2.64-11.62L155 95.8l-.53 1.2-1.13 7.1-1.23 5.56"/>
  <path fill="#f8c20f" d="M75.54 141.09l20.92-.18.25 29-20.91.18z"/>
  <path fill="#e61408" d="M101.45 195.12l-3.37-2.69-4.79-4.43-2.08-2.26-2.14-1-2.47.26h-4.75l-.84-4.4h9.69l5.5 5.32 4.25 4 5.06 4.84"/>
  <path fill="#e61408" d="M82.67 185.2l-3.27.05-1.23 1.14-2.16 5-2.41-.08-1.36-.93 1.54-2.36 2.22-4.1 1.47-2.52 3.17-.34 2.42.41"/>
  <path fill="#f8c20f" d="M77.25 167.4l15.39-.14.12 13.91-15.39.14z"/>
  <path fill="#1c1585" d="M107.11 178.86L93 166.48H79.61l1.67 3.12 2.46 2.4 4.82 5.53 5.75 6.27"/>
  <path fill="#f8c20f" d="M74 142.2l-1.39 2.38 3.24 4.42 1-3.78-.66-3.39"/>
  <path fill="#1c1585" d="M80.39 168l-6.68-9.67-4.82-8.12 3.19-5 5.15 5.17 11.17 11.7 5.33 5.19"/>
  <path fill="#1c1585" d="M72.43 190.87L70 191l-8-2-3.19-1.64-2.23-2.36 14-13 5.08-10.56 2.59 3.43 3.27 4.83-2.91 8.7L75 186m40.81-59.88l7.68-15.24-.66-1.07-15.6-.19-3.65 16.38-1.68 8.88 10-.85"/>
  <path fill="#1c1585" d="M123.38 110.51l2.76-6.28-.9-4.6-3.24-3.74-4.59-.89-6.41 1.73-2.71 2.44-1.18 11.5"/>
  <path fill="#e61408" d="M91.62 120.46l-.17-5.68 12-18.36 1.84-2.65 1.5.41 2.21 4.68.44 4.78-4.18 14.36-3.34 17.08"/>
  <path fill="#e61408" d="M102.11 135.33l-10.23.45-.09-15.89 13.25-.17M77.6 237.33l-.08-12.16-7.77.18-2.64 3.65-2.11 3.39.88.77 2.86 1.15 3.14 1.62 2.74.85"/>
  <path fill="#e61408" d="M115.71 221.38l-4.2 3.49-4.51 3.94-3.69 3.7-1.52 1.15-1.47.41-2.91.14-6.27 1.08-8.24 1.39-5.74.41v-12l8.28-1.39 5.39-1.1 3.68-1.12L98 220l4.22-1.87 4.66-3.07 3.2 2.23 2.75 2 1.57.95 1.65.2m29.52-52.68l1.71-2.84.79-3.89.11-3.48-2.31.38-1.59.76.52 8.75"/>
  <path fill="#e61408" d="M136.7 176.83l-9.7-3.26 7.06-13.91 3.44.26 2.71.11 5.15-1.9.22 9.45-3.83 4.5"/>
  <path fill="#e61408" d="M125.71 188.07l-4.63.06-2.28-1.89 8.77-13 9.05 3.12-2.89 4.35-2.23 3.62-2.89 2.48M68.7 150.45L56.55 169.6l3.7 6.3.1 7.29 2.89-1.59 3.54-3.86 4.51-6.66 2.12-4.86 1.5-3 1.15-.49m21.38 5.5l-1.78-.73-.8-5.56-1.48-9L92 140.52l4.79-.16"/>
  <path fill="#e61408" d="M95.52 149.9l29.48-.26.3 35.14-29.48.22z"/>
  <path fill="#e61408" d="M94.06 145.43l16.75-.15.07 8-16.75.15z"/>
  <path fill="#e61408" d="M93.31 140.25l13.91-.12.07 7.31-13.92.12z"/>
  <path fill="#f8c20f" d="M119.2 186.87l-8.51-5.47 1-2.74 2.77-8.17 3.71-9.23 4.21-8.75 2.62 1.59 2.58 1.56 7.3 3.66-1.41 3.52-3.87 7.41-4.81 7.94-4.47 6.5m31.95-75.08l.91-4.88 1.7-8.59-.26-2.14-3.13-7-2.25-3.36L147 81l-2.08-1.32v3.58l-.11 6.95-2.43 13-1.52 6.32"/>
  <path fill="#f8c20f" d="M145.6 132.92l3-9 4-15.36-11.48-.07-2.12 7.74-2.4 6.85-4.5 9.78"/>
  <path fill="#f8c20f" d="M122.48 152.66l3 .12 4.37-1.72 6-3.66 4.2-3.89 2.22-3.31 3.44-7.82-13.55-.08"/>
  <path fill="#f8c20f" d="M125 134.18l1.15 2-1.23 1.5-2.25 1.9-1.86 1-2.23-.12-1.27 9.75 8.47.08 7.57-3.71 3.87-4.06 2.42-3-13-6.25m-48.89 2.9l13.66-21.25.46 1 .1 19.77M60.3 183.38v-7.17l-4-6.29-3 4.71-1.37 2.37-.15 1 1.76 2.28 2.9 4.06"/>
  <path fill="#1c1585" d="M105.37 194.82l-8.21-8.09-3.16-3.24 1.47-14 5.37 4 10.83 8.38 9.33 6.51-3.78 2-4 2.32-3.5-.33-1.85 2.73"/>
  <path d="M116.81 220.43a9 9 0 0 1-3-.72 20.73 20.73 0 0 1-2.85-2c-.84-.72-1.68-1.52-2.48-2.29-.24-.24-1-.85-1-1.17-.09-.58-.15-1.18-.27-1.75a8 8 0 0 0-1.23-3.21c-.54-.78-1.54-1.68-1.55-2.66s-.14-.93.66-1.29c.56-.24 1 .22 1.34.65s.59.89 1 .93c.68.07 1-.68 1.27-1.13a2.63 2.63 0 0 0 .44-1.53c0-.49-.15-1.19.14-1.65s.93-.56 1.29-.86a3.58 3.58 0 0 0 1.18-1.39c.43-1 .46-2.31 1.75-2.39 1-.07 2.34-.5 2.32-1.77a3.35 3.35 0 0 1-2.63-.23 5.28 5.28 0 0 0-2.88-.72c.63-1.14 1.52-.57 2.55-.55a5.91 5.91 0 0 0 1.67-.23c.56-.13 1-.72 1.35-1.11a13.15 13.15 0 0 0 .79-1.16c.36-.44.84-.77 1.2-1.21a7.46 7.46 0 0 1 2.64-1.76c2-1 4.22-.32 6.31-1.12a13.13 13.13 0 0 0 7.1-6.76 9.91 9.91 0 0 1 1.65-2.9c1.64-1.59 3.22-3.16 5-4.66 3.26-2.81 6.55-6.44 7.56-10.71a14.36 14.36 0 0 0 .44-3.25 4 4 0 0 1 1.1-2.89 13.12 13.12 0 0 1 2.68-1.71 20.2 20.2 0 0 0 2.62-1.79 10.93 10.93 0 0 0 3.62-5.58 22.69 22.69 0 0 0 .87-3.13c.17-1 .1-2.07.25-3.1a40.59 40.59 0 0 0 .13-6l-.06-6.83c0-2.8 0-5.6-.07-8.41a45 45 0 0 0-.06-5.81c-.15-1.08-.08-2.3-.3-3.35a28.38 28.38 0 0 1-.69-3.14 39.1 39.1 0 0 0-1.17-6.52c-.28-1.12-.55-2.23-.87-3.34a29.58 29.58 0 0 0-1.33-2.78c-.38-.91-.5-1.93-.87-2.86-.46-1.17-1-2.33-1.47-3.49a26.6 26.6 0 0 0-3.45-5.56c-.68-.87-1.35-1.73-2.1-2.54a12.43 12.43 0 0 0-2.71-1.89 7.74 7.74 0 0 0-6.29-1.1c-1.09.29-2.06.82-3.12 1.15s-2-.16-3-.51c-1.38-.45-2.74-.94-4.12-1.4s-2-1.55-2.71-2.72-1.44-2.25-2.24-3.32-1-2.3-1.94-3c-.88 1.38-1.74 2.78-2.62 4.15a34.81 34.81 0 0 0-2.56 4.15c2.09-.16 4.37 1.14 6.33 1.67 2.11.58 4.16 1.29 6.21 2.08 1 .39 2 .85 3.07 1.21a15.37 15.37 0 0 1 3.1 1.22c.85.52 1.79 1.5.83 2.49-.32.33-.76 1.08-1.28 1a6.11 6.11 0 0 1-1.58-.57 12.28 12.28 0 0 1-2.86-1.7c.85 0 1.64-.27 2.5-.27-.16-1-.9-1.3-1.68-1.79-.41-.25-.51-.38-1-.32s-.91.13-1.37.14a3.83 3.83 0 0 0 1.27 2.24 17.26 17.26 0 0 1-3.94-1.33c-1.2-.46-2.43-.84-3.64-1.24-2.56-.86-5.3-1.08-7.71-2.3-.29 1-1.16 1.77-1.48 2.77a8.44 8.44 0 0 1 3 .62c1 .26 2.07.38 3 .72 2.1.73 4.21 1.46 6.31 2.21a57.05 57.05 0 0 1 6.25 2.64c.45.23.91.47 1.37.69a3 3 0 0 0 .58.26c.43.12.26.37.13.75a4.75 4.75 0 0 1-2 2.46c-.88.54-2.1 1.46-3.15 1.49a2.08 2.08 0 0 1-1.8-.63 4.22 4.22 0 0 1-.89-1.16 1.61 1.61 0 0 1 1.35.24c.39.28 1.15.8 1.66.59s.66-1 .84-1.37a6.52 6.52 0 0 0 .66-1.7c.12-.61-.89-.62-1.23-.66a5.43 5.43 0 0 0-.9 0c-.24 0-.5-.2-.73-.25-1.51-.33-1.5 1.06-.91 2.09-.9 0-1.31-1-1.55-1.74a8 8 0 0 0-1.46-2.34 3.47 3.47 0 0 0-2.16-.85 5.11 5.11 0 0 0-2.61 1c.34-1.25-1.29-2.29-2.05-3.07-.41-.42-1.29.73-1.54 1s-.6.48-.68.71.22.64.42.95a1.13 1.13 0 0 0 .65.38c.4.13.25.55-.09.64a1.34 1.34 0 0 1-1.56-.77c-.57-1.18-.92-2.63-2.18-3.27a16.81 16.81 0 0 0-1.15 2.18 1.75 1.75 0 0 1-.55.81c-.21.17-.22-.08-.38.23a2.47 2.47 0 0 1-.19.36 3.62 3.62 0 0 0-.41 1.17c-.13.45.37.56.74.8s.52.44.86.09a2 2 0 0 0 .28-1.23c0-.27.07-1 .58-.66a7.69 7.69 0 0 1 .42 1.12 3.5 3.5 0 0 0 1.66 1.75 3.74 3.74 0 0 0 2.36.58 9.59 9.59 0 0 0 2.33-.51c-.12.48-.23 1.31.4 1.51a10.31 10.31 0 0 0 1.91.66c.76 0 1.26.22 1.45-.66.13-.59.32-1.17 1-1.3 0 1.57.89 3.1 1.54 4.49a25.65 25.65 0 0 1-4.31-1.76 36.76 36.76 0 0 0-4.2-1.49c-1.4-.46-2.81-.87-4.23-1.27-1.07-.31-3-1.17-4.06-.59.32.38 2.51.93 2.51 1.06 0 .65-.45.51-1 .54s-1.08 0-1.45.43-.67 1.15-1.12 1.16a2 2 0 0 1-.84-.14c-.17-.06-.35.55-.41.72-.22.6 0 .49.43.79a3.84 3.84 0 0 1 1 1 33.28 33.28 0 0 1 1.73 2.94 6.22 6.22 0 0 0 .32.56c.18.29.22.14.52 0a5.42 5.42 0 0 0 1.44-.94 13 13 0 0 1 5.89-2.29 8.71 8.71 0 0 1 6.11 1.72 7.63 7.63 0 0 1 2.45 5.82 13.14 13.14 0 0 1 0 1.66 5.82 5.82 0 0 1-.56 1.54 49.87 49.87 0 0 1-1.42 3.16 55.79 55.79 0 0 0-2.71 5.94c-.57 1.62-1.5 3.08-2.18 4.65s-1.5 3.23-2.29 4.83-1.41 3-2.21 4.4q-.6 1.08-1.17 2.19c-.37.71-.77 1.68-1.72 1.7a11.09 11.09 0 0 1 1.27-3c.48-1 1-1.94 1.43-2.92 1-2.11 1.81-4.28 2.81-6.37s1.74-4.1 2.68-6.11a36 36 0 0 0 2.46-6.45c.52-2.13 1.23-4.26.66-6.46a5.41 5.41 0 0 0-4.8-4c-2.08-.32-4.52 1.09-5.94 2.49a8 8 0 0 0-2 2.56c-.43 1.08-.93 2.13-1.37 3.21-.8 2-1.21 4.1-1.82 6.13-.67 2.23-1.19 4.51-1.67 6.79-.91 4.29-1.82 8.56-2.64 12.87a3.87 3.87 0 0 1-.58 1.53 6 6 0 0 1-1.46.77c-.44-2 .19-4.27.45-6.31s.63-4.36 1.11-6.47c.95-4.25 1.5-8.58 2.45-12.82.24-1.06.41-2.13.64-3.19a16.39 16.39 0 0 0 .57-3.31 31.54 31.54 0 0 0-.13-3.37c-.05-.37-.76-2.57-1.25-2.56-1.21 0-.09 1.95.12 2.56a8.81 8.81 0 0 1 .27 3.23 30.54 30.54 0 0 1-1.09 6.68c-1 4.29-1.7 8.66-2.54 13a55.43 55.43 0 0 0-1.1 6.13c-.08 1.07-.25 2.14-.43 3.2-.09.57-.08 2.69-.81 2.92a11.46 11.46 0 0 1-3.21.61c-1 0-2.25.4-2.72-.66a8.7 8.7 0 0 1-.11-3v-3.33c0-2.42 0-4.83-.06-7.25 0-1 .23-2 .22-3v-3.45a5.1 5.1 0 0 0-1.73 2.51c.62-.32.75-.4.76.29v2.3a29.29 29.29 0 0 1-.09 3.11 53.29 53.29 0 0 0-.08 6.32v3.77c0 .58.21 2.55-.73 2.62s-.77-2.23-.85-2.83a5.47 5.47 0 0 1 .06-1.51 11.58 11.58 0 0 0-.12-1.56v-10.5c-1.58.35-1 4-1 5.28l.06 7.54c0 1 .29 2.52-.13 3.42s-2 .77-2.92.95a3.3 3.3 0 0 1-1.46.07c-.84-.33-.92-.39-1.16-1.26a14.15 14.15 0 0 1-.08-3.19v-3c-1.61 1.31-1 4.27-.93 6.06a6.24 6.24 0 0 1-.25 1.66c0 .11-.5.08-.54-.06-.08-.31-.15-.62-.22-.94a14.28 14.28 0 0 1-.28-3.2c-1.25 1-.57 2.4-.93 3.66-.24.88-1.21.68-1.88.63-.29 0-.74 1.05-.91 1.33-.8 1.28-1.63 2.54-2.44 3.81a4.84 4.84 0 0 0-.87 1.78c-.08.7 0 1.41-.11 2.1a3.33 3.33 0 0 1-.26-1.5c-.46.27-1.86 2-1.3 2.39a11.3 11.3 0 0 1 2.1 2.21c1.42 1.76 3.07 3.31 4.58 5 3 3.33 6.34 6.39 9.54 9.53s6.28 6.38 9.58 9.39a114.39 114.39 0 0 0 10.22 8.19c2.11 1.53 4.26 3 6.44 4.39a46.79 46.79 0 0 1 5.56 3.83c-1 .16-1.91 1-2.84 1.44a14.69 14.69 0 0 0-2.82 1.44 3.28 3.28 0 0 1-3 .72c-1.19-.18-2.1-.14-2.82.91a6.69 6.69 0 0 1-1.12 1.31c-.52.45-.86.34-1.43 0a23.1 23.1 0 0 1-2.58-1.93c-1.75-1.45-3.28-3.13-4.93-4.68-3.18-3-5.9-6.38-8.91-9.51A112.53 112.53 0 0 1 81 168c-2.15-2.83-4-5.82-6-8.78-1-1.56-2.06-3.12-3-4.71-.51-.84-1-1.67-1.51-2.51a5.34 5.34 0 0 1-1-2.36c-1.7 1.47-1.7 3.71-2 5.77s-.7 4.34-1.17 6.49-.79 4.21-1 6.28a27.19 27.19 0 0 0-.28 3.37 11.13 11.13 0 0 0 .14 3.16c.17.58.34 1.15.5 1.73a2.57 2.57 0 0 1-.09 2 6.74 6.74 0 0 1-1.67-2.52c-.16-.5-.32-1-.44-1.51s-.44-.36-.86-.12-2.36 1.63-2.29.2c0-.89 1.37-1.84 1.79-2.55a27.79 27.79 0 0 0 2.36-6.5 44.87 44.87 0 0 0 1.3-6.44c.13-.9.31-1.77.5-2.65a7.65 7.65 0 0 0 .45-2.51 14 14 0 0 0-1.82 2.49c-.1.14-.38.38-.41.53s.24.47.26.59a5.16 5.16 0 0 1-.13 1.66 48.08 48.08 0 0 1-1.51 6.38c-.61 2.06-1 4.2-2.26 6-.72 1-1.57 1.4-2.36.24s-.07-1.87.44-2.8a20.56 20.56 0 0 0 1.55-2.42 6.64 6.64 0 0 0 .07-2.84c-.91.79-.78 2-1.41 3a12.18 12.18 0 0 0-1.53 3.06c-.27-.26-.58-.75-.88-.31-.11.14-.65.77-.58.89.4.62.79 1.24 1.16 1.88a24.94 24.94 0 0 1 2.36 4.52c-1-.61-1.45-2.22-2-3.19s-1-1.87-1.6-2.77a1.19 1.19 0 0 0-.49 1.5 3 3 0 0 0-.73.14c-.39.17-.22.33-.14.74a8.17 8.17 0 0 1 .14 1.78A14.56 14.56 0 0 0 55 177c.14.93.41 1.1 1.21 1.46a6.58 6.58 0 0 0 1.8.49c.42.06.48-.08.51.38s0 .7 0 1.06c0 .81.16 3.19-1 3.34a5.47 5.47 0 0 0 .32-2.51c0-.57.09-1.17-.41-1.53a6.08 6.08 0 0 0-1.51-.56c-1.17-.38-1.42-1.06-1.46-2.21a4.81 4.81 0 0 0-.53-2.9 8.62 8.62 0 0 0-1.8 2.51 4.64 4.64 0 0 0-.54 1.51c0 .52.55 1.1.84 1.49.68.92 1.39 1.81 2.08 2.72a17.93 17.93 0 0 1 1.49 2.89 9.71 9.71 0 0 0 2.53 2.28 12.87 12.87 0 0 0 2.85 1.66 15.86 15.86 0 0 0 3 .71 18.72 18.72 0 0 1 3.29 1 9.72 9.72 0 0 0 3.32.75 13.5 13.5 0 0 1 2.9.22 6.34 6.34 0 0 1 1.55.48c.78.45.64.7 0 1.19-.28.21-1.14.13-1.49.16-.54 0-1.06.17-1.61.2-.86 0-2.18.3-2.52 1.17-.17.43-.67 1.21-.62 1.67a9.72 9.72 0 0 0 .38 1.68c.21.86-.94 1.92-1.25 2.72a2.76 2.76 0 0 0-.33 1.57c0 .29.39 1.24 0 1.4-.76.26-2.54.38-2.45 1.53a19.25 19.25 0 0 0 .77 3.34c.56 2.07 1.22 4.18 1.61 6.29.18 1-.08 2 .07 3a33.74 33.74 0 0 0 .8 3.3 20.79 20.79 0 0 1 .72 3.1c0 .31-.45 1-.63 1.31-.29.46-.7.86-1 1.3-.66.88-1.28 1.81-1.88 2.73-.34.52-1.73 2.15-1.36 2.77s2 1.14 2.72 1.41c1.15.4 2.23.93 3.33 1.44s1.85 1.05 2.85 1.43a8.57 8.57 0 0 0 3.2.6c1.11 0 2.15-.23 3.25-.31a30.63 30.63 0 0 0 3.18-.36c2.06-.37 4.12-.7 6.18-1.07 2.21-.38 4.39-.74 6.62-1 1-.1 2-.47 3-.5a5.35 5.35 0 0 0 3.28-.67c1.83-1.31 3.25-3.22 5-4.71s3.09-2.7 4.69-4c.93-.75 1.83-1.58 2.81-2.28.71-.51 2.19-1.23 2.19-2.24m-1.49.51a8.17 8.17 0 0 1-2.27 2.23c-.76.64-1.57 1.22-2.33 1.86-1.73 1.47-3.44 2.93-5 4.52-.81.8-1.6 1.59-2.34 2.46a7.59 7.59 0 0 1-1.24 1.23 3.39 3.39 0 0 1-1.63.57c-1 .22-2.18.08-3.24.25a29.75 29.75 0 0 1-3 .29c-1.12.06-2.19.44-3.3.52a21.53 21.53 0 0 0-3 .43c-2.21.48-4.48.74-6.71 1.15a10.48 10.48 0 0 1-1.68.05c-.49 0-1 .18-1.47.18a17.59 17.59 0 0 1-3.32-.21c-2.18-.39-4.26-1.82-6.29-2.67-.67-.28-2.62-.75-2.53-1.59s.23-.77 1.06-1.05c.45-.15 1.25.32 1.68.46a40.72 40.72 0 0 1 6 2.66 7.45 7.45 0 0 0 3.13.95 17.72 17.72 0 0 0 3.11-.58c2.14-.37 4.33-1 6.48-1.23s4.38-.58 6.55-.86c1.08-.14 2.17-.19 3.24-.36a13.31 13.31 0 0 0 3.16-.44c2-.85 3.51-3.3 5-4.91a45 45 0 0 1 5-4.35 14.61 14.61 0 0 1 2.33-1.49 3.07 3.07 0 0 1 2.68-.07m-37.36 12.34a5.79 5.79 0 0 1 .49-1.25c.27.4-.16 1-.49 1.25m3.75-.28c.2-1.34 1.85-2.6 1.46-4a13.16 13.16 0 0 0-2.47 3.27c-.65-1 1.4-2.61 1.22-3.76-.74.37-1.27 1.09-2 1.52a3.54 3.54 0 0 0 .24-2c-1.45.88-1.84 2.84-3.22 3.77.56-1.22 1.81-2.39 2-3.76-1.09 0-1.82 1.42-2.37 2.19s-1 1.8-1.84 2.34a10.58 10.58 0 0 1 1.59-2.78c.15-.25 1.51-2.12.86-2.24-.18 0-.92.68-1 .79a9.79 9.79 0 0 0-1 1.36 6.27 6.27 0 0 1-1.9 2.39 14 14 0 0 1 1.44-2.49c.29-.5.58-1 .86-1.49.07-.13.6-1.32.1-1a6.87 6.87 0 0 0-1.94 2.27c-.47.71-1.05 2-2 2.23.54-1.66 2.24-3 2.46-4.77a4.2 4.2 0 0 0-1.93 1.93c-.41.63-1 2-1.79 2.1.24-1.62 2.21-2.79 2-4.52a6.45 6.45 0 0 0-1.7 2.1c-.43.66-1 1.68-1.76 1.93a14.18 14.18 0 0 1 1.4-2.67 3.51 3.51 0 0 0 .53-1.3c0-.43.75-.42 1.19-.47 2.19-.24 4.4-.15 6.58-.5 4.34-.7 8.66-1.35 12.92-2.46a40.34 40.34 0 0 0 6.09-2.22 49.79 49.79 0 0 0 6-3 17.22 17.22 0 0 1 2.82-1.63c1.1-.41 1.91.46 2.65 1.18s1.75 1.54 2.48 2.4c.41.48.22.55-.22.81s-.9.63-1.32.95a43.48 43.48 0 0 0-5 4.21c-.8.82-1.53 1.67-2.29 2.52-.34.39-.67.78-1 1.13s-.86 1.09-1.32 1.25c-2 .73-4.21.54-6.33.86s-4.3.53-6.43.91a25.53 25.53 0 0 1-4.18.42c.22-1.11 1.29-1.87 1.47-3-1.17.21-2.57 2.1-2.22 3.27h-1m4.73-2.79c-.5-.06-2.26 1-1.68 1.58s1.61-1 1.68-1.58m-7.38.77c.37-.75.76-.38 0 0m-11.51-1.15c-.55-1 1.28-3.19 2.22-3.52a6.3 6.3 0 0 1-2.22 3.52m2.29-24.77c.59-.11.75.35.65.87a4.1 4.1 0 0 1-.88 1.39c.6-.22 1.44-.8 1.48-1.52.07-1.16-1.2-1.26-2-1.23 0-.85 0-1.55.75-2.06.55-.35 1.88-.87 1.74.29a3.51 3.51 0 0 0 1-1.76c-.67-.08-1-.07-1.42-.57a5.17 5.17 0 0 1-.78-1.6c-.32-.83-1.26-2.06-.85-3 1-2.25 4-1.84 6.11-1.86a19.17 19.17 0 0 1 3.19.39 9.29 9.29 0 0 1 3 .91 16.51 16.51 0 0 1 5.13 4.57c.62.85 1 2 1.9 2.52-1-1.78-1.94-3.78-3.51-5.13a13.8 13.8 0 0 0-6.1-3.33 6.51 6.51 0 0 1-1.57-.49c-.36-.18-.36-1.07-.38-1.47a14 14 0 0 1 0-3.23 5.61 5.61 0 0 1 1.48-2.89c.77-.59 2.12-.39 3-.4 2.32 0 4.57-.29 6.88-.31a3.93 3.93 0 0 1 2.79 1.65c.71.8 1.49 1.54 2.25 2.29 1.64 1.61 3.3 3.12 5.09 4.56.81.66 1.89 1.28 1.77 2.43 0 .19-.39 1.05-.59.93-.37-.23-.73-.5-1.09-.76a4.35 4.35 0 0 0-3.12-.77c-1 0-1.81 1.09-2.4 1.79a3 3 0 0 0 1.72 4.57c-.31 1-1.57 1.57-2.32 2.16a9.38 9.38 0 0 1-1.21.95c-.64.37-.91.07-1.33-.49s-1.34-1.82-2.16-.92-1.39 1.73-2.13 2.55-1.77 1.23-2.14 2.18l-.74 1.89a3.51 3.51 0 0 0 0 1.58c.08.92.81 2.12.45 3a14.25 14.25 0 0 0-1.22 3.24 4.77 4.77 0 0 0 0 1.46c0 .54.37.84-.29 1a6 6 0 0 0-2.51 1.54 6.17 6.17 0 0 1 1.71-.27c.73-.09.73 1 .79 1.38.13.93-1.94 1.07-2.6 1.16a48.38 48.38 0 0 1-6.58.64c-.5 0-1 0-1.5-.08-.76-.06-.92-.06-1.33-.68a12.64 12.64 0 0 1-1.09-3.15 11.36 11.36 0 0 1-.67-2.92 13.92 13.92 0 0 0 0-3.23c-.67-2.32-1.21-4.66-1.87-7-.14-.51-.95-3.1.29-2.87 1 .18 2.65 1.42 3.26.11m14.65 18.13c0-.85.24-1.65.23-2.51a2.11 2.11 0 0 1-.23 2.51m3-.53c.17-1.06.61-2 .69-3.05a8.35 8.35 0 0 0-.48-3.17c-.62-2-2.12-3.6-2.06-5.76 1 .24 1.64 1.82 2.21 2.56a8.07 8.07 0 0 1 1.61 3c.35 1.68.67 6.3-2 6.39m2.49-.77c.89-2.76 1.16-6-.46-8.59-.79-1.27-2-2.56-2.35-4-.32-1.19-.74-3.51.92-3.89a5.34 5.34 0 0 0 1.27 3 28.36 28.36 0 0 0 2.3 2.47 7.46 7.46 0 0 1 2 3 14.91 14.91 0 0 1 .33 3.71 2.32 2.32 0 0 1-.33-1.07 8.43 8.43 0 0 0-.63-1.67 7.39 7.39 0 0 0-1.87-2.66 16.82 16.82 0 0 1-2.52-2.44 7.87 7.87 0 0 1-1.07-3.07c-.72 1.2.12 3.12 1.07 4a13.79 13.79 0 0 1 3.31 3.55 7.41 7.41 0 0 1 .62 4.71c-.16.91-1.36 3.62-2.62 3m2.25-.27a2.48 2.48 0 0 1 .49-1.25 1.93 1.93 0 0 1 .76.74 6.19 6.19 0 0 1-1.25.51m-5.5.05a23.55 23.55 0 0 0-.21-3.94c-.21-1.19-.69-2.36-.85-3.55 1 .72 1.52 2.66 1.76 3.79s.35 3-.7 3.7m-3.5-.72a5.91 5.91 0 0 1-.26-1.25.87.87 0 0 1 .26 1.25m11.75-.6a3 3 0 0 1 .74-.76c0 .46-.22.8-.74.76m-9.25.08c-.4-.6-.83-1.18-1.17-1.82a3.28 3.28 0 0 1-.33-.82c0-.21.53-.37.72-.43s.72-.32.8 0a6.09 6.09 0 0 1 .19 1.28 2.64 2.64 0 0 1-.21 1.78m-5.3-5.71c-.73.58-.76 1.69-1.63 2.21a9.92 9.92 0 0 1-3.19 1.27 16 16 0 0 1-3.32.09 17.34 17.34 0 0 1-3.08-.47c.16 1.18 2.06 1.27 2.95 1.51a7.59 7.59 0 0 0 3.31-.25 9 9 0 0 0 3.2-1.37 5.93 5.93 0 0 0 1.37-1.22 3.86 3.86 0 0 0 .41-1.79m15.54 4.37c.16-1 .62-2 .84-3a5.87 5.87 0 0 0-.1-3c-.56-1.78-2.14-4.35-1-6.16a13.92 13.92 0 0 1 2.34-2.45 6.72 6.72 0 0 0 1.86-2.5 16 16 0 0 0 .74-3c.17-1.07.37-2.13 1.39-2.7a9.24 9.24 0 0 1-.24 1 20.29 20.29 0 0 1 4-.28 2.92 2.92 0 0 0 1.84-.73 7.19 7.19 0 0 0 .93-1.76c.26-.47.63-1.25 1.16-1.43s1.38.18 2 .22a2.91 2.91 0 0 0 2.14-.6 10.56 10.56 0 0 1 1.55-1 2.71 2.71 0 0 1-1.56 2.35c-1.15.32-2.1-.59-3.17-.36s-1.58 1.58-1.8 2.53-1.49 1.38-1.81 2.29c-.17.46-.79.19-1.19.06a1.19 1.19 0 0 1-.62-.36c-.16-.19.1-.39-.2-.44a2.65 2.65 0 0 0-2.89 1 3.08 3.08 0 0 0-.84 1.37c-.07.56-.18 1.12-.27 1.68a3.84 3.84 0 0 1-1.18 2.67c-1.13.9-2.52 1.6-3.29 2.87s0 2.92.46 4.28c.4 1.15 1 2.86.79 4.09a8.31 8.31 0 0 1-.6 2.18l-.43.86c-.22.46-.41.34-.91.35m-1.25 0c.06-1.76.57-3.67 0-5.39-.57-1.56-1.79-3.44-1.76-5.14a6.32 6.32 0 0 1 .79-2.88 10.67 10.67 0 0 1 1.5-2 6.47 6.47 0 0 0 1.43-2.4 3.29 3.29 0 0 0-.59-2.46 2.4 2.4 0 0 1-1 .51c.16-1.36 2.12-1 2.41.11a4.76 4.76 0 0 1 .19 2.05c-.06.61-.2 1.22-.32 1.82a4.51 4.51 0 0 0 1.21-2.85 7.45 7.45 0 0 0-.18-1.62c0-.31-1-.9-1.22-1.1s-.64-.68-1.19-.6-1 .58-1.42 1c-.76.73-.17 1.91.53 2.42-.45.39-.84-.12-1.11-.44-.41-.5-.19-1.18-.16-1.81.08-1.28 1.19-1.55 2.21-1.74.57-.11.89-.26 1.39 0a4.23 4.23 0 0 1 1.52 1.15 4.29 4.29 0 0 1 .48 3.1 4.54 4.54 0 0 1-1.5 2.78c-.86.69-1.84 1.19-2.68 1.92a4.72 4.72 0 0 0-1.2 2.92 5.79 5.79 0 0 0 1.09 3.1 8.94 8.94 0 0 1 .9 1.7 7 7 0 0 1 .19 2 5.22 5.22 0 0 1-1.47 3.77m3.75-.29c0-1 .21-2 .33-2.94a7.75 7.75 0 0 0-.52-3 13.54 13.54 0 0 1-1.06-2.79c-.08-.85-.3-2.24.65-2.71 0 2.22 2.19 4.13 2.94 6.16s.21 5.33-2.34 5.33m3.48-2c0-1.35.35-2.68-.4-4-.43-.72-.87-1.44-1.32-2.15a4.76 4.76 0 0 1-.85-1.62 4.86 4.86 0 0 1 1 .74 13 13 0 0 0-.27-2c1.17.71 2 3 2.22 4.23a17.66 17.66 0 0 1 .09 2.62c0 .62.11 1.73-.48 2.13M78.75 213c-.85-.53-.92-1.76-2-2a4.54 4.54 0 0 1 .26 1.49 4.55 4.55 0 0 0-3.76-.71v-1c-1 .18-1.16 2.42-1.36 3.23-.14.58-.67 1.16-.64 1.78s.48 1.27 1.13 1.14a8.73 8.73 0 0 0 3.44-1.79c.86-.63 2.73-1 3-2.16m5.78 3.45l-.26-.5c.64-.13.67.55.26.5m20.49-.93c0-.63.26-1.26.23-1.88a8 8 0 0 0-.44-2.43 23.44 23.44 0 0 1-1.36-3.93c1.44 1 1.9 2.72 2.33 4.3.22.79.6 4.18-.76 3.94m-1.25 0a11.83 11.83 0 0 0-.68-4.53c-.33-.78-.67-1.56-1-2.33a7.58 7.58 0 0 1-.64-2.62 7.07 7.07 0 0 1 .86 2.21c.29.82.72 1.59 1 2.4.44 1.2 1.54 3.77.45 4.87M74 215.3a2.44 2.44 0 0 1 1.75-1.3 2 2 0 0 1-1.75 1.3m1.5-2.3a2.1 2.1 0 0 1-1 .37c-.55-.07-.45-.44-.52-.91 0-.31.7-.27.87-.24.36.08.49.49.63.78m9.75.16a11.1 11.1 0 0 1-.53-3.24 3.22 3.22 0 0 1 .41 1.37c.12.5.54 1.41.12 1.87m4.7-5.54c-.17-.26-1.16-2.46-.42-2.21a1.33 1.33 0 0 1 .42 2.21m18.23-2.41c-.38-.33-.66-.77-1-1.13a3.48 3.48 0 0 0-1.63-.92c-1-.35-1.74 1.42-2.62 1.6.21-1.46 1.57-3.18 3.23-2.93 1.3.19 3 2.07 2 3.38m-5.77-2.7a5.24 5.24 0 0 1 .33-2.49c.42-.92.64-1.91 1.88-1.78-.39.67-1.1 1.08-1.49 1.77.53-.12 1-.35 1.56-.47a6.91 6.91 0 0 1 1.76-.05c1.29.05 2.2-.62 3.42-.79 0 1.77-2.14 1.85-3.36 2a6.51 6.51 0 0 0-2.24.48c-.65.4-1.21.9-1.86 1.28m6.24-.8a7.27 7.27 0 0 1 2.48-2 2.34 2.34 0 0 1-2.48 2m-39-1.91c.59.19 1.73.71.79 1.2s-1.1-.58-.79-1.2m35.72-3.31a1.94 1.94 0 0 1 1.25-.26 2 2 0 0 1-1.25.26m-1-2c-2 1-3.93-.37-5.43-1.72-1.78-1.6-3.57-3.16-5.27-4.86-1.5-1.51-2.79-3.54-5.13-3.54-.47 0-.94.22-1.41.24s-1.2 0-1.8 0H81.9a6.15 6.15 0 0 0-3.07.52c-.86.54-1.43 1.91-2 2.75-.33.51-1 2.27-1.61 2.5-.46.16-1 .56-1.47.24-.27-.19-.07-1.23.12-1.5 1.21-1.76 1.94-3.86 3-5.72a4.63 4.63 0 0 1 .88-1.28 3.39 3.39 0 0 1 1.65-.24c1.09 0 2.22.05 3.3-.06 2.15-.21 4.33-.4 6.49-.44a3.82 3.82 0 0 1 3 .93 23 23 0 0 1 2.33 2.41c1.48 1.72 3.21 3.25 4.83 4.84.75.75 1.51 1.49 2.3 2.21A17.57 17.57 0 0 1 104 194a3.24 3.24 0 0 1 .35.53m-40-5.65a10.34 10.34 0 0 1 2.34-2.42c.78-.69 1.48-1.5 2.19-2.26a25 25 0 0 0 3.56-5.15c2.19-3.9 3.23-8.36 4.81-12.51.13-.34.3-.68.4-1a9.59 9.59 0 0 1 2.23 2.39 3 3 0 0 1 .67 2.89 53 53 0 0 1-2 6.27c-.84 2.14-1.79 4.21-2.68 6.33a28.82 28.82 0 0 1-3 5.66 4.64 4.64 0 0 1-1.57 1.52c-.9.33-1.71-.12-2.61-.39-1.45-.43-2.85-.94-4.33-1.3m83.49-30.73a16.15 16.15 0 0 1-.94 6.5 18.07 18.07 0 0 1-3.85 5.43c-1.54 1.56-3.22 2.91-4.82 4.4-.82.76-1.48 1.68-2.23 2.52a13.12 13.12 0 0 0-2 2.38 23.26 23.26 0 0 1-1.51 3 13.37 13.37 0 0 1-2.18 2.51 10.87 10.87 0 0 1-5.69 3 8.28 8.28 0 0 1-3.41-.44c-1.22-.33-1.2-1.37-.68-2.27a24.41 24.41 0 0 1 1.78-2.4c.73-1 1.4-2 2-3 1.11-1.81 2.27-3.56 3.31-5.41s2.25-3.9 3.37-5.84a55 55 0 0 0 2.83-6 11.84 11.84 0 0 1 .65-1.51 1.38 1.38 0 0 1 1.38-.82 16.22 16.22 0 0 1 3 .32c1.78.25 3.18-.4 4.85-1 1.38-.49 2.61-1.35 4.11-1.36M57.25 185c2-.67 4-1.26 5.62-2.62a44.56 44.56 0 0 0 4.67-4.85 40.64 40.64 0 0 0 6.74-11.54c.31-.79.72-2.48 1.65-2.78.38-.12.36-.2.5.18.07.19.28.52.25.72a10.38 10.38 0 0 1-.33 1.66 64.44 64.44 0 0 1-2 6.21c-.92 2.12-1.7 4.3-2.69 6.39a21.3 21.3 0 0 1-3.79 5.45 30.64 30.64 0 0 1-2.42 2.28 13.59 13.59 0 0 1-2.93 2.33c-.84.37-2.21-.51-2.89-1S57.38 186 57.25 185m61.53.54c-1.41.2.3-2.16.52-2.46.66-.9 1.3-1.82 2-2.73 1.34-1.8 2.45-3.79 3.63-5.69a80.38 80.38 0 0 0 6-11.74 11.27 11.27 0 0 1 1.29-2.94c.35-.39.64-1 1.24-.72s.39 1 .36 1.53a10.09 10.09 0 0 1-1.29 3.17c-.49 1-.92 2-1.48 3.05-2.08 3.77-4.08 7.58-6.45 11.19-.87 1.32-1.83 2.57-2.72 3.87s-1.67 2.88-3 3.47m-1.53-1.32c-.26-1-.44-2-.7-3-.17-.68-1-2.58-.3-3.17a9 9 0 0 1 3-1.38c.46-.19.92-.4 1.38-.57s.14-.88.07-1.42a26.66 26.66 0 0 1-.52-3.2c0-1.36.91-1.55 2-2a8.79 8.79 0 0 0 1.39-.65c.71-.46.85-.57 1-1.41.18-1.08-.32-2.09-.38-3.16a4 4 0 0 1 0-1.2c.06-.29.86-.64 1.1-.81.67-.45 1.58-.69 2.29-1.13s.39-1.59.32-2.24a23.13 23.13 0 0 1-.13-2.5c1 .33 1.31 1.24 1.53 2.21a10.87 10.87 0 0 1 .53 3.43c-.08.82-2.19 1.25-2.8 1.53-1.21.55-1 1.66-.87 2.72a7 7 0 0 1 .15 3.07c-.36 1-1.81 1.19-2.72 1.49a3.82 3.82 0 0 0-1.47.91c-.48.43-.34 1-.27 1.54a14.41 14.41 0 0 1 .39 3.32c-.07.71-1.8 1-2.33 1.21-.8.26-1.92.43-2 1.42-.07 1.66 1.17 3.86-.68 5m-3.52-1.72a2.74 2.74 0 0 1 1-1c-.47-.34-.89-.66-1.5-.48a9.67 9.67 0 0 1 .73-3c.38-1.17.77-2.33 1.21-3.48.78-2 1.55-4 2.39-6.06a83.41 83.41 0 0 1 6.28-11.9 5.13 5.13 0 0 1 1.13-1.36c.29-.23 1.27.24 1.41.52a8.67 8.67 0 0 1 .85 3.09 4.09 4.09 0 0 1-.14 1.71c-.09.28-1 .71-1.32.83-.89.39-2.37.8-2.31 2s.26 2.18.23 3.24c0 .48.15 1.19-.28 1.46a9.25 9.25 0 0 1-1.72.93c-1 .37-2.25.59-2.35 1.76a20.83 20.83 0 0 0 .39 3.21c.09 1.23-.08 1.79-1.35 2.24-.87.3-2.39.62-2.93 1.42s0 2.25.15 3c.23 1.12.43 2.24.65 3.36a4.25 4.25 0 0 1-2.51-1.48m-57.24 1c-.84-1.07-1.72-2.1-2.56-3.18-.7-.91-1.84-2.09-2-3.28 1.11.22 2.25 2.12 2.84 3 .42.61 2 2.68 1.72 3.48m2.88-5.64c0-.34.35-.16.35-.16l-.15 5.41-.45.18m1.61-.82c-.39-1.25 0-2.57 0-3.86 0-.42-.07-1.58.27-1.85a4.29 4.29 0 0 1 1-.68c.47-.2.51-.11.77.29s.73 1.06 1 1.62c.41.82.66 1.21.21 2a5.3 5.3 0 0 1-3.2 2.45m51-1.7a45.54 45.54 0 0 1 1.77-6.47c.68-2.14 1.43-4.29 2.29-6.37 1.74-4.19 3.45-8.33 5.49-12.38.32-.63 1.08-2.24 2-2.13 1.2.14.42 2 .12 2.53-1.09 1.93-2.22 3.83-3.27 5.78A81.4 81.4 0 0 0 114.5 174c-.42 1.25-.89 2.48-1.31 3.74-.19.58-.39 1.17-.59 1.75s-.21 1.42-.89 1.26m-33.49.25a11.73 11.73 0 0 1 1-3.24c.34-1 .69-1.89 1-2.86s.69-2.17 1.06-3.25c.17-.53.2-.92.8-.93.21 0 .87.91 1 1.06a7.75 7.75 0 0 1 1.79 2.62c.12.47-.46.64-.47 1.17s.63 1.07 1.08.83.48-.62 1-.22a9.11 9.11 0 0 1 1.32 1.24 21.29 21.29 0 0 1 2.05 2.4 2.31 2.31 0 0 1 .34.83c-.94 0-1.81.22-2.74.27s-2.11 0-3.16 0H78.2m2.94-.68c.59-.31.46-.78.35-1.32-.07-.37-.92-.42-1.26-.51-.1.47-.19.94-.29 1.41a5.71 5.71 0 0 0 1.2.42m29.3-.35a15.37 15.37 0 0 1-2.69-1.76 4.91 4.91 0 0 1-2-2 41.69 41.69 0 0 1-1.86-6.48c-.45-2.12-.91-4.24-1.4-6.35s-.6-4.23-.94-6.34a32.66 32.66 0 0 1-.35-3.27 14 14 0 0 0-.23-1.71c-.09-.51 0-1-.09-1.55a38.71 38.71 0 0 1-.56-6.71c0-.66-.09-2.65 1.14-2.2.65.23 1 .27 1 1s.09 1.25.11 1.88c0 .45.22.89.23 1.33a13.28 13.28 0 0 0 .1 1.78c.17 1.1.22 2.2.42 3.3.37 2 .46 4.11.81 6.14s.82 4.29 1.26 6.44a63.5 63.5 0 0 0 3.59 12.3c.35.81 2.1 3.41 1.37 4.19m-26.12 0c.13-.45.37-.85.18-1.28a1 1 0 0 0-1.21-.24c-.74.73.17 2.26 1 1.52m3-.28c0-.37.09-.75.13-1.13l-1.16-.13c0 .19-.22 1-.11 1.15s.94.1 1.14.11m23.6-1.7a11.34 11.34 0 0 1-1.21-2.62c-.42-1.11-.85-2.2-1.19-3.34-.59-2-1.18-4-1.61-6s-.87-4.15-1.3-6.23-.6-4.36-1-6.52c-.3-1.72-.37-3.45-.68-5.16-.16-.85 0-1.73-.2-2.59a13.31 13.31 0 0 1-.13-2.44 7.45 7.45 0 0 0 1.25 0 5.9 5.9 0 0 0 .26 1.5c.72-.37.77-.29.94.49.12.5.19 1 .33 1.5a2.79 2.79 0 0 0 .49-1c.34.38.24 1 .29 1.5a10.37 10.37 0 0 1 .24 1.75c1-.64.73-2.26.72-3.26.51.55.26 1.75.28 2.45 0 1 .26 2 .27 3.05.28-.23.6-.41.74-.76a2.15 2.15 0 0 1 .3 1.3c0 .55.26 1.06.28 1.62s-.33.93-.41 1.37c-.12.6-.22 1.2-.31 1.8-.15 1 .09 2.14-.08 3.18a18.82 18.82 0 0 0-.17 3.27 22.2 22.2 0 0 0 .13 3.46c.1.57.07 3 .68 3s.43-2.42.37-3-.17-1 .18-1.33a1 1 0 0 1 .56-.21c.2 0 .09-.61.09-.79v-1a3.11 3.11 0 0 1 1 .49c.07-.42.18-.84.24-1.26.25.17.49.35.76.5a7.44 7.44 0 0 0 .23-1.75c.29.16.35.47.51.74 0 0 .58-.78.49-.75.32-.11.57.3.76.49a1.34 1.34 0 0 0-.52-1.74v1c-.44-.54-.23-1.31-.81-1.8-.42-.36-.46-.08-.46-.71v-1.48l-1 .5v-1.75a2.08 2.08 0 0 0-.74.76c-1.46-2.2 1-4.12 2.2-5.77.23.35 0 .82 0 1.2a2.54 2.54 0 0 0 0 1.68 5.54 5.54 0 0 0 2 2.35c.39-1.27-1.41-2-.78-3.24a2 2 0 0 1 .26 1.25 1.28 1.28 0 0 1 .75-.26 4 4 0 0 1 0-1.5c.51.61.27 1.75.53 2.5a4.22 4.22 0 0 0 .47-2.76c.39.46.2 2 .77 2s.28-.91.26-1.3 0-1 0-1.45c.55.66.15 1.7 1 2.24a2.86 2.86 0 0 1 .24-1.26c.26.17.49.35.76.5a1.31 1.31 0 0 0 .24-.75 1.88 1.88 0 0 1 1.25.67c.37.36 0 1.12-.15 1.51-.42 1.09-1 2.14-1.55 3.19-1 2-1.86 4-2.73 6.06a133.47 133.47 0 0 0-4.87 12.7c-.14.47-.27 1-.44 1.42s-.18.88-.78.78m-52 .45c-1.1-.55-3 0-3-1.8a27.21 27.21 0 0 0-.29-4.42 7.81 7.81 0 0 1 2 3.48 8.64 8.64 0 0 1-1 .26c.16 1.3 1.3-.07 1.62.41s1.09 1.52.65 2.07m23.43-2c.13-.09.61-.62.34-.78s-.84-.65-1.08-.53a1.7 1.7 0 0 0-.33 1c.18.45.69.3 1.07.3m-15.44-.12c-2.05-2.62-.66-6.23-.55-9.19a31.18 31.18 0 0 1 .77-4.47c.14-.78.24-1.57.44-2.35.14-.55 0-.75.61-.75a.54.54 0 0 0 .57-.51 3.94 3.94 0 0 1 .52 1.5c.1-.18.54-.43.75-.26s0 .85 0 1c.23-.11.75-.49.75-.06a4.76 4.76 0 0 1-.07 1c-.12.7-.23 1.4-.34 2.1-.23 1.41-.52 2.82-.71 4.24s-.52 2.9-.8 4.36a4.78 4.78 0 0 1-1.94 3.39m37-1.32a15.47 15.47 0 0 1-2.37-1.81c-.83-.71-5.36-6.86-5.57-7.87-.46-2.2-.88-4.4-1.32-6.6a41.24 41.24 0 0 1-.92-6.13c-.09-2.15-.74-4.25-.81-6.39 0-1.13-.27-2.22-.3-3.35V142c0-.43 0-.27.39-.4a5.06 5.06 0 0 1 1.73-.19h3.21c.29 0 1.25 0 1.41.2s0 1.59 0 1.93a63.19 63.19 0 0 0 .56 6.31c.12 1.14.18 2.28.31 3.43s.36 2 .49 3.07q.39 3.12.87 6.24c.33 2.11.78 4.22 1.29 6.3.26 1.1.53 2.2.79 3.3.15.62.71 2.09.33 2.69l-.11.19m14.23-1.87c-.75 0-1 .19-.89.94.06.26.57 0 .68-.06a1.51 1.51 0 0 0 .21-.88m-47.77-2.09c.08-2.22.71-4.43 1-6.63.14-1.11.34-2.22.52-3.33a11.54 11.54 0 0 1 .62-3.31c.84.57.28 2.21.28 3a23.8 23.8 0 0 1-.39 3.66c-.31 2-.05 5.37-2 6.57m24.72-3.46c-1.69-1.38-3.62-2.93-4.1-5.16s-.45-4.37-.89-6.5a17.58 17.58 0 0 1-.14-3.25c0-.45-.21-.89-.23-1.34a10.9 10.9 0 0 0-.18-1.89c-.21-1.08-.06-2.18-.28-3.26a16.1 16.1 0 0 1-.14-3.18c0-.34.11-1.3.44-1.41a1.9 1.9 0 0 1 1.48.15c.8.55.82 2.13.86 3.05 0 1.1.26 2.16.27 3.28a20.51 20.51 0 0 0 .38 3c.42 2.19.77 4.44 1.1 6.65s.86 4.4 1.29 6.61c.16.8.71 2.52.14 3.25m25.94-.73c.19-.14.48-.44.38-.71s-.64-.26-1-.31c0 .43-.17 1.46.58 1m-47.47-2.34a14.61 14.61 0 0 1 .15-2.56c.11-.63.08-1.46.56-1.94a2.48 2.48 0 0 1 .44 2.3 4.46 4.46 0 0 1-1.15 2.2m16.23-2.14c-.79-.75-2.64-1.95-2.64-3.17s.53-3.2-1.16-3.55a4.05 4.05 0 0 1-.51 1.3c-.36.67-.57.33-1.1 0-.38-.26-.61-1-.83-1.46a6.14 6.14 0 0 1-.16-1.58c-.32-2.22-.3-4.45-.48-6.69-.09-1.13-.29-2.18-.27-3.32a11.25 11.25 0 0 1 .15-1.74c.11-.67.48-.42 1.12-.45a10.21 10.21 0 0 1 3.11-.14c.65.2 1 .2 1.13.93a10.78 10.78 0 0 1 .24 1.58 35.78 35.78 0 0 0 .32 4.63c.25 1.6.11 3.24.43 4.83a18.79 18.79 0 0 1 .11 2.38c.07.81.25 1.61.29 2.44.06 1.06 1 3.12.25 4m37.38-8.03c-.35.17-.43.34-.68 0a2.58 2.58 0 0 0-.45-.35c-.33-.28-.38 0-.38-.54s.1-.4.57-.52a19.26 19.26 0 0 0 3.1-1.07 46.65 46.65 0 0 0 5.54-3.25 24 24 0 0 0 4.91-4.26 22.15 22.15 0 0 0 3.76-5.66c3.94-7.93 6.1-16.52 8.16-25.09.65-2.73 1.7-5.51 2-8.31s1-5.83 1.48-8.72c.69.65.86 2 1.12 2.83s.43 2 .63 2.92c.43 2.14.79 4.26 1.16 6.41.18 1 .27 2 .37 3.08s.36 2.26.43 3.4a31.85 31.85 0 0 1 .19 3.25 14 14 0 0 1-.76 3.1c-.49 1.7-1.25 3.3-1.75 5-.35 1.21-1 4.12.79 4.45.57.12.9-1.67 1-2a10.89 10.89 0 0 0 .09-2.74 9.57 9.57 0 0 1 0-2.45 10.48 10.48 0 0 1 .7-2.25c.59.69.33 2.13.28 3s0 1.9 0 2.85c0 2.4.2 4.85.09 7.24v3.16a9.79 9.79 0 0 1-.17 3.29 14.85 14.85 0 0 0-.93 3.2 21.42 21.42 0 0 1-.53 3.07 9.53 9.53 0 0 1-1.13 3 12.49 12.49 0 0 1-2.5 2.53 27.07 27.07 0 0 1-5.47 3.32c-2.07 1-4.17 2-6.33 2.77a11.77 11.77 0 0 1-3.43.65 10.4 10.4 0 0 1-3.19-.68 28.31 28.31 0 0 1-4.71-2c-.82-.4-1.58-.8-2.36-1.27-.5-.3-1.45-.64-1.6-1.29m-1.47 4a.92.92 0 0 0-1.24 1c.64 0 1.25-.3 1.24-1m-43.28-3.62c-1.75-1.1-.93-4.8-1.06-6.49-.08-1.1-.27-2.14-.28-3.25 0-.76-.32-2.76.73-3 0 1 .26 1.92.27 2.91s.27 2.25.28 3.37a20.4 20.4 0 0 0 .26 3.58c.13.71.27 2.27-.2 2.89m4.49-.79c.24-.75.74-1.38.61-2.2s-.41-1.72-1.3-2c-.49-.17-.72 2.1-.75 2.34a2 2 0 0 0 1.44 1.87m36.74-1.82c.45-.71 2-.92 2.74-1.19a19.18 19.18 0 0 0 3-1.36 39.16 39.16 0 0 0 5.61-3.75 24 24 0 0 0 4.24-4.64 32.27 32.27 0 0 0 3.48-5.81 104.36 104.36 0 0 0 4.35-12.73c.29-1.12.57-2.25.89-3.36.13-.44.11-.93.23-1.38s.4-1 .54-1.53c.57-2.17 1.06-4.33 1.56-6.5.65-2.83 1.17-5.67 1.78-8.5.29-1.35.71-2.65 1-4s.37-2.68.62-4c1.79.34.65 4.42.48 5.54-.31 2.14-.79 4.21-1.19 6.33-.85 4.46-2.17 8.76-3.21 13.17a108.63 108.63 0 0 1-3.6 12.53c-1.56 4.21-3.13 8.43-5.8 12.08-2 2.69-4.71 4.42-7.53 6.1a35.87 35.87 0 0 1-4.6 2.59c-1.17.48-3.35 1.05-4.53.43m-13 .11v-2.75a3 3 0 0 1 0 2.75m-30.25.26a5.39 5.39 0 0 1-2.54-3c-.22-.5.3-1.25.52-1.74a2.59 2.59 0 0 0 .08-2.06c-.16-.55-.44-1.09-.57-1.64-.23-1-.86.36-1 .71a5.66 5.66 0 0 0-.51 1.8 9.5 9.5 0 0 1 .22 2 3.66 3.66 0 0 1-1.58-2.11 5.71 5.71 0 0 1-.2-2.66c.1-.38.14-1.18.44-1.43a2.06 2.06 0 0 1 1.29-.3c1 0 1.92-.13 2.87-.09.22 0 .87-.06.88.18v4.82c0 1.02.27 2 .28 3.05 0 .71.23 1.8-.23 2.4m41-2.6a1.38 1.38 0 0 1 1.31-2c.81.12 2.47.73 3.22.32 1.06-.56 1.11-2 2-2.69s2.23.17 3.17-.08c.74-.2 1.06-.13 1.35-.83a6.51 6.51 0 0 0 .35-1.7 3.88 3.88 0 0 1 .32-1.41c.23-.34 1-.53 1.46-.61.88-.19 2.48-.33 3-1.21s.1-2.24.08-3.17c0-.46-.18-1 .2-1.39a8.57 8.57 0 0 1 1.34-1.08c.71-.43 2.54-1.29 2.53-2.2a22.1 22.1 0 0 0-.64-3.22c-.08-.49-.21-.93.16-1.31a8.4 8.4 0 0 1 1.35-1.18 5.81 5.81 0 0 0 1.26-1.11 2 2 0 0 0 .3-1.61c-.14-1.1-.67-2.12-.84-3.23-.14-.9 1.32-1.88 1.91-2.44a4.4 4.4 0 0 0 .94-1.17 1.75 1.75 0 0 0-.1-1.46c-.32-.89-1.17-2.31-.64-3.21s1.65-1.44 2.31-2.29a2.71 2.71 0 0 0 .37-3c-.32-.92-1.06-2.31-.72-3.28s1.72-1.66 2.45-2.44-.28-2.37-.56-3.07c-.34-.86-.93-2-.24-2.85s2.08-1.32 2.4-2.31-.66-2.2-1-3a5.47 5.47 0 0 1-.12-1.72c0-.46.66-.58 1-.67a4.89 4.89 0 0 1-.2 1.34c0 .43.35 1 .51 1.41.23.55 1.46 2.45 1.13 3a4.37 4.37 0 0 1-.8 1.22 6.56 6.56 0 0 0-1.39 1.23 1.54 1.54 0 0 0-.35 1.6 11.79 11.79 0 0 0 .54 1.65c.41 1.08.83 2.12.11 3.08s-1.94 1.4-2.31 2.41c-.31.83.37 2.27.6 3.06a4.6 4.6 0 0 1 .25 1.59c0 .62-.54 1-.93 1.51s-2 1.52-1.92 2.31c.16 1.09.68 2.1.79 3.17.07.67.17 1-.32 1.53s-.89.75-1.31 1.13c-.89.8-1.57 1.54-1.25 2.8.26 1.08.69 2.12.87 3.22s-1.21 1.8-2.07 2.39a2.2 2.2 0 0 0-.8 2.66c.19.7.94 2.61.32 3.24a16.11 16.11 0 0 1-2.77 2.16 2.63 2.63 0 0 0-1.26 2.62c0 .85.27 2.8-.52 3.36s-2.18.47-3.08.94c-1.22.64-1.34 1.42-1.55 2.72a4.06 4.06 0 0 1-.43 1.42c-.29.29-1.21.26-1.59.24-.95-.06-2.49-.37-3.23.39s-1.1 2.26-2 2.67c-.68.31-1.87-.29-2.57-.39a2.75 2.75 0 0 0-2.42.82m-11.75.1v-2.25a2.21 2.21 0 0 1 0 2.25m3.49-1a30.57 30.57 0 0 0-1.62-3.77c-.71-1.42-1.48-2.71-.94-4.33 1-2.81 2-5.58 2.91-8.4.84.17 1.07 1 1.36 1.69s.72 1.5 1 2.28a13.73 13.73 0 0 0 .93 2.24 3 3 0 0 1 .58 2.16c-.17.81-.27 1.62-.4 2.44a7 7 0 0 1-1.32 2.19c-.77 1.11-.64 3.44-2.5 3.5m6.74-.56a4 4 0 0 1-.51-1.5c.29 0 .58.12.88.16s.62 0 .62.37a1 1 0 0 1-1 1m-33.54-4.21c-.64 0-.6-.07-.89.41a4.14 4.14 0 0 0-.39 1c-.22.77-.29 1.93.6 2.36.47.22.69.31 1.05-.11a1.94 1.94 0 0 0 .4-1.22c-.13-.89-.59-1.61-.77-2.45m36.53 2.68a4.8 4.8 0 0 1 1.24-.62c.62-.19.71-.2.89.43s.71.59.66-.08c0-.44-.47-.87-.07-1.16a22.4 22.4 0 0 0 4.54-4.58 61 61 0 0 0 6.88-11.82c3.88-8.17 5.83-16.93 8.19-25.61.89-3.24 1.4-6.64 2-10a32.32 32.32 0 0 0 .7-5.16c0-.79.21-1.56.22-2.35a15.07 15.07 0 0 0 .22-2.55c.52.07.67.63.81 1s.65.71.95 1.16c.85 1.3-.84 1.66-.64 2.89.17 1 1 1.9 1.12 2.92 0 .45.32 1.18 0 1.55a9.66 9.66 0 0 1-1.49 1.28 4.34 4.34 0 0 0-1 1.28c-.26.4.1 1.1.25 1.5a10.16 10.16 0 0 1 1 3c0 1.06-1 1.58-1.65 2.32-.33.38-.9.79-.87 1.32a7 7 0 0 0 .25 1.51 14 14 0 0 1 .56 3.63c0 .52-1.86 1.93-2.22 2.29s-.76.84-.71 1.16a10.1 10.1 0 0 0 .41 1.81c.47 1.26.62 1.95-.15 3.09a5.94 5.94 0 0 1-1.05 1 6.48 6.48 0 0 0-1.25 1.41c-.42.61.36 2.45.57 3.13.35 1.14.58 2-.53 2.79-.48.34-2.35 1.33-2.34 2a22.4 22.4 0 0 0 .69 3.21c.21 1.36-.28 2-1.43 2.61-.86.47-2.1 1.09-2.49 2a4 4 0 0 0 0 1.3v1.92c0 1.23-1.33 1.57-2.33 1.79-.81.17-2.3.45-2.43 1.44a8.43 8.43 0 0 1-.25 1.66c-.31.88-.28 1-1.16 1.26-1.1.38-2.23-.33-3.3.33-.59.35-1.27 2.28-1.91 2.33-.88.07-2.14.26-2.8-.49m-4-2.21a6.34 6.34 0 0 0 3.31.24 7.35 7.35 0 0 0 2.89-1.47 25 25 0 0 0 4.6-5.28 42.6 42.6 0 0 0 3.23-5.74c1-2 2.09-3.86 2.91-5.9a130.24 130.24 0 0 0 4.46-12.42c1.23-4.26 2.21-8.56 3.17-12.9.35-1.61.68-3.28.93-4.91s.41-3.53.73-5.29a58.28 58.28 0 0 0 .46-10.57c2.09 1.07 2.11 3.68 1.84 5.7-.15 1.09 0 2.16-.22 3.25s-.27 2-.41 3a56.06 56.06 0 0 1-1.17 6.31c-.54 2.06-.69 4.19-1.28 6.24-1.22 4.24-2.34 8.51-3.67 12.71a81.4 81.4 0 0 1-4.81 12.64c-2 3.85-3.93 7.6-6.86 10.86a29 29 0 0 1-4.87 4.26 4.56 4.56 0 0 1-2.72.91c-.91-.06-2.38-.64-2.52-1.68m1.24-1c1.62-.05 3.42-1.52 4.63-2.47.67-.52 1.3-1.08 1.93-1.65s1.14-1.3 1.89-1.46a6.2 6.2 0 0 1-1.33 2.52 9.69 9.69 0 0 1-2.22 2.34c-.85.58-4.43 2.56-4.9.72m11-1.1a.72.72 0 0 0-1 1c.47-.24.9-.43 1-1m-11.76-1.65a4.39 4.39 0 0 0 2.08-.22 24 24 0 0 0 2.3-1.58c1-.85 3.09-2.08 3.32-3.51-.43 0-1.32-.75-1-1.24s1.84 0 2.07.41c.12.21.66.88.59 1.11a3.48 3.48 0 0 1-.53 1.25 17 17 0 0 1-1.69 1.81 20.86 20.86 0 0 1-4 3.17c-.57.33-1.53.88-2.18.59s-1.44-.83-1-1.79m7.55-23.06c-.66-.13-1.42-1.1-2.07-1a2.56 2.56 0 0 0-2.3 1.45 13.55 13.55 0 0 0-.8 2.51 6.26 6.26 0 0 0 .63 2.67c.62 1.8 1.07 3.64 1.68 5.43s1.3 3.71 0 5.25a3.43 3.43 0 0 1 1.06.66 3.25 3.25 0 0 1 .57 1.57c-.06.8-1.36 1.85-1.93 2.32a6.47 6.47 0 0 1-2.9 1.66 3.25 3.25 0 0 1-2.93-1.15 9.82 9.82 0 0 1-1.49-3.13c-.34-1-.85-1.9-1.14-2.88a5.76 5.76 0 0 1-.41-3.28 22.59 22.59 0 0 1 1.28-3.15c1.47-3 3-5.93 4.47-8.91a12.4 12.4 0 0 1 1-1.89 3.51 3.51 0 0 1 2.19-1.09 1.61 1.61 0 0 1 2 .79 7.34 7.34 0 0 1 1 2.21M135 138c.41-.29-.08-1.05-.51-.76s.15.94.51.76m-10.89-.91c0-.61 0-1.28-.76-1.49 0 .52.21 1.3.76 1.49m4-5.53a11.85 11.85 0 0 1-1 .75c-.62-1.15-.29-3.15-.26-4.43 0-.71.11-1.4.15-2.11a5.53 5.53 0 0 1 .29-2.21c.7.65.3 2 .29 2.83v3.42c.83-.53 1-2.11 1-3 .6.36.88 1.34 1.08 2 .14.44.33.71-.15.91s-.82.21-1 .55.4.86.7.8a8.44 8.44 0 0 1 1.32-.37.81.81 0 0 1 .81.53c.08.16.83-.13 1-.17.28 1.14-1.13 2.72-1.93 3.32-.5.37-1.32-.66-1.56-1a4.55 4.55 0 0 1-.75-1.83m-42.76-.88a3.5 3.5 0 0 0-.68 2.05c.09.63.23 2.09 1.21 2 .71 0 1-1.53.87-2-.16-.83-.45-1.84-1.4-2m45.17 2.61a1.21 1.21 0 0 0 .41-1.09c0-.69-.3-.69-.91-.68s-.6 2.32.5 1.77m-27.65.49a40.44 40.44 0 0 1 1-6.26q.63-3.2 1.29-6.39c.9-4.27 2-8.53 3.26-12.71a22.62 22.62 0 0 1 3-6.14c1.11-1.61 3.11-3.36 5.18-3.37s5 1.09 5 3.49a15.75 15.75 0 0 1-.16 3.57c-.23 1-.49 2.06-.79 3.09a39.49 39.49 0 0 1-2.51 6.24c-1 2.13-1.94 4.38-2.82 6.58s-1.9 4-2.86 6c-.47 1-1 1.95-1.5 2.91s-.77 2.1-1.74 2.48a15.52 15.52 0 0 1-3.23.41 25 25 0 0 1-3.12.06m36.14-2.3c-.37-.75-.8-.95-1.17-.11-.24.56 1 .23 1.17.11m-7.77-1.43a2 2 0 0 1 1-1.76v1c.79-.5.56-2.2.72-3-.49-.09-1.38.64-1.39-.18a7.4 7.4 0 0 0-.38-1.8 8.89 8.89 0 0 0-.86 1.61c-.24.5-.33.38-.89.34a2.93 2.93 0 0 0-1 .07v-4c0-1.29.22-2.54.21-3.83v-3.78c0-1 .3-2.9-.78-3.41 0 1.69-.15 3.32-.21 5-.74-.57-.51-1.9-.52-2.72s.18-2.32-.77-2.77c0 .8.27 2.2-.48 2.75-.55-1 .23-2.89-1-3.49 0 .84.16 2.09-.48 2.76-1-1.84.34-4.42 1.26-6 1.11-1.88 2-3.88 3.05-5.79 2.14-3.82 4-7.83 5.89-11.76.47-.94.91-1.88 1.44-2.78.21-.36 1-.53 1.13-.8a9.58 9.58 0 0 0-.27-1.5c.49.14.6.56.76 1a10.68 10.68 0 0 0 3-3.78c-1.08 0-1-1.26-1-2a3.1 3.1 0 0 0-.91.93c-.48.67-.75.54-1.49.41a1.33 1.33 0 0 1-1-.91c-.11-.58.53-.71 1-1 1.4-.77 4.91-1.41 6.08.1a4.92 4.92 0 0 1 1.38 3v3.46a38.64 38.64 0 0 1-.57 6.35c-.31 2-.48 4.1-.93 6.06-.07.29 0 .6-.33.53a1.48 1.48 0 0 1-.68-.22c-.55-.41-.9-.53-.52-1.22.44-.85 1.45-1.54 1.61-2.52-.79 0-1 .23-1-.58v-2.16c-.67.4-.94 1.32-1.23 2-.17.4-.23.65-.7.4a3.93 3.93 0 0 0-1-.35 18.78 18.78 0 0 1 .51 2.22q.09.6.21 1.2c.08.4-.05.41-.44.5a2.19 2.19 0 0 0-1 .45c-.45.35.15.56.45.76s.77 0 1 0a3.82 3.82 0 0 1 1.23.38 3.44 3.44 0 0 0 1 .16c.58 0 .58.12.47.71a8.05 8.05 0 0 1-.82 2c-.51 1.21.11 3.17-.82 4.14-.49-.89-.27-2.28-.28-3.25a4.73 4.73 0 0 0-.72 3.19c0 1-.23 2-.22 3.1 0 .4.12 3.29-.33 3.21s-1.15 0-1.15-.54v-1.93a5.21 5.21 0 0 0-1.08 1.25c-.52.64-.82.51-1.66.52.23.77.42 1.53.59 2.32a4.9 4.9 0 0 1 .19 1.07c0 .25-.83.1-1.06.19s-.67.25-.47.68.65.41 1.14.47c.28 0 .16.84.17 1.09a4.72 4.72 0 0 0 .26 1.17c.44-.22.67-.44.88.08a2.13 2.13 0 0 1 0 1.09 5.66 5.66 0 0 1-.82 2.08c-.74-.56-.52-2.17-.52-3-1 .57-.73 2.32-.72 3.3s.28 2.69-.47 3.46a4.59 4.59 0 0 1-.24-2.21v-2.08a12.82 12.82 0 0 0-.36-4.46 2.07 2.07 0 0 1-.67.48c-.19.07-.28-.58-.3-.75a15 15 0 0 1-.05-2v-5c-.93 1.1-.73 2.4-.72 3.76a31.39 31.39 0 0 1-.08 4 61.38 61.38 0 0 0-.06 8.25c.95-1.13.77-2.6.79-4 0-.72-.3-3.59.64-3.75q0 3.85.07 7.72a18 18 0 0 1-.15 3.28c0 .16-.41 1.3-.62 1.23a2.84 2.84 0 0 0-1.7-.21m25.75-1a6.38 6.38 0 0 1 .22-2.5 2.15 2.15 0 0 1-.22 2.5m-71.72-4.34c-1.1.55-1.75 4-.07 4.21.77.1 1.26-1.4 1.19-2a4.76 4.76 0 0 0-1.12-2.24m40.29 3.9a4.49 4.49 0 0 1-.27-2v-1.44c0-.44-.22-1 .24-1s.25.34.26.71v1.89c0 .63.17 1.38-.23 1.9m16-4.64c.06-.45-.42-.81-.76-.57a1.62 1.62 0 0 0-.49 1.08 2.56 2.56 0 0 0 1.25-.51m-11.75.35V121c0-1.11.22-2.07.21-3.12v-5.38c0-.77.06-.66-.7-.66.14 0-.25 5.87-.25 6.51v5.44c0 .76.05.56.75.55m1.25-.26a7.23 7.23 0 0 0 .29-3c0-1 .17-1.9.16-2.89l-.06-6.9c-1 .25-.73 2.28-.72 3 0 1.07-.23 2.1-.22 3.18s0 2.11 0 3.17v2.57c0 .63-.18.85.51.82m-5.51-1.7c-.53-.35-.9-.78-1.47-1.09s-1.14.34-1.54.86c-1.3-.79 0-2.82 1.31-2.59.92.16 2.47 1.83 1.7 2.82m1.24-1.26c-.58-.51-1.08-1.1-1.64-1.59-.37-.33-.53-.55-1-.6a12.35 12.35 0 0 0-1.36 0c-.06-1.45 1.56-1.72 2.52-.89.6.53 2.26 2.19 1.5 3.11m17.2-5.4a1.41 1.41 0 0 0-.85-.13c-.21.08-.58.49-.4.77.44.64 1.1-.32 1.25-.64m-6.25-.2a2.21 2.21 0 0 1 1.48-2.26c-.24.89-.4 2.1-1.48 2.26m-3.5 0a34.82 34.82 0 0 0 .19-7c-1 .22-.74 2.17-.73 3v2.94c0 .68-.26 1.15.51 1.11m4.71-4.54a26.62 26.62 0 0 0 .19-6.25c-1 .14-.88 2.42-.91 3.17a4.59 4.59 0 0 0 .72 3.08m-3-.48c0-.75.61-3-.53-3.24.09 1.06-.71 2.59.53 3.24m-4.52-2.21c-.76 0-1.72 1.54-.87 2 1.07.58 1-1.51.87-2m5.77 1.45c.72-1 .47-2.59.46-3.75-1.14.18-1.29 3.16-.46 3.75m8.73-2.07a1.06 1.06 0 0 0-1.24 1c.64 0 1.24-.3 1.24-1m-12.25.6c.2-1.07-1.35-.79-2-.73 0 1 1.31 1.1 2 .73m-3-1.22c-.39-.11-2.6-.18-2 .77.2.3.93.28 1.21.25a.93.93 0 0 0 .78-1m1 .24c.71-1.54 2-2.75 2.72-4.27a2.48 2.48 0 0 0-1.5 0 10 10 0 0 0-.27-2.5 4.56 4.56 0 0 0-1.23 2.51 13.27 13.27 0 0 0-1.26-.73c-.28.78.23 1.92.41 2.69s.09 2.5 1.13 2.29m-5.29-5.2c-.17-.1-.46-.75-.18-.75h.92a3 3 0 0 1-.74.76m14-.62c.09-.5.22-2.66-.86-1.82-.85.68 0 1.86.86 1.82m7.49-1.32c0-.32-.22-1.54-.82-.93s.3.86.82.93M113.46 94c.35-1.91-2.07-1.44-2.28-3a60.43 60.43 0 0 1 12.33 4.56c1 .52 2 .9 3 1.41.47.24.94.51 1.43.72a5.3 5.3 0 0 1 .65.28c.4.24.45.08.33.63-.06.3-.2 1.06-.59 1a6.27 6.27 0 0 0-1.88-.2c-1.09 0-1.76-1.41-2.31-2.18-1-1.48-3.46-2.24-5.18-2.43a12.1 12.1 0 0 0-2.69 0 3.76 3.76 0 0 1-2.81-.75M127 96.33a4.42 4.42 0 0 1 1.75-.48c.51-.13 1.68-.67 1.48.2s-.48 1.27-1.41 1.15a5 5 0 0 1-1.82-.87M110.72 96c-.29-.46-.79-.33-1.25-.24.15-1.07 1.86-.51 1.25.24m1.5-.27a1.43 1.43 0 0 1 .75-.5 1.39 1.39 0 0 1-.75.5m-.34-10.24c.84.49.84 1.83 1.49 2.51s1.7 1.68 2.82 1.28a10.61 10.61 0 0 0 2.81-1.66 3.26 3.26 0 0 1 3.17-.81c.45.15.76.78 1 1.14a3.15 3.15 0 0 1 .82 1.36 10.48 10.48 0 0 0 1.06 3.29 3.85 3.85 0 0 0 2.64 1.79c1.15.21 2-.57 3.06-.87a4.16 4.16 0 0 1 .62-.23c-1 2-3.78 2.3-5.57 1.47a4.12 4.12 0 0 1-1.66-2.47 7 7 0 0 0-1.13-2.93c-.88-1.06-1.34-1.93-2.81-1.44-1 .34-1.66 1.27-2.64 1.64-1.22.46-2 .76-3.18.15a3.91 3.91 0 0 1-1.95-2.27 9.23 9.23 0 0 1-.63-2m-4.17 9c.83-.13.75-1.38.74-2a1.86 1.86 0 0 1 .57 1.89c-.18.52-.11.9-.68.76a.94.94 0 0 1-.63-.65m3.75 0A1.38 1.38 0 0 1 112.7 93a1.6 1.6 0 0 1-1.24 1.51M110 94c.06-.72 0-1.63.73-2 .2.65.31 2.19-.73 2m39.48-1.84a2 2 0 0 0-.75-.75 2.67 2.67 0 0 0-.24 1 2.79 2.79 0 0 0 1-.26m-29.57-2.75c-.21-1 1.8-1.24 2-.27-.71.13-1.25.48-2 .27m17.72-3.16c-.55-.1-.66.21-.82.67s0 .73.34 1.12.74-.4.8-.56a1.44 1.44 0 0 0-.32-1.23m-24-5.29c.52-.86 2.22-.22 3 0 1.1.24 2.19.42 3.27.74 2.12.62 4.23 1.26 6.29 2.06s4.22 1.66 6.24 2.64c.41.2 2.75 1.42 1.7 1.8-.79.29-2.16-.66-2.86-1a60.54 60.54 0 0 0-9-3.65c-1.46-.44-2.94-.8-4.37-1.3s-3-.56-4.29-1.24m3.3 5.72a10.63 10.63 0 0 0 1.76.24c-.39.83-1.77.84-1.76-.24m23.49-1.2a1.9 1.9 0 0 0-1-.36c-.52 0-.52.33-.69.77s.74.37.9.41c.34.07.72-.57.79-.82m-28.75-.25c-.2-.24-.45-.43-.51-.75.31.09.91.4.51.75m5.42-9.55c.59-.47 1.46-.2 2.12 0 .88.21 1.76.38 2.63.59 1.7.41 3.35 1 5 1.44a47.56 47.56 0 0 1 5.31 1.71 19.17 19.17 0 0 1 2.53 1.14c.81.47 1.8.82 2.18 1.74-.68.36-1.49-.06-2.14-.33-.93-.39-1.85-.8-2.78-1.21-.74-.33-1.59-.48-2.35-.75s-1.76-.69-2.64-1c-1.62-.6-3.34-1-5-1.61-.82-.32-1.63-.61-2.46-.87a13.89 13.89 0 0 1-2.49-.79m6.54 4.69c0-1.5-2.52-2.62-3.69-1.66-.62.51.81 1.63 1.22 1.77.76.28 1.68-.14 2.47-.11m-1-5.24a.65.65 0 0 1 .75-.25c-.39-1.94-2.82-3.14-2.79-5.23 1.16 0 2 1.9 2.59 2.73a14.44 14.44 0 0 1 2.21 3.48c-.8 0-2.22 0-2.76-.73M118 73.91a2 2 0 0 1 .75-.76v1c0 .24-.67-.06-.76-.2M154 43.57h-.47v-.75h-5.7v.75h-.49v-2.3h.49V42h2.28v-3h-2.28v.75h-.49v-2.32h.49v.75h5.7v-.75h.47v2.29h-.47V39h-2.87v3h2.87v-.75h.47zm0-7.03h-.47v-.75h-5.7v.75h-.49v-4.73h1.49v.48h-.94V35h2.22v-1.94h-.83v-.49h2.21v.49h-.83V35h2.79v-2.77h-.93v-.49H154zm-1.81-11.12a2.71 2.71 0 0 1 1.41.87 2.43 2.43 0 0 1 .48 1.55 2.49 2.49 0 0 1-.23 1.06 2.37 2.37 0 0 1-.65.87 3.1 3.1 0 0 1-1.14.66 4.55 4.55 0 0 1-1.44.21 3.78 3.78 0 0 1-2.5-.79 2.57 2.57 0 0 1-1-2.08 4.23 4.23 0 0 1 .14-1 7.18 7.18 0 0 1 .44-1.17h1.53v.4a2.09 2.09 0 0 0-1.23.58 1.78 1.78 0 0 0-.4 1.23 1.59 1.59 0 0 0 .76 1.42 4.14 4.14 0 0 0 2.21.48 4.06 4.06 0 0 0 2.22-.49 1.57 1.57 0 0 0 .75-1.42 1.64 1.64 0 0 0-.35-1.07 2 2 0 0 0-1.05-.62zM154 23.4h-.47v-.75h-5.65v1.72h1v.48h-1.58v-5.22h1.58v.49h-1v1.73h5.65v-.75h.47zm.08-7.15a2.64 2.64 0 0 1-.23 1.1 2.32 2.32 0 0 1-.65.88 3.14 3.14 0 0 1-1.13.66 5.08 5.08 0 0 1-2.89 0 3.14 3.14 0 0 1-1.13-.66 2.55 2.55 0 0 1-.66-.88 2.6 2.6 0 0 1-.22-1.1 2.55 2.55 0 0 1 1-2.06 3.76 3.76 0 0 1 2.5-.79 4.27 4.27 0 0 1 1.44.22 3.23 3.23 0 0 1 1.14.65 2.65 2.65 0 0 1 .66.88 2.8 2.8 0 0 1 .17 1.1zm-.49 0a1.61 1.61 0 0 0-.75-1.45 5.27 5.27 0 0 0-4.44 0 1.61 1.61 0 0 0-.75 1.45 1.64 1.64 0 0 0 .75 1.46 5.27 5.27 0 0 0 4.44 0 1.64 1.64 0 0 0 .75-1.46zm-2.95-7.15a1.2 1.2 0 0 1 .29-.47 1.93 1.93 0 0 1 .57-.36l2-.85V6.7h.5v1.39l-2.17.91a2.19 2.19 0 0 0-.79.49.9.9 0 0 0-.18.6V11h2.62v-.82h.52v2.37h-.47v-.75h-5.7v.75h-.49v-3a1.81 1.81 0 0 1 .47-1.33 1.76 1.76 0 0 1 1.31-.46 1.57 1.57 0 0 1 1.08.34 1.5 1.5 0 0 1 .44 1zm-.27 1.9V9.81a1.12 1.12 0 0 0-.31-.88 1.52 1.52 0 0 0-1-.28 1.49 1.49 0 0 0-1 .28 1.12 1.12 0 0 0-.31.88V11zM12.69 198.54h.47v.75h5.7v-.75h.48v2.3h-.48v-.75h-2.28v3h2.28v-.75h.48v2.3h-.48v-.75h-5.7v.75h-.47v-2.3h.47v.75H16v-3h-2.84v.75h-.47zm0 7.03h.47v.75h5.7v-.75h.48v4.73h-1.48v-.48h.94v-2.71h-2.22v1.94h.83v.49H15.2v-.49h.8v-1.94h-2.8v2.77h.94v.48h-1.45zm1.76 11.11a2.59 2.59 0 0 1-1.41-.87 2.4 2.4 0 0 1-.48-1.54 2.56 2.56 0 0 1 .88-1.94 3.23 3.23 0 0 1 1.14-.65 4.52 4.52 0 0 1 1.43-.22 3.85 3.85 0 0 1 2.51.79 2.61 2.61 0 0 1 .95 2.09 4.23 4.23 0 0 1-.14 1 8.24 8.24 0 0 1-.44 1.17h-1.53v-.46a2 2 0 0 0 1.23-.58 1.77 1.77 0 0 0 .39-1.22 1.57 1.57 0 0 0-.75-1.42 4.16 4.16 0 0 0-2.22-.48 4.14 4.14 0 0 0-2.21.48 1.59 1.59 0 0 0-.75 1.42 1.65 1.65 0 0 0 .35 1.08 2 2 0 0 0 1 .61zm-1.76 2.03h.47v.75h5.65v-1.72h-1v-.49h1.57v5.22h-1.61V222h1v-1.74h-5.61v.74h-.47zm-.13 7.15a2.64 2.64 0 0 1 .23-1.1 2.44 2.44 0 0 1 .65-.89 3.27 3.27 0 0 1 1.13-.65 4.86 4.86 0 0 1 2.89 0 3.27 3.27 0 0 1 1.13.65 2.51 2.51 0 0 1 .88 2 2.55 2.55 0 0 1-.95 2.06 3.83 3.83 0 0 1-2.51.79 4.25 4.25 0 0 1-1.43-.22 3.1 3.1 0 0 1-1.14-.66 2.55 2.55 0 0 1-.66-.88 2.75 2.75 0 0 1-.22-1.1zm.49 0a1.62 1.62 0 0 0 .75 1.45 4 4 0 0 0 2.21.49 4.08 4.08 0 0 0 2.23-.49 1.8 1.8 0 0 0 0-2.91 4.08 4.08 0 0 0-2.23-.49 4 4 0 0 0-2.21.49 1.63 1.63 0 0 0-.75 1.46zM16 233a1.05 1.05 0 0 1-.28.48 1.86 1.86 0 0 1-.58.35l-2 .86v.72h-.47V234l2.11-.92a2.13 2.13 0 0 0 .8-.48.93.93 0 0 0 .18-.6v-.88h-2.6v.88h-.47v-2.38h.47v.75h5.7v-.75h.48v3a1.62 1.62 0 0 1-1.77 1.79A1.44 1.44 0 0 1 16 233zm.28-1.86v1.16a1.11 1.11 0 0 0 .31.87 1.45 1.45 0 0 0 1 .28 1.41 1.41 0 0 0 1-.28 1.12 1.12 0 0 0 .32-.87v-1.16z"/>
  <path fill="#e61408" d="M33.44 29.43H13.62s3.1.63 11.77-7.57 8-12.62 8-12.62M13.62 29.43S18 28.8 26 37.63s7.43 12 7.43 12v-20.2m0 20.18S32.82 45.2 41.49 37s11.77-7.57 11.77-7.57H33.44m19.82 0s-4.34.63-12.39-8.2-7.43-12-7.43-12v20.2"/>
  <path fill="#fff" d="M9.66 50.86h12.41V7.11H9.66z"/>
  <path fill="#e61408" d="M133.3 213h19.82s-3.1-.63-11.77 7.57-8 12.62-8 12.62M153.12 213s-4.33.63-12.39-8.2-7.43-12-7.43-12V213m0-20.19s.62 4.42-8.05 12.62-11.77 7.57-11.77 7.57h19.82m-19.82 0s4.34-.63 12.39 8.2 7.43 12 7.43 12V213"/>
  <path fill="#fff" d="M156.83 191.54h-12.16v43.75h12.16z"/>
  <path fill="#e61408" d="M20.06 7.87v1.47h-.68l-3 16.56h-1.32L12 9.34h-.76V7.87H15v1.47h-.78l2.17 11.94 2.23-11.94h-.95V7.87zM147 234.51v-1.46h.68l3-16.57H152l3 16.57h.76v1.46H152v-1.46h.79l-2.17-11.94-2.19 11.94h1v1.46zM16.13 33.86h-5s.79.16 3-2 2-3.25 2-3.25m-5 5.21s1.07-.12 3.11 2.18 1.89 3.09 1.89 3.09v-5.23m0 5.21s-.15-1.14 2.05-3.26 3-2 3-2h-5.05m5.05 0S20.07 34 18 31.74s-1.89-3.09-1.89-3.09v5.21m134.45 174.08h5.05s-.79-.16-3 2-2.05 3.26-2.05 3.26m5.05-5.22s-1.11.17-3.16-2.11-1.89-3.1-1.89-3.1v5.21m0-5.21s.16 1.14-2.05 3.26-3 1.95-3 1.95h5m-5 0s1.1-.16 3.15 2.12 1.89 3.1 1.89 3.1v-5.22"/>
</svg>