<?xml version="1.0" encoding="UTF-8" standalone="no"?>
<!-- Generator: Adobe Illustrator 9.0, SVG Export Plug-In  -->
<!-- This set of SVG files is a complete cards game with figures, numbers	-->
<!--    and backs of cards completely designed in SVG.				-->
<!--    									-->
<!--    Copyright (C) 2004 David Bellot						-->
<!--										-->
<!--    This library is free software; you can redistribute it and/or		-->
<!--    modify it under the terms of the GNU Lesser General Public		-->
<!--    License as published by the Free Software Foundation; either		-->
<!--    version 2 of the License, or (at your option) any later version		-->
<!--										-->
<!--    This library is distributed in the hope that it will be useful,		-->
<!--    but WITHOUT ANY WARRANTY; without even the implied warranty of		-->
<!--    MERCHANTABILITY or FITNESS FOR A PARTICULAR PURPOSE.  See the GNU	-->
<!--    Lesser General Public License for more details.				-->
<!--										-->
<!--    You should have received a copy of the GNU Lesser General Public	-->
<!--    License along with this library; if not, write to the Free Software	-->
<!--    Foundation, Inc., 59 Temple Place, Suite 330, Boston, MA 02111-1307  USA-->
<!--										-->
<!--    Contact the author David Bellot at bellot@stat.berkeley.edu or 		-->
<!--    david.bellot@free.fr or yimyom@users.sourceforge.net			-->
<svg xmlns:dc="http://purl.org/dc/elements/1.1/" xmlns:cc="http://web.resource.org/cc/" xmlns:rdf="http://www.w3.org/1999/02/22-rdf-syntax-ns#" xmlns:svg="http://www.w3.org/2000/svg" xmlns="http://www.w3.org/2000/svg" xmlns:xlink="http://www.w3.org/1999/xlink" xmlns:sodipodi="http://sodipodi.sourceforge.net/DTD/sodipodi-0.dtd" xmlns:inkscape="http://www.inkscape.org/namespaces/inkscape" width="208" height="303" viewBox="0 0 167.08643 242.66748" xml:space="preserve" id="svg2" sodipodi:version="0.32" inkscape:version="0.45.1" sodipodi:docname="02_of_diamonds.svg" inkscape:output_extension="org.inkscape.output.svg.inkscape" sodipodi:docbase="C:\Documents and Settings\Flanker\Desktop\Temporanei\SVG\Carte" version="1.0"><metadata id="metadata90"><rdf:RDF><cc:Work rdf:about=""><dc:format>image/svg+xml</dc:format><dc:type rdf:resource="http://purl.org/dc/dcmitype/StillImage"/></cc:Work></rdf:RDF></metadata><defs id="defs88"/><sodipodi:namedview inkscape:window-height="1003" inkscape:window-width="1280" inkscape:pageshadow="2" inkscape:pageopacity="0.0" guidetolerance="10.0" gridtolerance="10.0" objecttolerance="10.0" borderopacity="1.0" bordercolor="#666666" pagecolor="#ffffff" id="base" inkscape:zoom="1.242853" inkscape:cx="163.54993" inkscape:cy="97.28021" inkscape:window-x="0" inkscape:window-y="0" inkscape:current-layer="svg2" inkscape:showpageshadow="false" width="208px" height="303px"/>
	<path id="path5" d="M 166.83643,235.89281 C 166.83643,239.68452 163.75049,242.78371 159.96632,242.78371 L 7.1113279,242.78371 C 3.3359375,242.78371 0.25,239.68452 0.25,235.89281 L 0.25,6.7746663 C 0.25,2.9883463 3.3359375,-0.11623023 7.1113279,-0.11623023 L 159.96632,-0.11623023 C 163.75049,-0.11623023 166.83643,2.9883463 166.83643,6.7746663 L 166.83643,235.89281 L 166.83643,235.89281 z " style="fill:#ffffff;fill-rule:nonzero;stroke:#000000;stroke-width:0.5;stroke-miterlimit:4"/><g style="fill-rule:nonzero;stroke:#000000;stroke-miterlimit:4;fill:#e61408;fill-opacity:1" id="g2429" transform="translate(1.6190219,4.44338e-2)">
			<path style="stroke:none;fill:#e61408;fill-opacity:1" d="M 12.487793,12.404785 L 11.831543,12.404785 L 11.831543,8.5297852 C 12.274902,8.2280274 12.711914,8.0014649 13.143066,7.8500977 C 13.574219,7.6992188 14.007324,7.6235352 14.442871,7.6235352 C 15.466309,7.6235352 16.266113,8.09375 16.842285,9.0332032 C 17.418457,9.9731446 17.706543,11.281738 17.706543,12.959473 C 17.706543,14.153809 17.547852,15.224609 17.231445,16.172363 C 16.915039,17.120117 16.311523,18.243164 15.421875,19.541992 L 13.178711,22.842285 L 16.987793,22.842285 L 16.987793,20.717285 L 17.737793,20.717285 L 17.737793,25.998535 L 11.769043,25.998535 L 11.769043,23.057129 L 12.960449,21.212402 C 13.986816,19.638183 14.669922,18.29834 15.009766,17.191894 C 15.349121,16.085937 15.519043,14.794434 15.519043,13.316894 C 15.519043,11.92041 15.389648,10.856445 15.130859,10.125976 C 14.87207,9.3955077 14.496582,9.0297852 14.003418,9.0297852 C 13.574707,9.0297852 13.233399,9.3183594 12.978516,9.8950196 C 12.723633,10.47168 12.560059,11.308106 12.487793,12.404785 z " id="path2431"/>
		</g><g style="fill-rule:nonzero;stroke:#000000;stroke-miterlimit:4;fill:#e61408;fill-opacity:1" id="g2433" transform="translate(-0.9061249,4.54112e-2)">
			<path style="stroke:none;fill:#e61408;fill-opacity:1" d="M 153.88574,230.17285 L 154.54199,230.17285 L 154.54199,234.04785 C 154.09863,234.35059 153.66113,234.57715 153.23047,234.72754 C 152.7998,234.87891 152.36621,234.9541 151.93066,234.9541 C 150.90723,234.9541 150.10742,234.48438 149.53125,233.54492 C 148.95508,232.60449 148.66699,231.2959 148.66699,229.61816 C 148.66699,228.4248 148.8252,227.35352 149.1416,226.40527 C 149.45801,225.45801 150.06152,224.33496 150.95215,223.03613 L 153.19434,219.73535 L 149.38574,219.73535 L 149.38574,221.86035 L 148.63574,221.86035 L 148.63574,216.5791 L 154.60449,216.5791 L 154.60449,219.52051 L 153.41309,221.36621 C 152.38672,222.94043 151.7041,224.28027 151.36426,225.38574 C 151.02441,226.49219 150.85449,227.78418 150.85449,229.26074 C 150.85449,230.65723 150.9834,231.72168 151.24316,232.45215 C 151.50098,233.18262 151.87695,233.54785 152.37012,233.54785 C 152.79883,233.54785 153.13965,233.25977 153.39551,232.68262 C 153.64941,232.10645 153.81348,231.27051 153.88574,230.17285 L 153.88574,230.17285 z " id="path2435"/>
		</g>
<path style="fill:#e61408;fill-opacity:1;stroke:none;stroke-width:1.49999988;stroke-linecap:round;stroke-linejoin:round;stroke-miterlimit:4;stroke-dasharray:none;stroke-opacity:1" d="M 83.54322,13.628086 C 83.5171,14.523896 82.98547,17.883396 77.19212,23.443406 C 71.61646,28.794526 69.0128,29.436916 68.23031,29.493266 C 69.0128,29.549606 71.61646,30.192016 77.19212,35.543116 C 82.98547,41.103126 83.5171,44.462616 83.54322,45.358436 C 83.56934,44.462626 84.10096,41.103136 89.89431,35.543116 C 95.46998,30.192006 98.07363,29.549596 98.85612,29.493266 C 98.07363,29.436926 95.46998,28.794516 89.89431,23.443406 C 84.10096,17.883406 83.56934,14.523906 83.54322,13.628086 z " id="path2243"/><path id="path3230" d="M 16.37244,29.520358 C 16.36459,29.789714 16.20473,30.799864 14.46276,32.471673 C 12.78625,34.080673 12.00337,34.273829 11.76808,34.290773 C 12.00337,34.307714 12.78625,34.500876 14.46276,36.10987 C 16.20473,37.781679 16.36459,38.791826 16.37244,39.061185 C 16.38029,38.791829 16.54015,37.781682 18.28212,36.10987 C 19.95863,34.500873 20.74151,34.307711 20.9768,34.290773 C 20.74151,34.273832 19.95863,34.08067 18.28212,32.471673 C 16.54015,30.799867 16.38029,29.789717 16.37244,29.520358 z " style="fill:#e61408;fill-opacity:1;stroke:none;stroke-width:1.49999988;stroke-linecap:round;stroke-linejoin:round;stroke-miterlimit:4;stroke-dasharray:none;stroke-opacity:1"/><use x="0" y="0" xlink:href="#path3230" id="use3238" transform="translate(134.34155,173.78052)" width="167.08643" height="242.66748"/><use x="0" y="0" xlink:href="#path2243" id="use2193" transform="translate(0,183.68096)" width="167.08643" height="242.66748"/></svg>