<?xml version="1.0" encoding="UTF-8" standalone="no"?>
<!-- Generator: Adobe Illustrator 9.0, SVG Export Plug-In  -->
<!-- This set of SVG files is a complete cards game with figures, numbers	-->
<!--    and backs of cards completely designed in SVG.				-->
<!--    									-->
<!--    Copyright (C) 2004 David Bellot						-->
<!--										-->
<!--    This library is free software; you can redistribute it and/or		-->
<!--    modify it under the terms of the GNU Lesser General Public		-->
<!--    License as published by the Free Software Foundation; either		-->
<!--    version 2 of the License, or (at your option) any later version		-->
<!--										-->
<!--    This library is distributed in the hope that it will be useful,		-->
<!--    but WITHOUT ANY WARRANTY; without even the implied warranty of		-->
<!--    MERCHANTABILITY or FITNESS FOR A PARTICULAR PURPOSE.  See the GNU	-->
<!--    Lesser General Public License for more details.				-->
<!--										-->
<!--    You should have received a copy of the GNU Lesser General Public	-->
<!--    License along with this library; if not, write to the Free Software	-->
<!--    Foundation, Inc., 59 Temple Place, Suite 330, Boston, MA 02111-1307  USA-->
<!--										-->
<!--    Contact the author David Bellot at bellot@stat.berkeley.edu or 		-->
<!--    david.bellot@free.fr or yimyom@users.sourceforge.net			-->
<svg xmlns:dc="http://purl.org/dc/elements/1.1/" xmlns:cc="http://web.resource.org/cc/" xmlns:rdf="http://www.w3.org/1999/02/22-rdf-syntax-ns#" xmlns:svg="http://www.w3.org/2000/svg" xmlns="http://www.w3.org/2000/svg" xmlns:xlink="http://www.w3.org/1999/xlink" xmlns:sodipodi="http://sodipodi.sourceforge.net/DTD/sodipodi-0.dtd" xmlns:inkscape="http://www.inkscape.org/namespaces/inkscape" width="208" height="303" viewBox="0 0 167.08643 242.66748" xml:space="preserve" id="svg2" sodipodi:version="0.32" inkscape:version="0.45.1" sodipodi:docname="02_of_spades.svg" inkscape:output_extension="org.inkscape.output.svg.inkscape" sodipodi:docbase="C:\Documents and Settings\Flanker\Desktop\Temporanei\SVG\Carte" version="1.0"><metadata id="metadata90"><rdf:RDF><cc:Work rdf:about=""><dc:format>image/svg+xml</dc:format><dc:type rdf:resource="http://purl.org/dc/dcmitype/StillImage"/></cc:Work></rdf:RDF></metadata><defs id="defs88"/><sodipodi:namedview inkscape:window-height="1003" inkscape:window-width="1280" inkscape:pageshadow="2" inkscape:pageopacity="0.0" guidetolerance="10.0" gridtolerance="10.0" objecttolerance="10.0" borderopacity="1.0" bordercolor="#666666" pagecolor="#ffffff" id="base" inkscape:zoom="0.87882975" inkscape:cx="487.40024" inkscape:cy="119.68709" inkscape:window-x="475" inkscape:window-y="53" inkscape:current-layer="svg2" inkscape:showpageshadow="false" width="208px" height="303px"/>
	<path id="path5" d="M 166.83643,235.89281 C 166.83643,239.68452 163.75049,242.78371 159.96632,242.78371 L 7.1113279,242.78371 C 3.3359375,242.78371 0.25,239.68452 0.25,235.89281 L 0.25,6.7746663 C 0.25,2.9883463 3.3359375,-0.11623023 7.1113279,-0.11623023 L 159.96632,-0.11623023 C 163.75049,-0.11623023 166.83643,2.9883463 166.83643,6.7746663 L 166.83643,235.89281 L 166.83643,235.89281 z " style="fill:#ffffff;fill-rule:nonzero;stroke:#000000;stroke-width:0.5;stroke-miterlimit:4"/><g style="fill-rule:nonzero;stroke:#000000;stroke-miterlimit:4" id="g2429" transform="translate(1.6190219,4.44338e-2)">
			<path style="stroke:none" d="M 12.487793,12.404785 L 11.831543,12.404785 L 11.831543,8.5297852 C 12.274902,8.2280274 12.711914,8.0014649 13.143066,7.8500977 C 13.574219,7.6992188 14.007324,7.6235352 14.442871,7.6235352 C 15.466309,7.6235352 16.266113,8.09375 16.842285,9.0332032 C 17.418457,9.9731446 17.706543,11.281738 17.706543,12.959473 C 17.706543,14.153809 17.547852,15.224609 17.231445,16.172363 C 16.915039,17.120117 16.311523,18.243164 15.421875,19.541992 L 13.178711,22.842285 L 16.987793,22.842285 L 16.987793,20.717285 L 17.737793,20.717285 L 17.737793,25.998535 L 11.769043,25.998535 L 11.769043,23.057129 L 12.960449,21.212402 C 13.986816,19.638183 14.669922,18.29834 15.009766,17.191894 C 15.349121,16.085937 15.519043,14.794434 15.519043,13.316894 C 15.519043,11.92041 15.389648,10.856445 15.130859,10.125976 C 14.87207,9.3955077 14.496582,9.0297852 14.003418,9.0297852 C 13.574707,9.0297852 13.233399,9.3183594 12.978516,9.8950196 C 12.723633,10.47168 12.560059,11.308106 12.487793,12.404785 z " id="path2431"/>
		</g><g style="fill-rule:nonzero;stroke:#000000;stroke-miterlimit:4" id="g2433" transform="translate(-0.9061249,4.54112e-2)">
			<path style="stroke:none" d="M 153.88574,230.17285 L 154.54199,230.17285 L 154.54199,234.04785 C 154.09863,234.35059 153.66113,234.57715 153.23047,234.72754 C 152.7998,234.87891 152.36621,234.9541 151.93066,234.9541 C 150.90723,234.9541 150.10742,234.48438 149.53125,233.54492 C 148.95508,232.60449 148.66699,231.2959 148.66699,229.61816 C 148.66699,228.4248 148.8252,227.35352 149.1416,226.40527 C 149.45801,225.45801 150.06152,224.33496 150.95215,223.03613 L 153.19434,219.73535 L 149.38574,219.73535 L 149.38574,221.86035 L 148.63574,221.86035 L 148.63574,216.5791 L 154.60449,216.5791 L 154.60449,219.52051 L 153.41309,221.36621 C 152.38672,222.94043 151.7041,224.28027 151.36426,225.38574 C 151.02441,226.49219 150.85449,227.78418 150.85449,229.26074 C 150.85449,230.65723 150.9834,231.72168 151.24316,232.45215 C 151.50098,233.18262 151.87695,233.54785 152.37012,233.54785 C 152.79883,233.54785 153.13965,233.25977 153.39551,232.68262 C 153.64941,232.10645 153.81348,231.27051 153.88574,230.17285 L 153.88574,230.17285 z " id="path2435"/>
		</g>
<path style="fill-rule:nonzero;stroke:none;stroke-miterlimit:4" d="M 83.543215,12.962851 C 80.358644,18.694301 69.506031,23.945031 69.485463,31.187721 C 69.475751,34.607631 72.631525,37.363091 76.514339,37.363091 C 78.987854,37.363091 81.185777,36.253001 82.438677,34.551541 C 81.915249,39.475911 80.511286,44.979401 75.384698,46.023671 L 83.543215,46.023671 L 91.701732,46.023671 C 86.57515,44.979401 85.171181,39.475911 84.647753,34.551541 C 85.900658,36.253001 88.098576,37.363091 90.572091,37.363091 C 94.454909,37.363091 97.610678,34.607631 97.600967,31.187721 C 97.580401,23.945031 86.727786,18.694301 83.543215,12.962851 z " id="path2254" sodipodi:nodetypes="csscccccssc"/><path id="path2273" d="M 16.372445,29.321959 C 15.415205,31.044753 12.155985,32.623058 12.146875,34.800104 C 12.146875,35.828088 13.092545,36.656335 14.259665,36.656335 C 15.003165,36.656335 15.663835,36.322657 16.040435,35.811222 C 15.883095,37.291419 15.461085,38.945692 13.920105,39.259585 L 16.372445,39.259585 L 18.824785,39.259585 C 17.283805,38.945692 16.861785,37.291419 16.704455,35.811222 C 17.081055,36.322657 17.741725,36.656335 18.485225,36.656335 C 19.652345,36.656335 20.598005,35.828088 20.598005,34.800104 C 20.588905,32.623058 17.329685,31.044753 16.372445,29.321959 z " style="fill-rule:nonzero;stroke:none;stroke-miterlimit:4"/><use x="0" y="0" xlink:href="#path2273" id="use2277" transform="matrix(1,0,0,-1,134.34154,242.36206)" width="167.08643" height="242.66748"/><use x="0" y="0" xlink:href="#path2254" id="use2196" transform="matrix(1,0,0,-1,0,242.66748)" width="167.08643" height="242.66748"/></svg>