<?xml version="1.0" encoding="UTF-8" standalone="no"?>
<!-- Generator: Adobe Illustrator 9.0, SVG Export Plug-In  -->
<!-- This set of SVG files is a complete cards game with figures, numbers	-->
<!--    and backs of cards completely designed in SVG.				-->
<!--    									-->
<!--    Copyright (C) 2004 David Bellot						-->
<!--										-->
<!--    This library is free software; you can redistribute it and/or		-->
<!--    modify it under the terms of the GNU Lesser General Public		-->
<!--    License as published by the Free Software Foundation; either		-->
<!--    version 2 of the License, or (at your option) any later version		-->
<!--										-->
<!--    This library is distributed in the hope that it will be useful,		-->
<!--    but WITHOUT ANY WARRANTY; without even the implied warranty of		-->
<!--    MERCHANTABILITY or FITNESS FOR A PARTICULAR PURPOSE.  See the GNU	-->
<!--    Lesser General Public License for more details.				-->
<!--										-->
<!--    You should have received a copy of the GNU Lesser General Public	-->
<!--    License along with this library; if not, write to the Free Software	-->
<!--    Foundation, Inc., 59 Temple Place, Suite 330, Boston, MA 02111-1307  USA-->
<!--										-->
<!--    Contact the author David Bellot at bellot@stat.berkeley.edu or 		-->
<!--    david.bellot@free.fr or yimyom@users.sourceforge.net			-->
<svg xmlns:dc="http://purl.org/dc/elements/1.1/" xmlns:cc="http://web.resource.org/cc/" xmlns:rdf="http://www.w3.org/1999/02/22-rdf-syntax-ns#" xmlns:svg="http://www.w3.org/2000/svg" xmlns="http://www.w3.org/2000/svg" xmlns:xlink="http://www.w3.org/1999/xlink" xmlns:sodipodi="http://sodipodi.sourceforge.net/DTD/sodipodi-0.dtd" xmlns:inkscape="http://www.inkscape.org/namespaces/inkscape" width="208" height="303" viewBox="0 0 167.08643 242.66748" xml:space="preserve" id="svg2" sodipodi:version="0.32" inkscape:version="0.45.1" sodipodi:docname="02_of_clubs_02.svg" inkscape:output_extension="org.inkscape.output.svg.inkscape" sodipodi:docbase="C:\Documents and Settings\Flanker\Desktop" version="1.0"><metadata id="metadata90"><rdf:RDF><cc:Work rdf:about=""><dc:format>image/svg+xml</dc:format><dc:type rdf:resource="http://purl.org/dc/dcmitype/StillImage"/></cc:Work></rdf:RDF></metadata><defs id="defs88"/><sodipodi:namedview inkscape:window-height="1003" inkscape:window-width="1280" inkscape:pageshadow="2" inkscape:pageopacity="0.0" guidetolerance="10.0" gridtolerance="10.0" objecttolerance="10.0" borderopacity="1.0" bordercolor="#666666" pagecolor="#ffffff" id="base" inkscape:zoom="1.7576595" inkscape:cx="177.51892" inkscape:cy="102.52031" inkscape:window-x="-4" inkscape:window-y="-4" inkscape:current-layer="svg2" inkscape:showpageshadow="false" width="208px" height="303px"/>
	<path id="path5" d="M 166.83643,235.89281 C 166.83643,239.68452 163.75049,242.78371 159.96632,242.78371 L 7.1113279,242.78371 C 3.3359375,242.78371 0.25,239.68452 0.25,235.89281 L 0.25,6.7746663 C 0.25,2.9883463 3.3359375,-0.11623023 7.1113279,-0.11623023 L 159.96632,-0.11623023 C 163.75049,-0.11623023 166.83643,2.9883463 166.83643,6.7746663 L 166.83643,235.89281 L 166.83643,235.89281 z " style="fill:#ffffff;fill-rule:nonzero;stroke:#000000;stroke-width:0.5;stroke-miterlimit:4"/><g style="fill-rule:nonzero;stroke:#000000;stroke-miterlimit:4" id="g2429" transform="translate(1.6190219,4.44338e-2)">
			<path style="stroke:none" d="M 12.487793,12.404785 L 11.831543,12.404785 L 11.831543,8.5297852 C 12.274902,8.2280274 12.711914,8.0014649 13.143066,7.8500977 C 13.574219,7.6992188 14.007324,7.6235352 14.442871,7.6235352 C 15.466309,7.6235352 16.266113,8.09375 16.842285,9.0332032 C 17.418457,9.9731446 17.706543,11.281738 17.706543,12.959473 C 17.706543,14.153809 17.547852,15.224609 17.231445,16.172363 C 16.915039,17.120117 16.311523,18.243164 15.421875,19.541992 L 13.178711,22.842285 L 16.987793,22.842285 L 16.987793,20.717285 L 17.737793,20.717285 L 17.737793,25.998535 L 11.769043,25.998535 L 11.769043,23.057129 L 12.960449,21.212402 C 13.986816,19.638183 14.669922,18.29834 15.009766,17.191894 C 15.349121,16.085937 15.519043,14.794434 15.519043,13.316894 C 15.519043,11.92041 15.389648,10.856445 15.130859,10.125976 C 14.87207,9.3955077 14.496582,9.0297852 14.003418,9.0297852 C 13.574707,9.0297852 13.233399,9.3183594 12.978516,9.8950196 C 12.723633,10.47168 12.560059,11.308106 12.487793,12.404785 z " id="path2431"/>
		</g><g style="fill-rule:nonzero;stroke:#000000;stroke-miterlimit:4" id="g2433" transform="translate(-0.9061249,4.54112e-2)">
			<path style="stroke:none" d="M 153.88574,230.17285 L 154.54199,230.17285 L 154.54199,234.04785 C 154.09863,234.35059 153.66113,234.57715 153.23047,234.72754 C 152.7998,234.87891 152.36621,234.9541 151.93066,234.9541 C 150.90723,234.9541 150.10742,234.48438 149.53125,233.54492 C 148.95508,232.60449 148.66699,231.2959 148.66699,229.61816 C 148.66699,228.4248 148.8252,227.35352 149.1416,226.40527 C 149.45801,225.45801 150.06152,224.33496 150.95215,223.03613 L 153.19434,219.73535 L 149.38574,219.73535 L 149.38574,221.86035 L 148.63574,221.86035 L 148.63574,216.5791 L 154.60449,216.5791 L 154.60449,219.52051 L 153.41309,221.36621 C 152.38672,222.94043 151.7041,224.28027 151.36426,225.38574 C 151.02441,226.49219 150.85449,227.78418 150.85449,229.26074 C 150.85449,230.65723 150.9834,231.72168 151.24316,232.45215 C 151.50098,233.18262 151.87695,233.54785 152.37012,233.54785 C 152.79883,233.54785 153.13965,233.25977 153.39551,232.68262 C 153.64941,232.10645 153.81348,231.27051 153.88574,230.17285 L 153.88574,230.17285 z " id="path2435"/>
		</g><path style="fill:#000000;fill-opacity:1;stroke:none;stroke-width:1.5;stroke-linecap:round;stroke-linejoin:round;stroke-miterlimit:4;stroke-opacity:1" d="M 150.73654,213.0401 C 151.87847,213.0401 152.80375,212.11482 152.80375,210.97289 C 152.80375,210.3835 152.55321,209.8539 152.15728,209.47699 C 151.85132,209.18573 151.41544,208.52555 151.27026,207.99612 C 151.55345,208.16678 151.80854,208.36129 151.96183,208.52232 C 152.33875,208.91825 152.86835,209.16127 153.45774,209.16127 C 154.59967,209.16127 155.52494,208.23599 155.52494,207.09406 C 155.52494,205.95214 154.59966,205.02686 153.45774,205.02686 C 152.86835,205.02686 152.33875,205.27739 151.96183,205.67333 C 151.8002,205.84312 151.52696,206.05796 151.22515,206.23711 C 151.26749,204.34125 151.91814,203.10248 153.10443,203.10248 C 153.10443,203.10248 148.36113,203.10248 148.36113,203.10248 C 149.55058,203.10248 150.20877,204.34774 150.24793,206.25215 C 149.92976,206.06953 149.634,205.84966 149.46615,205.67333 C 149.08924,205.27739 148.55963,205.02686 147.97024,205.02686 C 146.82833,205.02686 145.90304,205.95214 145.90304,207.09406 C 145.90304,208.23599 146.82833,209.16127 147.97024,209.16127 C 148.55962,209.16127 149.08924,208.91825 149.46615,208.52232 C 149.62576,208.35465 149.90297,208.15581 150.20283,207.98108 C 150.06219,208.51312 149.6173,209.18282 149.30829,209.47699 C 148.91236,209.8539 148.66933,210.38351 148.66933,210.97289 C 148.66933,212.11482 149.59461,213.0401 150.73654,213.0401 z " id="use2374" sodipodi:nodetypes="csscsssssccccssssscssc"/><path style="fill:#000000;fill-opacity:1;stroke:none;stroke-width:1.5;stroke-linecap:round;stroke-linejoin:round;stroke-miterlimit:4;stroke-opacity:1" d="M 16.349889,29.321959 C 15.207961,29.321959 14.282681,30.247238 14.282682,31.389166 C 14.282682,31.978555 14.53322,32.508157 14.929154,32.885071 C 15.235114,33.176333 15.670993,33.836507 15.816173,34.365943 C 15.532982,34.195277 15.277893,34.000774 15.124599,33.839745 C 14.747684,33.44381 14.218081,33.20079 13.628693,33.20079 C 12.486765,33.20079 11.561486,34.126069 11.561486,35.267997 C 11.561486,36.409925 12.486765,37.335203 13.628693,37.335203 C 14.218083,37.335203 14.747685,37.084667 15.124599,36.688732 C 15.286233,36.518938 15.559471,36.304096 15.861276,36.124948 C 15.818942,38.020809 15.168287,39.259585 13.981997,39.259585 C 13.981997,39.259585 18.725297,39.259585 18.725297,39.259585 C 17.535846,39.259585 16.87766,38.014321 16.838501,36.109914 C 17.156674,36.292535 17.452427,36.512404 17.620281,36.688732 C 17.99719,37.084667 18.526804,37.335203 19.116187,37.335203 C 20.258103,37.335203 21.183394,36.409925 21.183394,35.267997 C 21.183394,34.126069 20.258103,33.20079 19.116187,33.20079 C 18.526807,33.20079 17.99719,33.44381 17.620281,33.839745 C 17.46067,34.00741 17.183459,34.206246 16.883604,34.380977 C 17.024245,33.848937 17.469128,33.179243 17.77814,32.885071 C 18.174075,32.508157 18.417095,31.978552 18.417095,31.389166 C 18.417095,30.247238 17.491817,29.321959 16.349889,29.321959 z " id="use2370" sodipodi:nodetypes="csscsssssccccssssscssc"/>
<path style="fill:#000000;fill-opacity:1;stroke:none;stroke-width:1.5;stroke-linecap:round;stroke-linejoin:round;stroke-miterlimit:4;stroke-opacity:1" d="M 83.468215,12.968261 C 79.670455,12.968261 76.593213,16.045501 76.593215,19.843261 C 76.593215,21.803421 77.42644,23.564741 78.743215,24.818261 C 79.760759,25.786921 81.210383,27.982491 81.693215,29.743261 C 80.751391,29.175671 79.903031,28.528801 79.393215,27.993261 C 78.139694,26.676481 76.378367,25.868261 74.418215,25.868261 C 70.620454,25.868261 67.543215,28.945501 67.543215,32.743261 C 67.543214,36.541021 70.620455,39.618261 74.418215,39.618261 C 76.378374,39.618261 78.139695,38.785041 79.393215,37.468261 C 79.930767,36.903571 80.839487,36.189061 81.843215,35.593261 C 81.702423,41.898411 79.538511,46.018261 75.593215,46.018261 C 75.593215,46.018261 91.368215,46.018261 91.368215,46.018261 C 87.412407,46.018261 85.223447,41.876831 85.093215,35.543261 C 86.151375,36.150611 87.134975,36.881841 87.693215,37.468261 C 88.946719,38.785041 90.708079,39.618261 92.668215,39.618261 C 96.465935,39.618261 99.543215,36.541021 99.543215,32.743261 C 99.543215,28.945501 96.465935,25.868261 92.668215,25.868261 C 90.708087,25.868261 88.946719,26.676481 87.693215,27.993261 C 87.162391,28.550871 86.240455,29.212151 85.243215,29.793261 C 85.710951,28.023831 87.190519,25.796601 88.218215,24.818261 C 89.534991,23.564741 90.343215,21.803411 90.343215,19.843261 C 90.343215,16.045501 87.265975,12.968261 83.468215,12.968261 z " id="path2242" sodipodi:nodetypes="csscsssssccccssssscssc"/><use x="0" y="0" xlink:href="#path2242" id="use2597" transform="matrix(1,0,0,-1,0,242.66748)" width="167.08643" height="242.66748"/></svg>