<?xml version="1.0" encoding="UTF-8" standalone="no"?>
<!-- Generator: Adobe Illustrator 9.0, SVG Export Plug-In  -->
<!-- This set of SVG files is a complete cards game with figures, numbers	-->
<!--    and backs of cards completely designed in SVG.				-->
<!--    									-->
<!--    Copyright (C) 2004 David Bellot						-->
<!--										-->
<!--    This library is free software; you can redistribute it and/or		-->
<!--    modify it under the terms of the GNU Lesser General Public		-->
<!--    License as published by the Free Software Foundation; either		-->
<!--    version 2 of the License, or (at your option) any later version		-->
<!--										-->
<!--    This library is distributed in the hope that it will be useful,		-->
<!--    but WITHOUT ANY WARRANTY; without even the implied warranty of		-->
<!--    MERCHANTABILITY or FITNESS FOR A PARTICULAR PURPOSE.  See the GNU	-->
<!--    Lesser General Public License for more details.				-->
<!--										-->
<!--    You should have received a copy of the GNU Lesser General Public	-->
<!--    License along with this library; if not, write to the Free Software	-->
<!--    Foundation, Inc., 59 Temple Place, Suite 330, Boston, MA 02111-1307  USA-->
<!--										-->
<!--    Contact the author David Bellot at bellot@stat.berkeley.edu or 		-->
<!--    david.bellot@free.fr or yimyom@users.sourceforge.net			-->
<svg xmlns:dc="http://purl.org/dc/elements/1.1/" xmlns:cc="http://web.resource.org/cc/" xmlns:rdf="http://www.w3.org/1999/02/22-rdf-syntax-ns#" xmlns:svg="http://www.w3.org/2000/svg" xmlns="http://www.w3.org/2000/svg" xmlns:xlink="http://www.w3.org/1999/xlink" xmlns:sodipodi="http://sodipodi.sourceforge.net/DTD/sodipodi-0.dtd" xmlns:inkscape="http://www.inkscape.org/namespaces/inkscape" width="208" height="303" viewBox="0 0 167.08643 242.66748" xml:space="preserve" id="svg2" sodipodi:version="0.32" inkscape:version="0.45.1" sodipodi:docname="03_of_hearts.svg" inkscape:output_extension="org.inkscape.output.svg.inkscape" sodipodi:docbase="C:\Documents and Settings\Flanker\Desktop\Temporanei\SVG\Carte" version="1.0"><metadata id="metadata90"><rdf:RDF><cc:Work rdf:about=""><dc:format>image/svg+xml</dc:format><dc:type rdf:resource="http://purl.org/dc/dcmitype/StillImage"/></cc:Work></rdf:RDF></metadata><defs id="defs88"/><sodipodi:namedview inkscape:window-height="755" inkscape:window-width="878" inkscape:pageshadow="2" inkscape:pageopacity="0.0" guidetolerance="10.0" gridtolerance="10.0" objecttolerance="10.0" borderopacity="1.0" bordercolor="#666666" pagecolor="#ffffff" id="base" inkscape:zoom="1.242853" inkscape:cx="155.62806" inkscape:cy="141.04936" inkscape:window-x="388" inkscape:window-y="208" inkscape:current-layer="svg2" inkscape:showpageshadow="false" width="208px" height="303px"/>
	<path id="path5" d="M 166.83643,235.89281 C 166.83643,239.68452 163.75049,242.78371 159.96632,242.78371 L 7.1113279,242.78371 C 3.3359375,242.78371 0.25,239.68452 0.25,235.89281 L 0.25,6.7746664 C 0.25,2.9883464 3.3359375,-0.11623011 7.1113279,-0.11623011 L 159.96632,-0.11623011 C 163.75049,-0.11623011 166.83643,2.9883464 166.83643,6.7746664 L 166.83643,235.89281 L 166.83643,235.89281 z " style="fill:#ffffff;fill-rule:nonzero;stroke:#000000;stroke-width:0.5;stroke-miterlimit:4"/><g style="fill-rule:nonzero;stroke:#000000;stroke-miterlimit:4;fill:#e61408;fill-opacity:1" id="g2714" transform="translate(1.5311309,3.8086e-2)">
			<path style="stroke:none;fill:#e61408;fill-opacity:1" d="M 11.919434,8.3017578 C 12.395996,8.0205078 12.85791,7.8095703 13.306152,7.6689453 C 13.754395,7.5283203 14.188965,7.4580078 14.608887,7.4580078 C 15.586426,7.4580078 16.335449,7.8476562 16.855957,8.6259766 C 17.377442,9.4047852 17.638184,10.520508 17.638184,11.973145 C 17.638184,13.0625 17.48877,13.946289 17.189942,14.624024 C 16.89209,15.301758 16.452637,15.757813 15.871582,15.991699 C 16.568848,16.241211 17.089356,16.776367 17.434082,17.59668 C 17.777832,18.417481 17.950684,19.539551 17.950684,20.963379 C 17.950684,22.64502 17.651856,23.93457 17.055176,24.831543 C 16.458496,25.728516 15.595215,26.176758 14.466309,26.176758 C 14.046387,26.176758 13.608887,26.095703 13.152832,25.93457 C 12.696777,25.773438 12.223145,25.53125 11.731934,25.208008 L 11.731934,21.239258 L 12.388184,21.239258 C 12.428223,22.388184 12.590332,23.26416 12.873535,23.866699 C 13.156739,24.469238 13.549317,24.770508 14.05127,24.770508 C 14.593262,24.770508 15.01416,24.430176 15.313965,23.749512 C 15.612793,23.068848 15.763184,22.104004 15.763184,20.854981 C 15.763184,19.550293 15.608887,18.542969 15.30127,17.833984 C 14.993653,17.125 14.556153,16.770508 13.98877,16.770508 L 13.638184,16.770508 L 13.638184,15.333008 L 13.916504,15.333008 C 14.448731,15.333008 14.847168,15.058106 15.11377,14.507813 C 15.379395,13.958008 15.513184,13.136719 15.513184,12.043945 C 15.513184,11.016602 15.387207,10.229492 15.135254,9.6835937 C 14.883301,9.1376952 14.520996,8.8642578 14.050293,8.8642578 C 13.619629,8.8642578 13.277832,9.1230469 13.025879,9.6401367 C 12.773926,10.157715 12.624512,10.90918 12.575684,11.895508 L 11.919434,11.895508 L 11.919434,8.3017578 L 11.919434,8.3017578 z " id="path2716"/>
		</g><g style="fill-rule:nonzero;stroke:#000000;stroke-miterlimit:4;fill:#e61408;fill-opacity:1" id="g2718" transform="translate(-0.7440149,0.3828162)">
			<path style="stroke:none;fill:#e61408;fill-opacity:1" d="M 154.37988,233.94482 C 153.90332,234.22607 153.44043,234.43701 152.99316,234.57764 C 152.54395,234.71826 152.11035,234.78857 151.69043,234.78857 C 150.71191,234.78857 149.96387,234.3999 149.44238,233.62061 C 148.9209,232.84229 148.66113,231.72607 148.66113,230.27393 C 148.66113,229.18506 148.80957,228.30029 149.1084,227.62256 C 149.40723,226.94482 149.84668,226.48975 150.42676,226.25537 C 149.72949,226.00537 149.20996,225.47021 148.86426,224.6499 C 148.52051,223.82959 148.34863,222.70752 148.34863,221.28369 C 148.34863,219.60205 148.64746,218.31201 149.24316,217.41553 C 149.84082,216.51904 150.7041,216.06982 151.83301,216.06982 C 152.25293,216.06982 152.69043,216.15186 153.14551,216.31201 C 153.60254,216.47412 154.0752,216.71631 154.56738,217.03857 L 154.56738,221.00732 L 153.91113,221.00732 C 153.87012,219.85889 153.70801,218.98291 153.4248,218.38037 C 153.1416,217.77783 152.74902,217.47607 152.24707,217.47607 C 151.70605,217.47607 151.28418,217.81689 150.98535,218.49756 C 150.68652,219.17822 150.53613,220.14307 150.53613,221.39209 C 150.53613,222.69678 150.69043,223.70459 150.99707,224.41357 C 151.30566,225.12256 151.74316,225.47607 152.30957,225.47607 L 152.66113,225.47607 L 152.66113,226.91357 L 152.38184,226.91357 C 151.85059,226.91357 151.45215,227.18896 151.18457,227.73975 C 150.91895,228.28857 150.78613,229.11084 150.78613,230.20264 C 150.78613,231.22998 150.91113,232.01709 151.16309,232.56396 C 151.41504,233.10889 151.77832,233.38232 152.24902,233.38232 C 152.67871,233.38232 153.02051,233.12451 153.27246,232.60693 C 153.52441,232.08936 153.6748,231.3374 153.72363,230.35107 L 154.37988,230.35107 L 154.37988,233.94482 L 154.37988,233.94482 z " id="path2720"/>
		</g>
<path style="fill:#e61408;fill-rule:nonzero;stroke:none;stroke-miterlimit:4" d="M 75.673387,13.351959 C 71.365772,13.361229 67.862932,17.043109 67.891412,21.560679 C 67.951812,31.140279 79.983791,38.068189 83.530666,45.634579 C 87.077541,38.068189 99.134628,31.140279 99.195018,21.560679 C 99.2235,17.043109 95.720664,13.361229 91.413048,13.351959 C 87.105432,13.343159 83.543358,17.009209 83.530666,21.535579 C 83.517974,17.009209 79.981003,13.343159 75.673387,13.351959 z " id="path2170"/><path id="path2225" d="M 14.006095,29.437331 C 12.710865,29.440118 11.657615,30.547203 11.666185,31.905566 C 11.684335,34.786005 15.302175,36.86912 16.368665,39.144217 C 17.435155,36.86912 21.060535,34.786005 21.078695,31.905566 C 21.087255,30.547203 20.034005,29.440118 18.738775,29.437331 C 17.443535,29.434685 16.372475,30.537009 16.368665,31.898019 C 16.364845,30.537009 15.301335,29.434685 14.006095,29.437331 z " style="fill:#e61408;fill-rule:nonzero;stroke:none;stroke-miterlimit:4"/><use x="0" y="0" xlink:href="#path2225" id="use2231" transform="matrix(1,0,0,-1,134.34155,242.36206)" width="167.08643" height="242.66748"/><use x="0" y="0" xlink:href="#path2170" id="use2194" transform="translate(-1.9878345e-6,91.513891)" width="167.08643" height="242.66748"/><use x="0" y="0" xlink:href="#path2170" id="use2198" transform="matrix(1,0,0,-1,-1.2165602e-8,242.66748)" width="167.08643" height="242.66748"/></svg>