<?xml version="1.0" encoding="UTF-8" standalone="no"?>
<!-- Generator: Adobe Illustrator 9.0, SVG Export Plug-In  -->
<!-- This set of SVG files is a complete cards game with figures, numbers	-->
<!--    and backs of cards completely designed in SVG.				-->
<!--    									-->
<!--    Copyright (C) 2004 David Bellot						-->
<!--										-->
<!--    This library is free software; you can redistribute it and/or		-->
<!--    modify it under the terms of the GNU Lesser General Public		-->
<!--    License as published by the Free Software Foundation; either		-->
<!--    version 2 of the License, or (at your option) any later version		-->
<!--										-->
<!--    This library is distributed in the hope that it will be useful,		-->
<!--    but WITHOUT ANY WARRANTY; without even the implied warranty of		-->
<!--    MERCHANTABILITY or FITNESS FOR A PARTICULAR PURPOSE.  See the GNU	-->
<!--    Lesser General Public License for more details.				-->
<!--										-->
<!--    You should have received a copy of the GNU Lesser General Public	-->
<!--    License along with this library; if not, write to the Free Software	-->
<!--    Foundation, Inc., 59 Temple Place, Suite 330, Boston, MA 02111-1307  USA-->
<!--										-->
<!--    Contact the author David Bellot at bellot@stat.berkeley.edu or 		-->
<!--    david.bellot@free.fr or yimyom@users.sourceforge.net			-->
<svg xmlns:dc="http://purl.org/dc/elements/1.1/" xmlns:cc="http://web.resource.org/cc/" xmlns:rdf="http://www.w3.org/1999/02/22-rdf-syntax-ns#" xmlns:svg="http://www.w3.org/2000/svg" xmlns="http://www.w3.org/2000/svg" xmlns:xlink="http://www.w3.org/1999/xlink" xmlns:sodipodi="http://sodipodi.sourceforge.net/DTD/sodipodi-0.dtd" xmlns:inkscape="http://www.inkscape.org/namespaces/inkscape" width="208" height="303" viewBox="0 0 167.08643 242.66748" xml:space="preserve" id="svg2" sodipodi:version="0.32" inkscape:version="0.45.1" sodipodi:docname="03_of_diamonds.svg" inkscape:output_extension="org.inkscape.output.svg.inkscape" sodipodi:docbase="C:\Documents and Settings\Flanker\Desktop\Temporanei\SVG\Carte" version="1.0"><metadata id="metadata90"><rdf:RDF><cc:Work rdf:about=""><dc:format>image/svg+xml</dc:format><dc:type rdf:resource="http://purl.org/dc/dcmitype/StillImage"/></cc:Work></rdf:RDF></metadata><defs id="defs88"/><sodipodi:namedview inkscape:window-height="1003" inkscape:window-width="1280" inkscape:pageshadow="2" inkscape:pageopacity="0.0" guidetolerance="10.0" gridtolerance="10.0" objecttolerance="10.0" borderopacity="1.0" bordercolor="#666666" pagecolor="#ffffff" id="base" inkscape:zoom="1.7576595" inkscape:cx="177.51892" inkscape:cy="125.27785" inkscape:window-x="-4" inkscape:window-y="-4" inkscape:current-layer="svg2" inkscape:showpageshadow="false" width="208px" height="303px"/>
	<path id="path5" d="M 166.83643,235.89281 C 166.83643,239.68452 163.75049,242.78371 159.96632,242.78371 L 7.1113279,242.78371 C 3.3359375,242.78371 0.25,239.68452 0.25,235.89281 L 0.25,6.7746664 C 0.25,2.9883464 3.3359375,-0.11623011 7.1113279,-0.11623011 L 159.96632,-0.11623011 C 163.75049,-0.11623011 166.83643,2.9883464 166.83643,6.7746664 L 166.83643,235.89281 L 166.83643,235.89281 z " style="fill:#ffffff;fill-rule:nonzero;stroke:#000000;stroke-width:0.5;stroke-miterlimit:4"/><g style="fill-rule:nonzero;stroke:#000000;stroke-miterlimit:4;fill:#e61408;fill-opacity:1" id="g2714" transform="translate(1.5311309,3.8086e-2)">
			<path style="stroke:none;fill:#e61408;fill-opacity:1" d="M 11.919434,8.3017578 C 12.395996,8.0205078 12.85791,7.8095703 13.306152,7.6689453 C 13.754395,7.5283203 14.188965,7.4580078 14.608887,7.4580078 C 15.586426,7.4580078 16.335449,7.8476562 16.855957,8.6259766 C 17.377442,9.4047852 17.638184,10.520508 17.638184,11.973145 C 17.638184,13.0625 17.48877,13.946289 17.189942,14.624024 C 16.89209,15.301758 16.452637,15.757813 15.871582,15.991699 C 16.568848,16.241211 17.089356,16.776367 17.434082,17.59668 C 17.777832,18.417481 17.950684,19.539551 17.950684,20.963379 C 17.950684,22.64502 17.651856,23.93457 17.055176,24.831543 C 16.458496,25.728516 15.595215,26.176758 14.466309,26.176758 C 14.046387,26.176758 13.608887,26.095703 13.152832,25.93457 C 12.696777,25.773438 12.223145,25.53125 11.731934,25.208008 L 11.731934,21.239258 L 12.388184,21.239258 C 12.428223,22.388184 12.590332,23.26416 12.873535,23.866699 C 13.156739,24.469238 13.549317,24.770508 14.05127,24.770508 C 14.593262,24.770508 15.01416,24.430176 15.313965,23.749512 C 15.612793,23.068848 15.763184,22.104004 15.763184,20.854981 C 15.763184,19.550293 15.608887,18.542969 15.30127,17.833984 C 14.993653,17.125 14.556153,16.770508 13.98877,16.770508 L 13.638184,16.770508 L 13.638184,15.333008 L 13.916504,15.333008 C 14.448731,15.333008 14.847168,15.058106 15.11377,14.507813 C 15.379395,13.958008 15.513184,13.136719 15.513184,12.043945 C 15.513184,11.016602 15.387207,10.229492 15.135254,9.6835937 C 14.883301,9.1376952 14.520996,8.8642578 14.050293,8.8642578 C 13.619629,8.8642578 13.277832,9.1230469 13.025879,9.6401367 C 12.773926,10.157715 12.624512,10.90918 12.575684,11.895508 L 11.919434,11.895508 L 11.919434,8.3017578 L 11.919434,8.3017578 z " id="path2716"/>
		</g><g style="fill-rule:nonzero;stroke:#000000;stroke-miterlimit:4;fill:#e61408;fill-opacity:1" id="g2718" transform="translate(-0.7440149,0.3828162)">
			<path style="stroke:none;fill:#e61408;fill-opacity:1" d="M 154.37988,233.94482 C 153.90332,234.22607 153.44043,234.43701 152.99316,234.57764 C 152.54395,234.71826 152.11035,234.78857 151.69043,234.78857 C 150.71191,234.78857 149.96387,234.3999 149.44238,233.62061 C 148.9209,232.84229 148.66113,231.72607 148.66113,230.27393 C 148.66113,229.18506 148.80957,228.30029 149.1084,227.62256 C 149.40723,226.94482 149.84668,226.48975 150.42676,226.25537 C 149.72949,226.00537 149.20996,225.47021 148.86426,224.6499 C 148.52051,223.82959 148.34863,222.70752 148.34863,221.28369 C 148.34863,219.60205 148.64746,218.31201 149.24316,217.41553 C 149.84082,216.51904 150.7041,216.06982 151.83301,216.06982 C 152.25293,216.06982 152.69043,216.15186 153.14551,216.31201 C 153.60254,216.47412 154.0752,216.71631 154.56738,217.03857 L 154.56738,221.00732 L 153.91113,221.00732 C 153.87012,219.85889 153.70801,218.98291 153.4248,218.38037 C 153.1416,217.77783 152.74902,217.47607 152.24707,217.47607 C 151.70605,217.47607 151.28418,217.81689 150.98535,218.49756 C 150.68652,219.17822 150.53613,220.14307 150.53613,221.39209 C 150.53613,222.69678 150.69043,223.70459 150.99707,224.41357 C 151.30566,225.12256 151.74316,225.47607 152.30957,225.47607 L 152.66113,225.47607 L 152.66113,226.91357 L 152.38184,226.91357 C 151.85059,226.91357 151.45215,227.18896 151.18457,227.73975 C 150.91895,228.28857 150.78613,229.11084 150.78613,230.20264 C 150.78613,231.22998 150.91113,232.01709 151.16309,232.56396 C 151.41504,233.10889 151.77832,233.38232 152.24902,233.38232 C 152.67871,233.38232 153.02051,233.12451 153.27246,232.60693 C 153.52441,232.08936 153.6748,231.3374 153.72363,230.35107 L 154.37988,230.35107 L 154.37988,233.94482 L 154.37988,233.94482 z " id="path2720"/>
		</g>
<path style="fill:#e61408;fill-opacity:1;stroke:none;stroke-width:1.49999988;stroke-linecap:round;stroke-linejoin:round;stroke-miterlimit:4;stroke-dasharray:none;stroke-opacity:1" d="M 83.54322,13.628086 C 83.5171,14.523896 82.98547,17.883396 77.19212,23.443406 C 71.61646,28.794526 69.0128,29.436916 68.23031,29.493266 C 69.0128,29.549606 71.61646,30.192016 77.19212,35.543116 C 82.98547,41.103126 83.5171,44.462616 83.54322,45.358436 C 83.56934,44.462626 84.10096,41.103136 89.89431,35.543116 C 95.46998,30.192006 98.07363,29.549596 98.85612,29.493266 C 98.07363,29.436926 95.46998,28.794516 89.89431,23.443406 C 84.10096,17.883406 83.56934,14.523906 83.54322,13.628086 z " id="path2243"/><path id="path3230" d="M 16.37244,29.520358 C 16.36459,29.789714 16.20473,30.799864 14.46276,32.471673 C 12.78625,34.080673 12.00337,34.273829 11.76808,34.290773 C 12.00337,34.307714 12.78625,34.500876 14.46276,36.10987 C 16.20473,37.781679 16.36459,38.791826 16.37244,39.061185 C 16.38029,38.791829 16.54015,37.781682 18.28212,36.10987 C 19.95863,34.500873 20.74151,34.307711 20.9768,34.290773 C 20.74151,34.273832 19.95863,34.08067 18.28212,32.471673 C 16.54015,30.799867 16.38029,29.789717 16.37244,29.520358 z " style="fill:#e61408;fill-opacity:1;stroke:none;stroke-width:1.49999988;stroke-linecap:round;stroke-linejoin:round;stroke-miterlimit:4;stroke-dasharray:none;stroke-opacity:1"/><use x="0" y="0" xlink:href="#path3230" id="use3238" transform="translate(134.34155,173.78052)" width="167.08643" height="242.66748"/><use x="0" y="0" xlink:href="#path2243" id="use2194" transform="translate(0,91.840479)" width="167.08643" height="242.66748"/><use x="0" y="0" xlink:href="#use2194" id="use2196" transform="translate(0,91.840479)" width="167.08643" height="242.66748"/></svg>