<?xml version="1.0" encoding="UTF-8" standalone="no"?>
<!-- Generator: Adobe Illustrator 9.0, SVG Export Plug-In  -->
<!-- This set of SVG files is a complete cards game with figures, numbers	-->
<!--    and backs of cards completely designed in SVG.				-->
<!--    									-->
<!--    Copyright (C) 2004 David Bellot						-->
<!--										-->
<!--    This library is free software; you can redistribute it and/or		-->
<!--    modify it under the terms of the GNU Lesser General Public		-->
<!--    License as published by the Free Software Foundation; either		-->
<!--    version 2 of the License, or (at your option) any later version		-->
<!--										-->
<!--    This library is distributed in the hope that it will be useful,		-->
<!--    but WITHOUT ANY WARRANTY; without even the implied warranty of		-->
<!--    MERCHANTABILITY or FITNESS FOR A PARTICULAR PURPOSE.  See the GNU	-->
<!--    Lesser General Public License for more details.				-->
<!--										-->
<!--    You should have received a copy of the GNU Lesser General Public	-->
<!--    License along with this library; if not, write to the Free Software	-->
<!--    Foundation, Inc., 59 Temple Place, Suite 330, Boston, MA 02111-1307  USA-->
<!--										-->
<!--    Contact the author David Bellot at bellot@stat.berkeley.edu or 		-->
<!--    david.bellot@free.fr or yimyom@users.sourceforge.net			-->
<svg xmlns:dc="http://purl.org/dc/elements/1.1/" xmlns:cc="http://web.resource.org/cc/" xmlns:rdf="http://www.w3.org/1999/02/22-rdf-syntax-ns#" xmlns:svg="http://www.w3.org/2000/svg" xmlns="http://www.w3.org/2000/svg" xmlns:xlink="http://www.w3.org/1999/xlink" xmlns:sodipodi="http://sodipodi.sourceforge.net/DTD/sodipodi-0.dtd" xmlns:inkscape="http://www.inkscape.org/namespaces/inkscape" width="208" height="303" viewBox="0 0 167.08643 242.66748" xml:space="preserve" id="svg2" sodipodi:version="0.32" inkscape:version="0.45.1" sodipodi:docname="03_of_spades.svg" inkscape:output_extension="org.inkscape.output.svg.inkscape" sodipodi:docbase="C:\Documents and Settings\Flanker\Desktop\Temporanei\SVG\Carte" version="1.0"><metadata id="metadata90"><rdf:RDF><cc:Work rdf:about=""><dc:format>image/svg+xml</dc:format><dc:type rdf:resource="http://purl.org/dc/dcmitype/StillImage"/></cc:Work></rdf:RDF></metadata><defs id="defs88"/><sodipodi:namedview inkscape:window-height="573" inkscape:window-width="791" inkscape:pageshadow="2" inkscape:pageopacity="0.0" guidetolerance="10.0" gridtolerance="10.0" objecttolerance="10.0" borderopacity="1.0" bordercolor="#666666" pagecolor="#ffffff" id="base" inkscape:zoom="0.87882975" inkscape:cx="-11.208137" inkscape:cy="174.90881" inkscape:window-x="388" inkscape:window-y="208" inkscape:current-layer="svg2" inkscape:showpageshadow="false" width="208px" height="303px"/>
	<path id="path5" d="M 166.83643,235.89281 C 166.83643,239.68452 163.75049,242.78371 159.96632,242.78371 L 7.1113279,242.78371 C 3.3359375,242.78371 0.25,239.68452 0.25,235.89281 L 0.25,6.7746664 C 0.25,2.9883464 3.3359375,-0.11623011 7.1113279,-0.11623011 L 159.96632,-0.11623011 C 163.75049,-0.11623011 166.83643,2.9883464 166.83643,6.7746664 L 166.83643,235.89281 L 166.83643,235.89281 z " style="fill:#ffffff;fill-rule:nonzero;stroke:#000000;stroke-width:0.5;stroke-miterlimit:4"/><g style="fill-rule:nonzero;stroke:#000000;stroke-miterlimit:4" id="g2714" transform="translate(1.5311309,3.8086e-2)">
			<path style="stroke:none" d="M 11.919434,8.3017578 C 12.395996,8.0205078 12.85791,7.8095703 13.306152,7.6689453 C 13.754395,7.5283203 14.188965,7.4580078 14.608887,7.4580078 C 15.586426,7.4580078 16.335449,7.8476562 16.855957,8.6259766 C 17.377442,9.4047852 17.638184,10.520508 17.638184,11.973145 C 17.638184,13.0625 17.48877,13.946289 17.189942,14.624024 C 16.89209,15.301758 16.452637,15.757813 15.871582,15.991699 C 16.568848,16.241211 17.089356,16.776367 17.434082,17.59668 C 17.777832,18.417481 17.950684,19.539551 17.950684,20.963379 C 17.950684,22.64502 17.651856,23.93457 17.055176,24.831543 C 16.458496,25.728516 15.595215,26.176758 14.466309,26.176758 C 14.046387,26.176758 13.608887,26.095703 13.152832,25.93457 C 12.696777,25.773438 12.223145,25.53125 11.731934,25.208008 L 11.731934,21.239258 L 12.388184,21.239258 C 12.428223,22.388184 12.590332,23.26416 12.873535,23.866699 C 13.156739,24.469238 13.549317,24.770508 14.05127,24.770508 C 14.593262,24.770508 15.01416,24.430176 15.313965,23.749512 C 15.612793,23.068848 15.763184,22.104004 15.763184,20.854981 C 15.763184,19.550293 15.608887,18.542969 15.30127,17.833984 C 14.993653,17.125 14.556153,16.770508 13.98877,16.770508 L 13.638184,16.770508 L 13.638184,15.333008 L 13.916504,15.333008 C 14.448731,15.333008 14.847168,15.058106 15.11377,14.507813 C 15.379395,13.958008 15.513184,13.136719 15.513184,12.043945 C 15.513184,11.016602 15.387207,10.229492 15.135254,9.6835937 C 14.883301,9.1376952 14.520996,8.8642578 14.050293,8.8642578 C 13.619629,8.8642578 13.277832,9.1230469 13.025879,9.6401367 C 12.773926,10.157715 12.624512,10.90918 12.575684,11.895508 L 11.919434,11.895508 L 11.919434,8.3017578 L 11.919434,8.3017578 z " id="path2716"/>
		</g><g style="fill-rule:nonzero;stroke:#000000;stroke-miterlimit:4" id="g2718" transform="translate(-0.7440149,0.3828162)">
			<path style="stroke:none" d="M 154.37988,233.94482 C 153.90332,234.22607 153.44043,234.43701 152.99316,234.57764 C 152.54395,234.71826 152.11035,234.78857 151.69043,234.78857 C 150.71191,234.78857 149.96387,234.3999 149.44238,233.62061 C 148.9209,232.84229 148.66113,231.72607 148.66113,230.27393 C 148.66113,229.18506 148.80957,228.30029 149.1084,227.62256 C 149.40723,226.94482 149.84668,226.48975 150.42676,226.25537 C 149.72949,226.00537 149.20996,225.47021 148.86426,224.6499 C 148.52051,223.82959 148.34863,222.70752 148.34863,221.28369 C 148.34863,219.60205 148.64746,218.31201 149.24316,217.41553 C 149.84082,216.51904 150.7041,216.06982 151.83301,216.06982 C 152.25293,216.06982 152.69043,216.15186 153.14551,216.31201 C 153.60254,216.47412 154.0752,216.71631 154.56738,217.03857 L 154.56738,221.00732 L 153.91113,221.00732 C 153.87012,219.85889 153.70801,218.98291 153.4248,218.38037 C 153.1416,217.77783 152.74902,217.47607 152.24707,217.47607 C 151.70605,217.47607 151.28418,217.81689 150.98535,218.49756 C 150.68652,219.17822 150.53613,220.14307 150.53613,221.39209 C 150.53613,222.69678 150.69043,223.70459 150.99707,224.41357 C 151.30566,225.12256 151.74316,225.47607 152.30957,225.47607 L 152.66113,225.47607 L 152.66113,226.91357 L 152.38184,226.91357 C 151.85059,226.91357 151.45215,227.18896 151.18457,227.73975 C 150.91895,228.28857 150.78613,229.11084 150.78613,230.20264 C 150.78613,231.22998 150.91113,232.01709 151.16309,232.56396 C 151.41504,233.10889 151.77832,233.38232 152.24902,233.38232 C 152.67871,233.38232 153.02051,233.12451 153.27246,232.60693 C 153.52441,232.08936 153.6748,231.3374 153.72363,230.35107 L 154.37988,230.35107 L 154.37988,233.94482 L 154.37988,233.94482 z " id="path2720"/>
		</g>
<g style="fill-rule:nonzero;stroke:none;stroke-miterlimit:4" id="g2171" transform="translate(-1.7883043,0.3991685)">
			<g id="g2173">
				<path d="M 93.500488,137.46924 C 90.021973,137.47314 88.191895,133.76318 87.230957,130.05322 C 86.27002,126.34229 86.180176,122.63037 86.180176,122.63037 L 84.404785,122.61279 C 84.404785,122.61279 84.070801,137.45947 77.113281,137.46631 L 93.500488,137.46924 L 93.500488,137.46924 z " id="path2175"/>
			</g>
			<path d="M 99.388184,122.62646 C 99.35791,115.38379 88.515137,110.13135 85.330566,104.3999 C 82.148438,110.13135 71.305664,115.38379 71.274902,122.62646 C 71.260742,126.04639 74.421875,128.81592 78.303711,128.81592 C 82.18457,128.81592 85.330566,126.04639 85.330566,122.62646 C 85.330566,126.04639 88.479004,128.81592 92.359863,128.81592 C 96.242676,128.81592 99.388184,126.04639 99.388184,122.62646 L 99.388184,122.62646 z " id="path2177"/>
		</g><g style="fill-rule:nonzero;stroke:none;stroke-miterlimit:4" id="g2187" transform="translate(1.0142748e-2,0.2128908)">
			<g id="g2189">
				<path d="M 18.934082,39.283691 C 17.838867,39.285156 17.262695,38.116699 16.959961,36.948731 C 16.657715,35.780274 16.628906,34.611816 16.628906,34.611816 L 16.070312,34.605957 C 16.070312,34.605957 15.965332,39.280762 13.774902,39.282715 L 18.934082,39.283691 L 18.934082,39.283691 z " id="path2191"/>
			</g>
			<path d="M 20.788086,34.61084 C 20.77832,32.330566 17.364258,30.676758 16.361816,28.87207 C 15.359863,30.676758 11.946289,32.330566 11.936523,34.61084 C 11.932129,35.6875 12.927246,36.55957 14.149414,36.55957 C 15.371582,36.55957 16.361816,35.6875 16.361816,34.61084 C 16.361816,35.6875 17.353027,36.55957 18.575195,36.55957 C 19.797363,36.55957 20.788086,35.6875 20.788086,34.61084 L 20.788086,34.61084 z " id="path2193"/>
		</g><g style="fill-rule:nonzero;stroke:none;stroke-miterlimit:4" id="g2195" transform="translate(0.2217961,-8.5443782e-2)">
			<g id="g2197">
				<path d="M 147.92041,202.95068 C 149.01514,202.94873 149.59229,204.11768 149.89404,205.28564 C 150.1958,206.45459 150.2251,207.62256 150.2251,207.62256 L 150.78369,207.62842 C 150.78369,207.62842 150.88916,202.95361 153.07861,202.95166 L 147.92041,202.95068 L 147.92041,202.95068 z " id="path2199"/>
			</g>
			<path d="M 146.06689,207.62354 C 146.07666,209.90381 149.48975,211.55811 150.49268,213.36279 C 151.49463,211.55811 154.90771,209.90381 154.91748,207.62354 C 154.92236,206.54639 153.92627,205.67529 152.70459,205.67529 C 151.48291,205.67529 150.49268,206.54639 150.49268,207.62354 C 150.49268,206.54639 149.50049,205.67529 148.27979,205.67529 C 147.05713,205.67529 146.06689,206.54639 146.06689,207.62354 L 146.06689,207.62354 z " id="path2201"/>
		</g><use x="0" y="0" xlink:href="#g2171" id="use2243" transform="translate(4.306799e-6,-91.840478)" width="167.08643" height="242.66748"/><use x="0" y="0" xlink:href="#use2243" id="use2245" transform="matrix(1,0,0,-1,-4.306799e-6,242.66748)" width="167.08643" height="242.66748"/></svg>