<?xml version="1.0" encoding="UTF-8" standalone="no"?>
<!-- Generator: Adobe Illustrator 9.0, SVG Export Plug-In  -->
<!-- This set of SVG files is a complete cards game with figures, numbers	-->
<!--    and backs of cards completely designed in SVG.				-->
<!--    									-->
<!--    Copyright (C) 2004 David Bellot						-->
<!--										-->
<!--    This library is free software; you can redistribute it and/or		-->
<!--    modify it under the terms of the GNU Lesser General Public		-->
<!--    License as published by the Free Software Foundation; either		-->
<!--    version 2 of the License, or (at your option) any later version		-->
<!--										-->
<!--    This library is distributed in the hope that it will be useful,		-->
<!--    but WITHOUT ANY WARRANTY; without even the implied warranty of		-->
<!--    MERCHANTABILITY or FITNESS FOR A PARTICULAR PURPOSE.  See the GNU	-->
<!--    Lesser General Public License for more details.				-->
<!--										-->
<!--    You should have received a copy of the GNU Lesser General Public	-->
<!--    License along with this library; if not, write to the Free Software	-->
<!--    Foundation, Inc., 59 Temple Place, Suite 330, Boston, MA 02111-1307  USA-->
<!--										-->
<!--    Contact the author David Bellot at bellot@stat.berkeley.edu or 		-->
<!--    david.bellot@free.fr or yimyom@users.sourceforge.net			-->
<svg xmlns:dc="http://purl.org/dc/elements/1.1/" xmlns:cc="http://web.resource.org/cc/" xmlns:rdf="http://www.w3.org/1999/02/22-rdf-syntax-ns#" xmlns:svg="http://www.w3.org/2000/svg" xmlns="http://www.w3.org/2000/svg" xmlns:xlink="http://www.w3.org/1999/xlink" xmlns:sodipodi="http://sodipodi.sourceforge.net/DTD/sodipodi-0.dtd" xmlns:inkscape="http://www.inkscape.org/namespaces/inkscape" width="208" height="303" viewBox="0 0 167.08643 242.66748" xml:space="preserve" id="svg2" sodipodi:version="0.32" inkscape:version="0.45.1" sodipodi:docname="03_of_clubs.svg" inkscape:output_extension="org.inkscape.output.svg.inkscape" sodipodi:docbase="C:\Documents and Settings\Flanker\Desktop" version="1.0"><metadata id="metadata90"><rdf:RDF><cc:Work rdf:about=""><dc:format>image/svg+xml</dc:format><dc:type rdf:resource="http://purl.org/dc/dcmitype/StillImage"/></cc:Work></rdf:RDF></metadata><defs id="defs88">
		
		
		
		
		
		
		
		
	</defs><sodipodi:namedview inkscape:window-height="573" inkscape:window-width="791" inkscape:pageshadow="2" inkscape:pageopacity="0.0" guidetolerance="10.0" gridtolerance="10.0" objecttolerance="10.0" borderopacity="1.0" bordercolor="#666666" pagecolor="#ffffff" id="base" inkscape:zoom="1.7576595" inkscape:cx="177.51892" inkscape:cy="125.27785" inkscape:window-x="388" inkscape:window-y="208" inkscape:current-layer="svg2" inkscape:showpageshadow="false" width="208px" height="303px"/>
	<path id="path5" d="M 166.83643,235.89281 C 166.83643,239.68452 163.75049,242.78371 159.96632,242.78371 L 7.1113279,242.78371 C 3.3359375,242.78371 0.25,239.68452 0.25,235.89281 L 0.25,6.7746664 C 0.25,2.9883464 3.3359375,-0.11623011 7.1113279,-0.11623011 L 159.96632,-0.11623011 C 163.75049,-0.11623011 166.83643,2.9883464 166.83643,6.7746664 L 166.83643,235.89281 L 166.83643,235.89281 z " style="fill:#ffffff;fill-rule:nonzero;stroke:#000000;stroke-width:0.5;stroke-miterlimit:4"/><g style="fill-rule:nonzero;stroke:#000000;stroke-miterlimit:4" id="g2714" transform="translate(1.5311309,3.8086e-2)">
			<path style="stroke:none" d="M 11.919434,8.3017578 C 12.395996,8.0205078 12.85791,7.8095703 13.306152,7.6689453 C 13.754395,7.5283203 14.188965,7.4580078 14.608887,7.4580078 C 15.586426,7.4580078 16.335449,7.8476562 16.855957,8.6259766 C 17.377442,9.4047852 17.638184,10.520508 17.638184,11.973145 C 17.638184,13.0625 17.48877,13.946289 17.189942,14.624024 C 16.89209,15.301758 16.452637,15.757813 15.871582,15.991699 C 16.568848,16.241211 17.089356,16.776367 17.434082,17.59668 C 17.777832,18.417481 17.950684,19.539551 17.950684,20.963379 C 17.950684,22.64502 17.651856,23.93457 17.055176,24.831543 C 16.458496,25.728516 15.595215,26.176758 14.466309,26.176758 C 14.046387,26.176758 13.608887,26.095703 13.152832,25.93457 C 12.696777,25.773438 12.223145,25.53125 11.731934,25.208008 L 11.731934,21.239258 L 12.388184,21.239258 C 12.428223,22.388184 12.590332,23.26416 12.873535,23.866699 C 13.156739,24.469238 13.549317,24.770508 14.05127,24.770508 C 14.593262,24.770508 15.01416,24.430176 15.313965,23.749512 C 15.612793,23.068848 15.763184,22.104004 15.763184,20.854981 C 15.763184,19.550293 15.608887,18.542969 15.30127,17.833984 C 14.993653,17.125 14.556153,16.770508 13.98877,16.770508 L 13.638184,16.770508 L 13.638184,15.333008 L 13.916504,15.333008 C 14.448731,15.333008 14.847168,15.058106 15.11377,14.507813 C 15.379395,13.958008 15.513184,13.136719 15.513184,12.043945 C 15.513184,11.016602 15.387207,10.229492 15.135254,9.6835937 C 14.883301,9.1376952 14.520996,8.8642578 14.050293,8.8642578 C 13.619629,8.8642578 13.277832,9.1230469 13.025879,9.6401367 C 12.773926,10.157715 12.624512,10.90918 12.575684,11.895508 L 11.919434,11.895508 L 11.919434,8.3017578 L 11.919434,8.3017578 z " id="path2716"/>
		</g><g style="fill-rule:nonzero;stroke:#000000;stroke-miterlimit:4" id="g2718" transform="translate(-0.7440149,0.3828162)">
			<path style="stroke:none" d="M 154.37988,233.94482 C 153.90332,234.22607 153.44043,234.43701 152.99316,234.57764 C 152.54395,234.71826 152.11035,234.78857 151.69043,234.78857 C 150.71191,234.78857 149.96387,234.3999 149.44238,233.62061 C 148.9209,232.84229 148.66113,231.72607 148.66113,230.27393 C 148.66113,229.18506 148.80957,228.30029 149.1084,227.62256 C 149.40723,226.94482 149.84668,226.48975 150.42676,226.25537 C 149.72949,226.00537 149.20996,225.47021 148.86426,224.6499 C 148.52051,223.82959 148.34863,222.70752 148.34863,221.28369 C 148.34863,219.60205 148.64746,218.31201 149.24316,217.41553 C 149.84082,216.51904 150.7041,216.06982 151.83301,216.06982 C 152.25293,216.06982 152.69043,216.15186 153.14551,216.31201 C 153.60254,216.47412 154.0752,216.71631 154.56738,217.03857 L 154.56738,221.00732 L 153.91113,221.00732 C 153.87012,219.85889 153.70801,218.98291 153.4248,218.38037 C 153.1416,217.77783 152.74902,217.47607 152.24707,217.47607 C 151.70605,217.47607 151.28418,217.81689 150.98535,218.49756 C 150.68652,219.17822 150.53613,220.14307 150.53613,221.39209 C 150.53613,222.69678 150.69043,223.70459 150.99707,224.41357 C 151.30566,225.12256 151.74316,225.47607 152.30957,225.47607 L 152.66113,225.47607 L 152.66113,226.91357 L 152.38184,226.91357 C 151.85059,226.91357 151.45215,227.18896 151.18457,227.73975 C 150.91895,228.28857 150.78613,229.11084 150.78613,230.20264 C 150.78613,231.22998 150.91113,232.01709 151.16309,232.56396 C 151.41504,233.10889 151.77832,233.38232 152.24902,233.38232 C 152.67871,233.38232 153.02051,233.12451 153.27246,232.60693 C 153.52441,232.08936 153.6748,231.3374 153.72363,230.35107 L 154.37988,230.35107 L 154.37988,233.94482 L 154.37988,233.94482 z " id="path2720"/>
		</g><path style="fill:#000000;fill-opacity:1;stroke:none;stroke-width:1.5;stroke-linecap:round;stroke-linejoin:round;stroke-miterlimit:4;stroke-opacity:1" d="M 150.73654,213.0401 C 151.87847,213.0401 152.80375,212.11482 152.80375,210.97289 C 152.80375,210.3835 152.55321,209.8539 152.15728,209.47699 C 151.85132,209.18573 151.41544,208.52555 151.27026,207.99612 C 151.55345,208.16678 151.80854,208.36129 151.96183,208.52232 C 152.33875,208.91825 152.86835,209.16127 153.45774,209.16127 C 154.59967,209.16127 155.52494,208.23599 155.52494,207.09406 C 155.52494,205.95214 154.59966,205.02686 153.45774,205.02686 C 152.86835,205.02686 152.33875,205.27739 151.96183,205.67333 C 151.8002,205.84312 151.52696,206.05796 151.22515,206.23711 C 151.26749,204.34125 151.91814,203.10248 153.10443,203.10248 C 153.10443,203.10248 148.36113,203.10248 148.36113,203.10248 C 149.55058,203.10248 150.20877,204.34774 150.24793,206.25215 C 149.92976,206.06953 149.634,205.84966 149.46615,205.67333 C 149.08924,205.27739 148.55963,205.02686 147.97024,205.02686 C 146.82833,205.02686 145.90304,205.95214 145.90304,207.09406 C 145.90304,208.23599 146.82833,209.16127 147.97024,209.16127 C 148.55962,209.16127 149.08924,208.91825 149.46615,208.52232 C 149.62576,208.35465 149.90297,208.15581 150.20283,207.98108 C 150.06219,208.51312 149.6173,209.18282 149.30829,209.47699 C 148.91236,209.8539 148.66933,210.38351 148.66933,210.97289 C 148.66933,212.11482 149.59461,213.0401 150.73654,213.0401 z " id="use2374" sodipodi:nodetypes="csscsssssccccssssscssc"/><path style="fill:#000000;fill-opacity:1;stroke:none;stroke-width:1.5;stroke-linecap:round;stroke-linejoin:round;stroke-miterlimit:4;stroke-opacity:1" d="M 16.349889,29.321959 C 15.207961,29.321959 14.282681,30.247238 14.282682,31.389166 C 14.282682,31.978555 14.53322,32.508157 14.929154,32.885071 C 15.235114,33.176333 15.670993,33.836507 15.816173,34.365943 C 15.532982,34.195277 15.277893,34.000774 15.124599,33.839745 C 14.747684,33.44381 14.218081,33.20079 13.628693,33.20079 C 12.486765,33.20079 11.561486,34.126069 11.561486,35.267997 C 11.561486,36.409925 12.486765,37.335203 13.628693,37.335203 C 14.218083,37.335203 14.747685,37.084667 15.124599,36.688732 C 15.286233,36.518938 15.559471,36.304096 15.861276,36.124948 C 15.818942,38.020809 15.168287,39.259585 13.981997,39.259585 C 13.981997,39.259585 18.725297,39.259585 18.725297,39.259585 C 17.535846,39.259585 16.87766,38.014321 16.838501,36.109914 C 17.156674,36.292535 17.452427,36.512404 17.620281,36.688732 C 17.99719,37.084667 18.526804,37.335203 19.116187,37.335203 C 20.258103,37.335203 21.183394,36.409925 21.183394,35.267997 C 21.183394,34.126069 20.258103,33.20079 19.116187,33.20079 C 18.526807,33.20079 17.99719,33.44381 17.620281,33.839745 C 17.46067,34.00741 17.183459,34.206246 16.883604,34.380977 C 17.024245,33.848937 17.469128,33.179243 17.77814,32.885071 C 18.174075,32.508157 18.417095,31.978552 18.417095,31.389166 C 18.417095,30.247238 17.491817,29.321959 16.349889,29.321959 z " id="use2370" sodipodi:nodetypes="csscsssssccccssssscssc"/>
<path style="fill:#000000;fill-opacity:1;stroke:none;stroke-width:1.5;stroke-linecap:round;stroke-linejoin:round;stroke-miterlimit:4;stroke-opacity:1" d="M 83.468215,12.968261 C 79.670455,12.968261 76.593213,16.045501 76.593215,19.843261 C 76.593215,21.803421 77.42644,23.564741 78.743215,24.818261 C 79.760759,25.786921 81.210383,27.982491 81.693215,29.743261 C 80.751391,29.175671 79.903031,28.528801 79.393215,27.993261 C 78.139694,26.676481 76.378367,25.868261 74.418215,25.868261 C 70.620454,25.868261 67.543215,28.945501 67.543215,32.743261 C 67.543214,36.541021 70.620455,39.618261 74.418215,39.618261 C 76.378374,39.618261 78.139695,38.785041 79.393215,37.468261 C 79.930767,36.903571 80.839487,36.189061 81.843215,35.593261 C 81.702423,41.898411 79.538511,46.018261 75.593215,46.018261 C 75.593215,46.018261 91.368215,46.018261 91.368215,46.018261 C 87.412407,46.018261 85.223447,41.876831 85.093215,35.543261 C 86.151375,36.150611 87.134975,36.881841 87.693215,37.468261 C 88.946719,38.785041 90.708079,39.618261 92.668215,39.618261 C 96.465935,39.618261 99.543215,36.541021 99.543215,32.743261 C 99.543215,28.945501 96.465935,25.868261 92.668215,25.868261 C 90.708087,25.868261 88.946719,26.676481 87.693215,27.993261 C 87.162391,28.550871 86.240455,29.212151 85.243215,29.793261 C 85.710951,28.023831 87.190519,25.796601 88.218215,24.818261 C 89.534991,23.564741 90.343215,21.803411 90.343215,19.843261 C 90.343215,16.045501 87.265975,12.968261 83.468215,12.968261 z " id="path2242" sodipodi:nodetypes="csscsssssccccssssscssc"/><use x="0" y="0" xlink:href="#path2242" id="use2597" transform="matrix(1,0,0,-1,0,242.66748)" width="167.08643" height="242.66748"/><path sodipodi:nodetypes="csscsssssccccssssscssc" id="path2841" d="M 83.468215,104.80874 C 79.670455,104.80874 76.593213,107.88598 76.593215,111.68374 C 76.593215,113.6439 77.42644,115.40522 78.743215,116.65874 C 79.760759,117.6274 81.210383,119.82297 81.693215,121.58374 C 80.751391,121.01615 79.903031,120.36928 79.393215,119.83374 C 78.139694,118.51696 76.378367,117.70874 74.418215,117.70874 C 70.620454,117.70874 67.543215,120.78598 67.543215,124.58374 C 67.543214,128.3815 70.620455,131.45874 74.418215,131.45874 C 76.378374,131.45874 78.139695,130.62552 79.393215,129.30874 C 79.930767,128.74405 80.839487,128.02954 81.843215,127.43374 C 81.702423,133.73889 79.538511,137.85874 75.593215,137.85874 C 75.593215,137.85874 91.368215,137.85874 91.368215,137.85874 C 87.412407,137.85874 85.223447,133.71731 85.093215,127.38374 C 86.151375,127.99109 87.134975,128.72232 87.693215,129.30874 C 88.946719,130.62552 90.708079,131.45874 92.668215,131.45874 C 96.465935,131.45874 99.543215,128.3815 99.543215,124.58374 C 99.543215,120.78598 96.465935,117.70874 92.668215,117.70874 C 90.708087,117.70874 88.946719,118.51696 87.693215,119.83374 C 87.162391,120.39135 86.240455,121.05263 85.243215,121.63374 C 85.710951,119.86431 87.190519,117.63708 88.218215,116.65874 C 89.534991,115.40522 90.343215,113.64389 90.343215,111.68374 C 90.343215,107.88598 87.265975,104.80874 83.468215,104.80874 z " style="fill:#000000;fill-opacity:1;stroke:none;stroke-width:1.5;stroke-linecap:round;stroke-linejoin:round;stroke-miterlimit:4;stroke-opacity:1"/></svg>