<?xml version="1.0" encoding="UTF-8" standalone="no"?>
<!-- Generator: Adobe Illustrator 9.0, SVG Export Plug-In  -->
<!-- This set of SVG files is a complete cards game with figures, numbers	-->
<!--    and backs of cards completely designed in SVG.				-->
<!--    									-->
<!--    Copyright (C) 2004 David Bellot						-->
<!--										-->
<!--    This library is free software; you can redistribute it and/or		-->
<!--    modify it under the terms of the GNU Lesser General Public		-->
<!--    License as published by the Free Software Foundation; either		-->
<!--    version 2 of the License, or (at your option) any later version		-->
<!--										-->
<!--    This library is distributed in the hope that it will be useful,		-->
<!--    but WITHOUT ANY WARRANTY; without even the implied warranty of		-->
<!--    MERCHANTABILITY or FITNESS FOR A PARTICULAR PURPOSE.  See the GNU	-->
<!--    Lesser General Public License for more details.				-->
<!--										-->
<!--    You should have received a copy of the GNU Lesser General Public	-->
<!--    License along with this library; if not, write to the Free Software	-->
<!--    Foundation, Inc., 59 Temple Place, Suite 330, Boston, MA 02111-1307  USA-->
<!--										-->
<!--    Contact the author David Bellot at bellot@stat.berkeley.edu or 		-->
<!--    david.bellot@free.fr or yimyom@users.sourceforge.net			-->
<svg xmlns:dc="http://purl.org/dc/elements/1.1/" xmlns:cc="http://web.resource.org/cc/" xmlns:rdf="http://www.w3.org/1999/02/22-rdf-syntax-ns#" xmlns:svg="http://www.w3.org/2000/svg" xmlns="http://www.w3.org/2000/svg" xmlns:xlink="http://www.w3.org/1999/xlink" xmlns:sodipodi="http://sodipodi.sourceforge.net/DTD/sodipodi-0.dtd" xmlns:inkscape="http://www.inkscape.org/namespaces/inkscape" width="208" height="303" viewBox="0 0 167.08643 242.66748" xml:space="preserve" id="svg2" sodipodi:version="0.32" inkscape:version="0.45.1" sodipodi:docname="04_of_hearts.svg" inkscape:output_extension="org.inkscape.output.svg.inkscape" sodipodi:docbase="C:\Documents and Settings\Flanker\Desktop\Temporanei\SVG\Carte" version="1.0"><metadata id="metadata90"><rdf:RDF><cc:Work rdf:about=""><dc:format>image/svg+xml</dc:format><dc:type rdf:resource="http://purl.org/dc/dcmitype/StillImage"/></cc:Work></rdf:RDF></metadata><defs id="defs88"/><sodipodi:namedview inkscape:window-height="1003" inkscape:window-width="1280" inkscape:pageshadow="2" inkscape:pageopacity="0.0" guidetolerance="10.0" gridtolerance="10.0" objecttolerance="10.0" borderopacity="1.0" bordercolor="#666666" pagecolor="#ffffff" id="base" inkscape:zoom="1.242853" inkscape:cx="199.61345" inkscape:cy="85.923716" inkscape:window-x="350" inkscape:window-y="11" inkscape:current-layer="svg2" inkscape:showpageshadow="false" width="208px" height="303px"/>
	<path id="path5" d="M 166.83643,235.89281 C 166.83643,239.68452 163.75049,242.78371 159.96632,242.78371 L 7.1113279,242.78371 C 3.3359375,242.78371 0.25,239.68452 0.25,235.89281 L 0.25,6.7746664 C 0.25,2.9883464 3.3359375,-0.11623011 7.1113279,-0.11623011 L 159.96632,-0.11623011 C 163.75049,-0.11623011 166.83643,2.9883464 166.83643,6.7746664 L 166.83643,235.89281 L 166.83643,235.89281 z " style="fill:#ffffff;fill-rule:nonzero;stroke:#000000;stroke-width:0.5;stroke-miterlimit:4"/><g style="fill-rule:nonzero;stroke:#000000;stroke-miterlimit:4;fill:#e61408;fill-opacity:1" id="g3075" transform="translate(1.3519319,4.44338e-2)">
			<path style="stroke:none;fill:#e61408;fill-opacity:1" d="M 18.223633,25.998535 L 13.817383,25.998535 L 13.817383,24.529785 L 15.004883,24.529785 L 15.004883,21.248535 L 11.629883,21.248535 L 11.629883,19.858399 L 15.004395,7.6235352 L 17.036133,7.6235352 L 17.036133,19.686035 L 18.411133,19.686035 L 18.411133,21.248535 L 17.036133,21.248535 L 17.036133,24.529785 L 18.223633,24.529785 L 18.223633,25.998535 z M 15.004883,19.686035 L 15.004883,10.92334 L 12.595215,19.686035 L 15.004883,19.686035 z " id="path3077"/>
		</g><g style="fill-rule:nonzero;stroke:#000000;stroke-miterlimit:4;fill:#e61408;fill-opacity:1" id="g3079" transform="translate(-0.9862049,4.54112e-2)">
			<path style="stroke:none;fill:#e61408;fill-opacity:1" d="M 148.49707,216.5791 L 152.90332,216.5791 L 152.90332,218.04785 L 151.71582,218.04785 L 151.71582,221.3291 L 155.09082,221.3291 L 155.09082,222.71973 L 151.71582,234.9541 L 149.68457,234.9541 L 149.68457,222.8916 L 148.30957,222.8916 L 148.30957,221.3291 L 149.68457,221.3291 L 149.68457,218.04785 L 148.49707,218.04785 L 148.49707,216.5791 z M 151.71582,222.8916 L 151.71582,231.65527 L 154.125,222.8916 L 151.71582,222.8916 z " id="path3081"/>
		</g>
<path style="fill:#e61408;fill-rule:nonzero;stroke:none;stroke-miterlimit:4" d="M 39.867813,13.329748 C 35.560203,13.339018 32.057363,17.020898 32.085843,21.538468 C 32.146243,31.118068 44.178222,38.045978 47.725097,45.612368 C 51.271972,38.045978 63.329059,31.118068 63.389449,21.538468 C 63.417931,17.020898 59.915095,13.339018 55.607479,13.329748 C 51.299863,13.320948 47.737789,16.986998 47.725097,21.513368 C 47.712405,16.986998 44.175434,13.320948 39.867813,13.329748 z " id="path2170"/><path id="path2225" d="M 14.006095,29.437331 C 12.710865,29.440118 11.657615,30.547203 11.666185,31.905566 C 11.684335,34.786005 15.302175,36.86912 16.368665,39.144217 C 17.435155,36.86912 21.060535,34.786005 21.078695,31.905566 C 21.087255,30.547203 20.034005,29.440118 18.738775,29.437331 C 17.443535,29.434685 16.372475,30.537009 16.368665,31.898019 C 16.364845,30.537009 15.301335,29.434685 14.006095,29.437331 z " style="fill:#e61408;fill-rule:nonzero;stroke:none;stroke-miterlimit:4"/><use x="0" y="0" xlink:href="#path2225" id="use2231" transform="matrix(1,0,0,-1,134.34155,242.36206)" width="167.08643" height="242.66748"/><use x="0" y="0" xlink:href="#path2170" id="use2195" transform="translate(70.670404,-9.5219455e-8)" width="167.08643" height="242.66748"/><use x="0" y="0" xlink:href="#path2170" id="use2197" transform="matrix(1,0,0,-1,-1.216532e-8,242.64527)" width="167.08643" height="242.66748"/><use x="0" y="0" xlink:href="#path2170" id="use2199" transform="matrix(1,0,0,-1,70.670404,242.64527)" width="167.08643" height="242.66748"/></svg>