<?xml version="1.0" encoding="UTF-8" standalone="no"?>
<!-- Generator: Adobe Illustrator 9.0, SVG Export Plug-In  -->
<!-- This set of SVG files is a complete cards game with figures, numbers	-->
<!--    and backs of cards completely designed in SVG.				-->
<!--    									-->
<!--    Copyright (C) 2004 David Bellot						-->
<!--										-->
<!--    This library is free software; you can redistribute it and/or		-->
<!--    modify it under the terms of the GNU Lesser General Public		-->
<!--    License as published by the Free Software Foundation; either		-->
<!--    version 2 of the License, or (at your option) any later version		-->
<!--										-->
<!--    This library is distributed in the hope that it will be useful,		-->
<!--    but WITHOUT ANY WARRANTY; without even the implied warranty of		-->
<!--    MERCHANTABILITY or FITNESS FOR A PARTICULAR PURPOSE.  See the GNU	-->
<!--    Lesser General Public License for more details.				-->
<!--										-->
<!--    You should have received a copy of the GNU Lesser General Public	-->
<!--    License along with this library; if not, write to the Free Software	-->
<!--    Foundation, Inc., 59 Temple Place, Suite 330, Boston, MA 02111-1307  USA-->
<!--										-->
<!--    Contact the author David Bellot at bellot@stat.berkeley.edu or 		-->
<!--    david.bellot@free.fr or yimyom@users.sourceforge.net			-->
<svg xmlns:dc="http://purl.org/dc/elements/1.1/" xmlns:cc="http://web.resource.org/cc/" xmlns:rdf="http://www.w3.org/1999/02/22-rdf-syntax-ns#" xmlns:svg="http://www.w3.org/2000/svg" xmlns="http://www.w3.org/2000/svg" xmlns:xlink="http://www.w3.org/1999/xlink" xmlns:sodipodi="http://sodipodi.sourceforge.net/DTD/sodipodi-0.dtd" xmlns:inkscape="http://www.inkscape.org/namespaces/inkscape" width="208" height="303" viewBox="0 0 167.08643 242.66748" xml:space="preserve" id="svg2" sodipodi:version="0.32" inkscape:version="0.45.1" sodipodi:docname="04_of_diamonds.svg" inkscape:output_extension="org.inkscape.output.svg.inkscape" sodipodi:docbase="C:\Documents and Settings\Flanker\Desktop\Temporanei\SVG\Carte" version="1.0"><metadata id="metadata90"><rdf:RDF><cc:Work rdf:about=""><dc:format>image/svg+xml</dc:format><dc:type rdf:resource="http://purl.org/dc/dcmitype/StillImage"/></cc:Work></rdf:RDF></metadata><defs id="defs88"/><sodipodi:namedview inkscape:window-height="1003" inkscape:window-width="1280" inkscape:pageshadow="2" inkscape:pageopacity="0.0" guidetolerance="10.0" gridtolerance="10.0" objecttolerance="10.0" borderopacity="1.0" bordercolor="#666666" pagecolor="#ffffff" id="base" inkscape:zoom="2.4857059" inkscape:cx="166.87984" inkscape:cy="118.28279" inkscape:window-x="-4" inkscape:window-y="-4" inkscape:current-layer="svg2" inkscape:showpageshadow="false" width="208px" height="303px"/>
	<path id="path5" d="M 166.83643,235.89281 C 166.83643,239.68452 163.75049,242.78371 159.96632,242.78371 L 7.1113279,242.78371 C 3.3359375,242.78371 0.25,239.68452 0.25,235.89281 L 0.25,6.7746664 C 0.25,2.9883464 3.3359375,-0.11623011 7.1113279,-0.11623011 L 159.96632,-0.11623011 C 163.75049,-0.11623011 166.83643,2.9883464 166.83643,6.7746664 L 166.83643,235.89281 L 166.83643,235.89281 z " style="fill:#ffffff;fill-rule:nonzero;stroke:#000000;stroke-width:0.5;stroke-miterlimit:4"/><g style="fill-rule:nonzero;stroke:#000000;stroke-miterlimit:4;fill:#e61408;fill-opacity:1" id="g3075" transform="translate(1.3519319,4.44338e-2)">
			<path style="stroke:none;fill:#e61408;fill-opacity:1" d="M 18.223633,25.998535 L 13.817383,25.998535 L 13.817383,24.529785 L 15.004883,24.529785 L 15.004883,21.248535 L 11.629883,21.248535 L 11.629883,19.858399 L 15.004395,7.6235352 L 17.036133,7.6235352 L 17.036133,19.686035 L 18.411133,19.686035 L 18.411133,21.248535 L 17.036133,21.248535 L 17.036133,24.529785 L 18.223633,24.529785 L 18.223633,25.998535 z M 15.004883,19.686035 L 15.004883,10.92334 L 12.595215,19.686035 L 15.004883,19.686035 z " id="path3077"/>
		</g><g style="fill-rule:nonzero;stroke:#000000;stroke-miterlimit:4;fill:#e61408;fill-opacity:1" id="g3079" transform="translate(-0.9862049,4.54112e-2)">
			<path style="stroke:none;fill:#e61408;fill-opacity:1" d="M 148.49707,216.5791 L 152.90332,216.5791 L 152.90332,218.04785 L 151.71582,218.04785 L 151.71582,221.3291 L 155.09082,221.3291 L 155.09082,222.71973 L 151.71582,234.9541 L 149.68457,234.9541 L 149.68457,222.8916 L 148.30957,222.8916 L 148.30957,221.3291 L 149.68457,221.3291 L 149.68457,218.04785 L 148.49707,218.04785 L 148.49707,216.5791 z M 151.71582,222.8916 L 151.71582,231.65527 L 154.125,222.8916 L 151.71582,222.8916 z " id="path3081"/>
		</g>
<path style="fill:#e61408;fill-opacity:1;stroke:none;stroke-width:1.49999988;stroke-linecap:round;stroke-linejoin:round;stroke-miterlimit:4;stroke-dasharray:none;stroke-opacity:1" d="M 47.737641,13.605875 C 47.711531,14.501685 47.179901,17.861185 41.386551,23.421195 C 35.810891,28.772315 33.207231,29.414705 32.424741,29.471055 C 33.207231,29.527395 35.810891,30.169805 41.386551,35.520905 C 47.179901,41.080915 47.711531,44.440405 47.737641,45.336225 C 47.763771,44.440415 48.295391,41.080925 54.088741,35.520905 C 59.664411,30.169795 62.268061,29.527385 63.050551,29.471055 C 62.268061,29.414715 59.664411,28.772305 54.088741,23.421195 C 48.295391,17.861195 47.763771,14.501695 47.737641,13.605875 z " id="path2243"/><path id="path3230" d="M 16.37244,29.520358 C 16.36459,29.789714 16.20473,30.799864 14.46276,32.471673 C 12.78625,34.080673 12.00337,34.273829 11.76808,34.290773 C 12.00337,34.307714 12.78625,34.500876 14.46276,36.10987 C 16.20473,37.781679 16.36459,38.791826 16.37244,39.061185 C 16.38029,38.791829 16.54015,37.781682 18.28212,36.10987 C 19.95863,34.500873 20.74151,34.307711 20.9768,34.290773 C 20.74151,34.273832 19.95863,34.08067 18.28212,32.471673 C 16.54015,30.799867 16.38029,29.789717 16.37244,29.520358 z " style="fill:#e61408;fill-opacity:1;stroke:none;stroke-width:1.49999988;stroke-linecap:round;stroke-linejoin:round;stroke-miterlimit:4;stroke-dasharray:none;stroke-opacity:1"/><use x="0" y="0" xlink:href="#path3230" id="use3238" transform="translate(134.34155,173.78052)" width="167.08643" height="242.66748"/><use x="0" y="0" xlink:href="#path2243" id="use2195" transform="translate(70.670409,0)" width="167.08643" height="242.66748"/><use x="0" y="0" xlink:href="#use2195" id="use2197" transform="translate(-70.670405,183.70317)" width="167.08643" height="242.66748"/><use x="0" y="0" xlink:href="#use2197" id="use2199" transform="translate(70.670409,0)" width="167.08643" height="242.66748"/></svg>