<?xml version="1.0" encoding="UTF-8" standalone="no"?>
<!-- Generator: Adobe Illustrator 9.0, SVG Export Plug-In  -->
<!-- This set of SVG files is a complete cards game with figures, numbers	-->
<!--    and backs of cards completely designed in SVG.				-->
<!--    									-->
<!--    Copyright (C) 2004 David Bellot						-->
<!--										-->
<!--    This library is free software; you can redistribute it and/or		-->
<!--    modify it under the terms of the GNU Lesser General Public		-->
<!--    License as published by the Free Software Foundation; either		-->
<!--    version 2 of the License, or (at your option) any later version		-->
<!--										-->
<!--    This library is distributed in the hope that it will be useful,		-->
<!--    but WITHOUT ANY WARRANTY; without even the implied warranty of		-->
<!--    MERCHANTABILITY or FITNESS FOR A PARTICULAR PURPOSE.  See the GNU	-->
<!--    Lesser General Public License for more details.				-->
<!--										-->
<!--    You should have received a copy of the GNU Lesser General Public	-->
<!--    License along with this library; if not, write to the Free Software	-->
<!--    Foundation, Inc., 59 Temple Place, Suite 330, Boston, MA 02111-1307  USA-->
<!--										-->
<!--    Contact the author David Bellot at bellot@stat.berkeley.edu or 		-->
<!--    david.bellot@free.fr or yimyom@users.sourceforge.net			-->
<svg xmlns:dc="http://purl.org/dc/elements/1.1/" xmlns:cc="http://web.resource.org/cc/" xmlns:rdf="http://www.w3.org/1999/02/22-rdf-syntax-ns#" xmlns:svg="http://www.w3.org/2000/svg" xmlns="http://www.w3.org/2000/svg" xmlns:xlink="http://www.w3.org/1999/xlink" xmlns:sodipodi="http://sodipodi.sourceforge.net/DTD/sodipodi-0.dtd" xmlns:inkscape="http://www.inkscape.org/namespaces/inkscape" width="208" height="303" viewBox="0 0 167.08643 242.66748" xml:space="preserve" id="svg2" sodipodi:version="0.32" inkscape:version="0.45.1" sodipodi:docname="04_of_spades.svg" inkscape:output_extension="org.inkscape.output.svg.inkscape" sodipodi:docbase="C:\Documents and Settings\Flanker\Desktop\Temporanei\SVG\Carte" version="1.0"><metadata id="metadata90"><rdf:RDF><cc:Work rdf:about=""><dc:format>image/svg+xml</dc:format><dc:type rdf:resource="http://purl.org/dc/dcmitype/StillImage"/></cc:Work></rdf:RDF></metadata><defs id="defs88"/><sodipodi:namedview inkscape:window-height="1003" inkscape:window-width="1280" inkscape:pageshadow="2" inkscape:pageopacity="0.0" guidetolerance="10.0" gridtolerance="10.0" objecttolerance="10.0" borderopacity="1.0" bordercolor="#666666" pagecolor="#ffffff" id="base" inkscape:zoom="1.242853" inkscape:cx="377.19324" inkscape:cy="245.09587" inkscape:window-x="523" inkscape:window-y="5" inkscape:current-layer="svg2" inkscape:showpageshadow="false" width="208px" height="303px"/>
	<path id="path5" d="M 166.83643,235.89281 C 166.83643,239.68452 163.75049,242.78371 159.96632,242.78371 L 7.1113279,242.78371 C 3.3359375,242.78371 0.25,239.68452 0.25,235.89281 L 0.25,6.7746664 C 0.25,2.9883464 3.3359375,-0.11623011 7.1113279,-0.11623011 L 159.96632,-0.11623011 C 163.75049,-0.11623011 166.83643,2.9883464 166.83643,6.7746664 L 166.83643,235.89281 L 166.83643,235.89281 z " style="fill:#ffffff;fill-rule:nonzero;stroke:#000000;stroke-width:0.5;stroke-miterlimit:4"/><g style="fill-rule:nonzero;stroke:#000000;stroke-miterlimit:4" id="g3075" transform="translate(1.351932,4.44338e-2)">
			<path style="stroke:none" d="M 18.223633,25.998535 L 13.817383,25.998535 L 13.817383,24.529785 L 15.004883,24.529785 L 15.004883,21.248535 L 11.629883,21.248535 L 11.629883,19.858399 L 15.004395,7.6235352 L 17.036133,7.6235352 L 17.036133,19.686035 L 18.411133,19.686035 L 18.411133,21.248535 L 17.036133,21.248535 L 17.036133,24.529785 L 18.223633,24.529785 L 18.223633,25.998535 z M 15.004883,19.686035 L 15.004883,10.92334 L 12.595215,19.686035 L 15.004883,19.686035 z " id="path3077"/>
		</g><g style="fill-rule:nonzero;stroke:#000000;stroke-miterlimit:4" id="g3079" transform="translate(-0.9862049,4.54112e-2)">
			<path style="stroke:none" d="M 148.49707,216.5791 L 152.90332,216.5791 L 152.90332,218.04785 L 151.71582,218.04785 L 151.71582,221.3291 L 155.09082,221.3291 L 155.09082,222.71973 L 151.71582,234.9541 L 149.68457,234.9541 L 149.68457,222.8916 L 148.30957,222.8916 L 148.30957,221.3291 L 149.68457,221.3291 L 149.68457,218.04785 L 148.49707,218.04785 L 148.49707,216.5791 z M 151.71582,222.8916 L 151.71582,231.65527 L 154.125,222.8916 L 151.71582,222.8916 z " id="path3081"/>
		</g>
<g style="fill-rule:nonzero;stroke:none;stroke-miterlimit:4" id="g2172" transform="translate(-37.593873,-91.463522)">
			<g id="g2174">
				<path d="M 93.500488,137.46924 C 90.021973,137.47314 88.191895,133.76318 87.230957,130.05322 C 86.27002,126.34229 86.180176,122.63037 86.180176,122.63037 L 84.404785,122.61279 C 84.404785,122.61279 84.070801,137.45947 77.113281,137.46631 L 93.500488,137.46924 L 93.500488,137.46924 z " id="path2176"/>
			</g>
			<path d="M 99.388184,122.62646 C 99.35791,115.38379 88.515137,110.13135 85.330566,104.3999 C 82.148438,110.13135 71.305664,115.38379 71.274902,122.62646 C 71.260742,126.04639 74.421875,128.81592 78.303711,128.81592 C 82.18457,128.81592 85.330566,126.04639 85.330566,122.62646 C 85.330566,126.04639 88.479004,128.81592 92.359863,128.81592 C 96.242676,128.81592 99.388184,126.04639 99.388184,122.62646 L 99.388184,122.62646 z " id="path2178"/>
		</g><g style="fill-rule:nonzero;stroke:none;stroke-miterlimit:4" id="g2188" transform="translate(1.0142748e-2,0.2128908)">
			<g id="g2190">
				<path d="M 18.934082,39.283691 C 17.838867,39.285156 17.262695,38.116699 16.959961,36.948731 C 16.657715,35.780274 16.628906,34.611816 16.628906,34.611816 L 16.070312,34.605957 C 16.070312,34.605957 15.965332,39.280762 13.774902,39.282715 L 18.934082,39.283691 L 18.934082,39.283691 z " id="path2192"/>
			</g>
			<path d="M 20.788086,34.61084 C 20.77832,32.330566 17.364258,30.676758 16.361816,28.87207 C 15.359863,30.676758 11.946289,32.330566 11.936523,34.61084 C 11.932129,35.6875 12.927246,36.55957 14.149414,36.55957 C 15.371582,36.55957 16.361816,35.6875 16.361816,34.61084 C 16.361816,35.6875 17.353027,36.55957 18.575195,36.55957 C 19.797363,36.55957 20.788086,35.6875 20.788086,34.61084 L 20.788086,34.61084 z " id="path2194"/>
		</g><g style="fill-rule:nonzero;stroke:none;stroke-miterlimit:4" id="g2196" transform="translate(0.2217961,-8.5443782e-2)">
			<g id="g2198">
				<path d="M 147.92041,202.95068 C 149.01514,202.94873 149.59229,204.11768 149.89404,205.28564 C 150.1958,206.45459 150.2251,207.62256 150.2251,207.62256 L 150.78369,207.62842 C 150.78369,207.62842 150.88916,202.95361 153.07861,202.95166 L 147.92041,202.95068 L 147.92041,202.95068 z " id="path2200"/>
			</g>
			<path d="M 146.06689,207.62354 C 146.07666,209.90381 149.48975,211.55811 150.49268,213.36279 C 151.49463,211.55811 154.90771,209.90381 154.91748,207.62354 C 154.92236,206.54639 153.92627,205.67529 152.70459,205.67529 C 151.48291,205.67529 150.49268,206.54639 150.49268,207.62354 C 150.49268,206.54639 149.50049,205.67529 148.27979,205.67529 C 147.05713,205.67529 146.06689,206.54639 146.06689,207.62354 L 146.06689,207.62354 z " id="path2202"/>
		</g><g transform="translate(33.076533,-91.463521)" id="use2246" style="fill-rule:nonzero;stroke:none;stroke-miterlimit:4">
			<g id="g2254">
				<path id="path2256" d="M 93.500488,137.46924 C 90.021973,137.47314 88.191895,133.76318 87.230957,130.05322 C 86.27002,126.34229 86.180176,122.63037 86.180176,122.63037 L 84.404785,122.61279 C 84.404785,122.61279 84.070801,137.45947 77.113281,137.46631 L 93.500488,137.46924 L 93.500488,137.46924 z "/>
			</g>
			<path id="path2258" d="M 99.388184,122.62646 C 99.35791,115.38379 88.515137,110.13135 85.330566,104.3999 C 82.148438,110.13135 71.305664,115.38379 71.274902,122.62646 C 71.260742,126.04639 74.421875,128.81592 78.303711,128.81592 C 82.18457,128.81592 85.330566,126.04639 85.330566,122.62646 C 85.330566,126.04639 88.479004,128.81592 92.359863,128.81592 C 96.242676,128.81592 99.388184,126.04639 99.388184,122.62646 L 99.388184,122.62646 z "/>
		</g><use x="0" y="0" xlink:href="#use2246" id="use2248" transform="matrix(1,0,0,-1,-70.670401,242.64527)" width="167.08643" height="242.66748"/><use x="0" y="0" xlink:href="#use2248" id="use2250" transform="translate(70.670401,0)" width="167.08643" height="242.66748"/></svg>