<?xml version="1.0" encoding="UTF-8" standalone="no"?>
<!-- Generator: Adobe Illustrator 9.0, SVG Export Plug-In  -->
<!-- This set of SVG files is a complete cards game with figures, numbers	-->
<!--    and backs of cards completely designed in SVG.				-->
<!--    									-->
<!--    Copyright (C) 2004 David Bellot						-->
<!--										-->
<!--    This library is free software; you can redistribute it and/or		-->
<!--    modify it under the terms of the GNU Lesser General Public		-->
<!--    License as published by the Free Software Foundation; either		-->
<!--    version 2 of the License, or (at your option) any later version		-->
<!--										-->
<!--    This library is distributed in the hope that it will be useful,		-->
<!--    but WITHOUT ANY WARRANTY; without even the implied warranty of		-->
<!--    MERCHANTABILITY or FITNESS FOR A PARTICULAR PURPOSE.  See the GNU	-->
<!--    Lesser General Public License for more details.				-->
<!--										-->
<!--    You should have received a copy of the GNU Lesser General Public	-->
<!--    License along with this library; if not, write to the Free Software	-->
<!--    Foundation, Inc., 59 Temple Place, Suite 330, Boston, MA 02111-1307  USA-->
<!--										-->
<!--    Contact the author David Bellot at bellot@stat.berkeley.edu or 		-->
<!--    david.bellot@free.fr or yimyom@users.sourceforge.net			-->
<svg xmlns:dc="http://purl.org/dc/elements/1.1/" xmlns:cc="http://web.resource.org/cc/" xmlns:rdf="http://www.w3.org/1999/02/22-rdf-syntax-ns#" xmlns:svg="http://www.w3.org/2000/svg" xmlns="http://www.w3.org/2000/svg" xmlns:xlink="http://www.w3.org/1999/xlink" xmlns:sodipodi="http://sodipodi.sourceforge.net/DTD/sodipodi-0.dtd" xmlns:inkscape="http://www.inkscape.org/namespaces/inkscape" width="208" height="303" viewBox="0 0 167.08643 242.66748" xml:space="preserve" id="svg2" sodipodi:version="0.32" inkscape:version="0.45.1" sodipodi:docname="05_of_hearts.svg" inkscape:output_extension="org.inkscape.output.svg.inkscape" sodipodi:docbase="C:\Documents and Settings\Flanker\Desktop\Temporanei\SVG\Carte" version="1.0"><metadata id="metadata90"><rdf:RDF><cc:Work rdf:about=""><dc:format>image/svg+xml</dc:format><dc:type rdf:resource="http://purl.org/dc/dcmitype/StillImage"/></cc:Work></rdf:RDF></metadata><defs id="defs88"/><sodipodi:namedview inkscape:window-height="1003" inkscape:window-width="1280" inkscape:pageshadow="2" inkscape:pageopacity="0.0" guidetolerance="10.0" gridtolerance="10.0" objecttolerance="10.0" borderopacity="1.0" bordercolor="#666666" pagecolor="#ffffff" id="base" inkscape:zoom="1.242853" inkscape:cx="332.09771" inkscape:cy="130.96239" inkscape:window-x="403" inkscape:window-y="2" inkscape:current-layer="svg2" inkscape:showpageshadow="false" width="208px" height="303px"/>
	<path id="path5" d="M 166.83643,235.89281 C 166.83643,239.68452 163.75049,242.78371 159.96632,242.78371 L 7.1113279,242.78371 C 3.3359375,242.78371 0.25,239.68452 0.25,235.89281 L 0.25,6.7746664 C 0.25,2.9883464 3.3359375,-0.11623011 7.1113279,-0.11623011 L 159.96632,-0.11623011 C 163.75049,-0.11623011 166.83643,2.9883464 166.83643,6.7746664 L 166.83643,235.89281 L 166.83643,235.89281 z " style="fill:#ffffff;fill-rule:nonzero;stroke:#000000;stroke-width:0.5;stroke-miterlimit:4"/><g style="fill-rule:nonzero;stroke:#000000;stroke-miterlimit:4;fill:#e61408;fill-opacity:1" id="g3420" transform="translate(1.3421669,-0.133789)">
			<path style="stroke:none;fill:#e61408;fill-opacity:1" d="M 17.374023,7.8017578 L 17.374023,10.958008 L 13.092773,10.958008 L 13.092773,14.932617 C 13.333008,14.518066 13.597656,14.205078 13.88623,13.993652 C 14.174805,13.782715 14.479492,13.676758 14.800293,13.676758 C 15.794433,13.676758 16.575684,14.23877 17.14502,15.361817 C 17.714356,16.484863 17.999023,18.012695 17.999023,19.944824 C 17.999023,21.909668 17.713379,23.439453 17.14209,24.53418 C 16.570801,25.629395 15.766113,26.176758 14.728516,26.176758 C 14.293945,26.176758 13.859375,26.095215 13.424805,25.933106 C 12.990234,25.770508 12.536133,25.518555 12.061523,25.176758 L 12.061523,21.239258 L 12.717773,21.239258 C 12.741699,22.428711 12.880859,23.314453 13.134766,23.896973 C 13.388672,24.479492 13.76123,24.770508 14.252441,24.770508 C 14.78418,24.770508 15.176758,24.374512 15.430664,23.582031 C 15.68457,22.789551 15.811523,21.580567 15.811523,19.955567 C 15.811523,18.354981 15.687012,17.158203 15.437988,16.365723 C 15.188965,15.573242 14.811523,15.176758 14.305664,15.176758 C 14.032227,15.176758 13.789551,15.303223 13.57666,15.555664 C 13.36377,15.808594 13.165039,16.199219 12.980469,16.728516 L 12.436523,16.728516 L 12.436523,7.8017578 L 17.374024,7.8017578 L 17.374023,7.8017578 z " id="path3422"/>
		</g><g style="fill-rule:nonzero;stroke:#000000;stroke-miterlimit:4;fill:#e61408;fill-opacity:1" id="g3424" transform="translate(-0.9022199,0.5546912)">
			<path style="stroke:none;fill:#e61408;fill-opacity:1" d="M 149.27246,234.44482 L 149.27246,231.28857 L 153.55371,231.28857 L 153.55371,227.31396 C 153.31348,227.729 153.04785,228.04248 152.75977,228.25342 C 152.47168,228.46436 152.16699,228.56982 151.8457,228.56982 C 150.85156,228.56982 150.07031,228.0083 149.50098,226.88525 C 148.93164,225.76221 148.64746,224.23389 148.64746,222.30225 C 148.64746,220.3374 148.93262,218.80811 149.50391,217.7124 C 150.0752,216.61768 150.87988,216.06982 151.91699,216.06982 C 152.35254,216.06982 152.78613,216.15186 153.22168,216.31396 C 153.65527,216.47607 154.11035,216.72803 154.58496,217.06982 L 154.58496,221.00732 L 153.92871,221.00732 C 153.9043,219.81787 153.76465,218.93311 153.51074,218.3501 C 153.25684,217.76709 152.88477,217.47607 152.39355,217.47607 C 151.8623,217.47607 151.46973,217.87256 151.21582,218.66553 C 150.96191,219.45752 150.83496,220.6665 150.83496,222.2915 C 150.83496,223.89209 150.95898,225.08936 151.20801,225.88135 C 151.45703,226.67334 151.83496,227.06982 152.34082,227.06982 C 152.61426,227.06982 152.85645,226.94385 153.06934,226.69092 C 153.28223,226.43896 153.48145,226.04834 153.66504,225.51904 L 154.20996,225.51904 L 154.20996,234.44482 L 149.27246,234.44482 L 149.27246,234.44482 z " id="path3426"/>
		</g>
<path style="fill:#e61408;fill-rule:nonzero;stroke:none;stroke-miterlimit:4" d="M 75.67338,105.19244 C 71.36577,105.20171 67.86293,108.88359 67.89141,113.40116 C 67.95181,122.98076 79.98379,129.90867 83.53066,137.47506 C 87.07754,129.90867 99.13463,122.98076 99.19502,113.40116 C 99.2235,108.88359 95.72066,105.20171 91.41305,105.19244 C 87.10543,105.18364 83.54336,108.84969 83.53066,113.37606 C 83.51797,108.84969 79.981,105.18364 75.67338,105.19244 z " id="path2170"/><path id="path2225" d="M 14.006095,29.437331 C 12.710865,29.440118 11.657615,30.547203 11.666185,31.905566 C 11.684335,34.786005 15.302175,36.86912 16.368665,39.144217 C 17.435155,36.86912 21.060535,34.786005 21.078695,31.905566 C 21.087255,30.547203 20.034005,29.440118 18.738775,29.437331 C 17.443535,29.434685 16.372475,30.537009 16.368665,31.898019 C 16.364845,30.537009 15.301335,29.434685 14.006095,29.437331 z " style="fill:#e61408;fill-rule:nonzero;stroke:none;stroke-miterlimit:4"/><use x="0" y="0" xlink:href="#path2225" id="use2231" transform="matrix(1,0,0,-1,134.34155,242.36206)" width="167.08643" height="242.66748"/><use x="0" y="0" xlink:href="#path2170" id="use2196" transform="translate(-35.805569,-91.862692)" width="167.08643" height="242.66748"/><use x="0" y="0" xlink:href="#path2170" id="use2198" transform="translate(34.864835,-91.862692)" width="167.08643" height="242.66748"/><use x="0" y="0" xlink:href="#path2170" id="use2200" transform="matrix(1,0,0,-1,-35.805569,334.50796)" width="167.08643" height="242.66748"/><use x="0" y="0" xlink:href="#path2170" id="use2204" transform="matrix(1,0,0,-1,34.864835,334.50796)" width="167.08643" height="242.66748"/></svg>