<?xml version="1.0" encoding="UTF-8" standalone="no"?>
<!-- Generator: Adobe Illustrator 9.0, SVG Export Plug-In  -->
<!-- This set of SVG files is a complete cards game with figures, numbers	-->
<!--    and backs of cards completely designed in SVG.				-->
<!--    									-->
<!--    Copyright (C) 2004 David Bellot						-->
<!--										-->
<!--    This library is free software; you can redistribute it and/or		-->
<!--    modify it under the terms of the GNU Lesser General Public		-->
<!--    License as published by the Free Software Foundation; either		-->
<!--    version 2 of the License, or (at your option) any later version		-->
<!--										-->
<!--    This library is distributed in the hope that it will be useful,		-->
<!--    but WITHOUT ANY WARRANTY; without even the implied warranty of		-->
<!--    MERCHANTABILITY or FITNESS FOR A PARTICULAR PURPOSE.  See the GNU	-->
<!--    Lesser General Public License for more details.				-->
<!--										-->
<!--    You should have received a copy of the GNU Lesser General Public	-->
<!--    License along with this library; if not, write to the Free Software	-->
<!--    Foundation, Inc., 59 Temple Place, Suite 330, Boston, MA 02111-1307  USA-->
<!--										-->
<!--    Contact the author David Bellot at bellot@stat.berkeley.edu or 		-->
<!--    david.bellot@free.fr or yimyom@users.sourceforge.net			-->
<svg xmlns:dc="http://purl.org/dc/elements/1.1/" xmlns:cc="http://web.resource.org/cc/" xmlns:rdf="http://www.w3.org/1999/02/22-rdf-syntax-ns#" xmlns:svg="http://www.w3.org/2000/svg" xmlns="http://www.w3.org/2000/svg" xmlns:xlink="http://www.w3.org/1999/xlink" xmlns:sodipodi="http://sodipodi.sourceforge.net/DTD/sodipodi-0.dtd" xmlns:inkscape="http://www.inkscape.org/namespaces/inkscape" width="208" height="303" viewBox="0 0 167.08643 242.66748" xml:space="preserve" id="svg2" sodipodi:version="0.32" inkscape:version="0.45.1" sodipodi:docname="05_of_diamonds.svg" inkscape:output_extension="org.inkscape.output.svg.inkscape" sodipodi:docbase="C:\Documents and Settings\Flanker\Desktop\Temporanei\SVG\Carte" version="1.0"><metadata id="metadata90"><rdf:RDF><cc:Work rdf:about=""><dc:format>image/svg+xml</dc:format><dc:type rdf:resource="http://purl.org/dc/dcmitype/StillImage"/></cc:Work></rdf:RDF></metadata><defs id="defs88"/><sodipodi:namedview inkscape:window-height="1003" inkscape:window-width="1280" inkscape:pageshadow="2" inkscape:pageopacity="0.0" guidetolerance="10.0" gridtolerance="10.0" objecttolerance="10.0" borderopacity="1.0" bordercolor="#666666" pagecolor="#ffffff" id="base" inkscape:zoom="1.8832844" inkscape:cx="169.62898" inkscape:cy="134.6258" inkscape:window-x="280" inkscape:window-y="8" inkscape:current-layer="svg2" inkscape:showpageshadow="false" width="208px" height="303px"/>
	<path id="path5" d="M 166.83643,235.89281 C 166.83643,239.68452 163.75049,242.78371 159.96632,242.78371 L 7.1113279,242.78371 C 3.3359375,242.78371 0.25,239.68452 0.25,235.89281 L 0.25,6.7746664 C 0.25,2.9883464 3.3359375,-0.11623011 7.1113279,-0.11623011 L 159.96632,-0.11623011 C 163.75049,-0.11623011 166.83643,2.9883464 166.83643,6.7746664 L 166.83643,235.89281 L 166.83643,235.89281 z " style="fill:#ffffff;fill-rule:nonzero;stroke:#000000;stroke-width:0.5;stroke-miterlimit:4"/><g style="fill-rule:nonzero;stroke:#000000;stroke-miterlimit:4;fill:#e61408;fill-opacity:1" id="g3420" transform="translate(1.3421669,-0.133789)">
			<path style="stroke:none;fill:#e61408;fill-opacity:1" d="M 17.374023,7.8017578 L 17.374023,10.958008 L 13.092773,10.958008 L 13.092773,14.932617 C 13.333008,14.518066 13.597656,14.205078 13.88623,13.993652 C 14.174805,13.782715 14.479492,13.676758 14.800293,13.676758 C 15.794433,13.676758 16.575684,14.23877 17.14502,15.361817 C 17.714356,16.484863 17.999023,18.012695 17.999023,19.944824 C 17.999023,21.909668 17.713379,23.439453 17.14209,24.53418 C 16.570801,25.629395 15.766113,26.176758 14.728516,26.176758 C 14.293945,26.176758 13.859375,26.095215 13.424805,25.933106 C 12.990234,25.770508 12.536133,25.518555 12.061523,25.176758 L 12.061523,21.239258 L 12.717773,21.239258 C 12.741699,22.428711 12.880859,23.314453 13.134766,23.896973 C 13.388672,24.479492 13.76123,24.770508 14.252441,24.770508 C 14.78418,24.770508 15.176758,24.374512 15.430664,23.582031 C 15.68457,22.789551 15.811523,21.580567 15.811523,19.955567 C 15.811523,18.354981 15.687012,17.158203 15.437988,16.365723 C 15.188965,15.573242 14.811523,15.176758 14.305664,15.176758 C 14.032227,15.176758 13.789551,15.303223 13.57666,15.555664 C 13.36377,15.808594 13.165039,16.199219 12.980469,16.728516 L 12.436523,16.728516 L 12.436523,7.8017578 L 17.374024,7.8017578 L 17.374023,7.8017578 z " id="path3422"/>
		</g><g style="fill-rule:nonzero;stroke:#000000;stroke-miterlimit:4;fill:#e61408;fill-opacity:1" id="g3424" transform="translate(-0.9022199,0.5546912)">
			<path style="stroke:none;fill:#e61408;fill-opacity:1" d="M 149.27246,234.44482 L 149.27246,231.28857 L 153.55371,231.28857 L 153.55371,227.31396 C 153.31348,227.729 153.04785,228.04248 152.75977,228.25342 C 152.47168,228.46436 152.16699,228.56982 151.8457,228.56982 C 150.85156,228.56982 150.07031,228.0083 149.50098,226.88525 C 148.93164,225.76221 148.64746,224.23389 148.64746,222.30225 C 148.64746,220.3374 148.93262,218.80811 149.50391,217.7124 C 150.0752,216.61768 150.87988,216.06982 151.91699,216.06982 C 152.35254,216.06982 152.78613,216.15186 153.22168,216.31396 C 153.65527,216.47607 154.11035,216.72803 154.58496,217.06982 L 154.58496,221.00732 L 153.92871,221.00732 C 153.9043,219.81787 153.76465,218.93311 153.51074,218.3501 C 153.25684,217.76709 152.88477,217.47607 152.39355,217.47607 C 151.8623,217.47607 151.46973,217.87256 151.21582,218.66553 C 150.96191,219.45752 150.83496,220.6665 150.83496,222.2915 C 150.83496,223.89209 150.95898,225.08936 151.20801,225.88135 C 151.45703,226.67334 151.83496,227.06982 152.34082,227.06982 C 152.61426,227.06982 152.85645,226.94385 153.06934,226.69092 C 153.28223,226.43896 153.48145,226.04834 153.66504,225.51904 L 154.20996,225.51904 L 154.20996,234.44482 L 149.27246,234.44482 L 149.27246,234.44482 z " id="path3426"/>
		</g>
<path style="fill:#e61408;fill-opacity:1;stroke:none;stroke-width:1.49999988;stroke-linecap:round;stroke-linejoin:round;stroke-miterlimit:4;stroke-dasharray:none;stroke-opacity:1" d="M 47.737641,13.605875 C 47.711531,14.501685 47.179901,17.861175 41.386551,23.421195 C 35.810891,28.772305 33.207231,29.414705 32.424741,29.471045 C 33.207231,29.527395 35.810891,30.169795 41.386551,35.520905 C 47.179901,41.080905 47.711531,44.440395 47.737641,45.336225 C 47.763771,44.440415 48.295391,41.080925 54.088741,35.520905 C 59.664411,30.169795 62.268061,29.527385 63.050551,29.471045 C 62.268061,29.414705 59.664411,28.772305 54.088741,23.421195 C 48.295391,17.861195 47.763771,14.501695 47.737641,13.605875 z " id="path2243"/><path id="path3230" d="M 16.372445,29.520358 C 16.364595,29.789714 16.204735,30.799864 14.462765,32.471673 C 12.786255,34.080673 12.003375,34.273829 11.768085,34.290773 C 12.003375,34.307714 12.786255,34.500876 14.462765,36.10987 C 16.204735,37.781679 16.364595,38.791826 16.372445,39.061185 C 16.380295,38.791829 16.540155,37.781682 18.282115,36.10987 C 19.958635,34.500873 20.741515,34.307711 20.976795,34.290773 C 20.741515,34.273832 19.958635,34.08067 18.282115,32.471673 C 16.540155,30.799867 16.380295,29.789717 16.372445,29.520358 z " style="fill:#e61408;fill-opacity:1;stroke:none;stroke-width:1.49999988;stroke-linecap:round;stroke-linejoin:round;stroke-miterlimit:4;stroke-dasharray:none;stroke-opacity:1"/><use x="0" y="0" xlink:href="#path3230" id="use3238" transform="translate(134.34155,173.78052)" width="167.08643" height="242.66748"/><use x="0" y="0" xlink:href="#path2243" id="use2196" transform="translate(70.670399,5e-6)" width="167.08643" height="242.66748"/><use x="0" y="0" xlink:href="#use2196" id="use2198" transform="translate(-34.86483,91.862685)" width="167.08643" height="242.66748"/><use x="0" y="0" xlink:href="#use2198" id="use2200" transform="translate(-35.805575,91.840485)" width="167.08643" height="242.66748"/><use x="0" y="0" xlink:href="#use2200" id="use2202" transform="translate(70.670399,0)" width="167.08643" height="242.66748"/></svg>