<?xml version="1.0" encoding="UTF-8" standalone="no"?>
<!-- Generator: Adobe Illustrator 9.0, SVG Export Plug-In  -->
<!-- This set of SVG files is a complete cards game with figures, numbers	-->
<!--    and backs of cards completely designed in SVG.				-->
<!--    									-->
<!--    Copyright (C) 2004 David Bellot						-->
<!--										-->
<!--    This library is free software; you can redistribute it and/or		-->
<!--    modify it under the terms of the GNU Lesser General Public		-->
<!--    License as published by the Free Software Foundation; either		-->
<!--    version 2 of the License, or (at your option) any later version		-->
<!--										-->
<!--    This library is distributed in the hope that it will be useful,		-->
<!--    but WITHOUT ANY WARRANTY; without even the implied warranty of		-->
<!--    MERCHANTABILITY or FITNESS FOR A PARTICULAR PURPOSE.  See the GNU	-->
<!--    Lesser General Public License for more details.				-->
<!--										-->
<!--    You should have received a copy of the GNU Lesser General Public	-->
<!--    License along with this library; if not, write to the Free Software	-->
<!--    Foundation, Inc., 59 Temple Place, Suite 330, Boston, MA 02111-1307  USA-->
<!--										-->
<!--    Contact the author David Bellot at bellot@stat.berkeley.edu or 		-->
<!--    david.bellot@free.fr or yimyom@users.sourceforge.net			-->
<svg xmlns:dc="http://purl.org/dc/elements/1.1/" xmlns:cc="http://web.resource.org/cc/" xmlns:rdf="http://www.w3.org/1999/02/22-rdf-syntax-ns#" xmlns:svg="http://www.w3.org/2000/svg" xmlns="http://www.w3.org/2000/svg" xmlns:xlink="http://www.w3.org/1999/xlink" xmlns:sodipodi="http://sodipodi.sourceforge.net/DTD/sodipodi-0.dtd" xmlns:inkscape="http://www.inkscape.org/namespaces/inkscape" width="208" height="303" viewBox="0 0 167.08643 242.66748" xml:space="preserve" id="svg2" sodipodi:version="0.32" inkscape:version="0.45.1" sodipodi:docname="06_of_diamonds.svg" inkscape:output_extension="org.inkscape.output.svg.inkscape" sodipodi:docbase="C:\Documents and Settings\Flanker\Desktop\Temporanei\SVG\Carte" version="1.0"><metadata id="metadata90"><rdf:RDF><cc:Work rdf:about=""><dc:format>image/svg+xml</dc:format><dc:type rdf:resource="http://purl.org/dc/dcmitype/StillImage"/></cc:Work></rdf:RDF></metadata><defs id="defs88"/><sodipodi:namedview inkscape:window-height="1003" inkscape:window-width="1280" inkscape:pageshadow="2" inkscape:pageopacity="0.0" guidetolerance="10.0" gridtolerance="10.0" objecttolerance="10.0" borderopacity="1.0" bordercolor="#666666" pagecolor="#ffffff" id="base" inkscape:zoom="1.242853" inkscape:cx="153.94323" inkscape:cy="18.523958" inkscape:window-x="382" inkscape:window-y="10" inkscape:current-layer="svg2" inkscape:showpageshadow="false" width="208px" height="303px"/>
	<path id="path5" d="M 166.83643,235.89281 C 166.83643,239.68452 163.75049,242.78371 159.96632,242.78371 L 7.1113279,242.78371 C 3.3359375,242.78371 0.25,239.68452 0.25,235.89281 L 0.25,6.7746664 C 0.25,2.9883464 3.3359375,-0.11623011 7.1113279,-0.11623011 L 159.96632,-0.11623011 C 163.75049,-0.11623011 166.83643,2.9883464 166.83643,6.7746664 L 166.83643,235.89281 L 166.83643,235.89281 z " style="fill:#ffffff;fill-rule:nonzero;stroke:#000000;stroke-width:0.5;stroke-miterlimit:4"/><g style="fill-rule:nonzero;stroke:#000000;stroke-miterlimit:4;fill:#e61408;fill-opacity:1" id="g3809" transform="translate(1.3636509,-0.1274412)">
			<path style="stroke:none;fill:#e61408;fill-opacity:1" d="M 13.836914,15.286133 C 14.077637,14.867188 14.34082,14.553223 14.625977,14.34375 C 14.911133,14.134766 15.226563,14.029785 15.572266,14.029785 C 16.391602,14.029785 17.036621,14.570313 17.506836,15.650391 C 17.976563,16.730957 18.211914,18.214844 18.211914,20.101563 C 18.211914,22.093262 17.945801,23.631348 17.414063,24.71582 C 16.881836,25.800293 16.128418,26.342285 15.153809,26.342285 C 14.057617,26.342285 13.225586,25.599121 12.657715,24.112793 C 12.089355,22.626465 11.805664,20.441406 11.805664,17.557129 C 11.805664,14.27832 12.119141,11.803223 12.746094,10.131348 C 13.373047,8.4594726 14.305176,7.6235351 15.543457,7.6235351 C 15.864746,7.6235351 16.210449,7.6835937 16.580566,7.8032226 C 16.950195,7.9233398 17.348145,8.1030273 17.774414,8.3422851 L 17.774414,11.529785 L 17.118164,11.529785 C 17.030273,10.708496 16.860352,10.086914 16.608887,9.6640624 C 16.357422,9.2412108 16.036133,9.0297851 15.64502,9.0297851 C 15.01416,9.0297851 14.557129,9.520996 14.273926,10.503418 C 13.990723,11.48584 13.844727,13.080078 13.836914,15.286133 L 13.836914,15.286133 z M 15.024414,24.936035 C 15.396484,24.936035 15.661133,24.583008 15.818848,23.876465 C 15.976563,23.17041 16.055664,21.945313 16.055664,20.20166 C 16.055664,18.458496 15.976562,17.233399 15.818848,16.526856 C 15.661133,15.820801 15.396484,15.467285 15.024414,15.467285 C 14.652344,15.467285 14.387207,15.820801 14.229492,16.526856 C 14.071777,17.233399 13.993164,18.458496 13.993164,20.20166 C 13.993164,21.945313 14.071777,23.17041 14.229492,23.876465 C 14.387207,24.583008 14.652344,24.936035 15.024414,24.936035 L 15.024414,24.936035 z " id="path3811"/>
		</g><g style="fill-rule:nonzero;stroke:#000000;stroke-miterlimit:4;fill:#e61408;fill-opacity:1" id="g3813" transform="translate(-0.8494849,0.2172862)">
			<path style="stroke:none;fill:#e61408;fill-opacity:1" d="M 152.73535,227.29199 C 152.49414,227.71094 152.23145,228.02441 151.94629,228.23438 C 151.66113,228.44336 151.34473,228.54785 150.99902,228.54785 C 150.18066,228.54785 149.53516,228.00781 149.06543,226.92773 C 148.59473,225.84668 148.36035,224.36328 148.36035,222.47656 C 148.36035,220.48535 148.62598,218.94629 149.15723,217.8623 C 149.69043,216.77832 150.44336,216.23535 151.41797,216.23535 C 152.51465,216.23535 153.34668,216.97949 153.91406,218.46582 C 154.48242,219.95215 154.7666,222.13672 154.7666,225.02051 C 154.7666,228.2998 154.45215,230.77441 153.8252,232.44629 C 153.19824,234.11816 152.2666,234.9541 151.02832,234.9541 C 150.70703,234.9541 150.36133,234.89453 149.99121,234.77441 C 149.62207,234.65527 149.22363,234.47559 148.79785,234.23535 L 148.79785,231.04785 L 149.4541,231.04785 C 149.54199,231.87012 149.71191,232.49121 149.96289,232.91406 C 150.21387,233.33691 150.53613,233.54785 150.92676,233.54785 C 151.55762,233.54785 152.01465,233.05762 152.29785,232.0752 C 152.58105,231.09277 152.72754,229.49805 152.73535,227.29199 L 152.73535,227.29199 z M 151.54785,217.6416 C 151.1748,217.6416 150.91113,217.99512 150.75293,218.70215 C 150.59473,219.40723 150.5166,220.63281 150.5166,222.37598 C 150.5166,224.12012 150.59473,225.34473 150.75293,226.05176 C 150.91113,226.75684 151.1748,227.11035 151.54785,227.11035 C 151.91895,227.11035 152.18457,226.75684 152.34277,226.05176 C 152.5,225.34473 152.5791,224.12012 152.5791,222.37598 C 152.5791,220.63281 152.5,219.40723 152.34277,218.70215 C 152.18457,217.99512 151.91895,217.6416 151.54785,217.6416 z " id="path3815"/>
		</g>
<path style="fill:#e61408;fill-opacity:1;stroke:none;stroke-width:1.49999988;stroke-linecap:round;stroke-linejoin:round;stroke-miterlimit:4;stroke-dasharray:none;stroke-opacity:1" d="M 47.737644,13.605875 C 47.711529,14.501685 47.179897,17.861185 41.386553,23.421195 C 35.810889,28.772315 33.207229,29.414705 32.42474,29.471055 C 33.207229,29.527395 35.810889,30.169805 41.386553,35.520905 C 47.179897,41.080915 47.711529,44.440405 47.737644,45.336225 C 47.763766,44.440415 48.295393,41.080925 54.088735,35.520905 C 59.664407,30.169795 62.268058,29.527385 63.050552,29.471055 C 62.268058,29.414715 59.664409,28.772305 54.088735,23.421195 C 48.295393,17.861195 47.763766,14.501695 47.737644,13.605875 z " id="path2243"/><path id="path3230" d="M 16.37244,29.520358 C 16.36459,29.789714 16.20473,30.799864 14.46276,32.471673 C 12.78625,34.080673 12.00337,34.273829 11.76808,34.290773 C 12.00337,34.307714 12.78625,34.500876 14.46276,36.10987 C 16.20473,37.781679 16.36459,38.791826 16.37244,39.061185 C 16.38029,38.791829 16.54015,37.781682 18.28211,36.10987 C 19.95863,34.500873 20.74151,34.307711 20.9768,34.290773 C 20.74151,34.273832 19.95863,34.08067 18.28211,32.471673 C 16.54015,30.799867 16.38029,29.789717 16.37244,29.520358 z " style="fill:#e61408;fill-opacity:1;stroke:none;stroke-width:1.49999988;stroke-linecap:round;stroke-linejoin:round;stroke-miterlimit:4;stroke-dasharray:none;stroke-opacity:1"/><use x="0" y="0" xlink:href="#path3230" id="use3238" transform="translate(134.34155,173.78052)" width="167.08643" height="242.66748"/><use x="0" y="0" xlink:href="#path2243" id="use2197" transform="translate(70.6704,0)" width="167.08643" height="242.66748"/><use x="0" y="0" xlink:href="#use2197" id="use2199" transform="translate(-70.670404,91.86269)" width="167.08643" height="242.66748"/><use x="0" y="0" xlink:href="#use2199" id="use2201" transform="translate(70.6704,0)" width="167.08643" height="242.66748"/><use x="0" y="0" xlink:href="#use2201" id="use2203" transform="translate(-70.670404,91.84048)" width="167.08643" height="242.66748"/><use x="0" y="0" xlink:href="#use2203" id="use2205" transform="translate(70.6704,0)" width="167.08643" height="242.66748"/></svg>