<?xml version="1.0" encoding="UTF-8" standalone="no"?>
<!-- Generator: Adobe Illustrator 9.0, SVG Export Plug-In  -->
<!-- This set of SVG files is a complete cards game with figures, numbers	-->
<!--    and backs of cards completely designed in SVG.				-->
<!--    									-->
<!--    Copyright (C) 2004 David Bellot						-->
<!--										-->
<!--    This library is free software; you can redistribute it and/or		-->
<!--    modify it under the terms of the GNU Lesser General Public		-->
<!--    License as published by the Free Software Foundation; either		-->
<!--    version 2 of the License, or (at your option) any later version		-->
<!--										-->
<!--    This library is distributed in the hope that it will be useful,		-->
<!--    but WITHOUT ANY WARRANTY; without even the implied warranty of		-->
<!--    MERCHANTABILITY or FITNESS FOR A PARTICULAR PURPOSE.  See the GNU	-->
<!--    Lesser General Public License for more details.				-->
<!--										-->
<!--    You should have received a copy of the GNU Lesser General Public	-->
<!--    License along with this library; if not, write to the Free Software	-->
<!--    Foundation, Inc., 59 Temple Place, Suite 330, Boston, MA 02111-1307  USA-->
<!--										-->
<!--    Contact the author David Bellot at bellot@stat.berkeley.edu or 		-->
<!--    david.bellot@free.fr or yimyom@users.sourceforge.net			-->
<svg xmlns:dc="http://purl.org/dc/elements/1.1/" xmlns:cc="http://web.resource.org/cc/" xmlns:rdf="http://www.w3.org/1999/02/22-rdf-syntax-ns#" xmlns:svg="http://www.w3.org/2000/svg" xmlns="http://www.w3.org/2000/svg" xmlns:xlink="http://www.w3.org/1999/xlink" xmlns:sodipodi="http://sodipodi.sourceforge.net/DTD/sodipodi-0.dtd" xmlns:inkscape="http://www.inkscape.org/namespaces/inkscape" width="208" height="303" viewBox="0 0 167.08643 242.66748" xml:space="preserve" id="svg2" sodipodi:version="0.32" inkscape:version="0.45.1" sodipodi:docname="06_of_clubs.svg" inkscape:output_extension="org.inkscape.output.svg.inkscape" sodipodi:docbase="C:\Documents and Settings\Flanker\Desktop" version="1.0"><metadata id="metadata90"><rdf:RDF><cc:Work rdf:about=""><dc:format>image/svg+xml</dc:format><dc:type rdf:resource="http://purl.org/dc/dcmitype/StillImage"/></cc:Work></rdf:RDF></metadata><defs id="defs88"/><sodipodi:namedview inkscape:window-height="1003" inkscape:window-width="1280" inkscape:pageshadow="2" inkscape:pageopacity="0.0" guidetolerance="10.0" gridtolerance="10.0" objecttolerance="10.0" borderopacity="1.0" bordercolor="#666666" pagecolor="#ffffff" id="base" inkscape:zoom="1.7576595" inkscape:cx="157.33696" inkscape:cy="129.79586" inkscape:window-x="-4" inkscape:window-y="-4" inkscape:current-layer="svg2" inkscape:showpageshadow="false" width="208px" height="303px"/>
	<path id="path5" d="M 166.83643,235.89281 C 166.83643,239.68452 163.75049,242.78371 159.96632,242.78371 L 7.1113279,242.78371 C 3.3359375,242.78371 0.25,239.68452 0.25,235.89281 L 0.25,6.7746664 C 0.25,2.9883464 3.3359375,-0.11623011 7.1113279,-0.11623011 L 159.96632,-0.11623011 C 163.75049,-0.11623011 166.83643,2.9883464 166.83643,6.7746664 L 166.83643,235.89281 L 166.83643,235.89281 z " style="fill:#ffffff;fill-rule:nonzero;stroke:#000000;stroke-width:0.5;stroke-miterlimit:4"/><g style="fill-rule:nonzero;stroke:#000000;stroke-miterlimit:4" id="g3809" transform="translate(1.3636509,-0.1274412)">
			<path style="stroke:none" d="M 13.836914,15.286133 C 14.077637,14.867188 14.34082,14.553223 14.625977,14.34375 C 14.911133,14.134766 15.226563,14.029785 15.572266,14.029785 C 16.391602,14.029785 17.036621,14.570313 17.506836,15.650391 C 17.976563,16.730957 18.211914,18.214844 18.211914,20.101563 C 18.211914,22.093262 17.945801,23.631348 17.414063,24.71582 C 16.881836,25.800293 16.128418,26.342285 15.153809,26.342285 C 14.057617,26.342285 13.225586,25.599121 12.657715,24.112793 C 12.089355,22.626465 11.805664,20.441406 11.805664,17.557129 C 11.805664,14.27832 12.119141,11.803223 12.746094,10.131348 C 13.373047,8.4594726 14.305176,7.6235351 15.543457,7.6235351 C 15.864746,7.6235351 16.210449,7.6835937 16.580566,7.8032226 C 16.950195,7.9233398 17.348145,8.1030273 17.774414,8.3422851 L 17.774414,11.529785 L 17.118164,11.529785 C 17.030273,10.708496 16.860352,10.086914 16.608887,9.6640624 C 16.357422,9.2412108 16.036133,9.0297851 15.64502,9.0297851 C 15.01416,9.0297851 14.557129,9.520996 14.273926,10.503418 C 13.990723,11.48584 13.844727,13.080078 13.836914,15.286133 L 13.836914,15.286133 z M 15.024414,24.936035 C 15.396484,24.936035 15.661133,24.583008 15.818848,23.876465 C 15.976563,23.17041 16.055664,21.945313 16.055664,20.20166 C 16.055664,18.458496 15.976562,17.233399 15.818848,16.526856 C 15.661133,15.820801 15.396484,15.467285 15.024414,15.467285 C 14.652344,15.467285 14.387207,15.820801 14.229492,16.526856 C 14.071777,17.233399 13.993164,18.458496 13.993164,20.20166 C 13.993164,21.945313 14.071777,23.17041 14.229492,23.876465 C 14.387207,24.583008 14.652344,24.936035 15.024414,24.936035 L 15.024414,24.936035 z " id="path3811"/>
		</g><g style="fill-rule:nonzero;stroke:#000000;stroke-miterlimit:4" id="g3813" transform="translate(-0.8494849,0.2172862)">
			<path style="stroke:none" d="M 152.73535,227.29199 C 152.49414,227.71094 152.23145,228.02441 151.94629,228.23438 C 151.66113,228.44336 151.34473,228.54785 150.99902,228.54785 C 150.18066,228.54785 149.53516,228.00781 149.06543,226.92773 C 148.59473,225.84668 148.36035,224.36328 148.36035,222.47656 C 148.36035,220.48535 148.62598,218.94629 149.15723,217.8623 C 149.69043,216.77832 150.44336,216.23535 151.41797,216.23535 C 152.51465,216.23535 153.34668,216.97949 153.91406,218.46582 C 154.48242,219.95215 154.7666,222.13672 154.7666,225.02051 C 154.7666,228.2998 154.45215,230.77441 153.8252,232.44629 C 153.19824,234.11816 152.2666,234.9541 151.02832,234.9541 C 150.70703,234.9541 150.36133,234.89453 149.99121,234.77441 C 149.62207,234.65527 149.22363,234.47559 148.79785,234.23535 L 148.79785,231.04785 L 149.4541,231.04785 C 149.54199,231.87012 149.71191,232.49121 149.96289,232.91406 C 150.21387,233.33691 150.53613,233.54785 150.92676,233.54785 C 151.55762,233.54785 152.01465,233.05762 152.29785,232.0752 C 152.58105,231.09277 152.72754,229.49805 152.73535,227.29199 L 152.73535,227.29199 z M 151.54785,217.6416 C 151.1748,217.6416 150.91113,217.99512 150.75293,218.70215 C 150.59473,219.40723 150.5166,220.63281 150.5166,222.37598 C 150.5166,224.12012 150.59473,225.34473 150.75293,226.05176 C 150.91113,226.75684 151.1748,227.11035 151.54785,227.11035 C 151.91895,227.11035 152.18457,226.75684 152.34277,226.05176 C 152.5,225.34473 152.5791,224.12012 152.5791,222.37598 C 152.5791,220.63281 152.5,219.40723 152.34277,218.70215 C 152.18457,217.99512 151.91895,217.6416 151.54785,217.6416 z " id="path3815"/>
		</g><path style="fill:#000000;fill-opacity:1;stroke:none;stroke-width:1.5;stroke-linecap:round;stroke-linejoin:round;stroke-miterlimit:4;stroke-opacity:1" d="M 150.73654,213.0401 C 151.87847,213.0401 152.80375,212.11482 152.80375,210.97289 C 152.80375,210.3835 152.55321,209.8539 152.15728,209.47699 C 151.85132,209.18573 151.41544,208.52555 151.27026,207.99612 C 151.55345,208.16678 151.80854,208.36129 151.96183,208.52232 C 152.33875,208.91825 152.86835,209.16127 153.45774,209.16127 C 154.59967,209.16127 155.52494,208.23599 155.52494,207.09406 C 155.52494,205.95214 154.59966,205.02686 153.45774,205.02686 C 152.86835,205.02686 152.33875,205.27739 151.96183,205.67333 C 151.8002,205.84312 151.52696,206.05796 151.22515,206.23711 C 151.26749,204.34125 151.91814,203.10248 153.10443,203.10248 C 153.10443,203.10248 148.36113,203.10248 148.36113,203.10248 C 149.55058,203.10248 150.20877,204.34774 150.24793,206.25215 C 149.92976,206.06953 149.634,205.84966 149.46615,205.67333 C 149.08924,205.27739 148.55963,205.02686 147.97024,205.02686 C 146.82833,205.02686 145.90304,205.95214 145.90304,207.09406 C 145.90304,208.23599 146.82833,209.16127 147.97024,209.16127 C 148.55962,209.16127 149.08924,208.91825 149.46615,208.52232 C 149.62576,208.35465 149.90297,208.15581 150.20283,207.98108 C 150.06219,208.51312 149.6173,209.18282 149.30829,209.47699 C 148.91236,209.8539 148.66933,210.38351 148.66933,210.97289 C 148.66933,212.11482 149.59461,213.0401 150.73654,213.0401 z " id="use2374" sodipodi:nodetypes="csscsssssccccssssscssc"/><path style="fill:#000000;fill-opacity:1;stroke:none;stroke-width:1.5;stroke-linecap:round;stroke-linejoin:round;stroke-miterlimit:4;stroke-opacity:1" d="M 16.349889,29.321959 C 15.207961,29.321959 14.282681,30.247238 14.282682,31.389166 C 14.282682,31.978555 14.53322,32.508157 14.929154,32.885071 C 15.235114,33.176333 15.670993,33.836507 15.816173,34.365943 C 15.532982,34.195277 15.277893,34.000774 15.124599,33.839745 C 14.747684,33.44381 14.218081,33.20079 13.628693,33.20079 C 12.486765,33.20079 11.561486,34.126069 11.561486,35.267997 C 11.561486,36.409925 12.486765,37.335203 13.628693,37.335203 C 14.218083,37.335203 14.747685,37.084667 15.124599,36.688732 C 15.286233,36.518938 15.559471,36.304096 15.861276,36.124948 C 15.818942,38.020809 15.168287,39.259585 13.981997,39.259585 C 13.981997,39.259585 18.725297,39.259585 18.725297,39.259585 C 17.535846,39.259585 16.87766,38.014321 16.838501,36.109914 C 17.156674,36.292535 17.452427,36.512404 17.620281,36.688732 C 17.99719,37.084667 18.526804,37.335203 19.116187,37.335203 C 20.258103,37.335203 21.183394,36.409925 21.183394,35.267997 C 21.183394,34.126069 20.258103,33.20079 19.116187,33.20079 C 18.526807,33.20079 17.99719,33.44381 17.620281,33.839745 C 17.46067,34.00741 17.183459,34.206246 16.883604,34.380977 C 17.024245,33.848937 17.469128,33.179243 17.77814,32.885071 C 18.174075,32.508157 18.417095,31.978552 18.417095,31.389166 C 18.417095,30.247238 17.491817,29.321959 16.349889,29.321959 z " id="use2370" sodipodi:nodetypes="csscsssssccccssssscssc"/>
<path style="fill:#000000;fill-opacity:1;stroke:none;stroke-width:1.5;stroke-linecap:round;stroke-linejoin:round;stroke-miterlimit:4;stroke-opacity:1" d="M 47.662646,12.94605 C 43.864886,12.94605 40.787645,16.02329 40.787647,19.82105 C 40.787647,21.78121 41.620871,23.54253 42.937646,24.79605 C 43.95519,25.76471 45.404814,27.96028 45.887646,29.72105 C 44.945822,29.15346 44.097462,28.50659 43.587646,27.97105 C 42.334125,26.65427 40.572798,25.84605 38.612646,25.84605 C 34.814885,25.84605 31.737646,28.92329 31.737646,32.72105 C 31.737646,36.51881 34.814887,39.59605 38.612646,39.59605 C 40.572806,39.59605 42.334126,38.76283 43.587646,37.44605 C 44.125198,36.88136 45.033918,36.16685 46.037646,35.57105 C 45.896854,41.8762 43.732942,45.99605 39.787647,45.99605 C 39.787647,45.99605 55.562646,45.99605 55.562646,45.99605 C 51.606838,45.99605 49.417878,41.85462 49.287646,35.52105 C 50.345806,36.1284 51.329406,36.85963 51.887646,37.44605 C 53.14115,38.76283 54.90251,39.59605 56.862646,39.59605 C 60.660366,39.59605 63.737646,36.51881 63.737646,32.72105 C 63.737646,28.92329 60.660366,25.84605 56.862646,25.84605 C 54.902518,25.84605 53.14115,26.65427 51.887646,27.97105 C 51.356822,28.52866 50.434886,29.18994 49.437646,29.77105 C 49.905382,28.00162 51.38495,25.77439 52.412646,24.79605 C 53.729422,23.54253 54.537646,21.7812 54.537646,19.82105 C 54.537646,16.02329 51.460406,12.94605 47.662646,12.94605 z " id="path2242" sodipodi:nodetypes="csscsssssccccssssscssc"/><use x="0" y="0" xlink:href="#path2242" id="use2597" transform="matrix(1,0,0,-1,0,242.64527)" width="167.08643" height="242.66748"/><path sodipodi:nodetypes="csscsssssccccssssscssc" id="path2841" d="M 118.33305,12.946052 C 114.53529,12.946052 111.45805,16.023292 111.45805,19.821052 C 111.45805,21.781212 112.29128,23.542528 113.60805,24.796048 C 114.6256,25.764708 116.07522,27.960278 116.55805,29.721048 C 115.61623,29.153458 114.76787,28.506588 114.25805,27.971048 C 113.00453,26.654268 111.2432,25.846048 109.28305,25.846048 C 105.48529,25.846048 102.40805,28.923288 102.40805,32.721048 C 102.40805,36.518808 105.48529,39.596048 109.28305,39.596048 C 111.24321,39.596048 113.00453,38.762828 114.25805,37.446048 C 114.7956,36.881358 115.70432,36.166848 116.70805,35.571048 C 116.56726,41.876198 114.40335,45.996048 110.45805,45.996048 C 110.45805,45.996048 126.23305,45.996048 126.23305,45.996048 C 122.27724,45.996048 120.08828,41.854618 119.95805,35.521048 C 121.01621,36.128398 121.99981,36.859628 122.55805,37.446048 C 123.81156,38.762828 125.57292,39.596048 127.53305,39.596048 C 131.33077,39.596048 134.40805,36.518808 134.40805,32.721048 C 134.40805,28.923288 131.33077,25.846048 127.53305,25.846048 C 125.57292,25.846048 123.81156,26.654268 122.55805,27.971048 C 122.02723,28.528658 121.10529,29.189938 120.10805,29.771048 C 120.57579,28.001618 122.05536,25.774388 123.08305,24.796048 C 124.39983,23.542528 125.20805,21.781202 125.20805,19.821052 C 125.20805,16.023292 122.13081,12.946052 118.33305,12.946052 z " style="fill:#000000;fill-opacity:1;stroke:none;stroke-width:1.5;stroke-linecap:round;stroke-linejoin:round;stroke-miterlimit:4;stroke-opacity:1"/><use x="0" y="0" xlink:href="#path2841" id="use3214" transform="matrix(1,0,0,-1,0,242.64527)" width="167.08643" height="242.66748"/><use x="0" y="0" xlink:href="#path2242" id="use3293" transform="translate(0,91.86269)" width="167.08643" height="242.66748"/><use height="242.66748" width="167.08643" transform="translate(70.670404,91.86269)" id="use4073" xlink:href="#path2242" y="0" x="0"/></svg>