<?xml version="1.0" encoding="UTF-8" standalone="no"?>
<!-- Generator: Adobe Illustrator 9.0, SVG Export Plug-In  -->
<!-- This set of SVG files is a complete cards game with figures, numbers	-->
<!--    and backs of cards completely designed in SVG.				-->
<!--    									-->
<!--    Copyright (C) 2004 David Bellot						-->
<!--										-->
<!--    This library is free software; you can redistribute it and/or		-->
<!--    modify it under the terms of the GNU Lesser General Public		-->
<!--    License as published by the Free Software Foundation; either		-->
<!--    version 2 of the License, or (at your option) any later version		-->
<!--										-->
<!--    This library is distributed in the hope that it will be useful,		-->
<!--    but WITHOUT ANY WARRANTY; without even the implied warranty of		-->
<!--    MERCHANTABILITY or FITNESS FOR A PARTICULAR PURPOSE.  See the GNU	-->
<!--    Lesser General Public License for more details.				-->
<!--										-->
<!--    You should have received a copy of the GNU Lesser General Public	-->
<!--    License along with this library; if not, write to the Free Software	-->
<!--    Foundation, Inc., 59 Temple Place, Suite 330, Boston, MA 02111-1307  USA-->
<!--										-->
<!--    Contact the author David Bellot at bellot@stat.berkeley.edu or 		-->
<!--    david.bellot@free.fr or yimyom@users.sourceforge.net			-->
<svg xmlns:dc="http://purl.org/dc/elements/1.1/" xmlns:cc="http://web.resource.org/cc/" xmlns:rdf="http://www.w3.org/1999/02/22-rdf-syntax-ns#" xmlns:svg="http://www.w3.org/2000/svg" xmlns="http://www.w3.org/2000/svg" xmlns:xlink="http://www.w3.org/1999/xlink" xmlns:sodipodi="http://sodipodi.sourceforge.net/DTD/sodipodi-0.dtd" xmlns:inkscape="http://www.inkscape.org/namespaces/inkscape" width="208" height="303" viewBox="0 0 167.08643 242.66748" xml:space="preserve" id="svg2" sodipodi:version="0.32" inkscape:version="0.45.1" sodipodi:docname="07_of_hearts.svg" inkscape:output_extension="org.inkscape.output.svg.inkscape" sodipodi:docbase="C:\Documents and Settings\Flanker\Desktop\Temporanei\SVG\Carte" version="1.0"><metadata id="metadata90"><rdf:RDF><cc:Work rdf:about=""><dc:format>image/svg+xml</dc:format><dc:type rdf:resource="http://purl.org/dc/dcmitype/StillImage"/></cc:Work></rdf:RDF></metadata><defs id="defs88"/><sodipodi:namedview inkscape:window-height="1003" inkscape:window-width="1280" inkscape:pageshadow="2" inkscape:pageopacity="0.0" guidetolerance="10.0" gridtolerance="10.0" objecttolerance="10.0" borderopacity="1.0" bordercolor="#666666" pagecolor="#ffffff" id="base" inkscape:zoom="0.87882975" inkscape:cx="494.29957" inkscape:cy="-0.34795911" inkscape:window-x="400" inkscape:window-y="8" inkscape:current-layer="svg2" inkscape:showpageshadow="false" width="208px" height="303px"/>
	<path id="path5" d="M 166.83643,235.89281 C 166.83643,239.68452 163.75049,242.78371 159.96632,242.78371 L 7.1113279,242.78371 C 3.3359375,242.78371 0.25,239.68452 0.25,235.89281 L 0.25,6.7746664 C 0.25,2.9883464 3.3359375,-0.11623011 7.1113279,-0.11623011 L 159.96632,-0.11623011 C 163.75049,-0.11623011 166.83643,2.9883464 166.83643,6.7746664 L 166.83643,235.89281 L 166.83643,235.89281 z " style="fill:#ffffff;fill-rule:nonzero;stroke:#000000;stroke-width:0.5;stroke-miterlimit:4"/><g style="fill-rule:nonzero;stroke:#000000;stroke-miterlimit:4;fill:#e61408;fill-opacity:1" id="g4248" transform="translate(1.4666779,3.808595e-2)">
			<path style="stroke:none;fill:#e61408;fill-opacity:1" d="M 17.858887,10.869629 L 14.538086,25.833008 L 13.439453,25.833008 L 16.675293,11.208008 L 12.702637,11.208008 L 12.702637,13.645508 L 11.952637,13.645508 L 11.952637,7.8017578 L 17.858887,7.8017578 L 17.858887,10.869629 L 17.858887,10.869629 z " id="path4250"/>
		</g><g style="fill-rule:nonzero;stroke:#000000;stroke-miterlimit:4;fill:#e61408;fill-opacity:1" id="g4252" transform="translate(-0.8709749,0.3828162)">
			<path style="stroke:none;fill:#e61408;fill-opacity:1" d="M 148.63184,231.37744 L 151.95215,216.41357 L 153.05176,216.41357 L 149.81543,231.03857 L 153.78809,231.03857 L 153.78809,228.60107 L 154.53809,228.60107 L 154.53809,234.44482 L 148.63184,234.44482 L 148.63184,231.37744 L 148.63184,231.37744 z " id="path4254"/>
		</g>
<path style="fill:#e61408;fill-rule:nonzero;stroke:none;stroke-miterlimit:4" d="M 39.867813,13.329748 C 35.560203,13.339018 32.057363,17.020898 32.085843,21.538468 C 32.146243,31.118068 44.178223,38.045978 47.725097,45.612368 C 51.271972,38.045978 63.329059,31.118068 63.389449,21.538468 C 63.417931,17.020898 59.915095,13.339018 55.607479,13.329748 C 51.299863,13.320948 47.737789,16.986998 47.725097,21.513368 C 47.712405,16.986998 44.175433,13.320948 39.867813,13.329748 z " id="path2170"/><path id="path2225" d="M 14.0061,29.437331 C 12.71087,29.440118 11.65762,30.547203 11.66618,31.905566 C 11.68434,34.786005 15.30218,36.86912 16.36867,39.144217 C 17.43516,36.86912 21.06054,34.786005 21.0787,31.905566 C 21.08726,30.547203 20.03401,29.440118 18.73878,29.437331 C 17.44354,29.434685 16.37248,30.537009 16.36867,31.898019 C 16.36485,30.537009 15.30134,29.434685 14.0061,29.437331 z " style="fill:#e61408;fill-rule:nonzero;stroke:none;stroke-miterlimit:4"/><use x="0" y="0" xlink:href="#path2225" id="use2231" transform="matrix(1,0,0,-1,134.34155,242.36206)" width="167.08643" height="242.66748"/><use x="0" y="0" xlink:href="#path2170" id="use2198" transform="translate(70.670407,9.5219406e-8)" width="167.08643" height="242.66748"/><use x="0" y="0" xlink:href="#use2198" id="use2200" transform="translate(-34.864837,45.931345)" width="167.08643" height="242.66748"/><use x="0" y="0" xlink:href="#use2200" id="use2202" transform="translate(-35.805572,45.931345)" width="167.08643" height="242.66748"/><use x="0" y="0" xlink:href="#use2202" id="use2204" transform="translate(70.670407,0)" width="167.08643" height="242.66748"/><use x="0" y="0" xlink:href="#path2170" id="use2206" transform="matrix(1,0,0,-1,-1.2165323e-8,242.64527)" width="167.08643" height="242.66748"/><use x="0" y="0" xlink:href="#path2170" id="use2208" transform="matrix(1,0,0,-1,70.670404,242.64527)" width="167.08643" height="242.66748"/></svg>