<?xml version="1.0" encoding="UTF-8" standalone="no"?>
<!-- Generator: Adobe Illustrator 9.0, SVG Export Plug-In  -->
<!-- This set of SVG files is a complete cards game with figures, numbers	-->
<!--    and backs of cards completely designed in SVG.				-->
<!--    									-->
<!--    Copyright (C) 2004 David Bellot						-->
<!--										-->
<!--    This library is free software; you can redistribute it and/or		-->
<!--    modify it under the terms of the GNU Lesser General Public		-->
<!--    License as published by the Free Software Foundation; either		-->
<!--    version 2 of the License, or (at your option) any later version		-->
<!--										-->
<!--    This library is distributed in the hope that it will be useful,		-->
<!--    but WITHOUT ANY WARRANTY; without even the implied warranty of		-->
<!--    MERCHANTABILITY or FITNESS FOR A PARTICULAR PURPOSE.  See the GNU	-->
<!--    Lesser General Public License for more details.				-->
<!--										-->
<!--    You should have received a copy of the GNU Lesser General Public	-->
<!--    License along with this library; if not, write to the Free Software	-->
<!--    Foundation, Inc., 59 Temple Place, Suite 330, Boston, MA 02111-1307  USA-->
<!--										-->
<!--    Contact the author David Bellot at bellot@stat.berkeley.edu or 		-->
<!--    david.bellot@free.fr or yimyom@users.sourceforge.net			-->
<svg xmlns:dc="http://purl.org/dc/elements/1.1/" xmlns:cc="http://web.resource.org/cc/" xmlns:rdf="http://www.w3.org/1999/02/22-rdf-syntax-ns#" xmlns:svg="http://www.w3.org/2000/svg" xmlns="http://www.w3.org/2000/svg" xmlns:xlink="http://www.w3.org/1999/xlink" xmlns:sodipodi="http://sodipodi.sourceforge.net/DTD/sodipodi-0.dtd" xmlns:inkscape="http://www.inkscape.org/namespaces/inkscape" width="208" height="303" viewBox="0 0 167.08643 242.66748" xml:space="preserve" id="svg2" sodipodi:version="0.32" inkscape:version="0.45.1" sodipodi:docname="07_of_diamonds.svg" inkscape:output_extension="org.inkscape.output.svg.inkscape" sodipodi:docbase="C:\Documents and Settings\Flanker\Desktop\Temporanei\SVG\Carte" version="1.0"><metadata id="metadata90"><rdf:RDF><cc:Work rdf:about=""><dc:format>image/svg+xml</dc:format><dc:type rdf:resource="http://purl.org/dc/dcmitype/StillImage"/></cc:Work></rdf:RDF></metadata><defs id="defs88"/><sodipodi:namedview inkscape:window-height="1003" inkscape:window-width="1284" inkscape:pageshadow="2" inkscape:pageopacity="0.0" guidetolerance="10.0" gridtolerance="10.0" objecttolerance="10.0" borderopacity="1.0" bordercolor="#666666" pagecolor="#ffffff" id="base" inkscape:zoom="1.7576595" inkscape:cx="261.44087" inkscape:cy="109.92358" inkscape:window-x="446" inkscape:window-y="16" inkscape:current-layer="svg2" inkscape:showpageshadow="false" width="208px" height="303px"/>
	<path id="path5" d="M 166.83643,235.89281 C 166.83643,239.68452 163.75049,242.78371 159.96632,242.78371 L 7.1113279,242.78371 C 3.3359375,242.78371 0.25,239.68452 0.25,235.89281 L 0.25,6.7746664 C 0.25,2.9883464 3.3359375,-0.11623011 7.1113279,-0.11623011 L 159.96632,-0.11623011 C 163.75049,-0.11623011 166.83643,2.9883464 166.83643,6.7746664 L 166.83643,235.89281 L 166.83643,235.89281 z " style="fill:#ffffff;fill-rule:nonzero;stroke:#000000;stroke-width:0.5;stroke-miterlimit:4"/><g style="fill-rule:nonzero;stroke:#000000;stroke-miterlimit:4;fill:#e61408;fill-opacity:1" id="g4248" transform="translate(1.4666779,3.808595e-2)">
			<path style="stroke:none;fill:#e61408;fill-opacity:1" d="M 17.858887,10.869629 L 14.538086,25.833008 L 13.439453,25.833008 L 16.675293,11.208008 L 12.702637,11.208008 L 12.702637,13.645508 L 11.952637,13.645508 L 11.952637,7.8017578 L 17.858887,7.8017578 L 17.858887,10.869629 L 17.858887,10.869629 z " id="path4250"/>
		</g><g style="fill-rule:nonzero;stroke:#000000;stroke-miterlimit:4;fill:#e61408;fill-opacity:1" id="g4252" transform="translate(-0.8709749,0.3828162)">
			<path style="stroke:none;fill:#e61408;fill-opacity:1" d="M 148.63184,231.37744 L 151.95215,216.41357 L 153.05176,216.41357 L 149.81543,231.03857 L 153.78809,231.03857 L 153.78809,228.60107 L 154.53809,228.60107 L 154.53809,234.44482 L 148.63184,234.44482 L 148.63184,231.37744 L 148.63184,231.37744 z " id="path4254"/>
		</g>
<path style="fill:#e61408;fill-opacity:1;stroke:none;stroke-width:1.49999988;stroke-linecap:round;stroke-linejoin:round;stroke-miterlimit:4;stroke-dasharray:none;stroke-opacity:1" d="M 47.737645,13.605875 C 47.71153,14.501685 47.179898,17.861185 41.386554,23.421195 C 35.81089,28.772315 33.20723,29.414705 32.42474,29.471055 C 33.20723,29.527395 35.81089,30.169805 41.386554,35.520905 C 47.179898,41.080915 47.71153,44.440405 47.737645,45.336225 C 47.763767,44.440415 48.295394,41.080925 54.088736,35.520905 C 59.664408,30.169795 62.268059,29.527385 63.050553,29.471055 C 62.268059,29.414715 59.664409,28.772305 54.088736,23.421195 C 48.295394,17.861195 47.763767,14.501695 47.737645,13.605875 z " id="path2243"/><path id="path3230" d="M 16.37244,29.520358 C 16.36459,29.789714 16.20473,30.799863 14.46276,32.471673 C 12.78625,34.080673 12.00337,34.273828 11.76808,34.290773 C 12.00337,34.307714 12.78625,34.500876 14.46276,36.10987 C 16.20473,37.781679 16.36459,38.791826 16.37244,39.061185 C 16.38029,38.791829 16.54015,37.781682 18.28212,36.10987 C 19.95863,34.500873 20.74151,34.307711 20.9768,34.290773 C 20.74151,34.273832 19.95863,34.08067 18.28212,32.471673 C 16.54015,30.799866 16.38029,29.789717 16.37244,29.520358 z " style="fill:#e61408;fill-opacity:1;stroke:none;stroke-width:1.49999988;stroke-linecap:round;stroke-linejoin:round;stroke-miterlimit:4;stroke-dasharray:none;stroke-opacity:1"/><use x="0" y="0" xlink:href="#path3230" id="use3238" transform="translate(134.34155,173.78052)" width="167.08643" height="242.66748"/><use x="0" y="0" xlink:href="#path2243" id="use2198" transform="translate(70.6704,0)" width="167.08643" height="242.66748"/><use x="0" y="0" xlink:href="#use2198" id="use2200" transform="translate(-34.864834,45.931345)" width="167.08643" height="242.66748"/><use x="0" y="0" xlink:href="#use2200" id="use2202" transform="translate(-35.805569,45.931345)" width="167.08643" height="242.66748"/><use x="0" y="0" xlink:href="#use2202" id="use2204" transform="translate(70.6704,0)" width="167.08643" height="242.66748"/><use x="0" y="0" xlink:href="#use2204" id="use2206" transform="translate(-70.670404,91.84048)" width="167.08643" height="242.66748"/><use x="0" y="0" xlink:href="#use2206" id="use2208" transform="translate(70.6704,0)" width="167.08643" height="242.66748"/></svg>