<?xml version="1.0" encoding="UTF-8" standalone="no"?>
<!-- Generator: Adobe Illustrator 9.0, SVG Export Plug-In  -->
<!-- This set of SVG files is a complete cards game with figures, numbers	-->
<!--    and backs of cards completely designed in SVG.				-->
<!--    									-->
<!--    Copyright (C) 2004 David Bellot						-->
<!--										-->
<!--    This library is free software; you can redistribute it and/or		-->
<!--    modify it under the terms of the GNU Lesser General Public		-->
<!--    License as published by the Free Software Foundation; either		-->
<!--    version 2 of the License, or (at your option) any later version		-->
<!--										-->
<!--    This library is distributed in the hope that it will be useful,		-->
<!--    but WITHOUT ANY WARRANTY; without even the implied warranty of		-->
<!--    MERCHANTABILITY or FITNESS FOR A PARTICULAR PURPOSE.  See the GNU	-->
<!--    Lesser General Public License for more details.				-->
<!--										-->
<!--    You should have received a copy of the GNU Lesser General Public	-->
<!--    License along with this library; if not, write to the Free Software	-->
<!--    Foundation, Inc., 59 Temple Place, Suite 330, Boston, MA 02111-1307  USA-->
<!--										-->
<!--    Contact the author David Bellot at bellot@stat.berkeley.edu or 		-->
<!--    david.bellot@free.fr or yimyom@users.sourceforge.net			-->
<svg xmlns:dc="http://purl.org/dc/elements/1.1/" xmlns:cc="http://web.resource.org/cc/" xmlns:rdf="http://www.w3.org/1999/02/22-rdf-syntax-ns#" xmlns:svg="http://www.w3.org/2000/svg" xmlns="http://www.w3.org/2000/svg" xmlns:xlink="http://www.w3.org/1999/xlink" xmlns:sodipodi="http://sodipodi.sourceforge.net/DTD/sodipodi-0.dtd" xmlns:inkscape="http://www.inkscape.org/namespaces/inkscape" width="208" height="303" viewBox="0 0 167.08643 242.66748" xml:space="preserve" id="svg2" sodipodi:version="0.32" inkscape:version="0.45.1" sodipodi:docname="08_of_diamonds.svg" inkscape:output_extension="org.inkscape.output.svg.inkscape" sodipodi:docbase="C:\Documents and Settings\Flanker\Desktop\Temporanei\SVG\Carte" version="1.0"><metadata id="metadata90"><rdf:RDF><cc:Work rdf:about=""><dc:format>image/svg+xml</dc:format><dc:type rdf:resource="http://purl.org/dc/dcmitype/StillImage"/></cc:Work></rdf:RDF></metadata><defs id="defs88"/><sodipodi:namedview inkscape:window-height="1003" inkscape:window-width="1280" inkscape:pageshadow="2" inkscape:pageopacity="0.0" guidetolerance="10.0" gridtolerance="10.0" objecttolerance="10.0" borderopacity="1.0" bordercolor="#666666" pagecolor="#ffffff" id="base" inkscape:zoom="1.8832844" inkscape:cx="178.80481" inkscape:cy="113.31921" inkscape:window-x="412" inkscape:window-y="6" inkscape:current-layer="svg2" inkscape:showpageshadow="false" width="208px" height="303px"/>
	<path id="path5" d="M 166.83643,235.89281 C 166.83643,239.68452 163.75049,242.78371 159.96632,242.78371 L 7.1113279,242.78371 C 3.3359375,242.78371 0.25,239.68452 0.25,235.89281 L 0.25,6.7746664 C 0.25,2.9883464 3.3359375,-0.11623011 7.1113279,-0.11623011 L 159.96632,-0.11623011 C 163.75049,-0.11623011 166.83643,2.9883464 166.83643,6.7746664 L 166.83643,235.89281 L 166.83643,235.89281 z " style="fill:#ffffff;fill-rule:nonzero;stroke:#000000;stroke-width:0.5;stroke-miterlimit:4"/><g style="fill-rule:nonzero;stroke:#000000;stroke-miterlimit:4;fill:#e61408;fill-opacity:1" id="g4741" transform="translate(1.5037879,3.808595e-2)">
			<path style="stroke:none;fill:#e61408;fill-opacity:1" d="M 16.158203,16.205566 C 16.804688,16.439941 17.29541,16.968262 17.630859,17.791016 C 17.966309,18.613769 18.134277,19.690918 18.134277,21.021973 C 18.134277,22.684082 17.854004,23.958496 17.293457,24.845703 C 16.73291,25.733398 15.924805,26.176758 14.868652,26.176758 C 13.812012,26.176758 13.003906,25.733398 12.443359,24.845703 C 11.882813,23.958496 11.603027,22.684082 11.603027,21.021973 C 11.603027,19.690918 11.769043,18.613769 12.101563,17.791016 C 12.434082,16.968262 12.916992,16.439941 13.549805,16.205566 C 12.994629,15.916016 12.578125,15.431152 12.300781,14.751465 C 12.022949,14.071777 11.884278,13.209473 11.884278,12.163574 C 11.884278,10.635254 12.138672,9.4692383 12.648438,8.6645508 C 13.157715,7.8603516 13.897949,7.4580078 14.868653,7.4580078 C 15.831055,7.4580078 16.568848,7.8603516 17.08252,8.6645508 C 17.596192,9.4692383 17.853028,10.635254 17.853028,12.163574 C 17.853028,13.209473 17.712403,14.071777 17.432129,14.751465 C 17.151856,15.431152 16.727051,15.916016 16.158203,16.205566 L 16.158203,16.205566 z M 15.978027,20.818359 C 15.978027,19.339356 15.894531,18.320801 15.728516,17.763184 C 15.5625,17.205566 15.272461,16.926758 14.858887,16.926758 C 14.445313,16.926758 14.15332,17.205566 13.983398,17.763184 C 13.812988,18.320801 13.728027,19.339355 13.728027,20.818359 C 13.728027,22.313477 13.812988,23.346191 13.983398,23.916016 C 14.15332,24.48584 14.445313,24.770508 14.858887,24.770508 C 15.26416,24.770508 15.552246,24.48584 15.722656,23.916016 C 15.892578,23.346192 15.978027,22.313477 15.978027,20.818359 z M 15.759277,12.210449 C 15.759277,10.937988 15.691895,10.0625 15.557129,9.5830078 C 15.422363,9.1040039 15.192871,8.8642578 14.868652,8.8642578 C 14.536133,8.8642578 14.304688,9.1040039 14.173828,9.5830078 C 14.042969,10.0625 13.978027,10.937988 13.978027,12.210449 C 13.978027,13.475098 14.042969,14.342773 14.173828,14.813965 C 14.304688,15.285156 14.536133,15.520508 14.868652,15.520508 C 15.192871,15.520508 15.422363,15.285156 15.557129,14.813965 C 15.691895,14.342773 15.759277,13.475098 15.759277,12.210449 z " id="path4743"/>
		</g><g style="fill-rule:nonzero;stroke:#000000;stroke-miterlimit:4;fill:#e61408;fill-opacity:1" id="g4745" transform="translate(-0.8338649,0.3828162)">
			<path style="stroke:none;fill:#e61408;fill-opacity:1" d="M 150.25879,226.0415 C 149.6123,225.80713 149.12109,225.27881 148.78613,224.45654 C 148.4502,223.6333 148.28223,222.55615 148.28223,221.2251 C 148.28223,219.56299 148.5625,218.28857 149.12305,217.40186 C 149.68359,216.51318 150.49121,216.06982 151.54785,216.06982 C 152.60449,216.06982 153.41309,216.51318 153.97363,217.40186 C 154.53418,218.28857 154.81348,219.56299 154.81348,221.2251 C 154.81348,222.55615 154.64746,223.6333 154.31543,224.45654 C 153.98242,225.27881 153.49902,225.80713 152.86621,226.0415 C 153.42188,226.33154 153.83887,226.81592 154.11621,227.49561 C 154.39355,228.17529 154.53223,229.0376 154.53223,230.0835 C 154.53223,231.61182 154.27832,232.77783 153.76855,233.58252 C 153.25879,234.38623 152.51855,234.78857 151.54785,234.78857 C 150.58496,234.78857 149.84766,234.38623 149.33398,233.58252 C 148.82031,232.77783 148.56348,231.61182 148.56348,230.0835 C 148.56348,229.0376 148.7041,228.17529 148.98437,227.49561 C 149.26465,226.81592 149.68945,226.33154 150.25879,226.0415 L 150.25879,226.0415 z M 150.43848,221.4292 C 150.43848,222.90771 150.52246,223.92627 150.68848,224.48389 C 150.85449,225.0415 151.14355,225.31982 151.55762,225.31982 C 151.97168,225.31982 152.2627,225.0415 152.43262,224.48389 C 152.60352,223.92627 152.68848,222.90771 152.68848,221.4292 C 152.68848,219.93311 152.60352,218.90088 152.43262,218.33154 C 152.2627,217.76123 151.97168,217.47607 151.55762,217.47607 C 151.15234,217.47607 150.86426,217.76123 150.69434,218.33154 C 150.52441,218.90088 150.43848,219.93311 150.43848,221.4292 L 150.43848,221.4292 z M 150.65723,230.03662 C 150.65723,231.30908 150.72461,232.18506 150.85938,232.66357 C 150.99414,233.14307 151.22363,233.38232 151.54785,233.38232 C 151.87988,233.38232 152.1123,233.14307 152.24316,232.66357 C 152.37402,232.18506 152.43848,231.30908 152.43848,230.03662 C 152.43848,228.77197 152.37402,227.90381 152.24316,227.43311 C 152.1123,226.9624 151.87988,226.72607 151.54785,226.72607 C 151.22363,226.72607 150.99414,226.9624 150.85938,227.43311 C 150.72461,227.90381 150.65723,228.77197 150.65723,230.03662 z " id="path4747"/>
		</g>
<path style="fill:#e61408;fill-opacity:1;stroke:none;stroke-width:1.49999988;stroke-linecap:round;stroke-linejoin:round;stroke-miterlimit:4;stroke-dasharray:none;stroke-opacity:1" d="M 47.737645,13.605875 C 47.71153,14.501685 47.179898,17.861185 41.386554,23.421195 C 35.81089,28.772315 33.20723,29.414705 32.42474,29.471055 C 33.20723,29.527395 35.81089,30.169805 41.386554,35.520905 C 47.179898,41.080915 47.71153,44.440405 47.737645,45.336225 C 47.763767,44.440415 48.295394,41.080925 54.088736,35.520905 C 59.664408,30.169795 62.268059,29.527385 63.050553,29.471055 C 62.268059,29.414715 59.664409,28.772305 54.088736,23.421195 C 48.295394,17.861195 47.763767,14.501695 47.737645,13.605875 z " id="path2243"/><path id="path3230" d="M 16.372445,29.520358 C 16.364595,29.789714 16.204735,30.799864 14.462765,32.471673 C 12.786255,34.080673 12.003375,34.273829 11.768085,34.290773 C 12.003375,34.307714 12.786255,34.500876 14.462765,36.10987 C 16.204735,37.781679 16.364595,38.791826 16.372445,39.061185 C 16.380295,38.791829 16.540155,37.781682 18.282115,36.10987 C 19.958635,34.500873 20.741515,34.307711 20.976795,34.290773 C 20.741515,34.273832 19.958635,34.08067 18.282115,32.471673 C 16.540155,30.799867 16.380295,29.789717 16.372445,29.520358 z " style="fill:#e61408;fill-opacity:1;stroke:none;stroke-width:1.49999988;stroke-linecap:round;stroke-linejoin:round;stroke-miterlimit:4;stroke-dasharray:none;stroke-opacity:1"/><use x="0" y="0" xlink:href="#path3230" id="use3238" transform="translate(134.34155,173.78052)" width="167.08643" height="242.66748"/><use x="0" y="0" xlink:href="#path2243" id="use2199" transform="translate(70.6704,0)" width="167.08643" height="242.66748"/><use x="0" y="0" xlink:href="#use2199" id="use2201" transform="translate(-34.864834,45.931345)" width="167.08643" height="242.66748"/><use x="0" y="0" xlink:href="#use2201" id="use2203" transform="translate(-35.805569,45.931345)" width="167.08643" height="242.66748"/><use x="0" y="0" xlink:href="#use2203" id="use2205" transform="translate(70.6704,0)" width="167.08643" height="242.66748"/><use x="0" y="0" xlink:href="#use2205" id="use2207" transform="translate(-34.864834,45.92024)" width="167.08643" height="242.66748"/><use x="0" y="0" xlink:href="#use2207" id="use2209" transform="translate(-35.805569,45.92024)" width="167.08643" height="242.66748"/><use x="0" y="0" xlink:href="#use2209" id="use2211" transform="translate(70.6704,0)" width="167.08643" height="242.66748"/></svg>