<?xml version="1.0" encoding="UTF-8" standalone="no"?>
<!-- Generator: Adobe Illustrator 9.0, SVG Export Plug-In  -->
<!-- This set of SVG files is a complete cards game with figures, numbers	-->
<!--    and backs of cards completely designed in SVG.				-->
<!--    									-->
<!--    Copyright (C) 2004 David Bellot						-->
<!--										-->
<!--    This library is free software; you can redistribute it and/or		-->
<!--    modify it under the terms of the GNU Lesser General Public		-->
<!--    License as published by the Free Software Foundation; either		-->
<!--    version 2 of the License, or (at your option) any later version		-->
<!--										-->
<!--    This library is distributed in the hope that it will be useful,		-->
<!--    but WITHOUT ANY WARRANTY; without even the implied warranty of		-->
<!--    MERCHANTABILITY or FITNESS FOR A PARTICULAR PURPOSE.  See the GNU	-->
<!--    Lesser General Public License for more details.				-->
<!--										-->
<!--    You should have received a copy of the GNU Lesser General Public	-->
<!--    License along with this library; if not, write to the Free Software	-->
<!--    Foundation, Inc., 59 Temple Place, Suite 330, Boston, MA 02111-1307  USA-->
<!--										-->
<!--    Contact the author David Bellot at bellot@stat.berkeley.edu or 		-->
<!--    david.bellot@free.fr or yimyom@users.sourceforge.net			-->
<svg xmlns:dc="http://purl.org/dc/elements/1.1/" xmlns:cc="http://web.resource.org/cc/" xmlns:rdf="http://www.w3.org/1999/02/22-rdf-syntax-ns#" xmlns:svg="http://www.w3.org/2000/svg" xmlns="http://www.w3.org/2000/svg" xmlns:xlink="http://www.w3.org/1999/xlink" xmlns:sodipodi="http://sodipodi.sourceforge.net/DTD/sodipodi-0.dtd" xmlns:inkscape="http://www.inkscape.org/namespaces/inkscape" width="208" height="303" viewBox="0 0 167.08643 242.66748" xml:space="preserve" id="svg2" sodipodi:version="0.32" inkscape:version="0.45.1" sodipodi:docname="08_of_clubs.svg" inkscape:output_extension="org.inkscape.output.svg.inkscape" sodipodi:docbase="C:\Documents and Settings\Flanker\Desktop" version="1.0"><metadata id="metadata90"><rdf:RDF><cc:Work rdf:about=""><dc:format>image/svg+xml</dc:format><dc:type rdf:resource="http://purl.org/dc/dcmitype/StillImage"/></cc:Work></rdf:RDF></metadata><defs id="defs88"/><sodipodi:namedview inkscape:window-height="1003" inkscape:window-width="1280" inkscape:pageshadow="2" inkscape:pageopacity="0.0" guidetolerance="10.0" gridtolerance="10.0" objecttolerance="10.0" borderopacity="1.0" bordercolor="#666666" pagecolor="#ffffff" id="base" inkscape:zoom="1.7576595" inkscape:cx="157.33696" inkscape:cy="129.79586" inkscape:window-x="-4" inkscape:window-y="-4" inkscape:current-layer="svg2" inkscape:showpageshadow="false" width="208px" height="303px"/>
	<path id="path5" d="M 166.83643,235.89281 C 166.83643,239.68452 163.75049,242.78371 159.96632,242.78371 L 7.1113279,242.78371 C 3.3359375,242.78371 0.25,239.68452 0.25,235.89281 L 0.25,6.7746664 C 0.25,2.9883464 3.3359375,-0.11623011 7.1113279,-0.11623011 L 159.96632,-0.11623011 C 163.75049,-0.11623011 166.83643,2.9883464 166.83643,6.7746664 L 166.83643,235.89281 L 166.83643,235.89281 z " style="fill:#ffffff;fill-rule:nonzero;stroke:#000000;stroke-width:0.5;stroke-miterlimit:4"/><g style="fill-rule:nonzero;stroke:#000000;stroke-miterlimit:4" id="g4741" transform="translate(1.5037879,3.808595e-2)">
			<path style="stroke:none" d="M 16.158203,16.205566 C 16.804688,16.439941 17.29541,16.968262 17.630859,17.791016 C 17.966309,18.613769 18.134277,19.690918 18.134277,21.021973 C 18.134277,22.684082 17.854004,23.958496 17.293457,24.845703 C 16.73291,25.733398 15.924805,26.176758 14.868652,26.176758 C 13.812012,26.176758 13.003906,25.733398 12.443359,24.845703 C 11.882813,23.958496 11.603027,22.684082 11.603027,21.021973 C 11.603027,19.690918 11.769043,18.613769 12.101563,17.791016 C 12.434082,16.968262 12.916992,16.439941 13.549805,16.205566 C 12.994629,15.916016 12.578125,15.431152 12.300781,14.751465 C 12.022949,14.071777 11.884278,13.209473 11.884278,12.163574 C 11.884278,10.635254 12.138672,9.4692383 12.648438,8.6645508 C 13.157715,7.8603516 13.897949,7.4580078 14.868653,7.4580078 C 15.831055,7.4580078 16.568848,7.8603516 17.08252,8.6645508 C 17.596192,9.4692383 17.853028,10.635254 17.853028,12.163574 C 17.853028,13.209473 17.712403,14.071777 17.432129,14.751465 C 17.151856,15.431152 16.727051,15.916016 16.158203,16.205566 L 16.158203,16.205566 z M 15.978027,20.818359 C 15.978027,19.339356 15.894531,18.320801 15.728516,17.763184 C 15.5625,17.205566 15.272461,16.926758 14.858887,16.926758 C 14.445313,16.926758 14.15332,17.205566 13.983398,17.763184 C 13.812988,18.320801 13.728027,19.339355 13.728027,20.818359 C 13.728027,22.313477 13.812988,23.346191 13.983398,23.916016 C 14.15332,24.48584 14.445313,24.770508 14.858887,24.770508 C 15.26416,24.770508 15.552246,24.48584 15.722656,23.916016 C 15.892578,23.346192 15.978027,22.313477 15.978027,20.818359 z M 15.759277,12.210449 C 15.759277,10.937988 15.691895,10.0625 15.557129,9.5830078 C 15.422363,9.1040039 15.192871,8.8642578 14.868652,8.8642578 C 14.536133,8.8642578 14.304688,9.1040039 14.173828,9.5830078 C 14.042969,10.0625 13.978027,10.937988 13.978027,12.210449 C 13.978027,13.475098 14.042969,14.342773 14.173828,14.813965 C 14.304688,15.285156 14.536133,15.520508 14.868652,15.520508 C 15.192871,15.520508 15.422363,15.285156 15.557129,14.813965 C 15.691895,14.342773 15.759277,13.475098 15.759277,12.210449 z " id="path4743"/>
		</g><g style="fill-rule:nonzero;stroke:#000000;stroke-miterlimit:4" id="g4745" transform="translate(-0.8338649,0.3828162)">
			<path style="stroke:none" d="M 150.25879,226.0415 C 149.6123,225.80713 149.12109,225.27881 148.78613,224.45654 C 148.4502,223.6333 148.28223,222.55615 148.28223,221.2251 C 148.28223,219.56299 148.5625,218.28857 149.12305,217.40186 C 149.68359,216.51318 150.49121,216.06982 151.54785,216.06982 C 152.60449,216.06982 153.41309,216.51318 153.97363,217.40186 C 154.53418,218.28857 154.81348,219.56299 154.81348,221.2251 C 154.81348,222.55615 154.64746,223.6333 154.31543,224.45654 C 153.98242,225.27881 153.49902,225.80713 152.86621,226.0415 C 153.42188,226.33154 153.83887,226.81592 154.11621,227.49561 C 154.39355,228.17529 154.53223,229.0376 154.53223,230.0835 C 154.53223,231.61182 154.27832,232.77783 153.76855,233.58252 C 153.25879,234.38623 152.51855,234.78857 151.54785,234.78857 C 150.58496,234.78857 149.84766,234.38623 149.33398,233.58252 C 148.82031,232.77783 148.56348,231.61182 148.56348,230.0835 C 148.56348,229.0376 148.7041,228.17529 148.98437,227.49561 C 149.26465,226.81592 149.68945,226.33154 150.25879,226.0415 L 150.25879,226.0415 z M 150.43848,221.4292 C 150.43848,222.90771 150.52246,223.92627 150.68848,224.48389 C 150.85449,225.0415 151.14355,225.31982 151.55762,225.31982 C 151.97168,225.31982 152.2627,225.0415 152.43262,224.48389 C 152.60352,223.92627 152.68848,222.90771 152.68848,221.4292 C 152.68848,219.93311 152.60352,218.90088 152.43262,218.33154 C 152.2627,217.76123 151.97168,217.47607 151.55762,217.47607 C 151.15234,217.47607 150.86426,217.76123 150.69434,218.33154 C 150.52441,218.90088 150.43848,219.93311 150.43848,221.4292 L 150.43848,221.4292 z M 150.65723,230.03662 C 150.65723,231.30908 150.72461,232.18506 150.85938,232.66357 C 150.99414,233.14307 151.22363,233.38232 151.54785,233.38232 C 151.87988,233.38232 152.1123,233.14307 152.24316,232.66357 C 152.37402,232.18506 152.43848,231.30908 152.43848,230.03662 C 152.43848,228.77197 152.37402,227.90381 152.24316,227.43311 C 152.1123,226.9624 151.87988,226.72607 151.54785,226.72607 C 151.22363,226.72607 150.99414,226.9624 150.85938,227.43311 C 150.72461,227.90381 150.65723,228.77197 150.65723,230.03662 z " id="path4747"/>
		</g><path style="fill:#000000;fill-opacity:1;stroke:none;stroke-width:1.5;stroke-linecap:round;stroke-linejoin:round;stroke-miterlimit:4;stroke-opacity:1" d="M 150.73654,213.0401 C 151.87847,213.0401 152.80375,212.11482 152.80375,210.97289 C 152.80375,210.3835 152.55321,209.8539 152.15728,209.47699 C 151.85132,209.18573 151.41544,208.52555 151.27026,207.99612 C 151.55345,208.16678 151.80854,208.36129 151.96183,208.52232 C 152.33875,208.91825 152.86835,209.16127 153.45774,209.16127 C 154.59967,209.16127 155.52494,208.23599 155.52494,207.09406 C 155.52494,205.95214 154.59966,205.02686 153.45774,205.02686 C 152.86835,205.02686 152.33875,205.27739 151.96183,205.67333 C 151.8002,205.84312 151.52696,206.05796 151.22515,206.23711 C 151.26749,204.34125 151.91814,203.10248 153.10443,203.10248 C 153.10443,203.10248 148.36113,203.10248 148.36113,203.10248 C 149.55058,203.10248 150.20877,204.34774 150.24793,206.25215 C 149.92976,206.06953 149.634,205.84966 149.46615,205.67333 C 149.08924,205.27739 148.55963,205.02686 147.97024,205.02686 C 146.82833,205.02686 145.90304,205.95214 145.90304,207.09406 C 145.90304,208.23599 146.82833,209.16127 147.97024,209.16127 C 148.55962,209.16127 149.08924,208.91825 149.46615,208.52232 C 149.62576,208.35465 149.90297,208.15581 150.20283,207.98108 C 150.06219,208.51312 149.6173,209.18282 149.30829,209.47699 C 148.91236,209.8539 148.66933,210.38351 148.66933,210.97289 C 148.66933,212.11482 149.59461,213.0401 150.73654,213.0401 z " id="use2374" sodipodi:nodetypes="csscsssssccccssssscssc"/><path style="fill:#000000;fill-opacity:1;stroke:none;stroke-width:1.5;stroke-linecap:round;stroke-linejoin:round;stroke-miterlimit:4;stroke-opacity:1" d="M 16.349889,29.321959 C 15.207961,29.321959 14.282681,30.247238 14.282682,31.389166 C 14.282682,31.978555 14.53322,32.508157 14.929154,32.885071 C 15.235114,33.176333 15.670993,33.836507 15.816173,34.365943 C 15.532982,34.195277 15.277893,34.000774 15.124599,33.839745 C 14.747684,33.44381 14.218081,33.20079 13.628693,33.20079 C 12.486765,33.20079 11.561486,34.126069 11.561486,35.267997 C 11.561486,36.409925 12.486765,37.335203 13.628693,37.335203 C 14.218083,37.335203 14.747685,37.084667 15.124599,36.688732 C 15.286233,36.518938 15.559471,36.304096 15.861276,36.124948 C 15.818942,38.020809 15.168287,39.259585 13.981997,39.259585 C 13.981997,39.259585 18.725297,39.259585 18.725297,39.259585 C 17.535846,39.259585 16.87766,38.014321 16.838501,36.109914 C 17.156674,36.292535 17.452427,36.512404 17.620281,36.688732 C 17.99719,37.084667 18.526804,37.335203 19.116187,37.335203 C 20.258103,37.335203 21.183394,36.409925 21.183394,35.267997 C 21.183394,34.126069 20.258103,33.20079 19.116187,33.20079 C 18.526807,33.20079 17.99719,33.44381 17.620281,33.839745 C 17.46067,34.00741 17.183459,34.206246 16.883604,34.380977 C 17.024245,33.848937 17.469128,33.179243 17.77814,32.885071 C 18.174075,32.508157 18.417095,31.978552 18.417095,31.389166 C 18.417095,30.247238 17.491817,29.321959 16.349889,29.321959 z " id="use2370" sodipodi:nodetypes="csscsssssccccssssscssc"/>
<use x="0" y="0" xlink:href="#path2242" id="use2597" transform="matrix(1,0,0,-1,0,242.64527)" width="167.08643" height="242.66748"/><path sodipodi:nodetypes="csscsssssccccssssscssc" id="path2841" d="M 118.33305,12.946052 C 114.53529,12.946052 111.45805,16.023292 111.45805,19.821052 C 111.45805,21.781212 112.29128,23.542528 113.60805,24.796048 C 114.6256,25.764708 116.07522,27.960278 116.55805,29.721048 C 115.61623,29.153458 114.76787,28.506588 114.25805,27.971048 C 113.00453,26.654268 111.2432,25.846048 109.28305,25.846048 C 105.48529,25.846048 102.40805,28.923288 102.40805,32.721048 C 102.40805,36.518808 105.48529,39.596048 109.28305,39.596048 C 111.24321,39.596048 113.00453,38.762828 114.25805,37.446048 C 114.7956,36.881358 115.70432,36.166848 116.70805,35.571048 C 116.56726,41.876198 114.40335,45.996048 110.45805,45.996048 C 110.45805,45.996048 126.23305,45.996048 126.23305,45.996048 C 122.27724,45.996048 120.08828,41.854618 119.95805,35.521048 C 121.01621,36.128398 121.99981,36.859628 122.55805,37.446048 C 123.81156,38.762828 125.57292,39.596048 127.53305,39.596048 C 131.33077,39.596048 134.40805,36.518808 134.40805,32.721048 C 134.40805,28.923288 131.33077,25.846048 127.53305,25.846048 C 125.57292,25.846048 123.81156,26.654268 122.55805,27.971048 C 122.02723,28.528658 121.10529,29.189938 120.10805,29.771048 C 120.57579,28.001618 122.05536,25.774388 123.08305,24.796048 C 124.39983,23.542528 125.20805,21.781202 125.20805,19.821052 C 125.20805,16.023292 122.13081,12.946052 118.33305,12.946052 z " style="fill:#000000;fill-opacity:1;stroke:none;stroke-width:1.5;stroke-linecap:round;stroke-linejoin:round;stroke-miterlimit:4;stroke-opacity:1"/><path style="fill:#000000;fill-opacity:1;stroke:none;stroke-width:1.5;stroke-linecap:round;stroke-linejoin:round;stroke-miterlimit:4;stroke-opacity:1" d="M 47.662646,12.94605 C 43.864886,12.94605 40.787645,16.02329 40.787647,19.82105 C 40.787647,21.78121 41.620871,23.54253 42.937646,24.79605 C 43.95519,25.76471 45.404814,27.96028 45.887646,29.72105 C 44.945822,29.15346 44.097462,28.50659 43.587646,27.97105 C 42.334125,26.65427 40.572798,25.84605 38.612646,25.84605 C 34.814885,25.84605 31.737646,28.92329 31.737646,32.72105 C 31.737646,36.51881 34.814887,39.59605 38.612646,39.59605 C 40.572806,39.59605 42.334126,38.76283 43.587646,37.44605 C 44.125198,36.88136 45.033918,36.16685 46.037646,35.57105 C 45.896854,41.8762 43.732942,45.99605 39.787647,45.99605 C 39.787647,45.99605 55.562646,45.99605 55.562646,45.99605 C 51.606838,45.99605 49.417878,41.85462 49.287646,35.52105 C 50.345806,36.1284 51.329406,36.85963 51.887646,37.44605 C 53.14115,38.76283 54.90251,39.59605 56.862646,39.59605 C 60.660366,39.59605 63.737646,36.51881 63.737646,32.72105 C 63.737646,28.92329 60.660366,25.84605 56.862646,25.84605 C 54.902518,25.84605 53.14115,26.65427 51.887646,27.97105 C 51.356822,28.52866 50.434886,29.18994 49.437646,29.77105 C 49.905382,28.00162 51.38495,25.77439 52.412646,24.79605 C 53.729422,23.54253 54.537646,21.7812 54.537646,19.82105 C 54.537646,16.02329 51.460406,12.94605 47.662646,12.94605 z " id="path2242" sodipodi:nodetypes="csscsssssccccssssscssc"/><use x="0" y="0" xlink:href="#path2242" id="use3293" transform="translate(0,91.86269)" width="167.08643" height="242.66748"/><use x="0" y="0" xlink:href="#path2841" id="use3214" transform="matrix(1,0,0,-1,0,242.64527)" width="167.08643" height="242.66748"/><use height="242.66748" width="167.08643" transform="translate(70.670404,91.86269)" id="use4073" xlink:href="#path2242" y="0" x="0"/><use x="0" y="0" xlink:href="#path2242" id="use4423" transform="translate(35.805569,45.931345)" width="167.08643" height="242.66748"/><use height="242.66748" width="167.08643" transform="matrix(1,0,0,-1,35.805569,196.72503)" id="use4928" xlink:href="#path2242" y="0" x="0"/></svg>