<?xml version="1.0" encoding="UTF-8" standalone="no"?>
<!-- Generator: Adobe Illustrator 9.0, SVG Export Plug-In  -->
<!-- This set of SVG files is a complete cards game with figures, numbers	-->
<!--    and backs of cards completely designed in SVG.				-->
<!--    									-->
<!--    Copyright (C) 2004 David Bellot						-->
<!--										-->
<!--    This library is free software; you can redistribute it and/or		-->
<!--    modify it under the terms of the GNU Lesser General Public		-->
<!--    License as published by the Free Software Foundation; either		-->
<!--    version 2 of the License, or (at your option) any later version		-->
<!--										-->
<!--    This library is distributed in the hope that it will be useful,		-->
<!--    but WITHOUT ANY WARRANTY; without even the implied warranty of		-->
<!--    MERCHANTABILITY or FITNESS FOR A PARTICULAR PURPOSE.  See the GNU	-->
<!--    Lesser General Public License for more details.				-->
<!--										-->
<!--    You should have received a copy of the GNU Lesser General Public	-->
<!--    License along with this library; if not, write to the Free Software	-->
<!--    Foundation, Inc., 59 Temple Place, Suite 330, Boston, MA 02111-1307  USA-->
<!--										-->
<!--    Contact the author David Bellot at bellot@stat.berkeley.edu or 		-->
<!--    david.bellot@free.fr or yimyom@users.sourceforge.net			-->
<svg xmlns:dc="http://purl.org/dc/elements/1.1/" xmlns:cc="http://web.resource.org/cc/" xmlns:rdf="http://www.w3.org/1999/02/22-rdf-syntax-ns#" xmlns:svg="http://www.w3.org/2000/svg" xmlns="http://www.w3.org/2000/svg" xmlns:xlink="http://www.w3.org/1999/xlink" xmlns:sodipodi="http://sodipodi.sourceforge.net/DTD/sodipodi-0.dtd" xmlns:inkscape="http://www.inkscape.org/namespaces/inkscape" width="208" height="303" viewBox="0 0 167.08643 242.66748" xml:space="preserve" id="svg2" sodipodi:version="0.32" inkscape:version="0.45.1" sodipodi:docname="09_of_diamonds.svg" inkscape:output_extension="org.inkscape.output.svg.inkscape" sodipodi:docbase="C:\Documents and Settings\Flanker\Desktop\Temporanei\SVG\Carte" version="1.0"><metadata id="metadata90"><rdf:RDF><cc:Work rdf:about=""><dc:format>image/svg+xml</dc:format><dc:type rdf:resource="http://purl.org/dc/dcmitype/StillImage"/></cc:Work></rdf:RDF></metadata><defs id="defs88"/><sodipodi:namedview inkscape:window-height="1003" inkscape:window-width="1280" inkscape:pageshadow="2" inkscape:pageopacity="0.0" guidetolerance="10.0" gridtolerance="10.0" objecttolerance="10.0" borderopacity="1.0" bordercolor="#666666" pagecolor="#ffffff" id="base" inkscape:zoom="1.8832844" inkscape:cx="177.24959" inkscape:cy="146.9334" inkscape:window-x="417" inkscape:window-y="-10" inkscape:current-layer="svg2" inkscape:showpageshadow="false" width="208px" height="303px"/>
	<path id="path5" d="M 166.83643,235.89281 C 166.83643,239.68452 163.75049,242.78371 159.96632,242.78371 L 7.1113279,242.78371 C 3.3359375,242.78371 0.25,239.68452 0.25,235.89281 L 0.25,6.7746664 C 0.25,2.9883464 3.3359375,-0.11623011 7.1113279,-0.11623011 L 159.96632,-0.11623011 C 163.75049,-0.11623011 166.83643,2.9883464 166.83643,6.7746664 L 166.83643,235.89281 L 166.83643,235.89281 z " style="fill:#ffffff;fill-rule:nonzero;stroke:#000000;stroke-width:0.5;stroke-miterlimit:4"/><g style="fill-rule:nonzero;stroke:#000000;stroke-miterlimit:4;fill:#e61408;fill-opacity:1" id="g5282" transform="translate(1.5740999,3.8086e-2)">
			<path style="stroke:none;fill:#e61408;fill-opacity:1" d="M 15.970215,18.490234 C 15.728027,18.916992 15.462402,19.237305 15.172363,19.450684 C 14.882324,19.664062 14.567871,19.770508 14.22998,19.770508 C 13.416504,19.770508 12.773926,19.232422 12.302246,18.155762 C 11.830566,17.07959 11.595215,15.59375 11.595215,13.69873 C 11.595215,11.699219 11.85791,10.15918 12.382324,9.0786132 C 12.906738,7.9985351 13.657715,7.4580077 14.635254,7.4580077 C 15.740723,7.4580077 16.578613,8.2036132 17.146973,9.6938475 C 17.717285,11.18457 18.001465,13.367676 18.001465,16.243652 C 18.001465,19.522949 17.686035,21.998047 17.055176,23.669433 C 16.425293,25.341308 15.487793,26.176758 14.243652,26.176758 C 13.92041,26.176758 13.572754,26.116699 13.20166,25.99707 C 12.82959,25.876953 12.430176,25.697754 12.001465,25.458008 L 12.001465,22.270508 L 12.657715,22.270508 C 12.754394,23.091797 12.927246,23.713867 13.177246,24.136719 C 13.427246,24.55957 13.749512,24.770508 14.14502,24.770508 C 14.781738,24.770508 15.242676,24.277344 15.528809,23.291015 C 15.814941,22.304687 15.961426,20.70459 15.970215,18.490234 L 15.970215,18.490234 z M 14.76709,8.8642578 C 14.38916,8.8642578 14.120605,9.2177734 13.960449,9.9238281 C 13.800293,10.630371 13.720215,11.855469 13.720215,13.598633 C 13.720215,15.342285 13.800293,16.567383 13.960449,17.273438 C 14.120606,17.979981 14.38916,18.333008 14.76709,18.333008 C 15.14502,18.333008 15.413574,17.979981 15.57373,17.273438 C 15.733887,16.567383 15.813965,15.342285 15.813965,13.598633 C 15.813965,11.855469 15.733887,10.630371 15.57373,9.9238281 C 15.413574,9.2177734 15.14502,8.8642578 14.76709,8.8642578 z " id="path5284"/>
		</g><g style="fill-rule:nonzero;stroke:#000000;stroke-miterlimit:4;fill:#e61408;fill-opacity:1" id="g5286" transform="translate(-0.8260449,0.3828162)">
			<path style="stroke:none;fill:#e61408;fill-opacity:1" d="M 150.36816,223.75732 C 150.61035,223.32959 150.87598,223.00928 151.16699,222.79639 C 151.45605,222.5835 151.77051,222.47607 152.1084,222.47607 C 152.92285,222.47607 153.56543,223.01514 154.03613,224.09131 C 154.50879,225.16748 154.74316,226.65381 154.74316,228.54834 C 154.74316,230.54834 154.48145,232.0874 153.95605,233.16846 C 153.43262,234.24854 152.68066,234.78857 151.7041,234.78857 C 150.59863,234.78857 149.76074,234.04346 149.19043,232.55322 C 148.62207,231.06201 148.33691,228.87939 148.33691,226.00342 C 148.33691,222.72412 148.65332,220.24951 149.28223,218.57764 C 149.91309,216.90576 150.85059,216.06982 152.09473,216.06982 C 152.41895,216.06982 152.76465,216.13037 153.1377,216.24951 C 153.50879,216.37061 153.90918,216.54932 154.33691,216.78857 L 154.33691,219.97607 L 153.68066,219.97607 C 153.58496,219.15576 153.41113,218.53271 153.16113,218.11084 C 152.91113,217.68701 152.58887,217.47607 152.19434,217.47607 C 151.55762,217.47607 151.09668,217.97021 150.80957,218.95654 C 150.52441,219.94287 150.37598,221.54248 150.36816,223.75732 L 150.36816,223.75732 z M 151.57129,233.38232 C 151.9502,233.38232 152.21777,233.02881 152.37793,232.32373 C 152.53809,231.6167 152.61816,230.39209 152.61816,228.64795 C 152.61816,226.90478 152.53809,225.6792 152.37793,224.97412 C 152.21777,224.26709 151.9502,223.91357 151.57129,223.91357 C 151.19434,223.91357 150.9248,224.26709 150.76465,224.97412 C 150.60449,225.6792 150.52441,226.90479 150.52441,228.64795 C 150.52441,230.39209 150.60449,231.6167 150.76465,232.32373 C 150.9248,233.02881 151.19434,233.38232 151.57129,233.38232 z " id="path5288"/>
		</g>
<path style="fill:#e61408;fill-opacity:1;stroke:none;stroke-width:1.49999988;stroke-linecap:round;stroke-linejoin:round;stroke-miterlimit:4;stroke-dasharray:none;stroke-opacity:1" d="M 47.737644,13.605877 C 47.711529,14.501687 47.179897,17.861187 41.386553,23.421197 C 35.810889,28.772317 33.207229,29.414707 32.424739,29.471057 C 33.207229,29.527397 35.810889,30.169807 41.386553,35.520907 C 47.179897,41.080917 47.711529,44.440407 47.737644,45.336227 C 47.763766,44.440417 48.295393,41.080927 54.088735,35.520907 C 59.664407,30.169797 62.268058,29.527387 63.050552,29.471057 C 62.268058,29.414717 59.664408,28.772307 54.088735,23.421197 C 48.295393,17.861197 47.763766,14.501697 47.737644,13.605877 z " id="path2243"/><path id="path3230" d="M 16.37244,29.520358 C 16.36459,29.789714 16.20473,30.799864 14.46276,32.471673 C 12.78625,34.080673 12.00337,34.273829 11.76808,34.290773 C 12.00337,34.307714 12.78625,34.500876 14.46276,36.10987 C 16.20473,37.781679 16.36459,38.791826 16.37244,39.061185 C 16.38029,38.791829 16.54015,37.781682 18.28212,36.10987 C 19.95863,34.500873 20.74151,34.307711 20.9768,34.290773 C 20.74151,34.273832 19.95863,34.08067 18.28212,32.471673 C 16.54015,30.799867 16.38029,29.789717 16.37244,29.520358 z " style="fill:#e61408;fill-opacity:1;stroke:none;stroke-width:1.49999988;stroke-linecap:round;stroke-linejoin:round;stroke-miterlimit:4;stroke-dasharray:none;stroke-opacity:1"/><use x="0" y="0" xlink:href="#path3230" id="use3238" transform="translate(134.34155,173.78052)" width="167.08643" height="242.66748"/><use x="0" y="0" xlink:href="#path2243" id="use2200" transform="translate(70.6704,-9.9999998e-7)" width="167.08643" height="242.66748"/><use x="0" y="0" xlink:href="#use2200" id="use2202" transform="translate(-70.670404,61.234391)" width="167.08643" height="242.66748"/><use x="0" y="0" xlink:href="#use2202" id="use2204" transform="translate(70.6704,-3e-6)" width="167.08643" height="242.66748"/><use x="0" y="0" xlink:href="#use2204" id="use2206" transform="translate(-34.864834,30.628301)" width="167.08643" height="242.66748"/><use x="0" y="0" xlink:href="#use2206" id="use2208" transform="translate(-35.805569,30.60609)" width="167.08643" height="242.66748"/><use x="0" y="0" xlink:href="#use2208" id="use2210" transform="translate(69.4683,-1.9419742e-6)" width="167.08643" height="242.66748"/><use x="0" y="0" xlink:href="#use2210" id="use2212" transform="translate(-69.4683,61.23439)" width="167.08643" height="242.66748"/><use x="0" y="0" xlink:href="#use2212" id="use2214" transform="translate(70.6704,9.9999993e-7)" width="167.08643" height="242.66748"/></svg>