<?xml version="1.0" encoding="UTF-8"?>

<svg version="1.2" baseProfile="tiny" width="58.68mm" height="85.5mm" viewBox="7565 10574 5868 8550" preserveAspectRatio="xMidYMid" fill-rule="evenodd" stroke-width="28.222" stroke-linejoin="round" xmlns="http://www.w3.org/2000/svg" xmlns:xlink="http://www.w3.org/1999/xlink" xml:space="preserve">
 <g visibility="visible" id="Slide_1">
  <g>
   <path fill="rgb(255,255,255)" stroke="none" d="M 13424,18873 C 13424,19006 13316,19115 13183,19115 L 7815,19115 C 7682,19115 7574,19006 7574,18873 L 7574,10825 C 7574,10692 7682,10583 7815,10583 L 13183,10583 C 13316,10583 13424,10692 13424,10825 L 13424,18873 Z"/>
   <rect fill="none" stroke="none" x="7573" y="10582" width="5853" height="8535"/>
  </g>
  <g>
   <path fill="none" stroke="rgb(0,0,0)" id="Drawing_2_0" stroke-width="18" d="M 13424,18873 C 13424,19006 13316,19115 13183,19115 L 7815,19115 C 7682,19115 7574,19006 7574,18873 L 7574,10825 C 7574,10692 7682,10583 7815,10583 L 13183,10583 C 13316,10583 13424,10692 13424,10825 L 13424,18873 Z"/>
  </g>
  <g>
   <line fill="rgb(128,0,0)" stroke="rgb(128,0,0)" x1="7823" y1="10949" x2="7949" y2="10823"/>
   <line fill="rgb(128,0,0)" stroke="rgb(128,0,0)" x1="7800" y1="11084" x2="8084" y2="10800"/>
   <line fill="rgb(128,0,0)" stroke="rgb(128,0,0)" x1="7800" y1="11196" x2="8196" y2="10800"/>
   <line fill="rgb(128,0,0)" stroke="rgb(128,0,0)" x1="7800" y1="11308" x2="8308" y2="10800"/>
   <line fill="rgb(128,0,0)" stroke="rgb(128,0,0)" x1="7800" y1="11420" x2="8420" y2="10800"/>
   <line fill="rgb(128,0,0)" stroke="rgb(128,0,0)" x1="7800" y1="11532" x2="8532" y2="10800"/>
   <line fill="rgb(128,0,0)" stroke="rgb(128,0,0)" x1="7800" y1="11644" x2="8644" y2="10800"/>
   <line fill="rgb(128,0,0)" stroke="rgb(128,0,0)" x1="7800" y1="11756" x2="8756" y2="10800"/>
   <line fill="rgb(128,0,0)" stroke="rgb(128,0,0)" x1="7800" y1="11868" x2="8868" y2="10800"/>
   <line fill="rgb(128,0,0)" stroke="rgb(128,0,0)" x1="7800" y1="11980" x2="8980" y2="10800"/>
   <line fill="rgb(128,0,0)" stroke="rgb(128,0,0)" x1="7800" y1="12092" x2="9092" y2="10800"/>
   <line fill="rgb(128,0,0)" stroke="rgb(128,0,0)" x1="7800" y1="12204" x2="9204" y2="10800"/>
   <line fill="rgb(128,0,0)" stroke="rgb(128,0,0)" x1="7800" y1="12316" x2="9316" y2="10800"/>
   <line fill="rgb(128,0,0)" stroke="rgb(128,0,0)" x1="7800" y1="12428" x2="9428" y2="10800"/>
   <line fill="rgb(128,0,0)" stroke="rgb(128,0,0)" x1="7800" y1="12540" x2="9540" y2="10800"/>
   <line fill="rgb(128,0,0)" stroke="rgb(128,0,0)" x1="7800" y1="12652" x2="9652" y2="10800"/>
   <line fill="rgb(128,0,0)" stroke="rgb(128,0,0)" x1="7800" y1="12764" x2="9764" y2="10800"/>
   <line fill="rgb(128,0,0)" stroke="rgb(128,0,0)" x1="7800" y1="12876" x2="9876" y2="10800"/>
   <line fill="rgb(128,0,0)" stroke="rgb(128,0,0)" x1="7800" y1="12988" x2="9988" y2="10800"/>
   <line fill="rgb(128,0,0)" stroke="rgb(128,0,0)" x1="7800" y1="13100" x2="10100" y2="10800"/>
   <line fill="rgb(128,0,0)" stroke="rgb(128,0,0)" x1="7800" y1="13212" x2="10212" y2="10800"/>
   <line fill="rgb(128,0,0)" stroke="rgb(128,0,0)" x1="7800" y1="13324" x2="10324" y2="10800"/>
   <line fill="rgb(128,0,0)" stroke="rgb(128,0,0)" x1="7800" y1="13436" x2="10436" y2="10800"/>
   <line fill="rgb(128,0,0)" stroke="rgb(128,0,0)" x1="7800" y1="13548" x2="10548" y2="10800"/>
   <line fill="rgb(128,0,0)" stroke="rgb(128,0,0)" x1="7800" y1="13660" x2="10660" y2="10800"/>
   <line fill="rgb(128,0,0)" stroke="rgb(128,0,0)" x1="7800" y1="13772" x2="10772" y2="10800"/>
   <line fill="rgb(128,0,0)" stroke="rgb(128,0,0)" x1="7800" y1="13884" x2="10884" y2="10800"/>
   <line fill="rgb(128,0,0)" stroke="rgb(128,0,0)" x1="7800" y1="13996" x2="10996" y2="10800"/>
   <line fill="rgb(128,0,0)" stroke="rgb(128,0,0)" x1="7800" y1="14108" x2="11108" y2="10800"/>
   <line fill="rgb(128,0,0)" stroke="rgb(128,0,0)" x1="7800" y1="14220" x2="11220" y2="10800"/>
   <line fill="rgb(128,0,0)" stroke="rgb(128,0,0)" x1="7800" y1="14332" x2="11332" y2="10800"/>
   <line fill="rgb(128,0,0)" stroke="rgb(128,0,0)" x1="7800" y1="14444" x2="11444" y2="10800"/>
   <line fill="rgb(128,0,0)" stroke="rgb(128,0,0)" x1="7800" y1="14556" x2="11556" y2="10800"/>
   <line fill="rgb(128,0,0)" stroke="rgb(128,0,0)" x1="7800" y1="14668" x2="11668" y2="10800"/>
   <line fill="rgb(128,0,0)" stroke="rgb(128,0,0)" x1="7800" y1="14780" x2="11780" y2="10800"/>
   <line fill="rgb(128,0,0)" stroke="rgb(128,0,0)" x1="7800" y1="14892" x2="11892" y2="10800"/>
   <line fill="rgb(128,0,0)" stroke="rgb(128,0,0)" x1="7800" y1="15004" x2="12004" y2="10800"/>
   <line fill="rgb(128,0,0)" stroke="rgb(128,0,0)" x1="7800" y1="15116" x2="12116" y2="10800"/>
   <line fill="rgb(128,0,0)" stroke="rgb(128,0,0)" x1="7800" y1="15228" x2="12228" y2="10800"/>
   <line fill="rgb(128,0,0)" stroke="rgb(128,0,0)" x1="7800" y1="15340" x2="12340" y2="10800"/>
   <line fill="rgb(128,0,0)" stroke="rgb(128,0,0)" x1="7800" y1="15452" x2="12452" y2="10800"/>
   <line fill="rgb(128,0,0)" stroke="rgb(128,0,0)" x1="7800" y1="15564" x2="12564" y2="10800"/>
   <line fill="rgb(128,0,0)" stroke="rgb(128,0,0)" x1="7800" y1="15676" x2="12676" y2="10800"/>
   <line fill="rgb(128,0,0)" stroke="rgb(128,0,0)" x1="7800" y1="15788" x2="12788" y2="10800"/>
   <line fill="rgb(128,0,0)" stroke="rgb(128,0,0)" x1="7800" y1="15900" x2="12900" y2="10800"/>
   <line fill="rgb(128,0,0)" stroke="rgb(128,0,0)" x1="7800" y1="16012" x2="13006" y2="10806"/>
   <line fill="rgb(128,0,0)" stroke="rgb(128,0,0)" x1="7800" y1="16124" x2="13083" y2="10841"/>
   <line fill="rgb(128,0,0)" stroke="rgb(128,0,0)" x1="7800" y1="16236" x2="13142" y2="10894"/>
   <line fill="rgb(128,0,0)" stroke="rgb(128,0,0)" x1="7800" y1="16348" x2="13184" y2="10964"/>
   <line fill="rgb(128,0,0)" stroke="rgb(128,0,0)" x1="7800" y1="16460" x2="13201" y2="11059"/>
   <line fill="rgb(128,0,0)" stroke="rgb(128,0,0)" x1="7800" y1="16572" x2="13201" y2="11171"/>
   <line fill="rgb(128,0,0)" stroke="rgb(128,0,0)" x1="7800" y1="16684" x2="13201" y2="11283"/>
   <line fill="rgb(128,0,0)" stroke="rgb(128,0,0)" x1="7800" y1="16796" x2="13201" y2="11395"/>
   <line fill="rgb(128,0,0)" stroke="rgb(128,0,0)" x1="7800" y1="16908" x2="13201" y2="11507"/>
   <line fill="rgb(128,0,0)" stroke="rgb(128,0,0)" x1="7800" y1="17020" x2="13201" y2="11619"/>
   <line fill="rgb(128,0,0)" stroke="rgb(128,0,0)" x1="7800" y1="17132" x2="13201" y2="11731"/>
   <line fill="rgb(128,0,0)" stroke="rgb(128,0,0)" x1="7800" y1="17244" x2="13201" y2="11843"/>
   <line fill="rgb(128,0,0)" stroke="rgb(128,0,0)" x1="7800" y1="17356" x2="13201" y2="11955"/>
   <line fill="rgb(128,0,0)" stroke="rgb(128,0,0)" x1="7800" y1="17468" x2="13201" y2="12067"/>
   <line fill="rgb(128,0,0)" stroke="rgb(128,0,0)" x1="7800" y1="17580" x2="13201" y2="12179"/>
   <line fill="rgb(128,0,0)" stroke="rgb(128,0,0)" x1="7800" y1="17692" x2="13201" y2="12291"/>
   <line fill="rgb(128,0,0)" stroke="rgb(128,0,0)" x1="7800" y1="17804" x2="13201" y2="12403"/>
   <line fill="rgb(128,0,0)" stroke="rgb(128,0,0)" x1="7800" y1="17916" x2="13201" y2="12515"/>
   <line fill="rgb(128,0,0)" stroke="rgb(128,0,0)" x1="7800" y1="18028" x2="13201" y2="12627"/>
   <line fill="rgb(128,0,0)" stroke="rgb(128,0,0)" x1="7800" y1="18140" x2="13201" y2="12739"/>
   <line fill="rgb(128,0,0)" stroke="rgb(128,0,0)" x1="7800" y1="18252" x2="13201" y2="12851"/>
   <line fill="rgb(128,0,0)" stroke="rgb(128,0,0)" x1="7800" y1="18364" x2="13201" y2="12963"/>
   <line fill="rgb(128,0,0)" stroke="rgb(128,0,0)" x1="7800" y1="18476" x2="13201" y2="13075"/>
   <line fill="rgb(128,0,0)" stroke="rgb(128,0,0)" x1="7800" y1="18588" x2="13201" y2="13187"/>
   <line fill="rgb(128,0,0)" stroke="rgb(128,0,0)" x1="7804" y1="18696" x2="13201" y2="13299"/>
   <line fill="rgb(128,0,0)" stroke="rgb(128,0,0)" x1="7837" y1="18775" x2="13201" y2="13411"/>
   <line fill="rgb(128,0,0)" stroke="rgb(128,0,0)" x1="7888" y1="18836" x2="13201" y2="13523"/>
   <line fill="rgb(128,0,0)" stroke="rgb(128,0,0)" x1="7955" y1="18881" x2="13201" y2="13635"/>
   <line fill="rgb(128,0,0)" stroke="rgb(128,0,0)" x1="8047" y1="18901" x2="13201" y2="13747"/>
   <line fill="rgb(128,0,0)" stroke="rgb(128,0,0)" x1="8159" y1="18901" x2="13201" y2="13859"/>
   <line fill="rgb(128,0,0)" stroke="rgb(128,0,0)" x1="8271" y1="18901" x2="13201" y2="13971"/>
   <line fill="rgb(128,0,0)" stroke="rgb(128,0,0)" x1="8383" y1="18901" x2="13201" y2="14083"/>
   <line fill="rgb(128,0,0)" stroke="rgb(128,0,0)" x1="8495" y1="18901" x2="13201" y2="14195"/>
   <line fill="rgb(128,0,0)" stroke="rgb(128,0,0)" x1="8607" y1="18901" x2="13201" y2="14307"/>
   <line fill="rgb(128,0,0)" stroke="rgb(128,0,0)" x1="8719" y1="18901" x2="13201" y2="14419"/>
   <line fill="rgb(128,0,0)" stroke="rgb(128,0,0)" x1="8831" y1="18901" x2="13201" y2="14531"/>
   <line fill="rgb(128,0,0)" stroke="rgb(128,0,0)" x1="8943" y1="18901" x2="13201" y2="14643"/>
   <line fill="rgb(128,0,0)" stroke="rgb(128,0,0)" x1="9055" y1="18901" x2="13201" y2="14755"/>
   <line fill="rgb(128,0,0)" stroke="rgb(128,0,0)" x1="9167" y1="18901" x2="13201" y2="14867"/>
   <line fill="rgb(128,0,0)" stroke="rgb(128,0,0)" x1="9279" y1="18901" x2="13201" y2="14979"/>
   <line fill="rgb(128,0,0)" stroke="rgb(128,0,0)" x1="9391" y1="18901" x2="13201" y2="15091"/>
   <line fill="rgb(128,0,0)" stroke="rgb(128,0,0)" x1="9503" y1="18901" x2="13201" y2="15203"/>
   <line fill="rgb(128,0,0)" stroke="rgb(128,0,0)" x1="9615" y1="18901" x2="13201" y2="15315"/>
   <line fill="rgb(128,0,0)" stroke="rgb(128,0,0)" x1="9727" y1="18901" x2="13201" y2="15427"/>
   <line fill="rgb(128,0,0)" stroke="rgb(128,0,0)" x1="9839" y1="18901" x2="13201" y2="15539"/>
   <line fill="rgb(128,0,0)" stroke="rgb(128,0,0)" x1="9951" y1="18901" x2="13201" y2="15651"/>
   <line fill="rgb(128,0,0)" stroke="rgb(128,0,0)" x1="10063" y1="18901" x2="13201" y2="15763"/>
   <line fill="rgb(128,0,0)" stroke="rgb(128,0,0)" x1="10175" y1="18901" x2="13201" y2="15875"/>
   <line fill="rgb(128,0,0)" stroke="rgb(128,0,0)" x1="10287" y1="18901" x2="13201" y2="15987"/>
   <line fill="rgb(128,0,0)" stroke="rgb(128,0,0)" x1="10399" y1="18901" x2="13201" y2="16099"/>
   <line fill="rgb(128,0,0)" stroke="rgb(128,0,0)" x1="10511" y1="18901" x2="13201" y2="16211"/>
   <line fill="rgb(128,0,0)" stroke="rgb(128,0,0)" x1="10623" y1="18901" x2="13201" y2="16323"/>
   <line fill="rgb(128,0,0)" stroke="rgb(128,0,0)" x1="10735" y1="18901" x2="13201" y2="16435"/>
   <line fill="rgb(128,0,0)" stroke="rgb(128,0,0)" x1="10847" y1="18901" x2="13201" y2="16547"/>
   <line fill="rgb(128,0,0)" stroke="rgb(128,0,0)" x1="10959" y1="18901" x2="13201" y2="16659"/>
   <line fill="rgb(128,0,0)" stroke="rgb(128,0,0)" x1="11071" y1="18901" x2="13201" y2="16771"/>
   <line fill="rgb(128,0,0)" stroke="rgb(128,0,0)" x1="11183" y1="18901" x2="13201" y2="16883"/>
   <line fill="rgb(128,0,0)" stroke="rgb(128,0,0)" x1="11295" y1="18901" x2="13201" y2="16995"/>
   <line fill="rgb(128,0,0)" stroke="rgb(128,0,0)" x1="11407" y1="18901" x2="13201" y2="17107"/>
   <line fill="rgb(128,0,0)" stroke="rgb(128,0,0)" x1="11519" y1="18901" x2="13201" y2="17219"/>
   <line fill="rgb(128,0,0)" stroke="rgb(128,0,0)" x1="11631" y1="18901" x2="13201" y2="17331"/>
   <line fill="rgb(128,0,0)" stroke="rgb(128,0,0)" x1="11743" y1="18901" x2="13201" y2="17443"/>
   <line fill="rgb(128,0,0)" stroke="rgb(128,0,0)" x1="11855" y1="18901" x2="13201" y2="17555"/>
   <line fill="rgb(128,0,0)" stroke="rgb(128,0,0)" x1="11967" y1="18901" x2="13201" y2="17667"/>
   <line fill="rgb(128,0,0)" stroke="rgb(128,0,0)" x1="12079" y1="18901" x2="13201" y2="17779"/>
   <line fill="rgb(128,0,0)" stroke="rgb(128,0,0)" x1="12191" y1="18901" x2="13201" y2="17891"/>
   <line fill="rgb(128,0,0)" stroke="rgb(128,0,0)" x1="12303" y1="18901" x2="13201" y2="18003"/>
   <line fill="rgb(128,0,0)" stroke="rgb(128,0,0)" x1="12415" y1="18901" x2="13201" y2="18115"/>
   <line fill="rgb(128,0,0)" stroke="rgb(128,0,0)" x1="12527" y1="18901" x2="13201" y2="18227"/>
   <line fill="rgb(128,0,0)" stroke="rgb(128,0,0)" x1="12639" y1="18901" x2="13201" y2="18339"/>
   <line fill="rgb(128,0,0)" stroke="rgb(128,0,0)" x1="12751" y1="18901" x2="13201" y2="18451"/>
   <line fill="rgb(128,0,0)" stroke="rgb(128,0,0)" x1="12863" y1="18901" x2="13201" y2="18563"/>
   <line fill="rgb(128,0,0)" stroke="rgb(128,0,0)" x1="12976" y1="18900" x2="13200" y2="18676"/>
   <line fill="rgb(128,0,0)" stroke="rgb(128,0,0)" x1="12952" y1="10800" x2="13201" y2="11049"/>
   <line fill="rgb(128,0,0)" stroke="rgb(128,0,0)" x1="12840" y1="10800" x2="13201" y2="11161"/>
   <line fill="rgb(128,0,0)" stroke="rgb(128,0,0)" x1="12728" y1="10800" x2="13201" y2="11273"/>
   <line fill="rgb(128,0,0)" stroke="rgb(128,0,0)" x1="12616" y1="10800" x2="13201" y2="11385"/>
   <line fill="rgb(128,0,0)" stroke="rgb(128,0,0)" x1="12504" y1="10800" x2="13201" y2="11497"/>
   <line fill="rgb(128,0,0)" stroke="rgb(128,0,0)" x1="12392" y1="10800" x2="13201" y2="11609"/>
   <line fill="rgb(128,0,0)" stroke="rgb(128,0,0)" x1="12280" y1="10800" x2="13201" y2="11721"/>
   <line fill="rgb(128,0,0)" stroke="rgb(128,0,0)" x1="12168" y1="10800" x2="13201" y2="11833"/>
   <line fill="rgb(128,0,0)" stroke="rgb(128,0,0)" x1="12056" y1="10800" x2="13201" y2="11945"/>
   <line fill="rgb(128,0,0)" stroke="rgb(128,0,0)" x1="11944" y1="10800" x2="13201" y2="12057"/>
   <line fill="rgb(128,0,0)" stroke="rgb(128,0,0)" x1="11832" y1="10800" x2="13201" y2="12169"/>
   <line fill="rgb(128,0,0)" stroke="rgb(128,0,0)" x1="11720" y1="10800" x2="13201" y2="12281"/>
   <line fill="rgb(128,0,0)" stroke="rgb(128,0,0)" x1="11608" y1="10800" x2="13201" y2="12393"/>
   <line fill="rgb(128,0,0)" stroke="rgb(128,0,0)" x1="11496" y1="10800" x2="13201" y2="12505"/>
   <line fill="rgb(128,0,0)" stroke="rgb(128,0,0)" x1="11384" y1="10800" x2="13201" y2="12617"/>
   <line fill="rgb(128,0,0)" stroke="rgb(128,0,0)" x1="11272" y1="10800" x2="13201" y2="12729"/>
   <line fill="rgb(128,0,0)" stroke="rgb(128,0,0)" x1="11160" y1="10800" x2="13201" y2="12841"/>
   <line fill="rgb(128,0,0)" stroke="rgb(128,0,0)" x1="11048" y1="10800" x2="13201" y2="12953"/>
   <line fill="rgb(128,0,0)" stroke="rgb(128,0,0)" x1="10936" y1="10800" x2="13201" y2="13065"/>
   <line fill="rgb(128,0,0)" stroke="rgb(128,0,0)" x1="10824" y1="10800" x2="13201" y2="13177"/>
   <line fill="rgb(128,0,0)" stroke="rgb(128,0,0)" x1="10712" y1="10800" x2="13201" y2="13289"/>
   <line fill="rgb(128,0,0)" stroke="rgb(128,0,0)" x1="10600" y1="10800" x2="13201" y2="13401"/>
   <line fill="rgb(128,0,0)" stroke="rgb(128,0,0)" x1="10488" y1="10800" x2="13201" y2="13513"/>
   <line fill="rgb(128,0,0)" stroke="rgb(128,0,0)" x1="10376" y1="10800" x2="13201" y2="13625"/>
   <line fill="rgb(128,0,0)" stroke="rgb(128,0,0)" x1="10264" y1="10800" x2="13201" y2="13737"/>
   <line fill="rgb(128,0,0)" stroke="rgb(128,0,0)" x1="10152" y1="10800" x2="13201" y2="13849"/>
   <line fill="rgb(128,0,0)" stroke="rgb(128,0,0)" x1="10040" y1="10800" x2="13201" y2="13961"/>
   <line fill="rgb(128,0,0)" stroke="rgb(128,0,0)" x1="9928" y1="10800" x2="13201" y2="14073"/>
   <line fill="rgb(128,0,0)" stroke="rgb(128,0,0)" x1="9816" y1="10800" x2="13201" y2="14185"/>
   <line fill="rgb(128,0,0)" stroke="rgb(128,0,0)" x1="9704" y1="10800" x2="13201" y2="14297"/>
   <line fill="rgb(128,0,0)" stroke="rgb(128,0,0)" x1="9592" y1="10800" x2="13201" y2="14409"/>
   <line fill="rgb(128,0,0)" stroke="rgb(128,0,0)" x1="9480" y1="10800" x2="13201" y2="14521"/>
   <line fill="rgb(128,0,0)" stroke="rgb(128,0,0)" x1="9368" y1="10800" x2="13201" y2="14633"/>
   <line fill="rgb(128,0,0)" stroke="rgb(128,0,0)" x1="9256" y1="10800" x2="13201" y2="14745"/>
   <line fill="rgb(128,0,0)" stroke="rgb(128,0,0)" x1="9144" y1="10800" x2="13201" y2="14857"/>
   <line fill="rgb(128,0,0)" stroke="rgb(128,0,0)" x1="9032" y1="10800" x2="13201" y2="14969"/>
   <line fill="rgb(128,0,0)" stroke="rgb(128,0,0)" x1="8920" y1="10800" x2="13201" y2="15081"/>
   <line fill="rgb(128,0,0)" stroke="rgb(128,0,0)" x1="8808" y1="10800" x2="13201" y2="15193"/>
   <line fill="rgb(128,0,0)" stroke="rgb(128,0,0)" x1="8696" y1="10800" x2="13201" y2="15305"/>
   <line fill="rgb(128,0,0)" stroke="rgb(128,0,0)" x1="8584" y1="10800" x2="13201" y2="15417"/>
   <line fill="rgb(128,0,0)" stroke="rgb(128,0,0)" x1="8472" y1="10800" x2="13201" y2="15529"/>
   <line fill="rgb(128,0,0)" stroke="rgb(128,0,0)" x1="8360" y1="10800" x2="13201" y2="15641"/>
   <line fill="rgb(128,0,0)" stroke="rgb(128,0,0)" x1="8248" y1="10800" x2="13201" y2="15753"/>
   <line fill="rgb(128,0,0)" stroke="rgb(128,0,0)" x1="8136" y1="10800" x2="13201" y2="15865"/>
   <line fill="rgb(128,0,0)" stroke="rgb(128,0,0)" x1="8025" y1="10801" x2="13201" y2="15977"/>
   <line fill="rgb(128,0,0)" stroke="rgb(128,0,0)" x1="7940" y1="10828" x2="13201" y2="16089"/>
   <line fill="rgb(128,0,0)" stroke="rgb(128,0,0)" x1="7876" y1="10876" x2="13201" y2="16201"/>
   <line fill="rgb(128,0,0)" stroke="rgb(128,0,0)" x1="7828" y1="10940" x2="13201" y2="16313"/>
   <line fill="rgb(128,0,0)" stroke="rgb(128,0,0)" x1="7801" y1="11025" x2="13201" y2="16425"/>
   <line fill="rgb(128,0,0)" stroke="rgb(128,0,0)" x1="7800" y1="11136" x2="13201" y2="16537"/>
   <line fill="rgb(128,0,0)" stroke="rgb(128,0,0)" x1="7800" y1="11248" x2="13201" y2="16649"/>
   <line fill="rgb(128,0,0)" stroke="rgb(128,0,0)" x1="7800" y1="11360" x2="13201" y2="16761"/>
   <line fill="rgb(128,0,0)" stroke="rgb(128,0,0)" x1="7800" y1="11472" x2="13201" y2="16873"/>
   <line fill="rgb(128,0,0)" stroke="rgb(128,0,0)" x1="7800" y1="11584" x2="13201" y2="16985"/>
   <line fill="rgb(128,0,0)" stroke="rgb(128,0,0)" x1="7800" y1="11696" x2="13201" y2="17097"/>
   <line fill="rgb(128,0,0)" stroke="rgb(128,0,0)" x1="7800" y1="11808" x2="13201" y2="17209"/>
   <line fill="rgb(128,0,0)" stroke="rgb(128,0,0)" x1="7800" y1="11920" x2="13201" y2="17321"/>
   <line fill="rgb(128,0,0)" stroke="rgb(128,0,0)" x1="7800" y1="12032" x2="13201" y2="17433"/>
   <line fill="rgb(128,0,0)" stroke="rgb(128,0,0)" x1="7800" y1="12144" x2="13201" y2="17545"/>
   <line fill="rgb(128,0,0)" stroke="rgb(128,0,0)" x1="7800" y1="12256" x2="13201" y2="17657"/>
   <line fill="rgb(128,0,0)" stroke="rgb(128,0,0)" x1="7800" y1="12368" x2="13201" y2="17769"/>
   <line fill="rgb(128,0,0)" stroke="rgb(128,0,0)" x1="7800" y1="12480" x2="13201" y2="17881"/>
   <line fill="rgb(128,0,0)" stroke="rgb(128,0,0)" x1="7800" y1="12592" x2="13201" y2="17993"/>
   <line fill="rgb(128,0,0)" stroke="rgb(128,0,0)" x1="7800" y1="12704" x2="13201" y2="18105"/>
   <line fill="rgb(128,0,0)" stroke="rgb(128,0,0)" x1="7800" y1="12816" x2="13201" y2="18217"/>
   <line fill="rgb(128,0,0)" stroke="rgb(128,0,0)" x1="7800" y1="12928" x2="13201" y2="18329"/>
   <line fill="rgb(128,0,0)" stroke="rgb(128,0,0)" x1="7800" y1="13040" x2="13201" y2="18441"/>
   <line fill="rgb(128,0,0)" stroke="rgb(128,0,0)" x1="7800" y1="13152" x2="13201" y2="18553"/>
   <line fill="rgb(128,0,0)" stroke="rgb(128,0,0)" x1="7800" y1="13264" x2="13201" y2="18665"/>
   <line fill="rgb(128,0,0)" stroke="rgb(128,0,0)" x1="7800" y1="13376" x2="13177" y2="18753"/>
   <line fill="rgb(128,0,0)" stroke="rgb(128,0,0)" x1="7800" y1="13488" x2="13131" y2="18819"/>
   <line fill="rgb(128,0,0)" stroke="rgb(128,0,0)" x1="7800" y1="13600" x2="13069" y2="18869"/>
   <line fill="rgb(128,0,0)" stroke="rgb(128,0,0)" x1="7800" y1="13712" x2="12987" y2="18899"/>
   <line fill="rgb(128,0,0)" stroke="rgb(128,0,0)" x1="7800" y1="13824" x2="12877" y2="18901"/>
   <line fill="rgb(128,0,0)" stroke="rgb(128,0,0)" x1="7800" y1="13936" x2="12765" y2="18901"/>
   <line fill="rgb(128,0,0)" stroke="rgb(128,0,0)" x1="7800" y1="14048" x2="12653" y2="18901"/>
   <line fill="rgb(128,0,0)" stroke="rgb(128,0,0)" x1="7800" y1="14160" x2="12541" y2="18901"/>
   <line fill="rgb(128,0,0)" stroke="rgb(128,0,0)" x1="7800" y1="14272" x2="12429" y2="18901"/>
   <line fill="rgb(128,0,0)" stroke="rgb(128,0,0)" x1="7800" y1="14384" x2="12317" y2="18901"/>
   <line fill="rgb(128,0,0)" stroke="rgb(128,0,0)" x1="7800" y1="14496" x2="12205" y2="18901"/>
   <line fill="rgb(128,0,0)" stroke="rgb(128,0,0)" x1="7800" y1="14608" x2="12093" y2="18901"/>
   <line fill="rgb(128,0,0)" stroke="rgb(128,0,0)" x1="7800" y1="14720" x2="11981" y2="18901"/>
   <line fill="rgb(128,0,0)" stroke="rgb(128,0,0)" x1="7800" y1="14832" x2="11869" y2="18901"/>
   <line fill="rgb(128,0,0)" stroke="rgb(128,0,0)" x1="7800" y1="14944" x2="11757" y2="18901"/>
   <line fill="rgb(128,0,0)" stroke="rgb(128,0,0)" x1="7800" y1="15056" x2="11645" y2="18901"/>
   <line fill="rgb(128,0,0)" stroke="rgb(128,0,0)" x1="7800" y1="15168" x2="11533" y2="18901"/>
   <line fill="rgb(128,0,0)" stroke="rgb(128,0,0)" x1="7800" y1="15280" x2="11421" y2="18901"/>
   <line fill="rgb(128,0,0)" stroke="rgb(128,0,0)" x1="7800" y1="15392" x2="11309" y2="18901"/>
   <line fill="rgb(128,0,0)" stroke="rgb(128,0,0)" x1="7800" y1="15504" x2="11197" y2="18901"/>
   <line fill="rgb(128,0,0)" stroke="rgb(128,0,0)" x1="7800" y1="15616" x2="11085" y2="18901"/>
   <line fill="rgb(128,0,0)" stroke="rgb(128,0,0)" x1="7800" y1="15728" x2="10973" y2="18901"/>
   <line fill="rgb(128,0,0)" stroke="rgb(128,0,0)" x1="7800" y1="15840" x2="10861" y2="18901"/>
   <line fill="rgb(128,0,0)" stroke="rgb(128,0,0)" x1="7800" y1="15952" x2="10749" y2="18901"/>
   <line fill="rgb(128,0,0)" stroke="rgb(128,0,0)" x1="7800" y1="16064" x2="10637" y2="18901"/>
   <line fill="rgb(128,0,0)" stroke="rgb(128,0,0)" x1="7800" y1="16176" x2="10525" y2="18901"/>
   <line fill="rgb(128,0,0)" stroke="rgb(128,0,0)" x1="7800" y1="16288" x2="10413" y2="18901"/>
   <line fill="rgb(128,0,0)" stroke="rgb(128,0,0)" x1="7800" y1="16400" x2="10301" y2="18901"/>
   <line fill="rgb(128,0,0)" stroke="rgb(128,0,0)" x1="7800" y1="16512" x2="10189" y2="18901"/>
   <line fill="rgb(128,0,0)" stroke="rgb(128,0,0)" x1="7800" y1="16624" x2="10077" y2="18901"/>
   <line fill="rgb(128,0,0)" stroke="rgb(128,0,0)" x1="7800" y1="16736" x2="9965" y2="18901"/>
   <line fill="rgb(128,0,0)" stroke="rgb(128,0,0)" x1="7800" y1="16848" x2="9853" y2="18901"/>
   <line fill="rgb(128,0,0)" stroke="rgb(128,0,0)" x1="7800" y1="16960" x2="9741" y2="18901"/>
   <line fill="rgb(128,0,0)" stroke="rgb(128,0,0)" x1="7800" y1="17072" x2="9629" y2="18901"/>
   <line fill="rgb(128,0,0)" stroke="rgb(128,0,0)" x1="7800" y1="17184" x2="9517" y2="18901"/>
   <line fill="rgb(128,0,0)" stroke="rgb(128,0,0)" x1="7800" y1="17296" x2="9405" y2="18901"/>
   <line fill="rgb(128,0,0)" stroke="rgb(128,0,0)" x1="7800" y1="17408" x2="9293" y2="18901"/>
   <line fill="rgb(128,0,0)" stroke="rgb(128,0,0)" x1="7800" y1="17520" x2="9181" y2="18901"/>
   <line fill="rgb(128,0,0)" stroke="rgb(128,0,0)" x1="7800" y1="17632" x2="9069" y2="18901"/>
   <line fill="rgb(128,0,0)" stroke="rgb(128,0,0)" x1="7800" y1="17744" x2="8957" y2="18901"/>
   <line fill="rgb(128,0,0)" stroke="rgb(128,0,0)" x1="7800" y1="17856" x2="8845" y2="18901"/>
   <line fill="rgb(128,0,0)" stroke="rgb(128,0,0)" x1="7800" y1="17968" x2="8733" y2="18901"/>
   <line fill="rgb(128,0,0)" stroke="rgb(128,0,0)" x1="7800" y1="18080" x2="8621" y2="18901"/>
   <line fill="rgb(128,0,0)" stroke="rgb(128,0,0)" x1="7800" y1="18192" x2="8509" y2="18901"/>
   <line fill="rgb(128,0,0)" stroke="rgb(128,0,0)" x1="7800" y1="18304" x2="8397" y2="18901"/>
   <line fill="rgb(128,0,0)" stroke="rgb(128,0,0)" x1="7800" y1="18416" x2="8285" y2="18901"/>
   <line fill="rgb(128,0,0)" stroke="rgb(128,0,0)" x1="7800" y1="18528" x2="8173" y2="18901"/>
   <line fill="rgb(128,0,0)" stroke="rgb(128,0,0)" x1="7800" y1="18640" x2="8061" y2="18901"/>
   <path fill="none" stroke="rgb(128,128,128)" id="Drawing_3_0" stroke-linejoin="round" d="M 8042,10800 C 7921,10800 7800,10921 7800,11042 L 7800,18658 C 7800,18779 7921,18901 8042,18901 L 12958,18901 C 13079,18901 13201,18779 13201,18658 L 13201,11042 C 13201,10921 13079,10800 12958,10800 L 8042,10800 Z"/>
   <rect fill="none" stroke="none" x="7800" y="10800" width="5401" height="8101"/>
  </g>
 </g>
</svg>